<svg width="270" height="114" viewBox="0 0 270 114" fill="none" xmlns="http://www.w3.org/2000/svg">
<path d="M255.88 99.0974C256.292 100.036 256.652 100.997 256.959 101.975C257.461 103.667 257.692 105.428 257.645 107.192C257.573 109.733 255.434 110.069 253.531 110.525C253.123 110.616 251.416 110.764 250.917 110.817C245.973 111.297 245.321 110.726 239.514 110.956C237.73 111.028 235.395 111.436 234.896 109.916C234.676 109.249 235.376 106.698 235.592 105.825C236.268 102.814 235.961 101.394 235.615 99.3611C235.078 96.1962 231.573 87.1619 231.573 87.1619C231.209 86.2939 230.691 85.4548 230.25 84.6204C228.838 81.8529 227.235 79.1867 225.454 76.641C224.006 74.6932 222.386 72.8782 220.616 71.2175C219.805 70.4263 215.59 71.4189 214.564 71.6155C213.352 71.8679 212.17 72.2505 211.04 72.7568C209.403 73.4807 207.587 73.6946 205.827 73.3706C200.13 72.4115 196.021 66.4558 198.687 60.9699C201.085 56.0595 207.175 54.6785 212.114 54.2949C217.302 53.8969 222.999 54.7744 227.238 57.9729C228.027 58.5747 228.757 59.249 229.42 59.9869C230.188 60.2988 230.853 60.8206 231.338 61.4926C233.323 64.1396 236.085 66.5181 237.956 69.472C238.373 70.0139 238.78 70.5653 239.188 71.112C239.349 71.2265 239.496 71.3602 239.624 71.51C240.857 72.9178 241.979 74.4183 242.981 75.9984C244.249 77.3445 245.347 78.8405 246.251 80.4533C246.251 80.4533 253.401 92.6669 255.88 99.0974Z" fill="#1AAB28"/>
<path d="M193.762 64.3506C193.28 62.2184 193.545 59.9851 194.515 58.0256C194.618 57.8143 194.758 57.6228 194.927 57.4598L195.057 57.1529C195.216 56.7971 195.509 56.5181 195.872 56.376C195.707 56.0187 195.48 55.6939 195.201 55.417C194.537 54.7708 193.648 54.4092 192.721 54.4092C191.795 54.4092 190.906 54.7708 190.242 55.417C189.096 56.4911 188.526 57.8146 187.936 59.2532C187.346 60.6918 186.253 62.4421 186.286 64.0485C186.329 66.0002 187.792 67.3237 188.972 68.724C189.995 69.942 191.019 71.1584 192.045 72.3732C193.263 73.8118 195.742 73.6343 197.004 72.3732C197.251 72.1278 197.459 71.8465 197.622 71.5388C196.381 70.1649 195.33 68.6312 194.496 66.9785C194.116 66.1461 193.868 65.2594 193.762 64.3506Z" fill="#1AAB28"/>
<path d="M36.241 108.309L29.4844 113.037H123.937L119.775 108.084L36.241 108.309Z" fill="black"/>
<path d="M120.356 108.309H36.2459V56.4767C36.2446 55.9879 36.3398 55.5036 36.526 55.0516C36.7122 54.5996 36.9857 54.1888 37.331 53.8427C37.6762 53.4966 38.0863 53.222 38.5378 53.0346C38.9893 52.8472 39.4734 52.7508 39.9622 52.7508H116.625C117.612 52.7508 118.558 53.1428 119.256 53.8407C119.954 54.5385 120.346 55.485 120.346 56.472L120.356 108.309Z" fill="black"/>
<path d="M43.5491 75.2647H61.215" stroke="white" stroke-width="2.81" stroke-miterlimit="10" stroke-linecap="round"/>
<path d="M43.5491 85.3205H61.215" stroke="white" stroke-width="2.81" stroke-miterlimit="10" stroke-linecap="round"/>
<path d="M43.5491 80.0025H55.427" stroke="white" stroke-width="2.81" stroke-miterlimit="10" stroke-linecap="round"/>
<path d="M49.1309 66.5709H53.6001" stroke="white" stroke-width="2.81" stroke-miterlimit="10" stroke-linecap="round"/>
<path d="M43.5491 90.2932H50.4016" stroke="#1AAB28" stroke-width="2.81" stroke-miterlimit="10" stroke-linecap="round"/>
<path d="M52.6841 90.2932H59.5366" stroke="#1AAB28" stroke-width="2.81" stroke-miterlimit="10" stroke-linecap="round"/>
<path d="M57.9636 80.0025H66.2883" stroke="#1AAB28" stroke-width="2.81" stroke-miterlimit="10" stroke-linecap="round"/>
<path d="M43.3188 95.2708H46.009" stroke="white" stroke-width="2.81" stroke-miterlimit="10" stroke-linecap="round"/>
<path d="M43.3188 61.5454L46.9729 63.8279L43.3812 66.5709" stroke="white" stroke-width="2.81" stroke-miterlimit="10" stroke-linecap="round"/>
<path d="M269.298 111.647C269.336 111.647 269.35 111.647 269.408 111.69C269.777 111.925 270.309 112.534 269.408 113.258C269.368 113.287 269.325 113.309 269.278 113.325H6.16009C6.16009 113.325 3.60899 113.157 1.84432 112.898C-1.19111 112.543 0.0221032 112.169 1.90186 111.973C1.70526 111.934 6.40465 111.656 6.40465 111.656L269.298 111.647Z" fill="#202020"/>
<path d="M178.781 6.01095C178.794 5.99496 178.81 5.98195 178.828 5.97283C178.847 5.96372 178.867 5.95872 178.887 5.9582C179.333 5.82872 180.11 5.89106 180.047 7.01317C180.043 7.06145 180.03 7.10856 180.009 7.15223C179.405 7.80968 178.841 8.50307 178.321 9.2286C176.864 11.2744 175.661 13.4902 174.739 15.8269C173.785 18.1416 173.2 20.5913 173.003 23.087C172.643 28.1125 173.521 33.1955 175.094 38.0244C175.806 40.4279 176.861 42.7164 178.225 44.8193C178.901 45.8252 179.724 46.7239 180.666 47.4855C181.598 48.2216 182.66 48.7762 183.797 49.1207C186.075 49.8352 188.593 49.5619 190.952 48.8714L191.623 48.6604C191.748 48.6172 191.873 48.5789 191.993 48.5309L192.731 48.248C192.731 48.248 192.88 48.2096 193.124 48.1185L194.107 47.778C194.894 47.4807 195.891 47.0875 196.711 46.7327C198.087 46.1093 198.557 45.9798 198.519 46.2148C198.159 46.7585 197.687 47.2181 197.133 47.5623C196.542 48.0121 195.919 48.4176 195.268 48.7755C194.251 49.3797 193.139 49.8832 193.139 49.8832L192.357 50.1757L191.959 50.3052L191.479 50.4586C191.168 50.5689 190.842 50.6313 190.52 50.7224C189.217 51.0485 187.879 51.2096 186.535 51.2019C185.165 51.1795 183.809 50.9199 182.527 50.4347C181.884 50.1864 181.264 49.8815 180.676 49.5235C180.096 49.1592 179.55 48.7436 179.045 48.2816C178.045 47.3834 177.176 46.3505 176.461 45.2126C175.105 42.9742 174.051 40.567 173.324 38.0532C171.79 33.138 170.927 27.9303 171.334 22.7082C171.571 20.0893 172.205 17.5216 173.214 15.0933C173.695 13.8826 174.249 12.7023 174.873 11.5591C175.489 10.4106 176.179 9.30367 176.94 8.24556C177.505 7.46165 178.12 6.71521 178.781 6.01095Z" fill="#202020"/>
<path d="M219.33 51.1827C220.769 49.888 222.841 47.6726 223.359 45.7784C226.164 35.4493 223.032 24.4249 218.237 14.8583C215.993 10.3843 213.001 6.12124 208.786 3.42148C205.304 1.18687 201.142 0.141494 197.004 0.00243046C192.856 -0.0434342 188.727 0.560084 184.766 1.79108C183.136 2.27061 180.815 2.98991 180.067 4.70662C179.779 5.37797 179.822 6.38978 179.707 6.96042C179.618 8.60204 179.756 10.2481 180.119 11.8516C180.601 13.9761 181.41 16.0128 182.517 17.8889C183.054 18.8085 183.663 19.684 184.339 20.5072C187.332 24.1403 191.46 26.6618 196.059 27.6665C197.426 27.9591 198.936 28.0837 200.116 27.3117C200.988 26.7267 201.737 25.3216 202.374 24.4873C203.559 22.9384 205.53 24.8517 205.88 26.0457C206.474 28.0981 205.506 30.3135 204.892 31.3973C204 32.9749 202.528 33.6223 201.535 35.1376C201.056 35.8953 199.933 39.1225 199.77 39.9905C199.061 43.8795 199.67 46.373 202.35 49.677C204.748 52.6597 209.121 53.0337 212.962 52.9474C214.976 52.909 217.115 52.7748 218.774 51.6239C218.969 51.4895 219.155 51.3421 219.33 51.1827Z" fill="#231F20"/>
<path d="M175.736 26.5397C175.736 26.5061 175.736 26.4917 175.736 26.439C175.835 26.2049 176.002 26.0061 176.216 25.8683C176.46 25.734 176.806 25.7053 177.261 26.1081C177.3 26.1455 177.333 26.1893 177.357 26.2376C177.513 27.2189 177.553 28.2151 177.477 29.2059C177.386 30.7164 177.237 32.1214 177.477 33.4305C177.553 33.8693 177.685 34.2964 177.87 34.7013C177.87 34.7013 177.913 34.8259 178.005 35.0321C178.134 35.2941 178.295 35.5389 178.484 35.761C179.018 36.3666 179.755 36.7556 180.556 36.8544C181.017 36.8855 181.479 36.8049 181.903 36.6194C182.157 36.5043 182.282 36.4995 182.282 36.6194C182.219 36.8668 182.074 37.0852 181.87 37.238C181.488 37.5438 181.027 37.735 180.541 37.7894C180.298 37.8271 180.051 37.8271 179.808 37.7894C179.197 37.7271 178.608 37.5323 178.081 37.2188C177.529 36.8892 177.057 36.4403 176.7 35.9049C176.538 35.6691 176.395 35.4205 176.273 35.1616C176.083 34.6984 175.943 34.2161 175.856 33.723C175.564 32.107 175.751 30.5389 175.823 29.1147C175.894 28.2559 175.865 27.3918 175.736 26.5397Z" fill="#202020"/>
<path d="M180.834 24.6168C180.834 24.6168 180.834 24.6168 180.791 24.6168C180.404 24.2351 180.176 23.7211 180.153 23.1782C180.148 23.1512 180.148 23.1236 180.153 23.0966C180.438 22.9723 180.733 22.8728 181.035 22.7993C181.675 22.6445 182.337 22.6024 182.992 22.6747C183.634 22.75 184.26 22.9264 184.847 23.1973C185.082 23.3124 185.274 23.4083 185.404 23.4899L185.605 23.6145C185.605 23.6145 185.768 23.7776 185.97 24.0077C186.178 24.2715 186.351 24.5618 186.483 24.8709C186.885 25.83 186.3 25.7484 185.806 25.5135C185.615 25.4307 185.427 25.3378 185.245 25.2353C185.053 25.1444 184.857 25.0644 184.656 24.9956C184.477 24.8831 184.291 24.7822 184.099 24.6935C183.681 24.5072 183.236 24.3874 182.781 24.3386C182.328 24.2875 181.87 24.3183 181.428 24.4297C181.225 24.4754 181.026 24.5379 180.834 24.6168Z" fill="#202020"/>
<path d="M176.734 22.9575C176.734 22.9575 176.734 22.9575 176.734 23.0007C176.406 23.4222 175.968 23.7443 175.468 23.931L175.396 23.955C175.318 23.8356 175.227 23.7261 175.123 23.6289C174.91 23.408 174.666 23.219 174.399 23.0678C174.134 22.9149 173.85 22.7972 173.555 22.7178C173.42 22.6825 173.284 22.6553 173.147 22.6363L172.385 22.1903C172.082 22.0464 171.943 21.8882 171.943 21.7108C171.96 21.6064 172.002 21.5078 172.067 21.424C172.131 21.3402 172.216 21.274 172.313 21.2312C172.476 21.1383 172.655 21.075 172.84 21.0442C172.979 21.0107 173.128 20.9915 173.243 20.9723H173.43C173.63 21.0038 173.829 21.0454 174.025 21.097C174.456 21.2154 174.87 21.3895 175.257 21.6149C175.65 21.8402 176.01 22.1195 176.326 22.4444C176.475 22.6051 176.611 22.7766 176.734 22.9575Z" fill="#202020"/>
<path d="M180.004 42.9828C180.004 42.9828 179.976 42.9828 179.971 42.9108C179.938 42.6887 179.982 42.4622 180.095 42.2683C180.278 41.988 180.522 41.7535 180.81 41.5825L180.882 41.549L181.107 41.6736C181.304 41.7602 181.51 41.8229 181.721 41.8607C182.412 41.958 183.116 41.8548 183.749 41.5633C184.095 41.4079 184.417 41.2062 184.709 40.9639C184.978 40.744 185.225 40.4983 185.447 40.2303C185.676 39.9648 185.884 39.6827 186.07 39.3863C186.07 39.3863 186.262 39.1801 186.516 38.878C186.771 38.5759 187.097 38.1875 187.394 37.8662C188.315 36.7297 188.425 37.3866 188.214 38.2929C188.141 38.6438 188.032 38.9862 187.888 39.3144C187.686 39.8514 187.408 40.3885 187.408 40.3885L187.216 40.6714C187.042 40.9189 186.854 41.1573 186.655 41.3859C186.363 41.7204 186.042 42.0285 185.696 42.3066C185.286 42.6365 184.833 42.9091 184.349 43.117C183.422 43.5323 182.394 43.669 181.39 43.5102C181.038 43.4468 180.695 43.3405 180.369 43.1938L180.004 42.9828Z" fill="#202020"/>
<path d="M191.561 49.7201C191.561 49.7201 191.561 49.7201 191.561 49.6626C191.695 49.4238 191.885 49.2213 192.115 49.0725C192.345 48.9238 192.607 48.8334 192.88 48.809C192.908 48.8019 192.938 48.8019 192.966 48.809L193.508 49.6722C193.824 50.1517 194.232 50.8279 194.649 51.4465C195.024 52.0072 195.434 52.5437 195.877 53.0529C196.236 53.4557 196.5 53.705 196.5 53.705L196.826 54.1846C197.013 54.4531 197.263 54.7984 197.459 55.1101C198.183 56.0691 197.613 56.1315 196.874 55.8294C196.591 55.7197 196.322 55.5765 196.073 55.4026C195.666 55.1484 195.268 54.8511 195.268 54.8511C195.268 54.8511 194.975 54.573 194.572 54.1174C194.093 53.5625 193.65 52.9779 193.244 52.3672C192.798 51.715 192.391 51.058 192.084 50.5689L191.561 49.7201Z" fill="#202020"/>
<path d="M209.265 51.0724C209.309 51.0692 209.352 51.0829 209.385 51.1108C209.502 51.1781 209.605 51.2678 209.687 51.3747C209.769 51.4817 209.83 51.6038 209.865 51.7342C209.922 52.0075 209.798 52.3336 209.385 52.6932C209.349 52.7229 209.309 52.7472 209.265 52.7652C208.401 52.776 207.54 52.8838 206.7 53.0865C205.554 53.355 204.408 53.7578 203.233 54.1606C202.058 54.5634 200.921 54.971 199.814 55.4457C198.723 55.8909 197.685 56.4571 196.721 57.1337C195.802 57.7629 195.042 58.5968 194.5 59.5697C194.004 60.5468 193.789 61.6423 193.877 62.7346C193.933 63.871 194.212 64.9854 194.697 66.0146C195.656 68.1149 197.301 69.9515 198.84 71.9128C200.38 73.8741 201.924 75.7826 203.511 77.6672C204.307 78.6263 205.113 79.523 205.942 80.4533C206.772 81.3836 207.592 82.3282 208.383 83.2969C209.995 85.2212 211.492 87.2387 212.867 89.339L213.26 89.9528C213.336 90.0678 213.408 90.1877 213.48 90.3076L213.907 91.0269C213.907 91.0269 213.984 91.1708 214.099 91.4201L214.55 92.4271C214.713 92.8395 214.895 93.3047 215.058 93.7842C215.215 94.2562 215.347 94.7364 215.451 95.2228C215.595 95.7332 215.669 96.2606 215.672 96.7909C215.672 97.0882 215.595 97.1793 215.499 97.1217C215.283 97.0067 214.991 96.3065 214.54 95.4913C214.54 95.5825 214.109 94.585 213.538 93.6212C212.967 92.6573 212.329 91.703 212.329 91.703L211.927 91.0269L211.711 90.696L211.461 90.3028C211.303 90.0487 211.14 89.8233 210.982 89.5547C209.628 87.5615 208.169 85.6407 206.613 83.8004C205.832 82.8749 205.041 81.9686 204.216 81.0623C203.391 80.1559 202.595 79.2209 201.818 78.281C200.24 76.4012 198.72 74.4927 197.205 72.5842C195.69 70.6756 194.021 68.7959 193 66.3503C192.741 65.7427 192.542 65.1116 192.405 64.4657C192.323 64.1444 192.285 63.8183 192.232 63.5067L192.17 62.5044C192.128 61.1311 192.46 59.7722 193.129 58.5723C193.822 57.4225 194.76 56.44 195.877 55.6951C196.929 54.9763 198.054 54.3703 199.233 53.8873C200.384 53.4077 201.554 52.9858 202.71 52.5877C203.866 52.1897 205.036 51.7821 206.283 51.4896C207.257 51.2354 208.258 51.0954 209.265 51.0724Z" fill="#202020"/>
<path d="M217.513 52.4103C217.494 52.4102 217.475 52.4053 217.458 52.3961C217.442 52.3869 217.428 52.3736 217.417 52.3576C217.217 52.1958 217.074 51.9739 217.01 51.7246C216.952 51.4465 217.01 51.1156 217.542 50.7943C217.59 50.7688 217.642 50.751 217.695 50.7415C218.678 50.8623 219.643 51.0956 220.572 51.4369C222.131 52.002 223.637 52.7049 225.07 53.5372C226.499 54.3524 227.879 55.2316 229.209 56.1746C231.859 58.0536 234.394 60.0905 236.8 62.2743C239.226 64.4445 241.496 66.7823 243.595 69.2706C245.638 71.8104 247.488 74.5002 249.129 77.3171C250.788 80.108 252.322 82.9324 253.818 85.8048C255.313 88.6953 256.608 91.685 257.693 94.7528C258.76 97.8228 259.656 100.949 260.378 104.118L260.834 106.137C260.834 106.137 260.93 106.775 261.03 107.633C261.131 108.491 261.251 109.58 261.304 110.51C261.553 113.555 260.949 112.428 260.383 110.635C260.383 110.736 260.086 109.647 259.779 108.539C259.472 107.432 259.151 106.305 259.151 106.305L258.978 105.523L258.499 103.423C257.781 100.376 256.886 97.3739 255.818 94.4316C254.732 91.4989 253.45 88.6425 251.982 85.8815C250.51 83.1003 249.004 80.3286 247.383 77.648C245.796 74.9566 244.003 72.3915 242.022 69.9755C239.978 67.6084 237.78 65.3786 235.443 63.3005C233.122 61.205 230.676 59.2513 228.12 57.4502C225.56 55.6855 222.874 54.0359 220.026 53.0145C219.214 52.717 218.371 52.5142 217.513 52.4103Z" fill="#202020"/>
<path d="M194.841 52.161C194.883 52.1677 194.92 52.19 194.946 52.2233C195.282 52.535 195.661 53.2351 194.668 53.7674C194.625 53.7885 194.58 53.8046 194.534 53.8153C194.146 53.7338 193.75 53.7031 193.354 53.7242C192.943 53.7515 192.535 53.8189 192.136 53.9256C191.892 53.988 191.657 54.0599 191.403 54.1318L191.033 54.2565C190.918 54.2949 190.842 54.338 190.741 54.3764C190.323 54.5853 189.935 54.848 189.585 55.158C188.815 55.8357 188.113 56.5874 187.49 57.4022C187.168 57.8146 186.852 58.2318 186.564 58.6634C186.283 59.0579 186.034 59.4749 185.821 59.9102C185.404 60.9172 184.982 61.9194 184.541 62.9216C183.663 64.9165 182.718 66.9017 181.663 68.8294C181.141 69.7885 180.594 70.7476 180.033 71.6779L179.131 73.1596C179.131 73.1596 177.631 75.2456 176.451 76.6122C174.533 78.9811 174.859 77.7583 175.703 76.0656C175.631 76.1375 176.182 75.1449 176.719 74.1474L177.822 72.1094L178.781 70.5078C179.318 69.5967 179.846 68.6856 180.34 67.7553C181.347 65.9091 182.258 64.0006 183.088 62.0633L184.344 59.1046C184.477 58.8346 184.624 58.572 184.785 58.3181C184.939 58.0784 185.087 57.8386 185.265 57.618C185.581 57.1385 185.907 56.7213 186.252 56.2897C186.942 55.4033 187.718 54.5873 188.569 53.8537C189.028 53.4538 189.539 53.1183 190.089 52.8563C190.237 52.7939 190.405 52.7172 190.539 52.6741L190.933 52.5446C191.201 52.4631 191.475 52.3815 191.748 52.3144C192.247 52.1829 192.758 52.0994 193.273 52.0651C193.797 52.0324 194.324 52.0646 194.841 52.161Z" fill="#202020"/>
<path d="M153.127 112.409C153.11 112.418 153.091 112.422 153.072 112.422C153.052 112.422 153.034 112.418 153.016 112.409C152.761 112.362 152.527 112.235 152.35 112.045C152.172 111.829 152.091 111.498 152.383 110.975C152.411 110.931 152.445 110.89 152.484 110.855C153.386 110.491 154.258 110.194 155.131 109.896C156.602 109.413 158.033 108.819 159.413 108.117C159.576 108.036 159.706 107.935 159.85 107.849L160.329 107.499L161.288 106.794C161.926 106.314 162.554 105.835 163.168 105.355C164.389 104.4 165.526 103.343 166.568 102.195L166.942 101.759L167.354 101.279L168.246 100.421L168.678 100.004L168.894 99.7975L169.023 99.6728C169.088 99.5965 169.168 99.5344 169.258 99.4906L169.599 99.318C169.694 99.27 169.795 99.2221 169.905 99.1789C170.118 99.0823 170.338 99.0005 170.562 98.9344C171.053 98.7857 171.568 98.7384 172.078 98.7953C172.557 98.8581 173.023 98.9956 173.459 99.2029C174.26 99.5721 174.897 99.951 175.617 100.267C177.098 100.953 178.494 101.706 179.908 102.21C180.6 102.464 181.317 102.641 182.047 102.737C182.229 102.737 182.407 102.78 182.584 102.78H182.848H182.91H183.054L184.224 102.641C185.783 102.435 187.336 102.162 188.885 101.845C195.119 100.594 201.209 98.7282 207.525 97.4238C210.699 96.7284 213.934 96.3493 217.182 96.2921H218.031C218.175 96.2921 218.314 96.2921 218.453 96.2921L219.292 96.3305C219.292 96.3305 219.455 96.3305 219.729 96.3976C220.002 96.4648 220.381 96.4935 220.817 96.5895C221.772 96.7782 222.71 97.0428 223.622 97.3807C225.061 97.9034 225.454 98.2342 225.258 98.3397C225.061 98.4452 224.299 98.3637 223.364 98.2774C223.159 98.2713 222.955 98.2488 222.755 98.2103C222.352 98.1767 221.795 98.0952 221.239 98.0712C220.117 97.9801 218.976 97.9945 218.976 97.9945L218.194 97.9561H217.235C216.851 97.9561 216.468 97.9561 216.084 97.9561C212.997 98.1141 209.929 98.5393 206.916 99.2269C200.83 100.55 194.793 102.363 188.578 103.586C187.025 103.888 185.457 104.152 183.869 104.343L183.275 104.411C183.152 104.429 183.029 104.44 182.906 104.444H182.57C182.137 104.429 181.706 104.384 181.28 104.31C180.461 104.147 179.658 103.91 178.882 103.6C177.343 102.996 176.005 102.257 174.566 101.601C173.833 101.255 173.128 100.838 172.514 100.603C172.245 100.489 171.955 100.431 171.663 100.431C171.371 100.431 171.081 100.489 170.812 100.603C170.658 100.675 170.505 100.728 170.332 100.809L170.15 100.905L170.064 100.987L169.215 101.802L168.788 102.21L168.582 102.411L168.457 102.564C168.203 102.881 167.935 103.193 167.661 103.495C166.563 104.68 165.37 105.774 164.094 106.765C163.47 107.245 162.837 107.724 162.199 108.204L161.24 108.904C161.073 109.024 160.938 109.129 160.761 109.259C160.583 109.388 160.377 109.508 160.19 109.609C158.747 110.337 157.251 110.958 155.716 111.464C154.824 111.776 153.923 112.073 153.127 112.409Z" fill="#202020"/>
<path d="M168.822 99.7975C168.844 99.8006 168.865 99.8081 168.884 99.8197C168.903 99.8312 168.919 99.8465 168.932 99.8646C169.035 99.9557 169.118 100.067 169.175 100.192C169.233 100.316 169.265 100.451 169.268 100.589C169.268 100.872 169.038 101.14 168.577 101.394C168.539 101.416 168.496 101.429 168.453 101.433C167.708 101.235 166.924 101.235 166.18 101.433C166.09 101.46 166.005 101.499 165.925 101.548L165.844 101.605C165.824 101.622 165.806 101.642 165.791 101.663C165.446 102.085 165.067 102.646 164.712 103.164L163.643 104.765C163.365 105.187 163.115 105.59 162.866 106.041C162.866 106.041 162.53 106.568 162.027 107.297C161.746 107.705 161.442 108.096 161.116 108.467C160.771 108.856 160.38 109.201 159.95 109.494C159.502 109.822 158.977 110.028 158.426 110.093C158.119 110.093 158.028 110.055 158.076 109.949C158.176 109.738 158.824 109.383 159.389 108.75C159.817 108.237 160.191 107.681 160.507 107.091C160.766 106.612 160.986 106.089 161.197 105.691L161.523 105.024C161.744 104.631 162.003 104.219 162.243 103.845L163.326 102.224C163.7 101.672 164.041 101.155 164.516 100.574C164.592 100.481 164.678 100.394 164.77 100.315C164.88 100.229 164.962 100.181 165.053 100.119C165.227 100.015 165.41 99.9263 165.599 99.855C166.138 99.6723 166.705 99.5894 167.273 99.6105C167.794 99.6192 168.313 99.6819 168.822 99.7975Z" fill="#202020"/>
<path d="M194.961 73.126C194.961 73.0925 194.99 73.0781 195.052 73.0541C195.44 72.8671 196.251 72.7136 196.409 73.8453C196.416 73.8947 196.416 73.9447 196.409 73.994C195.93 74.7996 195.416 75.5908 194.899 76.3916C192.329 80.211 189.421 83.7915 186.209 87.09C184.613 88.7443 182.982 90.3364 181.29 91.8853C180.417 92.7201 179.44 93.439 178.384 94.024C177.831 94.3257 177.247 94.5669 176.643 94.7433C176.328 94.8304 176.007 94.8977 175.684 94.9447C175.521 94.9447 175.358 94.983 175.204 94.9974H174.96H174.797C174.727 95.0094 174.656 95.0094 174.586 94.9974C174.474 94.9685 174.363 94.9332 174.255 94.8919C174.178 94.8679 174.097 94.844 174.029 94.8152L173.598 94.6474C173.325 94.5275 173.037 94.4124 172.778 94.2781C172.236 94.0192 171.723 93.7267 171.21 93.4389C170.697 93.1512 170.208 92.8299 169.728 92.4799L169.009 92.0004L168.309 91.4825C166.467 90.0774 164.723 88.5473 163.091 86.9029C159.896 83.6017 156.961 80.0586 154.311 76.3053C151.631 72.6129 149.003 68.8822 146.495 65.0651C145.238 63.147 144.011 61.2289 142.831 59.2676C142.241 58.3085 141.661 57.2967 141.11 56.2753L140.99 56.0547H140.966C140.763 55.9802 140.552 55.9287 140.338 55.9013C139.813 55.8314 139.284 55.7994 138.755 55.8054C137.647 55.8054 136.506 55.8438 135.322 55.8054C134.703 55.7966 134.087 55.7307 133.48 55.6088C132.869 55.486 132.271 55.3013 131.696 55.0573C131.391 54.9224 131.097 54.762 130.819 54.5778C130.543 54.3938 130.285 54.1852 130.047 53.9544C129.783 53.7239 129.55 53.4613 129.352 53.1728C129.103 52.8148 128.958 52.3948 128.934 51.9596C128.923 51.7424 128.941 51.5247 128.987 51.3122C129.027 51.1143 129.088 50.9213 129.169 50.7368C129.328 50.3751 129.558 50.049 129.845 49.7777C130.357 49.292 130.979 48.9381 131.658 48.7467C131.815 48.6961 131.975 48.6561 132.138 48.6268C132.255 48.6003 132.373 48.581 132.492 48.5693H132.612H132.843C132.996 48.5693 133.149 48.5693 133.298 48.5693C133.6 48.5693 133.893 48.5693 134.18 48.5693C134.18 48.5693 134.837 48.646 135.71 48.8186C136.664 49.0097 137.602 49.2742 138.515 49.6099C139.954 50.1325 140.347 50.4682 140.151 50.5689C139.954 50.6696 139.192 50.6025 138.256 50.5018C138.338 50.5353 137.475 50.4011 136.487 50.3196C135.499 50.238 134.401 50.2189 134.017 50.2237H133.878C133.624 50.2237 133.399 50.2237 133.145 50.2237H132.799H132.713L132.507 50.2572C132.397 50.2572 132.286 50.3052 132.176 50.3292C131.759 50.4426 131.372 50.6474 131.044 50.9286C130.913 51.0333 130.805 51.164 130.726 51.3125C130.648 51.4611 130.601 51.6242 130.589 51.7917C130.583 51.9186 130.617 52.0442 130.685 52.1514C130.79 52.328 130.919 52.4894 131.068 52.6309C131.15 52.7124 131.246 52.7987 131.346 52.885C131.428 52.9593 131.515 53.0282 131.605 53.0912C131.794 53.223 131.993 53.34 132.2 53.4413C132.663 53.6478 133.145 53.8084 133.639 53.9208C134.672 54.1111 135.725 54.1819 136.775 54.1318C137.924 54.0902 139.075 54.1078 140.223 54.1846L140.702 54.2469C140.86 54.2757 141.028 54.314 141.182 54.3524C141.263 54.3524 141.354 54.41 141.441 54.4339C141.539 54.4669 141.635 54.5053 141.728 54.549L142.093 54.7552C142.155 54.7851 142.214 54.8239 142.265 54.8703L142.361 55.0573L142.611 55.5369L142.807 55.8965L143.21 56.6158C143.761 57.5749 144.332 58.5339 144.912 59.493C146.078 61.4111 147.31 63.2573 148.523 65.1179C150.998 68.8246 153.568 72.4739 156.196 76.0799C158.764 79.6899 161.628 83.0791 164.76 86.2124C166.313 87.7581 167.98 89.1848 169.747 90.4802C170.184 90.8111 170.644 91.0988 171.09 91.4105C171.536 91.7222 172.006 91.9956 172.481 92.2449C172.947 92.5123 173.427 92.7541 173.919 92.969C174.159 93.0793 174.399 93.18 174.638 93.2663L174.849 93.3382H175.113C176.102 93.2376 177.054 92.9093 177.894 92.3792C178.344 92.1133 178.775 91.8169 179.184 91.492C179.395 91.3242 179.602 91.1564 179.793 91.0125L180.398 90.4467C182.014 88.9409 183.61 87.3777 185.145 85.7808C188.224 82.5994 191.016 79.1526 193.489 75.4805C193.997 74.6845 194.491 73.9125 194.961 73.126Z" fill="#202020"/>
<path d="M72.7861 70.1865C72.7861 70.2249 72.7861 70.2393 72.743 70.292C72.508 70.6469 71.8942 71.1791 71.1749 70.292C71.1456 70.2511 71.1229 70.2057 71.1078 70.1577V68.2828C71.0598 68.1341 71.2228 68.1293 71.3188 68.0766L71.64 67.9471L72.2155 67.7169L72.8484 67.4532C74.7448 66.6898 76.5482 65.7133 78.224 64.5424C79.0326 63.9598 79.7798 63.2962 80.4538 62.562C81.1138 61.8412 81.6735 61.0347 82.1178 60.1643C82.3159 59.7429 82.4764 59.3049 82.5973 58.8552C82.7561 58.4109 82.889 57.9578 82.9953 57.4981C83.1919 56.6925 83.3837 55.628 83.5947 54.7408C83.9208 53.2303 84.2085 52.8227 84.3332 53.0001C84.4579 53.1776 84.4915 53.9592 84.5106 54.8895C84.5106 54.7936 84.5106 55.9061 84.4675 57.0905C84.4405 57.6463 84.3828 58.2002 84.2948 58.7497C84.2181 59.2292 84.1414 59.5218 84.1414 59.5218C84.0049 59.9909 83.8301 60.448 83.6187 60.8884C82.5666 62.8827 81.0522 64.596 79.2022 65.8851C77.4242 67.1329 75.5097 68.1738 73.4958 68.9877L72.7765 69.2898L72.7861 70.1865Z" fill="white"/>
<path d="M127.371 109.546C126.854 110.19 126.198 110.71 125.453 111.066C124.753 111.436 123.76 111.805 121.008 111.882C118.764 111.939 114.707 111.824 114.654 112.045C102.076 112.045 86.0117 111.767 73.2897 111.791C72.1101 111.767 68.6239 112.069 67.6217 111.412C66.0632 110.395 66.2646 107.532 68.4465 107.638C69.0363 107.638 69.4679 108.4 69.9282 108.041C71.2661 106.986 69.2473 104.818 68.7582 103.821C68.2078 102.621 68.0646 101.274 68.3506 99.9845C68.7582 97.8746 70.801 96.1483 72.6663 95.6352C74.7667 95.0358 76.8431 95.9948 78.1666 97.6444C79.6051 99.4283 79.5572 101.764 80.8999 103.586C81.2166 104.021 81.5872 104.414 82.0028 104.756C84.4005 106.674 86.2898 106.803 88.3614 104.895C89.4775 103.606 90.2961 102.086 90.759 100.445C92.7011 93.8418 90.2411 80.2039 90.2411 74.603C90.2411 74.2961 98.0335 74.7708 98.0335 74.7708C96.0914 82.0789 92.7587 98.522 99.4721 102.914C101.165 104.017 102.738 104.209 104.191 102.612C106.181 100.43 102.939 96.4264 105.111 93.5396C106.512 91.6791 109.624 90.9646 112.055 91.8757C112.367 91.9908 114.664 92.8971 115.527 95.1988C115.925 96.4441 115.942 97.7802 115.575 99.0351C115.297 100.181 114.443 101.433 114.505 102.622C114.526 102.8 114.591 102.97 114.695 103.116C114.798 103.262 114.936 103.38 115.097 103.459C115.258 103.538 115.436 103.575 115.615 103.567C115.794 103.559 115.968 103.506 116.121 103.413C116.98 102.986 117.598 102.128 118.346 101.548C119.713 100.488 121.909 99.6968 123.875 100.138C124.975 100.431 125.972 101.021 126.757 101.845C127.542 102.668 128.085 103.692 128.325 104.804C128.417 105.077 128.915 107.566 127.371 109.546Z" fill="white"/>
<path d="M183.831 26.4821C183.741 26.3384 183.617 26.2194 183.47 26.1357C183.322 26.052 183.156 26.0062 182.987 26.0026C182.932 25.9439 182.865 25.8973 182.79 25.866C182.716 25.8346 182.636 25.8191 182.555 25.8204C181.596 25.8204 181.28 27.3597 181.505 28.4098C181.75 29.5415 182.728 30.2368 183.505 29.5655C184.282 28.8941 184.402 27.3357 183.831 26.4821Z" fill="black"/>
<path d="M174.456 25.3168C174.402 25.2108 174.323 25.1188 174.227 25.0481C174.131 24.9775 174.02 24.9301 173.902 24.9096C173.784 24.8892 173.664 24.8962 173.549 24.9303C173.435 24.9643 173.33 25.0244 173.243 25.1058C173.047 25.1245 172.864 25.211 172.725 25.3504C172.484 25.6367 172.359 26.0028 172.375 26.3766C172.331 27.1775 172.605 27.9635 173.137 28.5633C173.296 28.7358 173.507 28.851 173.738 28.8909C173.968 28.9308 174.206 28.8932 174.413 28.7838C174.582 28.6619 174.72 28.5012 174.814 28.3151C174.908 28.129 174.957 27.9231 174.955 27.7145C175.039 26.883 174.865 26.0458 174.456 25.3168Z" fill="black"/>
<path d="M217.053 69.7549C217.038 69.7416 217.026 69.7254 217.018 69.7072C217.009 69.689 217.005 69.6694 217.005 69.6494C216.923 69.2274 216.962 68.3978 218.098 68.5225C218.149 68.5297 218.197 68.5459 218.242 68.5705C218.913 69.2418 219.551 69.9467 220.16 70.6708C222.68 73.7402 224.853 77.0788 226.639 80.6259C227.554 82.3714 228.408 84.1408 229.242 85.9007C230.077 87.6606 230.897 89.4396 231.702 91.2427C232.518 93.0483 233.238 94.8955 233.86 96.7764C234.516 98.6838 234.963 100.657 235.193 102.66C235.287 103.692 235.272 104.73 235.15 105.758C235.088 106.271 235.006 106.779 234.896 107.278C234.793 107.789 234.66 108.293 234.498 108.789L234.431 108.98L234.373 109.129L234.33 109.239L234.239 109.45C234.172 109.594 234.105 109.738 234.028 109.877C233.872 110.165 233.687 110.436 233.477 110.688C233.06 111.127 232.557 111.476 232 111.714C231.053 112.088 230.045 112.286 229.027 112.299C228.495 112.329 227.961 112.289 227.439 112.179C227.152 112.102 227.08 112.016 227.156 111.934C227.31 111.767 228.068 111.613 228.94 111.373C229.596 111.192 230.238 110.961 230.858 110.683C231.267 110.508 231.637 110.254 231.947 109.935C232.078 109.786 232.195 109.626 232.297 109.455C232.427 109.279 232.539 109.092 232.633 108.894C232.687 108.793 232.735 108.689 232.777 108.582L232.81 108.501L232.848 108.405L232.901 108.256C232.973 108.055 233.031 107.839 233.088 107.628C233.566 105.872 233.693 104.039 233.462 102.234C233.188 100.388 232.735 98.573 232.11 96.8148C231.498 95.0222 230.795 93.2616 230.005 91.54C228.418 88.0634 226.826 84.558 225.061 81.1965C223.351 77.8215 221.277 74.6441 218.875 71.721C218.3 71.064 217.7 70.3879 217.053 69.7549Z" fill="#202020"/>
<path d="M173.981 15.0597C173.567 13.4967 173.462 11.8675 173.674 10.2644C173.919 8.46614 175.53 5.90545 177.031 4.78814C179.227 3.14815 181.544 2.75493 184.085 2.18909C184.085 2.18909 178.978 6.73983 177.683 8.70111C176.321 10.7343 175.209 12.9497 173.981 15.0597Z" fill="#231F20"/>
<path d="M183.054 0.860772C183.099 0.842389 183.149 0.842389 183.193 0.860772C183.33 0.906101 183.455 0.981828 183.559 1.0823C183.663 1.18277 183.743 1.30539 183.792 1.441C183.815 1.61555 183.797 1.79295 183.739 1.95932C183.682 2.1257 183.587 2.27654 183.462 2.40007C183.438 2.43502 183.409 2.46582 183.375 2.49118C183.044 2.54282 182.732 2.67897 182.469 2.88645C182.206 3.09394 182.002 3.36576 181.874 3.67562C181.589 4.3555 181.445 5.08655 181.452 5.82391C181.441 6.62679 181.5 7.42913 181.63 8.22157C181.889 9.85661 182.307 11.4626 182.877 13.0169C183.441 14.544 184.212 15.9865 185.169 17.3039C185.652 17.9439 186.189 18.5407 186.775 19.0877C186.861 19.1644 186.905 19.2124 186.948 19.2508L187.096 19.3706L187.394 19.62C187.586 19.7878 187.797 19.9317 188.003 20.0995C188.003 20.0995 188.113 20.2002 188.314 20.3537C188.516 20.5071 188.794 20.7325 189.134 20.9579C189.892 21.4792 190.684 21.9501 191.503 22.3677C192.175 22.6986 192.621 22.9048 192.87 23.063C193.119 23.2213 193.172 23.3268 193.076 23.3843C192.433 23.478 191.776 23.4222 191.158 23.2213C190.423 23.0466 189.707 22.8009 189.019 22.4876C188.269 22.1617 187.548 21.7702 186.866 21.3175C186.632 21.1554 186.408 20.9793 186.195 20.7901C185.929 20.578 185.676 20.3507 185.437 20.1091C185.106 19.8118 184.819 19.4666 184.517 19.1501C184.214 18.8336 183.941 18.4691 183.697 18.1047C183.181 17.3886 182.72 16.6353 182.316 15.8509C181.916 15.0645 181.563 14.256 181.256 13.4293C180.662 11.8004 180.23 10.1171 179.966 8.40379C179.827 7.52692 179.766 6.63955 179.784 5.75198C179.795 5.28877 179.841 4.82708 179.923 4.37094C180.007 3.88678 180.156 3.41595 180.364 2.97071C180.611 2.4298 180.98 1.95373 181.443 1.58007C181.913 1.21178 182.466 0.964751 183.054 0.860772Z" fill="white"/>
<path d="M203.372 26.6931C203.372 26.6931 203.372 26.6931 203.405 26.6643C203.879 26.4102 204.423 26.3176 204.954 26.4006C204.981 26.4073 205.007 26.4169 205.031 26.4294C205.031 26.4294 205.084 26.7459 205.108 27.187C205.14 27.7239 205.112 28.2626 205.026 28.7935C204.945 29.3352 204.794 29.864 204.575 30.3663C204.469 30.6053 204.342 30.8348 204.197 31.0521C204.077 31.1724 203.945 31.2801 203.803 31.3733C203.536 31.5602 203.229 31.6832 202.907 31.733C202.398 31.8097 202.235 31.6275 202.23 31.474C202.251 31.2786 202.322 31.0919 202.437 30.9322C202.413 30.9322 202.561 30.7452 202.662 30.5342C202.731 30.3908 202.787 30.2415 202.83 30.0882C202.921 29.9482 202.999 29.8006 203.065 29.647C203.215 29.2809 203.32 28.8976 203.377 28.5057C203.436 28.0979 203.456 27.685 203.434 27.2734C203.415 26.9329 203.372 26.7075 203.372 26.6931Z" fill="#3F3B3C"/>
<path d="M202.254 36.1591C202.262 36.1394 202.273 36.1215 202.288 36.1066C202.303 36.0917 202.321 36.0802 202.341 36.0727C202.561 35.9149 202.835 35.8495 203.103 35.8905C203.377 35.9529 203.626 36.1974 203.77 36.7249C203.777 36.771 203.777 36.8179 203.77 36.864C203.413 37.6522 203.142 38.4771 202.964 39.324C202.427 41.8271 202.71 44.5652 204.038 46.6799C204.285 47.0773 204.567 47.4513 204.882 47.7973L205.122 48.1042C205.285 48.2816 205.51 48.5405 205.798 48.8091C206.44 49.4116 207.182 49.8983 207.99 50.2477C208.453 50.4226 208.925 50.5731 209.404 50.6984C209.682 50.7895 209.764 50.871 209.687 50.9526C209.062 51.2394 208.357 51.3004 207.692 51.1252C206.908 50.9965 206.156 50.7181 205.477 50.3052C204.973 50.0164 204.499 49.6774 204.062 49.2934C203.707 48.9721 203.482 48.7419 203.482 48.7419C203.167 48.3713 202.878 47.9787 202.619 47.5671C201.833 46.2899 201.329 44.8592 201.142 43.3712C200.953 41.9073 201.014 40.4219 201.324 38.9787C201.528 38.007 201.84 37.0612 202.254 36.1591Z" fill="white"/>
<path d="M223.013 39.1225C223.013 39.1225 223.013 39.1225 222.97 39.1225C222.453 39.2227 221.923 39.2357 221.402 39.1609H221.335C221.335 39.1321 221.229 37.0749 221.229 37.0749C221.332 36.855 221.466 36.6514 221.628 36.4707C221.673 36.3909 221.737 36.3235 221.815 36.2747C221.893 36.2259 221.982 36.1971 222.074 36.191C222.165 36.1848 222.257 36.2014 222.341 36.2393C222.424 36.2773 222.497 36.3354 222.553 36.4084C222.687 36.5935 222.802 36.791 222.898 36.9982C222.898 36.9982 223.009 39.0937 223.013 39.1225Z" fill="white"/>
<path d="M214.602 51.6766C214.558 51.6861 214.511 51.6775 214.473 51.6527C214.346 51.6084 214.23 51.5389 214.131 51.4482C214.032 51.3575 213.952 51.2476 213.897 51.1252C213.857 50.9413 213.866 50.75 213.923 50.5707C213.98 50.3913 214.084 50.2303 214.224 50.1038C214.254 50.0707 214.289 50.0431 214.329 50.0223C215.14 49.886 215.918 49.5963 216.621 49.1687C216.889 49.0134 217.146 48.8387 217.388 48.646C217.756 48.3553 218.1 48.0345 218.415 47.687L218.693 47.4088C218.87 47.2362 219.1 46.9725 219.359 46.6608C219.925 45.9508 220.425 45.1917 220.855 44.3926C221.196 43.7356 221.392 43.2849 221.546 43.0307C221.699 42.7766 221.795 42.7238 221.858 42.8149C221.978 43.0019 221.958 43.8171 221.699 44.7714C221.513 45.5131 221.235 46.2284 220.87 46.9005C220.736 47.1707 220.587 47.4332 220.424 47.687C220.289 47.9182 220.14 48.1408 219.978 48.3535C219.831 48.571 219.671 48.7792 219.498 48.9769C219.168 49.3318 218.812 49.662 218.434 49.9647C218.128 50.2007 217.808 50.4169 217.475 50.6121C216.593 51.1453 215.618 51.5065 214.602 51.6766Z" fill="white"/>
<path d="M222.467 73.8501C222.506 73.889 222.531 73.9395 222.539 73.994C222.586 74.1383 222.593 74.2933 222.556 74.441C222.52 74.5886 222.442 74.7229 222.332 74.8284C222.112 75.0202 221.747 74.9626 221.316 74.977C221.282 74.9792 221.249 74.9792 221.215 74.977C220.913 74.6126 220.088 74.4208 219.273 74.4447C218.793 74.4447 218.18 74.5215 217.614 74.5838C217.048 74.6461 216.482 74.7229 215.916 74.814C214.785 74.9962 213.667 75.2264 212.56 75.5093C212.08 75.634 211.6 75.7682 211.121 75.9073L210.713 76.0032C210.454 76.056 210.1 76.1423 209.687 76.243C208.862 76.4444 207.822 76.7225 206.959 76.9479C205.52 77.3747 205.04 77.4274 205.093 77.2068C205.146 76.9862 205.813 76.5307 206.652 76.0703C207.298 75.7092 207.965 75.3889 208.651 75.1113C209.73 74.6318 210.862 74.2433 210.862 74.2433C211.298 74.1187 211.735 73.9988 212.176 73.8885C213.332 73.596 214.502 73.3514 215.676 73.1644C216.266 73.0685 216.861 72.987 217.451 72.9198C218.041 72.8527 218.616 72.7808 219.283 72.7664C219.82 72.7543 220.357 72.8124 220.879 72.939C221.487 73.0782 222.04 73.3954 222.467 73.8501Z" fill="#202020"/>
<path d="M195.435 73.8501C195.444 73.8691 195.448 73.8895 195.448 73.91C195.448 73.9306 195.444 73.951 195.435 73.97C195.397 74.4495 195.076 75.1496 194.045 74.6989C194.002 74.6789 193.963 74.6512 193.93 74.6174C193.547 73.8428 193.076 73.1155 192.525 72.4499C191.633 71.4522 190.548 70.6462 189.336 70.081C188.88 69.8412 188.43 69.6015 187.974 69.3905L186.689 68.6664C185.946 68.254 184.996 67.7649 184.2 67.3669C182.829 66.7291 182.421 66.4605 182.622 66.3359C182.824 66.2112 183.61 66.2927 184.541 66.5085C185.268 66.6642 185.982 66.8725 186.679 67.1319C187.792 67.5107 188.895 67.9855 188.895 67.9855L190.098 68.5944C191.503 69.2613 192.76 70.202 193.795 71.3613C194.435 72.1256 194.986 72.9607 195.435 73.8501Z" fill="#202020"/>
<path d="M157.183 113.258C157.162 113.26 157.141 113.257 157.121 113.249C157.101 113.242 157.083 113.23 157.068 113.215C156.945 113.154 156.836 113.067 156.749 112.96C156.662 112.854 156.599 112.729 156.565 112.596C156.56 112.409 156.601 112.224 156.685 112.057C156.769 111.89 156.892 111.745 157.044 111.637C157.08 111.608 157.121 111.586 157.164 111.57C158.037 111.57 158.962 111.474 159.874 111.393C161.072 111.284 162.271 111.156 163.47 111.009C164.065 110.937 164.674 110.86 165.24 110.774C165.807 110.68 166.369 110.555 166.923 110.4C167.477 110.241 168.023 110.054 168.558 109.839C169.085 109.628 169.613 109.359 170.222 109.11C170.881 108.811 171.594 108.648 172.317 108.63C173.038 108.673 173.741 108.864 174.384 109.192C174.667 109.316 174.95 109.46 175.175 109.542C175.401 109.623 175.688 109.714 175.967 109.791C176.523 109.944 177.098 110.079 177.679 110.199C178.844 110.438 180.028 110.63 181.208 110.788C181.798 110.86 182.392 110.932 182.968 110.975C183.262 110.995 183.545 111.004 183.817 111.004H184.723H188.367L212.147 111.138C212.147 111.138 214.698 111.321 216.487 111.589C219.522 111.963 218.304 112.328 216.425 112.515C216.621 112.553 211.922 112.807 211.922 112.807L187.888 112.673H184.31H183.375C183.059 112.673 182.747 112.639 182.44 112.611C181.826 112.553 181.222 112.481 180.623 112.4C179.419 112.232 178.225 112.026 177.036 111.776C176.441 111.642 175.842 111.508 175.238 111.325L174.758 111.177C174.605 111.124 174.437 111.052 174.279 110.99L173.473 110.625C173.052 110.415 172.587 110.306 172.116 110.309C171.618 110.361 171.131 110.495 170.677 110.707C170.169 110.923 169.603 111.186 169.018 111.431C168.435 111.662 167.84 111.861 167.234 112.026C166.629 112.194 166.014 112.327 165.393 112.424C164.779 112.515 164.189 112.587 163.59 112.659C162.396 112.802 161.192 112.932 160.008 113.042C159.092 113.172 158.171 113.239 157.183 113.258Z" fill="#202020"/>
<path d="M91.9528 76.1039C91.9489 76.0845 91.9494 76.0645 91.9544 76.0454C91.9594 76.0263 91.9687 76.0086 91.9816 75.9936C92.1686 75.6148 92.8016 75.0585 93.5065 75.9169C93.5336 75.9567 93.5546 76.0003 93.5688 76.0464L93.5065 78.8324L93.3818 84.2032L93.3434 85.7569C93.3434 85.7569 93.2187 88.3128 93.1996 90.1014C93.1996 91.6215 93.1996 92.0771 93.1996 91.9188C93.1996 91.7606 93.1564 90.9598 93.0845 90.0439C93.0845 89.924 93.003 88.9841 92.9119 87.8716C92.8207 86.7591 92.6913 85.5507 92.6913 85.5507L92.5858 84.2224L92.1638 78.8756L91.9528 76.1039Z" fill="#202020"/>
<path d="M94.5951 76.7273C94.5954 76.6879 94.6108 76.6501 94.6382 76.6218C94.8684 76.267 95.5589 75.7874 96.1631 76.7177C96.1872 76.7592 96.2034 76.8047 96.2111 76.852L95.8322 79.6141L95.1034 84.9369L94.8924 86.4762C94.8924 86.4762 94.4752 89.0033 94.2594 90.7919C94.0772 92.3025 94.0484 92.758 94.0628 92.595C94.0772 92.4319 94.1251 91.6647 94.1587 90.7248C94.1587 90.6001 94.197 89.6603 94.2354 88.5429C94.2738 87.4256 94.2786 86.2172 94.2786 86.2172L94.3217 84.8841L94.5039 79.523L94.5951 76.7273Z" fill="#202020"/>
<path d="M78.1569 100.948V100.982C78.1569 101.097 78.2576 101.231 78.1281 100.982V100.948C78.1281 100.948 77.9747 100.665 77.7301 100.291C77.4365 99.846 77.1043 99.4272 76.7375 99.0399C76.5486 98.843 76.3485 98.6573 76.1381 98.4836L75.8455 98.263L75.5722 98.0952C75.4367 98.0195 75.2975 97.9506 75.155 97.889L74.9968 97.8363L74.9057 97.7787C74.8529 97.7403 74.7714 97.7068 74.6755 97.654C74.5796 97.6013 74.4741 97.5581 74.3638 97.4958C74.2535 97.4334 74.1336 97.3951 74.0233 97.328C73.6349 97.1937 73.4527 97.0306 73.4815 96.8484C73.5102 96.6662 73.7452 96.5175 74.0761 96.4648C74.0761 96.4648 74.1528 96.4648 74.2967 96.4648C74.4821 96.4626 74.6671 96.4819 74.8481 96.5223C75.0322 96.5663 75.2132 96.6224 75.39 96.6902L75.6154 96.8053C75.6154 96.8053 75.6873 96.8484 75.8072 96.9347C75.9271 97.0211 76.0853 97.1553 76.2484 97.3327C76.441 97.5219 76.6189 97.7255 76.7806 97.9418C76.9542 98.1854 77.1143 98.4383 77.2602 98.6994C77.4088 98.968 77.5383 99.2365 77.6534 99.4954C77.7685 99.7544 77.8596 99.975 77.9315 100.205C78.0192 100.449 78.0944 100.697 78.1569 100.948Z" fill="#202020"/>
<path d="M93.2093 96.2873V96.1819C93.2093 95.8078 93.1805 95.2755 93.2381 96.1819V96.3113C93.2668 96.7909 93.286 97.2368 93.3004 97.702C93.3148 98.1671 93.3004 98.6323 93.3004 99.0974C93.3004 99.7783 93.2285 100.454 93.1517 101.131C93.0637 101.808 92.9324 102.479 92.7585 103.14C92.6736 103.474 92.5712 103.804 92.4516 104.128C92.3371 104.455 92.2042 104.775 92.0536 105.087C91.7516 105.717 91.3835 106.313 90.9555 106.866C90.7157 107.125 90.476 107.408 90.241 107.647C89.9871 107.894 89.718 108.125 89.4354 108.338L89.0038 108.645L88.8935 108.726C88.8635 108.749 88.8314 108.768 88.7976 108.784L88.7353 108.813L88.4955 108.923C88.179 109.062 87.8529 109.196 87.5364 109.311C86.8645 109.554 86.1657 109.715 85.4553 109.791C84.7201 109.875 83.9759 109.835 83.2542 109.671C82.9713 109.607 82.6939 109.52 82.4246 109.412C82.286 109.36 82.1514 109.297 82.0218 109.225C81.8934 109.16 81.7685 109.088 81.6478 109.009C81.5139 108.925 81.3858 108.832 81.2642 108.731C80.9546 108.48 80.6689 108.201 80.4106 107.897C79.7608 107.115 79.288 106.203 79.0248 105.221C78.8621 104.711 78.7843 104.178 78.7946 103.643C78.7946 103.346 78.8857 103.255 78.9816 103.317C79.1782 103.437 79.4611 104.156 79.8496 104.957C80.1557 105.56 80.5169 106.133 80.9285 106.669C81.2314 107.042 81.5793 107.375 81.9643 107.662C82.0883 107.759 82.218 107.849 82.3527 107.93L82.5062 108.021C82.6583 108.125 82.8187 108.217 82.9857 108.295C83.072 108.333 83.1583 108.372 83.2542 108.405C83.3452 108.44 83.4381 108.471 83.5324 108.496C84.7631 108.817 86.0602 108.775 87.2679 108.376C87.5748 108.29 87.8865 108.185 88.1886 108.069L88.4188 107.983L88.4715 107.959L88.5674 107.897L88.975 107.638C89.2429 107.463 89.4992 107.271 89.7423 107.062C89.9916 106.856 90.2218 106.612 90.4376 106.391C90.8663 105.9 91.2409 105.365 91.5549 104.794C91.7188 104.51 91.863 104.216 91.9865 103.912C92.1246 103.611 92.2431 103.302 92.3413 102.986C92.5501 102.358 92.7183 101.718 92.8448 101.068C92.9599 100.411 93.051 99.7448 93.1086 99.0782C93.1517 98.5987 93.1805 98.1575 93.1949 97.6924C93.2093 97.2272 93.2141 96.7525 93.2093 96.2873Z" fill="#202020"/>
<path d="M120.71 102.411C120.638 102.411 120.576 102.488 120.686 102.382C120.795 102.274 120.912 102.175 121.036 102.085C121.308 101.884 121.607 101.722 121.924 101.605C122.263 101.485 122.619 101.419 122.979 101.409C123.139 101.406 123.299 101.416 123.458 101.438C123.554 101.474 123.646 101.521 123.731 101.577C123.903 101.678 124.045 101.821 124.144 101.994C124.321 102.267 124.264 102.473 124.144 102.579C124.084 102.634 124.014 102.675 123.937 102.701C123.86 102.726 123.778 102.735 123.698 102.727C123.486 102.691 123.276 102.643 123.07 102.584C122.97 102.521 122.866 102.467 122.758 102.421C122.509 102.316 122.245 102.253 121.976 102.234C121.682 102.214 121.387 102.235 121.099 102.296C120.967 102.325 120.837 102.364 120.71 102.411Z" fill="#202020"/>
<path d="M113.316 100.282L113.354 100.181C113.426 100.004 113.517 99.7975 113.537 99.7304C113.487 99.8759 113.449 100.025 113.422 100.176L113.393 100.306C113.29 100.754 113.223 101.209 113.191 101.668C113.179 101.894 113.179 102.122 113.191 102.349C113.197 102.572 113.219 102.795 113.258 103.015C113.286 103.194 113.326 103.37 113.378 103.543C113.401 103.63 113.431 103.715 113.469 103.797C113.496 103.881 113.53 103.963 113.57 104.041C113.62 104.148 113.678 104.25 113.743 104.348C113.802 104.448 113.869 104.543 113.944 104.631C114.015 104.724 114.093 104.811 114.179 104.89C114.26 104.975 114.346 105.053 114.438 105.125L114.51 105.192C114.571 105.255 114.64 105.308 114.716 105.35C114.953 105.507 115.225 105.601 115.507 105.624C115.905 105.649 116.304 105.584 116.673 105.432C117.083 105.273 117.47 105.06 117.824 104.799C118.394 104.377 118.72 104.022 118.941 103.84C119.162 103.658 119.272 103.619 119.301 103.73C119.363 103.936 119.056 104.756 118.284 105.442C118.128 105.606 117.951 105.748 117.756 105.864C117.271 106.193 116.719 106.412 116.14 106.506C115.503 106.603 114.853 106.462 114.313 106.108C114.137 105.993 113.976 105.856 113.834 105.701C113.781 105.649 113.732 105.595 113.685 105.537L113.465 105.25L113.268 104.938C113.206 104.828 113.163 104.717 113.11 104.607C113.06 104.496 113.017 104.383 112.98 104.267C112.947 104.166 112.923 104.065 112.899 103.965C112.873 103.865 112.852 103.764 112.837 103.663C112.805 103.463 112.787 103.261 112.784 103.058C112.775 102.817 112.783 102.575 112.808 102.334C112.832 102.099 112.869 101.865 112.918 101.634C113.016 101.174 113.149 100.722 113.316 100.282Z" fill="#202020"/>
<path d="M108.473 92.71H108.425C108.271 92.71 108.055 92.7772 108.425 92.6813H108.477C108.477 92.6813 108.597 92.6477 108.78 92.6093C109.03 92.551 109.282 92.5061 109.537 92.4751C110.321 92.3722 111.117 92.431 111.877 92.6477C112.507 92.8381 113.079 93.1826 113.541 93.6499C113.67 93.7918 113.788 93.9424 113.896 94.1007C114.057 94.3349 114.192 94.5857 114.299 94.8487C114.38 95.0406 114.414 95.1509 114.414 95.1509C114.464 95.3795 114.493 95.6123 114.5 95.8462C114.515 96.2749 114.457 96.703 114.328 97.1121C114.146 97.7547 113.915 97.9082 113.767 97.8218C113.618 97.7355 113.527 97.4094 113.479 97.0354C113.479 97.0738 113.445 96.6278 113.388 96.201C113.354 95.9189 113.298 95.6399 113.22 95.3666L113.177 95.1365C113.127 94.9376 113.059 94.7434 112.975 94.5562C112.846 94.2931 112.676 94.052 112.472 93.8417C112.22 93.5867 111.926 93.3759 111.604 93.2183C110.954 92.9133 110.25 92.7406 109.532 92.71C109.285 92.6958 109.037 92.6958 108.789 92.71C108.593 92.6957 108.482 92.71 108.473 92.71Z" fill="#202020"/>
<path d="M106.679 102.051V102.104L106.718 102.243V102.296C106.718 102.296 106.804 102.296 106.823 102.296C106.607 102.392 106.766 102.296 106.665 102.099V102.037C106.535 101.591 106.42 101.145 106.31 100.694C106.137 99.9749 105.989 99.2556 105.869 98.5172C105.831 98.2582 105.792 97.9993 105.763 97.7403C105.763 97.7403 105.725 97.419 105.711 96.9827C105.711 96.7669 105.711 96.5031 105.711 96.273C105.723 96.0304 105.749 95.7887 105.787 95.5489C105.917 94.7864 106.094 94.5898 106.147 94.6857C106.202 94.9934 106.202 95.3084 106.147 95.616C106.147 95.5728 106.085 96.1195 106.056 96.6853C106.027 97.2512 106.056 97.8362 106.056 97.8362C106.056 98.0568 106.056 98.2774 106.056 98.498C106.102 99.2326 106.198 99.9632 106.344 100.685C106.449 101.155 106.555 101.605 106.679 102.051Z" fill="white"/>
<path d="M94.1588 101.016V100.91L94.1157 100.632L94.0917 100.512C94.0677 100.483 93.9095 100.478 93.8855 100.464C93.9529 100.436 94.024 100.419 94.0965 100.411H94.2116C94.2403 100.411 94.1828 100.411 94.154 100.459C94.1253 100.507 94.0821 100.507 94.0965 100.531V100.618C94.0965 100.704 94.1253 100.79 94.1444 100.881C94.1636 100.972 94.1444 100.992 94.1444 101.011C94.2297 101.466 94.3418 101.916 94.4801 102.358C94.5472 102.584 94.6288 102.799 94.7103 103.015C94.7918 103.231 94.8877 103.442 94.9788 103.653C95.0699 103.864 95.2186 104.132 95.3625 104.377C95.5063 104.622 95.6646 104.857 95.842 105.053C96.0081 105.269 96.1875 105.474 96.3791 105.667C96.5696 105.858 96.7731 106.036 96.9881 106.199C97.2045 106.358 97.4321 106.5 97.669 106.626C97.9033 106.752 98.147 106.859 98.3979 106.947C98.907 107.109 99.4305 107.222 99.9611 107.283C100.215 107.283 100.441 107.321 100.714 107.307C100.839 107.307 100.963 107.307 101.088 107.307L101.457 107.269H101.563L101.86 107.225C102.01 107.204 102.159 107.175 102.306 107.139C102.491 107.102 102.673 107.054 102.853 106.995C103.269 106.856 103.67 106.676 104.052 106.458C104.44 106.238 104.805 105.977 105.14 105.681C105.359 105.479 105.566 105.262 105.759 105.034C105.922 104.852 106.037 104.703 106.133 104.598C106.334 104.387 106.444 104.348 106.488 104.454C106.505 104.691 106.457 104.928 106.348 105.139C106.162 105.54 105.907 105.905 105.596 106.218C105.461 106.392 105.299 106.542 105.116 106.664C104.679 107.001 104.194 107.269 103.678 107.46C103.151 107.656 102.601 107.783 102.042 107.839C101.789 107.868 101.535 107.88 101.28 107.878C101.051 107.875 100.822 107.861 100.594 107.834C100.364 107.834 100.139 107.767 99.9132 107.734C99.6878 107.7 99.3569 107.614 99.0932 107.523C98.8295 107.432 98.5609 107.336 98.302 107.24C98.0449 107.125 97.7965 106.992 97.5587 106.842C97.3214 106.697 97.0939 106.537 96.8778 106.362C96.6679 106.18 96.4693 105.984 96.2832 105.777C96.1002 105.571 95.9289 105.355 95.77 105.13C95.6214 104.895 95.4632 104.65 95.3385 104.425C95.2138 104.2 95.0891 103.945 94.974 103.687C94.8589 103.428 94.7918 103.255 94.7199 103.034C94.6479 102.814 94.5664 102.598 94.5041 102.373C94.3506 101.927 94.2499 101.471 94.1588 101.016Z" fill="#202020"/>
<path d="M176.791 78.1659C176.808 78.1775 176.821 78.1926 176.831 78.2099C176.841 78.2273 176.847 78.2466 176.849 78.2666C176.983 78.6886 177.012 79.5038 175.89 79.499C175.841 79.4968 175.792 79.4871 175.746 79.4702L173.583 77.6863L169.033 73.8981C168.28 73.2843 167.493 72.5985 166.779 71.9032C166.421 71.5579 166.066 71.2079 165.714 70.853L165.192 70.3255C165.024 70.1577 164.861 69.9995 164.712 69.846C164.022 69.2034 163.273 68.5944 162.501 67.9567C161.729 67.3189 160.996 66.6476 160.257 65.9906C158.78 64.6767 157.327 63.3436 155.879 62.0009C154.431 60.6582 153.002 59.3011 151.563 57.9441L149.425 55.9013L148.355 54.8751L148.048 54.5826C148.006 54.5389 147.969 54.4906 147.938 54.4387L147.881 54.3572L147.77 54.2085L147.339 53.6091L143.891 48.8138L142.169 46.4162C141.904 46.0387 141.619 45.6754 141.316 45.3276C141.174 45.1679 141.021 45.0173 140.86 44.8769L140.63 44.6899L140.453 44.57L140.347 44.4884C139.904 44.2064 139.386 44.0629 138.861 44.0761C138.275 44.0854 137.696 44.2092 137.158 44.4405C136.562 44.6949 135.985 44.993 135.432 45.3324C134.857 45.6645 134.3 46.0262 133.763 46.4162C132.694 47.1834 131.706 48.1185 130.598 49.02C130.32 49.2406 130.042 49.4612 129.749 49.677C129.673 49.7297 129.634 49.7681 129.467 49.8784L129.179 50.0174L128.747 50.238C128.174 50.5485 127.628 50.9079 127.117 51.3122C126.599 51.7102 126.076 52.1561 125.539 52.6021C125.227 52.8658 124.925 53.0816 124.652 53.2543C124.379 53.4269 124.101 53.6427 123.856 53.8393C123.736 53.9308 123.621 54.0284 123.511 54.1318C123.46 54.1718 123.413 54.2168 123.372 54.2661H123.463H123.54L123.707 54.2948C123.882 54.3334 124.061 54.3527 124.24 54.3524C124.329 54.3593 124.419 54.3593 124.508 54.3524C124.599 54.3524 124.695 54.3524 124.791 54.3188C124.791 54.3188 125.04 54.3188 125.458 54.2469C125.998 54.1642 126.533 54.0489 127.059 53.9016C127.635 53.7482 128.258 53.5516 128.805 53.3646C129.505 53.1008 129.96 52.9186 130.243 52.8323C130.526 52.746 130.637 52.7747 130.622 52.885C130.584 53.1104 130.004 53.6858 129.184 54.2181C128.667 54.5764 128.12 54.8878 127.548 55.1484C126.966 55.4166 126.365 55.6426 125.75 55.8246C125.435 55.9151 125.115 55.9871 124.791 56.0403C124.529 56.0576 124.267 56.0576 124.005 56.0403C123.87 56.0403 123.688 56.0068 123.588 55.9876L123.276 55.9348H123.213L123.074 55.9061C123 55.8926 122.926 55.875 122.854 55.8533C122.541 55.7852 122.252 55.6326 122.019 55.4122C121.803 55.189 121.66 54.9043 121.611 54.5971C121.562 54.2898 121.609 53.9749 121.746 53.6954C121.815 53.5497 121.904 53.4142 122.01 53.2926C122.056 53.2278 122.107 53.1669 122.163 53.1104L122.274 52.9953C122.417 52.8563 122.561 52.7316 122.7 52.6165C122.983 52.3863 123.266 52.1801 123.544 51.9835C123.822 51.7869 124.11 51.5951 124.331 51.4273L125.055 50.8326C125.563 50.4107 126.095 49.9743 126.676 49.5667C127.254 49.1537 127.867 48.7911 128.507 48.4829L128.623 48.4254L128.79 48.3007L129.174 48.013C129.423 47.8164 129.654 47.615 129.922 47.404C130.91 46.5744 131.917 45.6489 133.058 44.8577C133.624 44.4597 134.228 44.0904 134.804 43.7596C135.415 43.3874 136.057 43.0666 136.722 42.8005C138.084 42.273 139.848 42.1148 141.311 43.093L141.503 43.2321H141.536L141.627 43.2944C141.747 43.3855 141.862 43.4766 141.973 43.5725C142.184 43.7569 142.384 43.9539 142.572 44.1624C142.915 44.5544 143.235 44.9659 143.531 45.3948L145.257 47.7924L148.705 52.5877L149.127 53.2303L149.233 53.3837L149.286 53.4509L149.511 53.6715L150.575 54.6929L152.714 56.7309C154.153 58.0831 155.567 59.4354 157.03 60.7733C158.493 62.1112 159.907 63.4347 161.384 64.7438C162.118 65.396 162.823 66.0577 163.585 66.6619C164.348 67.2661 165.115 67.9087 165.863 68.6088C167.219 70.0197 168.648 71.3578 170.145 72.6177L174.681 76.3916L176.791 78.1659Z" fill="#202020"/>
<path d="M137.057 42.6806C137.101 42.6806 137.115 42.6806 137.168 42.7286C137.527 42.9923 138.002 43.6397 137.077 44.2919C137.036 44.3201 136.99 44.3412 136.942 44.3542C136.057 44.2755 135.168 44.2611 134.281 44.311C133.876 44.334 133.473 44.3901 133.077 44.4789C132.649 44.5748 132.238 44.7365 131.859 44.9584C131.831 44.9679 131.803 44.9808 131.778 44.9968L131.552 45.1167C131.299 45.2669 131.065 45.449 130.857 45.6585C130.315 46.138 129.783 47.0971 129.179 47.8404C128.863 48.2885 128.448 48.6577 127.966 48.9193C127.687 49.044 127.577 49.02 127.587 48.9193C127.611 48.6844 128.066 48.1377 128.421 47.3177C128.489 47.1303 128.569 46.9477 128.661 46.771C128.829 46.4066 129.049 45.8695 129.366 45.3324C129.672 44.7888 130.069 44.3021 130.541 43.8938C130.765 43.7143 131.004 43.5539 131.255 43.4143C131.71 43.1789 132.193 43.0048 132.694 42.8964C133.175 42.7873 133.664 42.7167 134.156 42.6854C135.122 42.6161 136.092 42.6145 137.057 42.6806Z" fill="#202020"/>
<path d="M133.624 42.3114C133.646 42.3118 133.667 42.3172 133.686 42.3272C133.705 42.3371 133.722 42.3514 133.734 42.3689C133.84 42.4515 133.928 42.5542 133.994 42.6711C134.06 42.7879 134.102 42.9167 134.118 43.0499C134.118 43.328 133.969 43.6349 133.504 43.9178C133.464 43.9428 133.421 43.9607 133.375 43.9706C132.547 43.8366 131.704 43.8366 130.876 43.9706C130.305 44.0534 129.766 44.2849 129.313 44.6419C129.018 44.8909 128.783 45.2042 128.627 45.5578L128.484 45.8695C128.43 45.9904 128.387 46.1155 128.354 46.2435C128.295 46.4161 128.247 46.5923 128.21 46.771C128.119 47.1786 128.028 47.6582 127.898 48.1617C127.78 48.6826 127.576 49.1802 127.294 49.6338C127.098 49.9372 126.838 50.1941 126.532 50.3867C126.354 50.5083 126.156 50.5976 125.947 50.6504C125.649 50.7224 125.549 50.6504 125.582 50.5641C125.64 50.3435 126.263 49.8976 126.489 49.1639C126.46 49.1927 126.541 49.0056 126.609 48.6508C126.683 48.1746 126.726 47.694 126.738 47.2122C126.738 46.9197 126.776 46.6224 126.796 46.3443C126.815 46.0661 126.882 45.7496 126.925 45.5003L127.117 44.8913C127.14 44.8128 127.173 44.7372 127.213 44.6659C127.336 44.4171 127.485 44.1823 127.659 43.9658L127.922 43.6445L128.234 43.3664C128.91 42.8173 129.719 42.4567 130.579 42.321C131.587 42.1498 132.616 42.1465 133.624 42.3114Z" fill="#202020"/>
<path d="M184.785 31.3541C184.699 31.3642 184.619 31.4057 184.561 31.4707C184.503 31.5356 184.471 31.6196 184.471 31.7066C184.471 31.7936 184.503 31.8775 184.561 31.9425C184.619 32.0075 184.699 32.0489 184.785 32.059C184.871 32.0489 184.951 32.0075 185.009 31.9425C185.067 31.8775 185.099 31.7936 185.099 31.7066C185.099 31.6196 185.067 31.5356 185.009 31.4707C184.951 31.4057 184.871 31.3642 184.785 31.3541Z" fill="black"/>
<path d="M184.449 32.6105C184.357 32.6105 184.268 32.6474 184.202 32.713C184.136 32.7787 184.099 32.8677 184.099 32.9606C184.099 33.0534 184.136 33.1424 184.202 33.2081C184.268 33.2737 184.357 33.3106 184.449 33.3106C184.542 33.3106 184.631 33.2737 184.697 33.2081C184.763 33.1424 184.799 33.0534 184.799 32.9606C184.799 32.8677 184.763 32.7787 184.697 32.713C184.631 32.6474 184.542 32.6105 184.449 32.6105Z" fill="black"/>
<path d="M182.805 31.5603C182.712 31.5603 182.623 31.5972 182.557 31.6629C182.491 31.7285 182.455 31.8176 182.455 31.9104C182.455 32.0032 182.491 32.0923 182.557 32.1579C182.623 32.2236 182.712 32.2604 182.805 32.2604C182.897 32.2604 182.987 32.2236 183.052 32.1579C183.118 32.0923 183.155 32.0032 183.155 31.9104C183.155 31.8176 183.118 31.7285 183.052 31.6629C182.987 31.5972 182.897 31.5603 182.805 31.5603Z" fill="black"/>
<path d="M186.243 31.5891C186.15 31.5891 186.061 31.626 185.995 31.6916C185.93 31.7573 185.893 31.8463 185.893 31.9392C185.893 32.032 185.93 32.121 185.995 32.1867C186.061 32.2523 186.15 32.2892 186.243 32.2892C186.336 32.2892 186.425 32.2523 186.49 32.1867C186.556 32.121 186.593 32.032 186.593 31.9392C186.593 31.8463 186.556 31.7573 186.49 31.6916C186.425 31.626 186.336 31.5891 186.243 31.5891Z" fill="black"/>
<path d="M174.614 29.4887C174.521 29.4887 174.432 29.5256 174.367 29.5913C174.301 29.6569 174.264 29.746 174.264 29.8388C174.264 29.9316 174.301 30.0207 174.367 30.0863C174.432 30.152 174.521 30.1889 174.614 30.1889C174.707 30.1889 174.796 30.152 174.862 30.0863C174.927 30.0207 174.964 29.9316 174.964 29.8388C174.964 29.746 174.927 29.6569 174.862 29.5913C174.796 29.5256 174.707 29.4887 174.614 29.4887Z" fill="black"/>
<path d="M173.761 30.1313C173.668 30.1326 173.58 30.1699 173.515 30.2352C173.449 30.3006 173.412 30.3889 173.411 30.4814V30.5965C173.411 30.6893 173.448 30.7784 173.513 30.844C173.579 30.9097 173.668 30.9465 173.761 30.9465C173.854 30.9465 173.943 30.9097 174.008 30.844C174.074 30.7784 174.111 30.6893 174.111 30.5965V30.4814C174.11 30.3889 174.072 30.3006 174.007 30.2352C173.941 30.1699 173.853 30.1326 173.761 30.1313Z" fill="black"/>
<path d="M174.279 31.239C174.186 31.239 174.097 31.2759 174.031 31.3416C173.966 31.4072 173.929 31.4963 173.929 31.5891C173.929 31.6819 173.966 31.771 174.031 31.8366C174.097 31.9023 174.186 31.9392 174.279 31.9392C174.372 31.9392 174.461 31.9023 174.526 31.8366C174.592 31.771 174.629 31.6819 174.629 31.5891C174.629 31.4963 174.592 31.4072 174.526 31.3416C174.461 31.2759 174.372 31.239 174.279 31.239Z" fill="black"/>
<path d="M114.913 68.9781C114.915 68.9982 114.912 69.0184 114.906 69.0375C114.899 69.0565 114.888 69.0739 114.874 69.0884C114.635 69.4576 114.026 69.9947 113.302 69.1124C113.273 69.0707 113.251 69.0256 113.234 68.9781V68.1581L113.062 68.0814C112.832 67.9711 112.616 67.8512 112.395 67.7361C110.962 66.9171 109.667 65.8765 108.559 64.6527C107.475 63.4413 106.544 62.1013 105.787 60.6631L105.097 59.2245L105.054 59.1142L104.963 58.8025C104.886 58.5387 104.78 58.1647 104.651 57.7331C104.522 57.2599 104.421 56.7796 104.349 56.2945C104.25 55.8197 104.181 55.3393 104.143 54.8559C103.884 51.7726 104.502 52.9378 105.058 54.7073C105.137 54.8954 105.206 55.0875 105.265 55.2827L105.787 56.7213C105.994 57.2392 106.267 57.7475 106.411 58.1311C106.499 58.3494 106.603 58.561 106.722 58.7641L107.269 59.9198C107.964 61.2277 108.812 62.448 109.796 63.5546C110.779 64.6422 111.926 65.5693 113.196 66.3023C113.383 66.3982 113.57 66.5037 113.762 66.5948L113.901 66.6572L114.227 66.7962L114.889 67.0408L114.913 68.9781Z" fill="white"/>
<path d="M84.3906 70.6517C84.3906 70.6517 82.2807 12.3551 91.9385 11.9523C100.469 11.5927 103.203 30.4238 103.979 52.1658C104.459 65.3145 103.979 70.3879 103.979 70.3879L84.3906 70.6373V70.6517Z" fill="white"/>
<path d="M85.2252 70.0378C85.2274 70.0782 85.2136 70.1179 85.1868 70.1481C84.9614 70.5222 84.3716 71.0784 83.6188 70.2201C83.589 70.1804 83.5648 70.1368 83.5468 70.0906C83.5468 70.033 83.5181 69.0116 83.4797 67.5107C83.4413 66.0098 83.4317 64.5664 83.403 63.0127C83.3742 60.7014 83.3646 58.3213 83.3742 55.8725C83.3982 50.9765 83.5037 45.8024 83.7674 40.4988C84.0035 35.0175 84.5318 29.5526 85.3499 24.1276C85.7513 21.3002 86.4324 18.5197 87.3831 15.8269C87.6497 15.1285 87.9704 14.4519 88.3421 13.8033C88.734 13.0976 89.2488 12.4675 89.8622 11.9427C90.0313 11.8012 90.2145 11.6775 90.4089 11.5735L90.711 11.4104C90.8191 11.3647 90.9296 11.3247 91.0419 11.2906C91.2648 11.2118 91.4968 11.1618 91.7324 11.1419H91.9098H92.0633H92.3654C92.7739 11.1485 93.1806 11.1983 93.5786 11.2906C93.7791 11.3358 93.9762 11.3951 94.1684 11.468C94.3633 11.5243 94.5527 11.5981 94.7343 11.6886L95.2761 11.9619C95.4488 12.0674 95.6118 12.1825 95.7557 12.2928C96.0788 12.5195 96.3849 12.7695 96.6716 13.0408C96.9401 13.3142 97.2135 13.5923 97.4532 13.8848C97.6954 14.1768 97.9227 14.4809 98.1341 14.7959C98.952 16.0208 99.6338 17.3313 100.167 18.7041C101.16 21.3689 101.916 24.116 102.426 26.9137C103.392 32.2856 104.032 37.711 104.344 43.1602C104.699 48.435 104.881 53.542 104.972 58.3853C105.011 60.7829 105.03 63.1806 104.972 65.4439C104.972 66.5852 104.942 67.7041 104.881 68.8007L104.838 69.6254L104.785 70.3975L104.718 71.1887C104.239 71.2463 103.658 71.2271 103.169 71.2415H102.373L90.5288 71.3901C90.5288 71.3901 87.9729 71.2511 86.1795 71.0209C83.1392 70.6996 84.3476 70.316 86.2274 70.0906C86.0308 70.057 90.7254 69.7166 90.7254 69.7166L103.164 69.5583C103.164 69.1267 103.208 68.6952 103.227 68.254C103.227 67.7265 103.26 67.199 103.275 66.6619C103.303 65.5878 103.313 64.4945 103.318 63.382C103.318 61.1521 103.294 58.8408 103.241 56.4671C103.121 51.7198 102.925 46.7087 102.536 41.5489C102.189 36.2494 101.489 30.9789 100.441 25.7724C99.907 23.13 99.1036 20.5494 98.043 18.0711C97.5204 16.874 96.831 15.7568 95.9954 14.7528C95.7895 14.5165 95.5685 14.2939 95.3337 14.0862L94.9836 13.7841L94.6096 13.53C94.3613 13.3691 94.1017 13.2265 93.8328 13.1032C93.5595 13.0021 93.279 12.922 92.9936 12.8634C92.8497 12.8634 92.7059 12.8059 92.562 12.7915H92.1208C92.0507 12.7843 91.98 12.7843 91.9098 12.7915L91.742 12.8155C91.628 12.8301 91.5166 12.8607 91.4111 12.9066C90.9143 13.1346 90.4908 13.4966 90.1883 13.952C89.4596 15.0278 88.8986 16.2082 88.5244 17.4525C87.7225 20.0434 87.1371 22.6963 86.7741 25.384C85.9733 30.7643 85.604 36.1446 85.3355 41.3571C85.0669 46.5696 84.9998 51.6383 84.9854 56.4479C84.9854 58.8456 84.9854 61.1953 85.019 63.4635C85.043 64.8541 85.0669 66.2064 85.0909 67.5011C85.1964 68.9781 85.2204 69.9803 85.2252 70.0378Z" fill="#202020"/>
<path d="M86.7498 67.9902C86.7498 67.9902 84.9756 14.6952 93.094 14.3164C100.263 13.9855 102.56 31.4165 103.212 51.5424C103.61 63.7176 103.212 67.8464 103.212 67.8464H86.7498V67.9902Z" fill="#1AAB28"/>
<path d="M94.8973 29.3545C93.2909 28.9852 91.0611 29.7909 90.4616 31.2726C89.6177 33.3969 90.2411 36.9886 94.1109 37.5065C96.2592 37.7846 97.6498 36.0679 98.1054 34.4855C98.2694 33.9757 98.3276 33.4377 98.2763 32.9046C98.2251 32.3715 98.0655 31.8545 97.8073 31.3853C97.5491 30.9161 97.1978 30.5046 96.7749 30.176C96.3521 29.8474 95.8665 29.6086 95.3481 29.4744C95.2378 29.4216 95.0555 29.3881 94.8973 29.3545Z" fill="#231F20"/>
<path d="M87.5844 26.8561C87.546 26.8561 87.5316 26.8561 87.4789 26.8082C87.1192 26.5397 86.6541 25.8923 87.5796 25.2401C87.6211 25.2152 87.6665 25.1974 87.7138 25.1874C88.625 25.2545 89.5313 25.2977 90.4376 25.3073H90.7109C91.1904 25.3073 91.7179 25.3073 92.2166 25.2737C92.2166 25.2737 92.84 25.2737 93.6792 25.2737C94.5184 25.2737 95.5733 25.197 96.4509 25.1011C97.1894 25.0099 97.6785 24.9284 97.971 24.9188C98.2635 24.9092 98.369 24.962 98.3211 25.0627C98.23 25.2641 97.5394 25.6909 96.6187 26.0218C95.9187 26.2853 95.1965 26.4859 94.4608 26.6212C93.2956 26.8609 92.0872 26.9712 92.0872 26.9712C91.6076 26.9712 91.1761 26.9712 90.7205 26.9712H90.4328C89.4689 26.9808 88.5243 26.9329 87.5844 26.8561Z" fill="white"/>
<path d="M95.6693 36.2885C95.6569 36.2933 95.6432 36.2933 95.6309 36.2885C95.4871 36.2885 95.3096 36.2406 95.4583 35.9528C95.4583 35.9528 95.4583 35.9241 95.4583 35.9193L95.6357 35.7994C95.7713 35.6967 95.8981 35.5829 96.0145 35.4589L96.2255 35.2048L96.4125 34.8931C96.4701 34.778 96.5132 34.6533 96.566 34.5382L96.6715 34.1594C96.6715 34.0299 96.7147 33.9004 96.7194 33.7758C96.7242 33.6511 96.7194 33.5216 96.7194 33.4017C96.7194 33.2818 96.6955 33.1668 96.6763 33.0613C96.6571 32.9558 96.6283 32.8551 96.6091 32.764C96.5656 32.6209 96.5111 32.4814 96.4461 32.3468L96.3694 32.1981V32.0974C96.3361 32.0143 96.3073 31.9294 96.2831 31.8433C96.2591 31.7378 96.192 31.6323 96.1536 31.5076C96.1152 31.3829 96.0433 31.2678 96.0049 31.1383C95.7987 30.7691 95.77 30.5245 95.9042 30.4191C96.0222 30.3712 96.1509 30.3562 96.2767 30.3756C96.4025 30.395 96.5207 30.4482 96.6187 30.5293C96.6187 30.5293 96.6859 30.5581 96.8058 30.654C96.9519 30.7709 97.0839 30.9045 97.199 31.052C97.3186 31.2031 97.426 31.3635 97.5203 31.5316C97.5632 31.6109 97.6016 31.6925 97.6353 31.7761L97.7025 32.0063C97.7476 32.2119 97.7796 32.4201 97.7984 32.6297C97.7984 32.7592 97.7984 32.8982 97.7984 33.0421C97.7984 33.1859 97.7744 33.3442 97.76 33.5216C97.7456 33.699 97.6977 33.8381 97.6641 34.0011C97.6305 34.1642 97.5586 34.3176 97.4963 34.4807C97.4339 34.6437 97.3524 34.7828 97.2709 34.9266C97.1894 35.0705 97.0935 35.2 96.9976 35.3199C96.9017 35.4397 96.7962 35.55 96.6955 35.6507L96.3886 35.9097C96.2235 36.0216 96.0522 36.1241 95.8755 36.2166L95.6693 36.2885Z" fill="white"/>
<path d="M91.0227 33.7278C91.0227 33.6942 91.0227 33.6559 91.0514 33.7278C91.0514 33.7278 91.1042 33.8045 91.1809 33.9052C91.2738 34.0239 91.3764 34.1346 91.4878 34.2361C91.6338 34.3748 91.7946 34.497 91.9673 34.6006C92.0007 34.7253 91.9888 34.8578 91.9338 34.9746C91.8787 35.1417 91.7689 35.2853 91.6221 35.3822C91.5679 35.4229 91.5056 35.4516 91.4395 35.4665C91.3734 35.4814 91.3049 35.482 91.2384 35.4685C91.2384 35.4685 91.1329 35.4301 91.0514 35.3582C91.0006 35.3061 90.9541 35.25 90.9124 35.1904C90.8782 34.9426 90.8685 34.692 90.8836 34.4423C90.8934 34.281 90.9158 34.1206 90.9507 33.9628C90.97 33.8831 90.994 33.8046 91.0227 33.7278Z" fill="white"/>
<path d="M93.5353 30.0594C93.6024 30.0594 93.6888 30.0594 93.5353 30.093L93.4106 30.1313C93.3435 30.1649 93.2428 30.2033 93.1325 30.2656C92.8719 30.4055 92.6394 30.5925 92.4468 30.8171C92.2659 31.0255 92.1202 31.262 92.0152 31.5172C91.97 31.6278 91.9331 31.7416 91.9049 31.8576L91.7754 32.0255C91.6825 32.1443 91.5763 32.2521 91.4589 32.3468C91.3959 32.4268 91.3118 32.4876 91.216 32.5223C91.1203 32.557 91.0167 32.5643 90.9171 32.5434C90.8347 32.5087 90.7637 32.4517 90.712 32.3789C90.6604 32.306 90.6301 32.2201 90.6246 32.131C90.6104 31.9787 90.6284 31.8251 90.6773 31.6802C90.7101 31.5759 90.7485 31.4735 90.7924 31.3733L90.8595 31.239C90.9641 31.1095 91.0796 30.9892 91.2048 30.8794C91.4664 30.6417 91.7622 30.4445 92.0823 30.2944C92.393 30.1548 92.7257 30.0705 93.0654 30.045C93.2221 30.0338 93.3796 30.0386 93.5353 30.0594Z" fill="white"/>
<path d="M113.887 69.3905C113.907 69.3885 113.927 69.3909 113.946 69.3976C113.965 69.4042 113.982 69.4149 113.997 69.4289C114.366 69.6686 114.898 70.2776 113.997 70.9969C113.955 71.0267 113.91 71.0509 113.863 71.0689H104.454L104.488 72.7952V73.783V74.4112V74.7277C104.488 74.766 104.459 74.7517 104.435 74.7565H84.7263H84.6927V74.1666V73.011V71.9512H78.0752C78.0752 71.9512 75.5241 71.7786 73.7354 71.5244C70.7 71.1648 71.9132 70.7955 73.793 70.5941C73.6395 70.5654 76.5263 70.3879 77.7539 70.3112L78.2958 70.2776H86.3471C86.3471 70.6852 86.3471 71.112 86.3471 71.534V72.9966V73.0925H102.771V72.8239L102.699 69.5104C102.646 69.3569 102.824 69.4241 102.91 69.4097H113.843L113.887 69.3905Z" fill="white"/>
<path d="M87.5844 25.7724C87.5645 25.7719 87.5449 25.7674 87.5268 25.7591C87.5087 25.7509 87.4924 25.7391 87.4789 25.7245C87.1193 25.4559 86.6493 24.8038 87.5796 24.1564C87.6208 24.1298 87.6662 24.1103 87.7139 24.0988C88.625 24.1692 89.5393 24.2203 90.4568 24.2523H90.6055C91.1186 24.2523 91.6269 24.2811 92.1352 24.2811L96.4509 24.5928C97.9663 24.6695 98.441 24.7942 98.2971 24.9764C98.1533 25.1586 97.3908 25.3648 96.4461 25.5231C95.7222 25.6478 94.9924 25.7358 94.2595 25.7868C93.099 25.8971 91.9098 25.9546 91.9098 25.9546L90.5575 25.9259H90.4041C89.461 25.9067 88.5211 25.8555 87.5844 25.7724Z" fill="#202020"/>
</svg>
