<svg width="29" height="29" viewBox="0 0 29 29" fill="none" xmlns="http://www.w3.org/2000/svg">
<circle cx="14.5" cy="14.5" r="14.5" fill="#C0E8FF"/>
<path d="M13.6739 20.7141H14.7864C14.8603 20.384 15.0872 20.1256 15.3729 20.0491V14.7775H13.0874V20.0491C13.373 20.1256 13.6 20.384 13.6739 20.7141Z" fill="#48BCFF"/>
<path d="M15.7254 20.4921H15.5491C15.3089 20.4921 15.1133 20.6963 15.1133 20.9472V21.1803H13.3469V20.9472C13.3469 20.6963 13.1514 20.4921 12.9111 20.4921H12.7349V14.7775H11.8066V22.1897H16.6535V14.7775H15.7254V20.4921Z" fill="#48BCFF"/>
<path d="M10 11V16.5693H11.4541V14.7775H10.965V14.3113H17.495V14.7775H17.0059V16.5693H18.46V11H10Z" fill="#48BCFF"/>
</svg>
