<svg width="29" height="29" viewBox="0 0 29 29" fill="none" xmlns="http://www.w3.org/2000/svg">
<circle cx="14.5" cy="14.5" r="14.5" fill="#FFC9E7"/>
<path fill-rule="evenodd" clip-rule="evenodd" d="M14.295 16.4982C14.3358 16.4837 14.3691 16.4528 14.3947 16.4051C14.4202 16.3565 14.4328 16.3011 14.4328 16.2358C14.4328 16.1782 14.4224 16.1284 14.4005 16.0863C14.3795 16.0442 14.3441 16.0122 14.2949 15.99L14.295 16.4982ZM14.1768 15.1155C14.145 15.1343 14.12 15.1631 14.1017 15.2051C14.083 15.2473 14.074 15.2926 14.074 15.3424C14.074 15.3878 14.0823 15.431 14.0989 15.4698C14.1159 15.5096 14.1418 15.5406 14.1768 15.5649V15.1155ZM14.1768 16.476V15.9336C14.0712 15.886 13.994 15.8129 13.9448 15.7144C13.8956 15.6159 13.871 15.4975 13.871 15.358C13.871 15.2163 13.8987 15.0967 13.9548 15.0004C14.0102 14.9041 14.0843 14.8487 14.1768 14.8343V14.707H14.295V14.8343C14.3815 14.851 14.4501 14.8974 14.5013 14.975C14.5526 15.0524 14.5852 15.1565 14.5994 15.2861L14.3929 15.3281C14.3801 15.2263 14.3476 15.1577 14.295 15.1211V15.627C14.4255 15.6835 14.5145 15.7565 14.5616 15.8451C14.6091 15.9348 14.6326 16.0499 14.6326 16.1894C14.6326 16.3454 14.6032 16.4772 14.5433 16.5846C14.4837 16.6919 14.4013 16.7584 14.295 16.7849V17.0274H14.1768V16.7872C14.0837 16.7694 14.0082 16.7141 13.9497 16.6222C13.8912 16.5293 13.8541 16.3986 13.8378 16.2293L14.049 16.1894C14.0573 16.2591 14.074 16.3178 14.0975 16.3687C14.1218 16.4184 14.1478 16.4539 14.1768 16.476ZM20 10H10.9565V10.2413H19.7741C19.8212 10.2413 19.8593 10.3022 19.8593 10.3775V17.6195H20V10ZM19.689 17.7591V17.7557V10.5136H10.8713H10.8689H10.6458V10.7561H19.4635C19.5105 10.7561 19.5487 10.8169 19.5487 10.8923V18.1343H19.689V17.7591ZM19.3786 18.2738V18.2694V11.0284H10.5606H10.5585H10.3348V11.2697H19.1528C19.1999 11.2697 19.238 11.3306 19.238 11.4059V18.6479H19.3786V18.2738ZM19.0676 18.7874V18.7841V11.5421H10.2496H10.2475H10.0241V11.7845H18.8418C18.8889 11.7845 18.927 11.8454 18.927 11.9207V19.1627H19.0676V18.7874H19.0676ZM18.7566 19.3022V19.2978V12.0568H9.93895H9.93685H9.71345V19.6764H18.7566L18.7566 19.3022ZM15.0514 14.562C14.8425 14.2277 14.554 14.0218 14.2354 14.0218C13.9185 14.0218 13.6313 14.2254 13.4232 14.5543L13.4187 14.562C13.2102 14.8963 13.0806 15.3568 13.0806 15.8671C13.0806 16.3764 13.2099 16.838 13.4187 17.1712C13.6272 17.5055 13.9161 17.7114 14.2354 17.7114C14.554 17.7114 14.8425 17.5044 15.0514 17.1712C15.2605 16.838 15.3894 16.3764 15.3894 15.8671C15.3894 15.3568 15.2605 14.8963 15.0514 14.562ZM14.2354 13.7384C14.6028 13.7384 14.9356 13.9764 15.1768 14.3616C15.4178 14.7469 15.5668 15.2793 15.5668 15.8672C15.5668 16.4539 15.4178 16.9864 15.1768 17.3716C14.9356 17.7568 14.6032 17.9948 14.2354 17.9948C13.8676 17.9948 13.5351 17.7568 13.294 17.3716L13.292 17.3683C13.0519 16.983 12.9033 16.4528 12.9033 15.8672C12.9033 15.2783 13.0523 14.7469 13.2933 14.3616L13.2988 14.3539C13.5392 13.9731 13.8703 13.7384 14.2354 13.7384ZM17.3989 12.9369H11.0718C11.0514 13.2723 10.9569 13.5757 10.8152 13.8015C10.6735 14.0284 10.4838 14.179 10.2739 14.211V17.521C10.4838 17.5531 10.6735 17.7048 10.8152 17.9317C10.9569 18.1575 11.0514 18.4609 11.0718 18.7963H17.3989C17.419 18.4609 17.5132 18.1575 17.6552 17.9317C17.7969 17.7047 17.9864 17.5531 18.1969 17.521V14.211C17.9863 14.179 17.7969 14.0284 17.6552 13.8015C17.5132 13.5757 17.419 13.2723 17.3989 12.9369ZM10.0761 20.5819C10.0293 20.5819 9.99089 20.5199 9.99089 20.4457C9.99089 20.3705 10.0293 20.3096 10.0761 20.3096H15.5913C15.6381 20.3096 15.6765 20.3705 15.6765 20.4457C15.6765 20.5199 15.6381 20.5819 15.5913 20.5819H10.0761ZM12.9972 21.1896C12.9504 21.1896 12.912 21.1288 12.912 21.0535C12.912 20.9793 12.9504 20.9184 12.9972 20.9184H17.3289C17.3757 20.9184 17.4141 20.9793 17.4141 21.0535C17.4141 21.1288 17.3757 21.1896 17.3289 21.1896H12.9972ZM17.7723 21.1896C17.7252 21.1896 17.6871 21.1288 17.6871 21.0535C17.6871 20.9793 17.7252 20.9184 17.7723 20.9184H18.314C18.3607 20.9184 18.3992 20.9793 18.3992 21.0535C18.3992 21.1288 18.3607 21.1896 18.314 21.1896H17.7723ZM9.08518 21.172C9.03809 21.172 9 21.1111 9 21.0358C9 20.9606 9.03809 20.8997 9.08518 20.8997H11.1376C11.1847 20.8997 11.2228 20.9606 11.2228 21.0358C11.2228 21.1111 11.1847 21.172 11.1376 21.172H9.08518ZM10.9907 12.6646H17.4799C17.5267 12.6646 17.5648 12.7255 17.5648 12.8007C17.5648 13.1151 17.6455 13.4018 17.7757 13.6088C17.9053 13.8169 18.0847 13.9465 18.2821 13.9465C18.3288 13.9465 18.3673 14.0074 18.3673 14.0827V17.6505C18.3673 17.7258 18.3289 17.7867 18.2821 17.7867C18.0847 17.7867 17.9053 17.9162 17.7757 18.1232C17.6455 18.3313 17.5648 18.618 17.5648 18.9324C17.5648 19.0077 17.5267 19.0686 17.4799 19.0686H10.9907C10.9437 19.0686 10.9055 19.0077 10.9055 18.9324C10.9055 18.618 10.8245 18.3313 10.6947 18.1232C10.5647 17.9162 10.3853 17.7867 10.1886 17.7867C10.1415 17.7867 10.1034 17.7258 10.1034 17.6505V14.0827C10.1034 14.0073 10.1415 13.9465 10.1886 13.9465C10.3853 13.9465 10.5647 13.8169 10.6947 13.6088C10.8245 13.4018 10.9055 13.1151 10.9055 12.8007C10.9056 12.7255 10.9437 12.6646 10.9907 12.6646Z" fill="#FF8FCC"/>
</svg>
