<svg width="29" height="29" viewBox="0 0 29 29" fill="none" xmlns="http://www.w3.org/2000/svg">
<circle cx="14.5" cy="14.5" r="14.5" fill="#CCB5FF"/>
<path d="M20.5418 16.8835V18.6637C20.5418 19.2257 20.1316 19.6809 19.6252 19.6809H11.3752C10.8687 19.6809 10.4585 19.2257 10.4585 18.6637V10.5258C10.4585 11.0878 10.8687 11.543 11.3752 11.543H19.6252C20.1316 11.543 20.5418 11.9982 20.5418 12.5602V14.3404H17.5627C17.2464 14.3404 16.96 14.4828 16.7514 14.7117C16.5452 14.9431 16.4168 15.261 16.4168 15.612C16.4168 16.3138 16.9302 16.8835 17.5627 16.8835H20.5418Z" fill="#9B74F2"/>
<path d="M20.5417 14.3404V16.8835H17.5625C17.8787 16.8835 18.1652 16.7411 18.3738 16.5122C18.58 16.2807 18.7083 15.9629 18.7083 15.6119C18.7083 14.9101 18.1949 14.3404 17.5625 14.3404H20.5417Z" fill="#E0F7FA"/>
<path d="M19.1668 10.5257V11.5429H11.3752C10.8687 11.5429 10.4585 11.0877 10.4585 10.5257C10.4585 10.2459 10.5617 9.99159 10.7266 9.80595C10.8939 9.62291 11.1231 9.50842 11.3752 9.50842H18.2502C18.7566 9.50842 19.1668 9.96365 19.1668 10.5257Z" fill="#9B74F2"/>
<path d="M17.5623 14.3404C18.1948 14.3404 18.7082 14.9101 18.7082 15.6119C18.7082 15.9629 18.5798 16.2807 18.3736 16.5122C18.165 16.7411 17.8786 16.8835 17.5623 16.8835C16.9299 16.8835 16.4165 16.3138 16.4165 15.6119C16.4165 15.261 16.5449 14.9431 16.7511 14.7117C16.9597 14.4828 17.2461 14.3404 17.5623 14.3404Z" fill="#E0F7FA"/>
<path d="M19.625 11.0343V10.5257C19.625 9.68414 19.0083 8.99982 18.25 8.99982H11.375C11.0109 8.99982 10.6665 9.15752 10.3999 9.44921C10.1421 9.7394 10 10.1219 10 10.5257V18.6636C10 19.5051 10.6167 20.1895 11.375 20.1895H19.625C20.3833 20.1895 21 19.5051 21 18.6636V12.5602C21 11.7186 20.3833 11.0343 19.625 11.0343ZM16.875 15.6119C16.875 15.4082 16.9467 15.2154 17.0737 15.0732C17.2052 14.9285 17.379 14.8489 17.5625 14.8489C17.9415 14.8489 18.25 15.1913 18.25 15.6119C18.25 15.8155 18.1783 16.0084 18.0513 16.1505C17.9198 16.2952 17.746 16.3748 17.5625 16.3748C17.1835 16.3748 16.875 16.0325 16.875 15.6119ZM19.0097 14.8489H20.0833V16.3748H19.0108C19.1116 16.1385 19.1667 15.88 19.1667 15.6119C19.1667 15.3387 19.1092 15.0807 19.0097 14.8489ZM11.0483 10.1682C11.1373 10.0707 11.2534 10.0171 11.375 10.0171H18.25C18.5028 10.0171 18.7083 10.2452 18.7083 10.5257V11.0343H11.375C11.1222 11.0343 10.9167 10.8062 10.9167 10.5257C10.9167 10.3909 10.965 10.2619 11.0483 10.1682ZM19.625 19.1722H11.375C11.1222 19.1722 10.9167 18.9441 10.9167 18.6636V11.9625C11.0603 12.0193 11.2141 12.0515 11.375 12.0515H19.625C19.8778 12.0515 20.0833 12.2796 20.0833 12.5602V13.8317H17.5625C17.1361 13.8317 16.7333 14.0159 16.4254 14.3541C16.1243 14.692 15.9583 15.1389 15.9583 15.6119C15.9583 16.5932 16.6779 17.392 17.5625 17.392H20.0833V18.6636C20.0833 18.9441 19.8778 19.1722 19.625 19.1722Z" fill="#012E52"/>
</svg>
