<svg width="20" height="14" viewBox="0 0 20 14" fill="none" xmlns="http://www.w3.org/2000/svg">
<path d="M12.6562 4.34375C11.9518 3.63927 10.9963 3.2435 10 3.2435C9.00371 3.2435 8.04823 3.63927 7.34375 4.34375C6.63927 5.04823 6.2435 6.00371 6.2435 7C6.2435 7.99629 6.63927 8.95177 7.34375 9.65625M8.09375 12.4063C8.7185 12.5531 9.35824 12.6265 10 12.625C15.375 12.625 19.2188 7.15625 19.2188 7.15625C18.3664 6.01996 17.3683 5.00079 16.25 4.125L8.09375 12.4063ZM14.2188 2.78125C12.9219 2.0801 11.4741 1.70474 10 1.6875C4.625 1.6875 0.78125 7.15625 0.78125 7.15625C2.07985 8.88531 3.71737 10.3314 5.59375 11.4063L14.2188 2.78125ZM10 10.75C10.9946 10.75 11.9484 10.3549 12.6517 9.65165C13.3549 8.94839 13.75 7.99456 13.75 7L10 10.75Z" stroke="#40325d" stroke-opacity="0.6" stroke-width="1.8" stroke-miterlimit="10" stroke-linecap="round" stroke-linejoin="round"/>
</svg>
