<svg width="62" height="62" viewBox="0 0 62 62" fill="none" xmlns="http://www.w3.org/2000/svg">
<circle cx="31" cy="31" r="30" fill="#FFF8CD" fill-opacity="0.8" stroke="#F8B739" stroke-width="2"/>
<g clip-path="url(#clip0)">
<path d="M31.8824 18.6465V16.8824C31.8824 16.3951 31.4873 16 31 16C30.5127 16 30.1177 16.3951 30.1177 16.8824V18.6465C23.0101 19.0961 17.3235 24.9932 17.3235 32.2941C17.3235 32.7814 17.7186 33.1765 18.2059 33.1765C18.6932 33.1765 19.0883 32.7814 19.0883 32.2941C19.0883 31.5294 20.5375 30.6741 22.4769 30.6741C24.4163 30.6741 25.8656 31.5294 25.8656 32.2941C25.8656 32.7814 26.2607 33.1765 26.748 33.1765C27.2353 33.1765 27.6303 32.7814 27.6303 32.2941C27.6303 31.6515 28.6482 30.9451 30.1177 30.7359V42.8335C30.1177 44.5795 31.5381 46 33.2841 46C34.9248 46 36.4512 44.7358 36.4512 42.7059C36.4512 42.2186 36.0561 41.8235 35.5688 41.8235C35.0815 41.8235 34.6865 42.2186 34.6865 42.7059C34.6865 43.7169 33.9897 44.2353 33.2841 44.2353C32.5112 44.2353 31.8824 43.6065 31.8824 42.8335V30.7359C33.3518 30.9451 34.3697 31.6515 34.3697 32.2941C34.3697 32.7814 34.7648 33.1765 35.2521 33.1765C35.7394 33.1765 36.1344 32.7814 36.1344 32.2941C36.1344 31.5294 37.5837 30.6741 39.5231 30.6741C41.4625 30.6741 42.9118 31.5294 42.9118 32.2941C42.9118 32.7814 43.3068 33.1765 43.7941 33.1765C44.2814 33.1765 44.6765 32.7814 44.6765 32.2941C44.6765 24.9617 38.956 19.0938 31.8824 18.6465V18.6465ZM34.2785 29.6655C32.4433 28.6735 29.6411 28.6459 27.739 29.6565C27.7341 29.6591 27.729 29.6615 27.724 29.6641C27.7232 29.6646 27.7223 29.665 27.7215 29.6654C28.1344 23.8162 29.8453 20.3824 31 20.3824C32.1298 20.3824 33.86 23.7358 34.2785 29.6655V29.6655ZM25.9438 29.7638C24.1153 28.6919 21.335 28.6358 19.4062 29.5543C20.4288 25.2258 23.8199 21.8025 28.1301 20.7324C26.7258 23.147 26.1293 26.9492 25.9466 29.7656C25.9457 29.765 25.9448 29.7644 25.9438 29.7638V29.7638ZM36.0534 29.7656C35.8715 26.9616 35.2771 23.1518 33.8701 20.7324C38.1803 21.8026 41.5712 25.2259 42.5938 29.5543C40.5751 28.5929 37.764 28.7431 36.0534 29.7656V29.7656Z" fill="#F8B739"/>
<path d="M19.6695 21C20.1568 21 20.5519 20.605 20.5519 20.1177V19.6863C20.5519 19.199 20.1568 18.804 19.6695 18.804C19.1822 18.804 18.7872 19.199 18.7872 19.6863V20.1177C18.7872 20.605 19.1822 21 19.6695 21V21Z" fill="#F8B739"/>
<path d="M38.7451 18.1961C39.2324 18.1961 39.6275 17.801 39.6275 17.3137V16.8824C39.6275 16.3951 39.2324 16 38.7451 16C38.2579 16 37.8628 16.3951 37.8628 16.8824V17.3137C37.8628 17.801 38.2579 18.1961 38.7451 18.1961Z" fill="#F8B739"/>
<path d="M42.5687 21.4314C43.056 21.4314 43.451 21.0364 43.451 20.5491V20.1177C43.451 19.6304 43.056 19.2354 42.5687 19.2354C42.0814 19.2354 41.6863 19.6304 41.6863 20.1177V20.5491C41.6863 21.0364 42.0814 21.4314 42.5687 21.4314Z" fill="#F8B739"/>
</g>
<defs>
<clipPath id="clip0">
<rect x="16" y="16" width="30" height="30" fill="white"/>
</clipPath>
</defs>
</svg>
