<svg width="62" height="62" viewBox="0 0 62 62" fill="none" xmlns="http://www.w3.org/2000/svg">
<circle cx="31" cy="31" r="30" fill="#FFF8CD" fill-opacity="0.8" stroke="#F8B739" stroke-width="2"/>
<g clip-path="url(#clip0)">
<path d="M35.6856 25.3704C36.3841 29.7991 36.6644 36.3944 32.0097 41.7241M19.7491 45.0579C20.9184 43.8692 22.3128 42.9254 23.8509 42.2815C25.389 41.6377 27.04 41.3067 28.7074 41.3079C34.3886 41.3079 38.4996 45.0579 38.4996 45.0579H19.7491Z" stroke="#F8B739" stroke-width="2" stroke-linecap="round" stroke-linejoin="round"/>
<path d="M31.9365 31.9329C32.2455 31.4829 35.0898 26.4297 35.6059 25.5124C35.6151 25.4963 35.6281 25.4827 35.6437 25.4728C35.6593 25.4628 35.6771 25.4568 35.6955 25.4553C35.7139 25.4537 35.7325 25.4566 35.7495 25.4638C35.7666 25.471 35.7817 25.4822 35.7934 25.4965L41.3106 31.9324C41.3065 29.6872 40.7001 27.4842 39.5547 25.5532C39.5492 25.5453 39.5467 25.5356 39.5478 25.5261C39.5488 25.5165 39.5533 25.5076 39.5604 25.5011C39.5675 25.4946 39.5767 25.4908 39.5864 25.4906C39.596 25.4903 39.6054 25.4936 39.6128 25.4997C41.0211 26.5456 42.5327 27.4447 44.124 28.1829C44.124 28.1829 44.2881 25.5794 41.4662 23.6018C41.4545 23.5939 41.4455 23.5825 41.4405 23.5693C41.4355 23.5561 41.4348 23.5416 41.4384 23.528C41.442 23.5143 41.4498 23.5021 41.4607 23.4931C41.4715 23.484 41.4849 23.4786 41.499 23.4775C43.5222 23.2652 44.124 22.5579 44.124 22.5579C44.124 22.5579 41.568 20.389 38.6453 21.5594C38.6316 21.5657 38.6164 21.568 38.6014 21.5663C38.5865 21.5645 38.5723 21.5586 38.5604 21.5494C38.5485 21.5401 38.5394 21.5277 38.534 21.5136C38.5287 21.4995 38.5273 21.4843 38.53 21.4694C38.8483 19.9296 39.4365 17.8704 39.4365 17.8704C39.4365 17.8704 36.7942 18.9579 35.7508 20.5779C35.7327 20.6061 35.7044 20.6263 35.6718 20.6341C35.6392 20.642 35.6049 20.6369 35.5759 20.62C32.9584 19.1463 30.999 19.7458 30.999 19.7458L33.684 22.4308C33.6933 22.4395 33.6995 22.4509 33.702 22.4633C33.7045 22.4757 33.703 22.4886 33.6978 22.5002C33.6926 22.5117 33.6839 22.5214 33.6729 22.5278C33.662 22.5342 33.6493 22.537 33.6367 22.5358C32.5499 22.4188 31.4528 22.6254 30.483 23.1297C29.5132 23.6339 28.7139 24.4135 28.1856 25.3704C29.6854 25.1654 31.2054 25.1541 32.7081 25.3366C32.7241 25.3392 32.739 25.346 32.7513 25.3564C32.7637 25.3669 32.7729 25.3805 32.7781 25.3958C32.7832 25.4111 32.7841 25.4275 32.7806 25.4432C32.7771 25.459 32.7694 25.4735 32.7583 25.4852C32.3317 25.946 30.9259 27.8383 31.9365 31.9329V31.9329Z" stroke="#F8B739" stroke-width="2" stroke-linecap="round" stroke-linejoin="round"/>
<path d="M21.6241 32.8727C23.6952 32.8727 25.3741 31.1937 25.3741 29.1227C25.3741 27.0516 23.6952 25.3727 21.6241 25.3727C19.553 25.3727 17.8741 27.0516 17.8741 29.1227C17.8741 31.1937 19.553 32.8727 21.6241 32.8727Z" stroke="#F8B739" stroke-width="2" stroke-linecap="round" stroke-linejoin="round"/>
</g>
<defs>
<clipPath id="clip0">
<rect x="16" y="16" width="30" height="30" fill="white"/>
</clipPath>
</defs>
</svg>
