<svg width="56" height="56" viewBox="0 0 56 56" fill="none" xmlns="http://www.w3.org/2000/svg">
<path d="M43.5552 20.8889C43.5552 23.5893 41.3668 25.7778 38.6663 25.7778H18.2219C15.5215 25.7778 13.333 23.5893 13.333 20.8889V10.2222C13.333 7.52176 15.5215 5.33331 18.2219 5.33331H38.6663C41.3668 5.33331 43.5552 7.52176 43.5552 10.2222V20.8889ZM40.8886 10.2222C40.8886 8.99465 39.8939 7.99998 38.6663 7.99998H18.2219C16.9943 7.99998 15.9997 8.99465 15.9997 10.2222V20.8889C15.9997 22.1164 16.9943 23.1111 18.2219 23.1111H38.6663C39.8939 23.1111 40.8886 22.1164 40.8886 20.8889V10.2222Z" fill="#0E237E"/>
<path d="M49.7772 40.4444C49.7772 43.1449 47.5888 45.3333 44.8883 45.3333H11.1106C8.41012 45.3333 6.22168 43.1449 6.22168 40.4444V4.88889C6.22168 2.18844 8.41012 0 11.1106 0H44.8883C47.5888 0 49.7772 2.18844 49.7772 4.88889V40.4444ZM47.1106 4.88889C47.1106 3.66133 46.1159 2.66667 44.8883 2.66667H11.1106C9.88301 2.66667 8.88835 3.66133 8.88835 4.88889V40.4444C8.88835 41.672 9.88301 42.6667 11.1106 42.6667H44.8883C46.1159 42.6667 47.1106 41.672 47.1106 40.4444V4.88889Z" fill="#0E237E"/>
<path d="M20.6116 38.1849L20.1253 36.9031H15.9733L15.4853 38.2125C15.2942 38.7236 15.1325 39.0685 14.9973 39.2471C14.8631 39.4258 14.6427 39.5156 14.336 39.5156C14.0756 39.5156 13.8462 39.4205 13.6471 39.2302C13.4471 39.0391 13.3467 38.8231 13.3467 38.5813C13.3467 38.4427 13.3698 38.2987 13.416 38.1502C13.4622 38.0018 13.5387 37.7947 13.6471 37.5298L16.2587 30.8978C16.3325 30.7076 16.4231 30.4791 16.5271 30.2116C16.6311 29.944 16.7422 29.7227 16.8613 29.5458C16.9796 29.3698 17.1342 29.2276 17.328 29.1182C17.5209 29.0089 17.7582 28.9538 18.0427 28.9538C18.3298 28.9538 18.5707 29.0089 18.7627 29.1182C18.9556 29.2276 19.112 29.368 19.2302 29.5387C19.3485 29.7111 19.448 29.896 19.5298 30.0925C19.6098 30.2907 19.7147 30.5547 19.8391 30.8836L22.5076 37.4738C22.7165 37.976 22.8205 38.3405 22.8205 38.568C22.8205 38.8045 22.7218 39.0213 22.5253 39.2196C22.3271 39.4169 22.0898 39.5156 21.8107 39.5156C21.648 39.5156 21.5085 39.4862 21.3929 39.4276C21.2773 39.3698 21.1796 39.2916 21.0996 39.1911C21.0213 39.0916 20.9369 38.9387 20.8462 38.7316C20.7556 38.5253 20.6782 38.3431 20.6116 38.1849ZM16.5165 35.3502H19.568L18.0285 31.1342L16.5165 35.3502Z" fill="#0E237E"/>
<path d="M29.7179 30.8347H27.461V38.2542C27.461 38.6818 27.365 38.9991 27.1739 39.2053C26.9837 39.4124 26.7384 39.5155 26.4361 39.5155C26.1286 39.5155 25.8797 39.4107 25.6868 39.2018C25.4948 38.9929 25.3979 38.6773 25.3979 38.2542V30.8347H23.141C22.7881 30.8347 22.5259 30.7582 22.3535 30.6018C22.1819 30.4462 22.0957 30.24 22.0957 29.9849C22.0957 29.7209 22.1855 29.5111 22.3641 29.3582C22.5428 29.2044 22.8015 29.128 23.141 29.128H29.7179C30.0753 29.128 30.341 29.2071 30.5144 29.3653C30.6886 29.5235 30.7766 29.7298 30.7766 29.9849C30.7766 30.24 30.6877 30.4462 30.5108 30.6018C30.3348 30.7582 30.0699 30.8347 29.7179 30.8347Z" fill="#0E237E"/>
<path d="M35.4508 37.8009L33.8134 31.2951V38.3449C33.8134 38.7351 33.7263 39.0275 33.553 39.2231C33.3788 39.4178 33.1477 39.5155 32.8597 39.5155C32.5806 39.5155 32.353 39.4195 32.1761 39.2267C32.001 39.0338 31.9121 38.7395 31.9121 38.3449V30.264C31.9121 29.8178 32.0286 29.5173 32.2606 29.3618C32.4926 29.2062 32.8063 29.128 33.201 29.128H33.841C34.2268 29.128 34.5068 29.1635 34.6819 29.2329C34.8552 29.3031 34.9841 29.4275 35.0677 29.6098C35.1521 29.7902 35.2463 30.0853 35.353 30.4942L36.8374 36.088L38.321 30.4942C38.4277 30.0853 38.5237 29.7902 38.6072 29.6098C38.6899 29.4275 38.8188 29.3031 38.9939 29.2329C39.1672 29.1635 39.4472 29.128 39.8321 29.128H40.473C40.8686 29.128 41.1814 29.2062 41.4143 29.3618C41.6472 29.5173 41.7628 29.8178 41.7628 30.264V38.3449C41.7628 38.7351 41.6757 39.0275 41.5006 39.2231C41.3272 39.4178 41.0934 39.5155 40.801 39.5155C40.5272 39.5155 40.3014 39.4178 40.1263 39.2231C39.9486 39.0275 39.8606 38.7351 39.8606 38.3449V31.2951L38.2232 37.8009C38.1174 38.224 38.0294 38.5342 37.9628 38.7315C37.8952 38.9289 37.7708 39.1093 37.5894 39.272C37.409 39.4338 37.1574 39.5155 36.8374 39.5155C36.5966 39.5155 36.3912 39.4622 36.225 39.3582C36.0561 39.2542 35.9272 39.1209 35.8339 38.9582C35.7414 38.7955 35.6677 38.6151 35.6143 38.4187C35.5619 38.2204 35.5059 38.016 35.4508 37.8009Z" fill="#0E237E"/>
<path d="M37.8422 16H33.3978C32.6618 16 32.0645 15.4035 32.0645 14.6666C32.0645 13.9298 32.6618 13.3333 33.3978 13.3333H37.8422C38.5782 13.3333 39.1756 13.9298 39.1756 14.6666C39.1756 15.4035 38.5782 16 37.8422 16Z" fill="#0E237E"/>
<path d="M37.8422 20.4444H33.3978C32.6618 20.4444 32.0645 19.848 32.0645 19.1111C32.0645 18.3742 32.6618 17.7778 33.3978 17.7778H37.8422C38.5782 17.7778 39.1756 18.3742 39.1756 19.1111C39.1756 19.848 38.5782 20.4444 37.8422 20.4444Z" fill="#0E237E"/>
<path d="M22.7309 16H18.2865C17.5505 16 16.9531 15.4035 16.9531 14.6666C16.9531 13.9298 17.5505 13.3333 18.2865 13.3333H22.7309C23.4669 13.3333 24.0642 13.9298 24.0642 14.6666C24.0642 15.4035 23.4669 16 22.7309 16Z" fill="#0E237E"/>
<path d="M22.7309 20.4444H18.2865C17.5505 20.4444 16.9531 19.848 16.9531 19.1111C16.9531 18.3742 17.5505 17.7778 18.2865 17.7778H22.7309C23.4669 17.7778 24.0642 18.3742 24.0642 19.1111C24.0642 19.848 23.4669 20.4444 22.7309 20.4444Z" fill="#0E237E"/>
<path d="M55.1109 51.1111C55.1109 53.8116 52.9225 56 50.222 56H5.77756C3.07712 56 0.888672 53.8116 0.888672 51.1111V47.5556C0.888672 44.8551 3.07712 42.6667 5.77756 42.6667H50.222C52.9225 42.6667 55.1109 44.8551 55.1109 47.5556V51.1111ZM52.4442 47.5556C52.4442 46.328 51.4496 45.3334 50.222 45.3334H5.77756C4.55001 45.3334 3.55534 46.328 3.55534 47.5556V51.1111C3.55534 52.3387 4.55001 53.3334 5.77756 53.3334H50.222C51.4496 53.3334 52.4442 52.3387 52.4442 51.1111V47.5556Z" fill="#0E237E"/>
</svg>
