<svg width="29" height="29" viewBox="0 0 29 29" fill="none" xmlns="http://www.w3.org/2000/svg">
<mask id="mask0" mask-type="alpha" maskUnits="userSpaceOnUse" x="0" y="0" width="29" height="30">
<path d="M27.5156 11.4568L25.4801 11.1114C25.2681 10.4269 24.9955 9.76653 24.6623 9.13649L25.8618 7.45842C26.3706 6.74357 26.2919 5.76823 25.6679 5.15031L23.8626 3.34501C23.5234 3.00576 23.0751 2.81796 22.5965 2.81796C22.2209 2.81796 21.8635 2.93307 21.5605 3.15116L19.8764 4.35065C19.2221 4.00534 18.5376 3.72061 17.8288 3.50858L17.4895 1.49731C17.3442 0.631012 16.599 0.000976562 15.7206 0.000976562H13.1702C12.2918 0.000976562 11.5466 0.631012 11.4012 1.49731L11.0499 3.55704C10.3714 3.76908 9.71103 4.04774 9.081 4.38699L7.41504 3.1875C7.11213 2.96941 6.74865 2.85431 6.37305 2.85431C5.89447 2.85431 5.44012 3.04211 5.10692 3.38136L3.29557 5.18666C2.67765 5.80458 2.59284 6.77992 3.10171 7.49477L4.31332 9.19707C3.98013 9.83317 3.71358 10.4935 3.5076 11.1781L1.49633 11.5173C0.630036 11.6627 0 12.4079 0 13.2863V15.8367C0 16.7151 0.630036 17.4603 1.49633 17.6057L3.55607 17.957C3.7681 18.6355 4.04677 19.2958 4.38602 19.9259L3.19258 21.5858C2.68371 22.3006 2.76246 23.276 3.38644 23.8939L5.19174 25.6992C5.53099 26.0384 5.97928 26.2262 6.45787 26.2262C6.83346 26.2262 7.19089 26.1111 7.49379 25.893L9.1961 24.6814C9.80796 25.0025 10.4501 25.263 11.1104 25.469L11.4497 27.5045C11.5951 28.3708 12.3402 29.0008 13.2186 29.0008H15.7751C16.6535 29.0008 17.3987 28.3708 17.5441 27.5045L17.8894 25.469C18.5739 25.257 19.2343 24.9843 19.8643 24.6512L21.5424 25.8506C21.8453 26.0687 22.2088 26.1838 22.5844 26.1838C23.0629 26.1838 23.5112 25.996 23.8505 25.6568L25.6558 23.8515C26.2737 23.2336 26.3585 22.2582 25.8496 21.5434L24.6501 19.8592C24.9833 19.2232 25.262 18.5628 25.468 17.8843L27.5035 17.5451C28.3698 17.3997 28.9998 16.6545 28.9998 15.7761V13.2257C29.0119 12.3473 28.3819 11.6021 27.5156 11.4568ZM27.3763 15.7761C27.3763 15.8549 27.3217 15.9215 27.243 15.9336L24.6986 16.3577C24.3775 16.4122 24.1231 16.6485 24.0443 16.9574C23.8141 17.848 23.4628 18.7022 22.9902 19.4958C22.8267 19.7744 22.8388 20.1197 23.0266 20.3863L24.5229 22.4945C24.5653 22.5551 24.5593 22.6459 24.5048 22.7005L22.6995 24.5058C22.6571 24.5482 22.6146 24.5542 22.5844 24.5542C22.548 24.5542 22.5177 24.5421 22.4935 24.5239L20.3913 23.0276C20.1309 22.8398 19.7795 22.8277 19.5008 22.9913C18.7072 23.4638 17.853 23.8151 16.9625 24.0453C16.6475 24.1241 16.4112 24.3846 16.3628 24.6996L15.9326 27.244C15.9205 27.3227 15.8539 27.3773 15.7751 27.3773H13.2247C13.1459 27.3773 13.0793 27.3227 13.0672 27.244L12.6431 24.6996C12.5886 24.3785 12.3523 24.1241 12.0434 24.0453C11.1771 23.8212 10.3411 23.4759 9.55958 23.0276C9.43236 22.9549 9.28697 22.9186 9.14763 22.9186C8.98407 22.9186 8.81444 22.967 8.67511 23.07L6.55479 24.5785C6.5245 24.5966 6.49421 24.6087 6.46392 24.6087C6.43969 24.6087 6.39123 24.6027 6.34882 24.5603L4.54353 22.755C4.489 22.7005 4.48295 22.6157 4.52535 22.549L6.01563 20.459C6.20343 20.1924 6.21554 19.8411 6.05198 19.5624C5.57945 18.7749 5.21597 17.9207 4.98576 17.0301C4.90095 16.7212 4.64651 16.4849 4.3315 16.4304L1.76895 15.9942C1.69019 15.9821 1.63567 15.9155 1.63567 15.8367V13.2863C1.63567 13.2075 1.69019 13.1409 1.76895 13.1288L4.29515 12.7047C4.61622 12.6502 4.87672 12.4139 4.95547 12.0989C5.17962 11.2084 5.52493 10.3481 5.9914 9.5545C6.15496 9.27583 6.13679 8.93052 5.94899 8.67003L4.44054 6.54971C4.39813 6.48913 4.40419 6.39826 4.45871 6.34374L6.26401 4.53845C6.30642 4.49604 6.34882 4.48998 6.37911 4.48998C6.41546 4.48998 6.44575 4.5021 6.46998 4.52027L8.56001 6.01055C8.82656 6.19835 9.17792 6.21046 9.45659 6.0469C10.2441 5.57437 11.0983 5.21089 11.9889 4.98068C12.2978 4.89587 12.5341 4.64143 12.5886 4.32641L13.0248 1.76387C13.0369 1.68511 13.1035 1.63059 13.1823 1.63059H15.7327C15.8115 1.63059 15.8781 1.68511 15.8902 1.76387L16.3143 4.29007C16.3688 4.61114 16.6051 4.87164 16.9201 4.95039C17.8349 5.1806 18.7072 5.53802 19.519 6.01661C19.7977 6.18017 20.143 6.16806 20.4095 5.98026L22.4995 4.47787C22.5298 4.45969 22.5601 4.44758 22.5904 4.44758C22.6146 4.44758 22.6631 4.45363 22.7055 4.49604L24.5108 6.30133C24.5653 6.35586 24.5714 6.44067 24.529 6.50731L23.0327 8.60945C22.8449 8.86994 22.8327 9.22131 22.9963 9.49998C23.4688 10.2936 23.8202 11.1478 24.0504 12.0383C24.1292 12.3533 24.3897 12.5896 24.7047 12.6381L27.249 13.0682C27.3278 13.0803 27.3823 13.1469 27.3823 13.2257V15.7761H27.3763Z" fill="#323A5D"/>
</mask>
<g mask="url(#mask0)">
<path d="M27.5156 11.4568L25.4801 11.1114C25.2681 10.4269 24.9955 9.76653 24.6623 9.13649L25.8618 7.45842C26.3706 6.74357 26.2919 5.76823 25.6679 5.15031L23.8626 3.34501C23.5234 3.00576 23.0751 2.81796 22.5965 2.81796C22.2209 2.81796 21.8635 2.93307 21.5605 3.15116L19.8764 4.35065C19.2221 4.00534 18.5376 3.72061 17.8288 3.50858L17.4895 1.49731C17.3442 0.631012 16.599 0.000976562 15.7206 0.000976562H13.1702C12.2918 0.000976562 11.5466 0.631012 11.4012 1.49731L11.0499 3.55704C10.3714 3.76908 9.71103 4.04774 9.081 4.38699L7.41504 3.1875C7.11213 2.96941 6.74865 2.85431 6.37305 2.85431C5.89447 2.85431 5.44012 3.04211 5.10692 3.38136L3.29557 5.18666C2.67765 5.80458 2.59284 6.77992 3.10171 7.49477L4.31332 9.19707C3.98013 9.83317 3.71358 10.4935 3.5076 11.1781L1.49633 11.5173C0.630036 11.6627 0 12.4079 0 13.2863V15.8367C0 16.7151 0.630036 17.4603 1.49633 17.6057L3.55607 17.957C3.7681 18.6355 4.04677 19.2958 4.38602 19.9259L3.19258 21.5858C2.68371 22.3006 2.76246 23.276 3.38644 23.8939L5.19174 25.6992C5.53099 26.0384 5.97928 26.2262 6.45787 26.2262C6.83346 26.2262 7.19089 26.1111 7.49379 25.893L9.1961 24.6814C9.80796 25.0025 10.4501 25.263 11.1104 25.469L11.4497 27.5045C11.5951 28.3708 12.3402 29.0008 13.2186 29.0008H15.7751C16.6535 29.0008 17.3987 28.3708 17.5441 27.5045L17.8894 25.469C18.5739 25.257 19.2343 24.9843 19.8643 24.6512L21.5424 25.8506C21.8453 26.0687 22.2088 26.1838 22.5844 26.1838C23.0629 26.1838 23.5112 25.996 23.8505 25.6568L25.6558 23.8515C26.2737 23.2336 26.3585 22.2582 25.8496 21.5434L24.6501 19.8592C24.9833 19.2232 25.262 18.5628 25.468 17.8843L27.5035 17.5451C28.3698 17.3997 28.9998 16.6545 28.9998 15.7761V13.2257C29.0119 12.3473 28.3819 11.6021 27.5156 11.4568ZM27.3763 15.7761C27.3763 15.8549 27.3217 15.9215 27.243 15.9336L24.6986 16.3577C24.3775 16.4122 24.1231 16.6485 24.0443 16.9574C23.8141 17.848 23.4628 18.7022 22.9902 19.4958C22.8267 19.7744 22.8388 20.1197 23.0266 20.3863L24.5229 22.4945C24.5653 22.5551 24.5593 22.6459 24.5048 22.7005L22.6995 24.5058C22.6571 24.5482 22.6146 24.5542 22.5844 24.5542C22.548 24.5542 22.5177 24.5421 22.4935 24.5239L20.3913 23.0276C20.1309 22.8398 19.7795 22.8277 19.5008 22.9913C18.7072 23.4638 17.853 23.8151 16.9625 24.0453C16.6475 24.1241 16.4112 24.3846 16.3628 24.6996L15.9326 27.244C15.9205 27.3227 15.8539 27.3773 15.7751 27.3773H13.2247C13.1459 27.3773 13.0793 27.3227 13.0672 27.244L12.6431 24.6996C12.5886 24.3785 12.3523 24.1241 12.0434 24.0453C11.1771 23.8212 10.3411 23.4759 9.55958 23.0276C9.43236 22.9549 9.28697 22.9186 9.14763 22.9186C8.98407 22.9186 8.81444 22.967 8.67511 23.07L6.55479 24.5785C6.5245 24.5966 6.49421 24.6087 6.46392 24.6087C6.43969 24.6087 6.39123 24.6027 6.34882 24.5603L4.54353 22.755C4.489 22.7005 4.48295 22.6157 4.52535 22.549L6.01563 20.459C6.20343 20.1924 6.21554 19.8411 6.05198 19.5624C5.57945 18.7749 5.21597 17.9207 4.98576 17.0301C4.90095 16.7212 4.64651 16.4849 4.3315 16.4304L1.76895 15.9942C1.69019 15.9821 1.63567 15.9155 1.63567 15.8367V13.2863C1.63567 13.2075 1.69019 13.1409 1.76895 13.1288L4.29515 12.7047C4.61622 12.6502 4.87672 12.4139 4.95547 12.0989C5.17962 11.2084 5.52493 10.3481 5.9914 9.5545C6.15496 9.27583 6.13679 8.93052 5.94899 8.67003L4.44054 6.54971C4.39813 6.48913 4.40419 6.39826 4.45871 6.34374L6.26401 4.53845C6.30642 4.49604 6.34882 4.48998 6.37911 4.48998C6.41546 4.48998 6.44575 4.5021 6.46998 4.52027L8.56001 6.01055C8.82656 6.19835 9.17792 6.21046 9.45659 6.0469C10.2441 5.57437 11.0983 5.21089 11.9889 4.98068C12.2978 4.89587 12.5341 4.64143 12.5886 4.32641L13.0248 1.76387C13.0369 1.68511 13.1035 1.63059 13.1823 1.63059H15.7327C15.8115 1.63059 15.8781 1.68511 15.8902 1.76387L16.3143 4.29007C16.3688 4.61114 16.6051 4.87164 16.9201 4.95039C17.8349 5.1806 18.7072 5.53802 19.519 6.01661C19.7977 6.18017 20.143 6.16806 20.4095 5.98026L22.4995 4.47787C22.5298 4.45969 22.5601 4.44758 22.5904 4.44758C22.6146 4.44758 22.6631 4.45363 22.7055 4.49604L24.5108 6.30133C24.5653 6.35586 24.5714 6.44067 24.529 6.50731L23.0327 8.60945C22.8449 8.86994 22.8327 9.22131 22.9963 9.49998C23.4688 10.2936 23.8202 11.1478 24.0504 12.0383C24.1292 12.3533 24.3897 12.5896 24.7047 12.6381L27.249 13.0682C27.3278 13.0803 27.3823 13.1469 27.3823 13.2257V15.7761H27.3763Z" fill="#323A5D" stroke="#323A5D" stroke-width="10"/>
</g>
<mask id="mask1" mask-type="alpha" maskUnits="userSpaceOnUse" x="8" y="8" width="13" height="13">
<path d="M14.5029 8.23926C11.0499 8.23926 8.245 11.0442 8.245 14.4972C8.245 17.9503 11.0499 20.7552 14.5029 20.7552C17.956 20.7552 20.7609 17.9503 20.7609 14.4972C20.7609 11.0442 17.956 8.23926 14.5029 8.23926ZM14.5029 19.1195C11.9525 19.1195 9.88066 17.0477 9.88066 14.4972C9.88066 11.9468 11.9525 9.87493 14.5029 9.87493C17.0534 9.87493 19.1252 11.9468 19.1252 14.4972C19.1252 17.0477 17.0534 19.1195 14.5029 19.1195Z" fill="#323A5D"/>
</mask>
<g mask="url(#mask1)">
<path d="M14.5029 8.23926C11.0499 8.23926 8.245 11.0442 8.245 14.4972C8.245 17.9503 11.0499 20.7552 14.5029 20.7552C17.956 20.7552 20.7609 17.9503 20.7609 14.4972C20.7609 11.0442 17.956 8.23926 14.5029 8.23926ZM14.5029 19.1195C11.9525 19.1195 9.88066 17.0477 9.88066 14.4972C9.88066 11.9468 11.9525 9.87493 14.5029 9.87493C17.0534 9.87493 19.1252 11.9468 19.1252 14.4972C19.1252 17.0477 17.0534 19.1195 14.5029 19.1195Z" fill="#323A5D"/>
<path d="M14.5029 3.23926C8.28844 3.23926 3.245 8.28271 3.245 14.4972H13.245C13.245 13.8056 13.8113 13.2393 14.5029 13.2393V3.23926ZM3.245 14.4972C3.245 20.7117 8.28844 25.7552 14.5029 25.7552V15.7552C13.8113 15.7552 13.245 15.1889 13.245 14.4972H3.245ZM14.5029 25.7552C20.7175 25.7552 25.7609 20.7117 25.7609 14.4972H15.7609C15.7609 15.1889 15.1946 15.7552 14.5029 15.7552V25.7552ZM25.7609 14.4972C25.7609 8.28271 20.7174 3.23926 14.5029 3.23926V13.2393C15.1946 13.2393 15.7609 13.8056 15.7609 14.4972H25.7609ZM14.5029 14.1195C14.7139 14.1195 14.8807 14.2862 14.8807 14.4972H4.88067C4.88067 19.8091 9.19109 24.1195 14.5029 24.1195V14.1195ZM14.8807 14.4972C14.8807 14.7082 14.7139 14.875 14.5029 14.875V4.87493C9.19109 4.87493 4.88067 9.18536 4.88067 14.4972H14.8807ZM14.5029 14.875C14.292 14.875 14.1252 14.7082 14.1252 14.4972H24.1252C24.1252 9.18535 19.8148 4.87493 14.5029 4.87493V14.875ZM14.1252 14.4972C14.1252 14.2862 14.292 14.1195 14.5029 14.1195V24.1195C19.8148 24.1195 24.1252 19.8091 24.1252 14.4972H14.1252Z" fill="#323A5D"/>
</g>
</svg>
