<svg width="12" height="12" viewBox="0 0 12 12" fill="none" xmlns="http://www.w3.org/2000/svg">
<path fill-rule="evenodd" clip-rule="evenodd" d="M2 8.58579L10.2929 0.292893C10.6834 -0.0976305 11.3166 -0.0976305 11.7071 0.292893C12.0976 0.683417 12.0976 1.31658 11.7071 1.70711L3.41421 10H11C11.5523 10 12 10.4477 12 11C12 11.5523 11.5523 12 11 12L1 12C0.86441 12 0.735123 11.973 0.617216 11.9241C0.500141 11.8757 0.3904 11.804 0.295017 11.7092C0.292872 11.7071 0.290736 11.7049 0.28861 11.7028C0.110165 11.5222 0 11.274 0 11L0 1C0 0.447715 0.447715 0 1 0C1.55229 0 2 0.447715 2 1L2 8.58579Z" fill="white"/>
</svg>
