<svg width="6" height="24" viewBox="0 0 6 24" fill="none" xmlns="http://www.w3.org/2000/svg">
<path d="M0.773438 12.0117C0.773438 13.2422 1.76953 14.2383 3 14.2383C4.23047 14.2383 5.22656 13.2422 5.22656 12.0117C5.22656 10.7812 4.23047 9.78516 3 9.78516C1.76953 9.78516 0.773438 10.7812 0.773438 12.0117ZM0.773438 21.0234C0.773438 22.2539 1.76953 23.25 3 23.25C4.23047 23.25 5.22656 22.2539 5.22656 21.0234C5.22656 19.793 4.23047 18.7969 3 18.7969C1.76953 18.7969 0.773438 19.793 0.773438 21.0234ZM0.773438 2.97656C0.773438 4.20703 1.76953 5.20312 3 5.20312C4.23047 5.20312 5.22656 4.20703 5.22656 2.97656C5.22656 1.74609 4.23047 0.75 3 0.75C1.76953 0.75 0.773438 1.74609 0.773438 2.97656Z" fill="#323A5D"/>
</svg>
