<svg width="56" height="56" viewBox="0 0 56 56" fill="none" xmlns="http://www.w3.org/2000/svg">
<g clip-path="url(#clip0)">
<path d="M20.7048 17.8091C20.4773 17.7287 20.2454 17.645 20.0133 17.5587V13.261C20.5935 13.453 20.9756 13.7239 20.9963 13.7388C21.4776 14.0988 22.1599 14.0032 22.5232 13.5234C22.888 13.042 22.7934 12.356 22.3119 11.9912C22.2537 11.9471 21.3489 11.2759 20.0133 11V10.0923C20.0133 9.48827 19.5236 8.9986 18.9195 8.9986C18.3155 8.9986 17.8258 9.48827 17.8258 10.0923V10.9925C17.6805 11.0227 17.5339 11.0587 17.3853 11.1033C15.9509 11.5342 14.8788 12.7599 14.5876 14.3019C14.3212 15.7129 14.7755 17.0756 15.7734 17.8583C16.2935 18.2663 16.9398 18.639 17.8258 19.0324V24.6222C17.0871 24.5628 16.6091 24.3763 15.802 23.8482C15.2964 23.5177 14.6187 23.6592 14.2879 24.1648C13.9573 24.6703 14.0989 25.3482 14.6045 25.6788C15.8618 26.5013 16.7219 26.75 17.8258 26.8147V27.7466C17.8258 28.3506 18.3155 28.8403 18.9195 28.8403C19.5236 28.8403 20.0133 28.3506 20.0133 27.7466V26.6904C22.0613 26.1885 23.3748 24.447 23.6635 22.7298C24.037 20.508 22.8756 18.5765 20.7048 17.8091ZM17.1233 16.137C16.7762 15.8647 16.6246 15.3037 16.7372 14.7078C16.8368 14.18 17.1751 13.5508 17.8258 13.2688V16.5945C17.5628 16.4474 17.3247 16.2949 17.1233 16.137ZM21.5063 22.3671C21.3752 23.1467 20.8688 23.971 20.0133 24.3818V19.8859C21.6811 20.4977 21.5784 21.9375 21.5063 22.3671Z" fill="#0E237E"/>
<path d="M50.6002 40.9088C50.0335 40.6995 49.4044 40.9889 49.1952 41.5556C47.3306 46.6011 42.4624 49.9911 37.0811 49.9911C29.9623 49.9911 24.1707 44.1995 24.1707 37.0807C24.1707 29.9619 29.9623 24.1703 37.0811 24.1703C42.465 24.1703 47.334 27.5624 49.1971 32.6112C49.4064 33.178 50.0355 33.4679 50.6019 33.2586C51.1687 33.0494 51.4586 32.4205 51.2494 31.8539C50.1915 28.9869 48.3093 26.5332 45.8066 24.758C43.2468 22.9424 40.2296 21.9828 37.0812 21.9828C35.8901 21.9828 34.731 22.122 33.6186 22.3841C33.884 21.2554 34.018 20.0965 34.018 18.9195C34.018 10.5945 27.2451 3.82159 18.9201 3.82159C10.5951 3.82159 3.82227 10.5944 3.82227 18.9195C3.82227 27.2446 10.5951 34.0174 18.9201 34.0174C20.0965 34.0174 21.2555 33.883 22.3846 33.6175C22.1226 34.73 21.9832 35.8894 21.9832 37.0807C21.9832 45.4056 28.756 52.1786 37.0811 52.1786C40.2284 52.1786 43.2446 51.2196 45.8038 49.4053C48.3058 47.6313 50.1881 45.1792 51.2469 42.3139C51.4564 41.7473 51.1669 41.1181 50.6002 40.9088ZM18.9201 31.8298C11.8013 31.8298 6.00977 26.0382 6.00977 18.9194C6.00977 11.8006 11.8013 6.00909 18.9201 6.00909C26.0388 6.00909 31.8305 11.8007 31.8305 18.9195C31.8305 20.3987 31.5831 21.8434 31.096 23.2211C27.5758 24.7472 24.7471 27.576 23.2212 31.0963C21.8434 31.5832 20.398 31.8298 18.9201 31.8298Z" fill="#0E237E"/>
<path d="M32.4691 42.9115C32.2192 43.2427 32.1783 43.6866 32.3634 44.0579C32.5485 44.4291 32.9276 44.6638 33.3423 44.6638H41.4564C42.0605 44.6638 42.5501 44.1741 42.5501 43.5701C42.5501 42.966 42.0605 42.4763 41.4564 42.4763H35.5272C36.5531 41.02 36.8161 40.0489 36.6614 38.4014H38.4023C39.0064 38.4014 39.4961 37.9118 39.4961 37.3077C39.4961 36.7036 39.0064 36.2139 38.4023 36.2139H36.1225C35.739 35.6297 35.0862 34.4329 35.0904 33.4539C35.0881 32.8313 35.3602 32.3745 35.9218 32.0574C36.7817 31.5716 38.1684 31.5626 38.9494 32.0377C39.5713 32.4158 40.0404 32.9424 40.1736 33.4122C40.3385 33.9933 40.9428 34.3307 41.5244 34.1659C42.1055 34.0011 42.443 33.3963 42.2781 32.8151C41.9919 31.8062 41.1929 30.8417 40.0859 30.1686C38.616 29.2749 36.4125 29.2681 34.8462 30.1526C33.5881 30.8631 32.8979 32.0383 32.9031 33.4531C32.8988 34.4488 33.2403 35.4341 33.6139 36.2139H32.7041C32.1 36.2139 31.6104 36.7036 31.6104 37.3077C31.6104 37.9118 32.1 38.4014 32.7041 38.4014H34.4632L34.4664 38.4283C34.6077 39.6916 34.5324 40.1611 33.517 41.5226L32.4691 42.9115Z" fill="#0E237E"/>
<path d="M51.084 35.9866C50.7963 35.9866 50.5141 36.1036 50.3107 36.307C50.1073 36.5105 49.9902 36.7927 49.9902 37.0803C49.9902 37.3691 50.1073 37.6502 50.3107 37.8536C50.5141 38.0581 50.7963 38.1741 51.084 38.1741C51.3716 38.1741 51.6538 38.0581 51.8573 37.8536C52.0607 37.6502 52.1777 37.368 52.1777 37.0803C52.1777 36.7927 52.0607 36.5105 51.8573 36.307C51.6538 36.1036 51.3716 35.9866 51.084 35.9866Z" fill="#0E237E"/>
<path d="M19.9499 47.4028C15.2123 45.4372 11.4193 41.8752 9.16797 37.3062L10.2675 36.8515C10.6407 36.6972 10.8985 36.3498 10.938 35.9478C10.9775 35.546 10.7923 35.1549 10.4563 34.9309L3.37733 30.2096C3.07404 30.0072 2.6898 29.9694 2.35249 30.1087C2.0154 30.2481 1.77007 30.5463 1.69821 30.904L0.0214902 39.2461C-0.0581348 39.6421 0.0870058 40.0496 0.398834 40.3062C0.710771 40.5628 1.13865 40.6267 1.51172 40.4725L2.68729 39.9863C5.66108 46.2811 10.8026 51.1878 17.267 53.8698C17.4012 53.9255 17.5436 53.9533 17.6861 53.9533C17.8282 53.9533 17.9703 53.9256 18.104 53.8702C18.3721 53.7593 18.5852 53.5466 18.6964 53.2786L20.5411 48.8322C20.7726 48.2743 20.508 47.6343 19.9499 47.4028ZM17.1037 51.4091C11.3141 48.7202 6.77572 44.0442 4.25562 38.1407C4.07832 37.7256 3.67451 37.4761 3.24926 37.4761C3.11002 37.4761 2.96838 37.5029 2.83177 37.5594L2.56993 37.6676L3.52116 32.935L7.5373 35.6135L7.2806 35.7196C7.01012 35.8315 6.79574 36.047 6.68549 36.3182C6.57513 36.5893 6.57819 36.8933 6.69369 37.1622C8.94715 42.4053 12.9777 46.5668 18.111 48.9809L17.1037 51.4091Z" fill="#0E237E"/>
<path d="M55.601 15.6938C55.2892 15.4372 54.8613 15.3733 54.4881 15.5275L53.3126 16.0137C50.3388 9.71885 45.1973 4.81218 38.7329 2.13019C38.465 2.01907 38.1638 2.01896 37.8959 2.12976C37.6278 2.24066 37.4147 2.4534 37.3035 2.72136L35.4588 7.16779C35.2273 7.72571 35.4919 8.36566 36.0499 8.59721C40.7876 10.5628 44.5805 14.1248 46.8319 18.6938L45.7324 19.1485C45.3592 19.3028 45.1014 19.6502 45.0619 20.0522C45.0224 20.454 45.2076 20.8451 45.5436 21.0691L52.6225 25.7904C52.8049 25.912 53.0165 25.9743 53.2295 25.9743C53.3708 25.9743 53.5129 25.9469 53.6474 25.8913C53.9845 25.7519 54.2298 25.4536 54.3017 25.096L55.9785 16.7538C56.058 16.3579 55.9129 15.9504 55.601 15.6938ZM52.4786 23.065L48.4625 20.3865L48.7192 20.2804C48.9897 20.1685 49.204 19.953 49.3143 19.6818C49.4246 19.4107 49.4216 19.1067 49.3061 18.8378C47.0526 13.5947 43.022 9.43316 37.8887 7.01915L38.8962 4.5908C44.6857 7.27968 49.224 11.9557 51.7442 17.8593C51.9794 18.4103 52.6144 18.6696 53.1681 18.4406L53.4299 18.3323L52.4786 23.065Z" fill="#0E237E"/>
</g>
<defs>
<clipPath id="clip0">
<rect width="56" height="56" fill="white"/>
</clipPath>
</defs>
</svg>
