<svg width="80" height="80" viewBox="0 0 80 80" fill="none" xmlns="http://www.w3.org/2000/svg">
<g clip-path="url(#clip0)">
<path d="M43.3598 60.3334C43.7273 56.2003 46.0119 52.4105 49.2537 49.5441C54.8711 44.5794 54.7075 35.9089 49.401 30.6026C41.0783 22.2802 26.705 28.1906 26.7041 40.0029C26.7039 41.817 28.1744 43.2878 29.9886 43.288C31.7972 43.288 33.2735 41.8233 33.2737 40.0035C33.2741 34.0296 40.5437 31.0362 44.7557 35.2482C47.3385 37.8309 47.6948 42.1037 44.9508 44.5791C44.0313 45.3319 37.6521 50.8502 36.8253 59.6514C36.2182 66.1119 38.6995 72.5787 44.2003 78.8721C44.8497 79.615 45.7598 79.9953 46.6748 79.9951C49.4644 79.9951 51.0121 76.6827 49.1467 74.5486C44.9001 69.6901 42.9531 64.9075 43.3598 60.3334Z" fill="white"/>
<path d="M65.016 73.8744C59.872 70.8674 56.9611 67.6601 56.598 64.5988C56.3473 62.484 57.3929 60.2875 58.8395 58.8437C63.894 53.7892 66.6654 47.0686 66.6431 39.9201C66.5961 24.9845 54.3775 13.2795 39.9148 13.3332C32.4778 13.3571 25.709 16.4225 20.7793 21.5533C14.2113 28.3905 12.7186 38.7222 17.065 47.2622C19.0121 51.088 20.6159 55.1316 21.8315 59.2808C24.9243 69.8354 25.0353 76.6728 25.0361 76.7342C25.0492 78.5402 26.5174 79.9952 28.3204 79.9951C30.1444 79.9951 31.6188 78.5099 31.6055 76.6864C31.5597 70.4827 29.0015 56.2322 22.9199 44.2824C19.8671 38.2841 20.7798 30.8359 25.8058 25.8099C33.5836 18.032 46.2774 17.9913 54.1025 25.7187C61.9804 33.4983 62.1172 46.2544 54.2141 54.1784C53.5792 54.7941 49.3915 59.112 50.0611 65.2559C50.6393 70.5612 54.5555 75.369 61.7009 79.546C62.222 79.8505 62.7925 79.9954 63.3556 79.9954C66.7014 79.9955 67.8971 75.5587 65.016 73.8744Z" fill="white"/>
<path d="M68.2781 11.7261C52.6497 -3.90192 27.3528 -3.90411 11.7224 11.7261C-3.90603 27.3548 -3.90822 52.6513 11.7224 68.282C13.0051 69.5646 15.0849 69.5646 16.3677 68.282C17.6504 66.9992 17.6504 64.9193 16.3677 63.6365C3.33676 50.6055 3.33676 29.4027 16.3677 16.3716C29.3987 3.3404 50.6017 3.3404 63.6327 16.3716C76.6636 29.4027 76.6636 50.6055 63.6327 63.6365C62.35 64.9193 62.35 66.9992 63.6327 68.282C64.9152 69.5645 66.9953 69.5649 68.2781 68.282C83.9064 52.6533 83.9086 27.3569 68.2781 11.7261Z" fill="white"/>
</g>
<defs>
<clipPath id="clip0">
<rect width="80" height="80" fill="white"/>
</clipPath>
</defs>
</svg>
