<svg width="169" height="250" viewBox="0 0 169 250" fill="none" xmlns="http://www.w3.org/2000/svg">
<path d="M100.243 248.28C98.7024 247.643 97.3733 246.505 96.5077 245.081C96.0873 244.388 95.7254 243.583 95.0009 243.22C94.5598 242.999 94.0431 242.979 93.5882 242.787C92.8611 242.481 92.3764 241.769 92.1115 241.025C91.8463 240.282 91.762 239.489 91.5898 238.719C91.109 236.572 89.9142 234.59 88.2389 233.164C86.6702 231.828 84.701 230.965 83.3424 229.417C82.3167 228.248 81.7033 226.724 81.6336 225.171C81.6158 224.784 81.6326 224.389 81.7589 224.023C82.0434 223.203 82.84 222.657 83.6642 222.381C85.0124 221.931 86.5115 222.065 87.8441 222.56C89.1768 223.056 90.3586 223.892 91.4243 224.834C92.5395 225.819 93.5612 226.953 94.169 228.311C94.4627 228.967 94.6546 229.664 94.845 230.358C95.2872 231.967 95.7295 233.575 96.1717 235.184C96.3143 235.702 96.4596 236.228 96.7311 236.693C97.2022 237.5 98.007 238.05 98.6152 238.76C99.3153 239.576 99.7502 240.617 99.8398 241.689C99.9398 242.887 99.6221 244.118 99.907 245.286C100.246 246.677 100.374 247.54 101.441 248.495L100.243 248.28Z" fill="#698C85"/>
<path d="M86.634 226.848C89.3909 229.396 91.0055 232.229 92.5285 235.597C93.2601 237.214 94.1832 238.027 95.2981 239.374C96.606 240.953 96.8037 242.832 97.9919 244.406C98.8583 245.553 100.851 247.1 101.396 248.507C101.418 248.564 101.494 248.542 101.486 248.482C101.323 247.268 100.079 246.267 99.3505 245.365C98.706 244.568 98.1524 244.166 97.6316 243.227C97.0234 242.13 96.8278 240.907 96.0922 239.881C95.561 239.14 94.7801 238.618 94.1904 237.931C93.0907 236.652 92.667 235.072 91.9588 233.586C90.6813 230.905 88.9141 228.734 86.6754 226.806C86.6472 226.781 86.6062 226.822 86.634 226.848Z" fill="#577052" fill-opacity="0.439216"/>
<path d="M97.8668 244.025C97.5434 243.073 97.9974 242.045 97.8277 241.057C97.6536 240.043 97.1616 239.087 96.6309 238.218C96.5805 238.135 96.4602 238.208 96.5021 238.293C97.0625 239.448 97.7066 240.56 97.6914 241.883C97.6822 242.668 97.431 243.306 97.7406 244.059C97.7717 244.135 97.8942 244.106 97.8668 244.025Z" fill="#577052" fill-opacity="0.439216"/>
<path d="M96.9954 242.488C96.4287 240.818 94.2493 240.409 93.2107 239.105C93.1537 239.034 93.0374 239.126 93.0848 239.203C94.0145 240.691 95.9575 240.998 96.8805 242.537C96.9161 242.596 97.0191 242.557 96.9954 242.488Z" fill="#577052" fill-opacity="0.439216"/>
<path d="M94.9673 238.669C94.5869 238.024 94.2009 237.388 94.2291 236.609C94.2491 236.055 94.4348 235.529 94.4348 234.97C94.4348 234.119 94.1889 233.321 93.7178 232.616C93.6726 232.548 93.5726 232.607 93.6092 232.679C93.977 233.404 94.2468 234.146 94.2438 234.97C94.2416 235.526 94.0525 236.057 94.0291 236.609C93.9943 237.439 94.3928 238.096 94.8851 238.732C94.9221 238.78 94.9965 238.719 94.9673 238.669Z" fill="#577052" fill-opacity="0.439216"/>
<path d="M91.9606 235.569C91.388 235.028 90.769 234.524 90.3149 233.873C89.899 233.277 89.6355 232.596 89.1855 232.019C88.5295 231.179 87.6552 230.53 86.6425 230.195C86.5629 230.168 86.508 230.294 86.5846 230.332C87.9332 230.995 88.8997 231.84 89.6416 233.155C90.2301 234.199 90.9175 234.955 91.9053 235.64C91.9479 235.67 91.9976 235.604 91.9606 235.569Z" fill="#577052" fill-opacity="0.439216"/>
<path d="M90.8741 231.681C90.4819 230.451 90.0033 229.34 89.7696 228.059C89.5859 227.052 89.2575 226.12 88.5412 225.371C88.4853 225.312 88.3751 225.392 88.4254 225.46C89.2211 226.53 89.4452 227.638 89.6886 228.916C89.8786 229.913 90.3585 230.805 90.7618 231.728C90.7896 231.792 90.8952 231.746 90.8741 231.681Z" fill="#577052" fill-opacity="0.439216"/>
<path d="M97.5754 238.95C96.3282 236.84 93.4689 235.678 92.9648 233.292C92.7125 232.098 93.1317 230.845 92.9758 229.635C92.6669 227.233 90.2771 225.672 89.0322 223.582C88.9074 223.373 88.7977 223.156 88.6965 222.935C89.6873 223.43 90.5923 224.098 91.4242 224.833C92.5394 225.818 93.561 226.952 94.1689 228.311C94.4626 228.967 94.6545 229.664 94.8448 230.358C95.2871 231.967 95.7294 233.575 96.1716 235.183C96.3142 235.702 96.4595 236.228 96.731 236.692C97.2021 237.5 98.0069 238.05 98.6151 238.76C99.3151 239.576 99.7501 240.617 99.8397 241.689C99.9397 242.887 99.622 244.117 99.9069 245.286C99.9983 245.661 100.148 246.01 100.337 246.339C100.318 246.999 100.686 247.616 101.358 248.077L101.441 248.495L100.243 248.28C99.8597 248.121 99.4896 247.932 99.1363 247.715C99.1081 247.681 99.0767 247.65 99.05 247.615C98.0359 246.311 98.353 244.803 98.3871 243.267C98.4197 241.79 98.3465 240.255 97.5754 238.95Z" fill="#606734" fill-opacity="0.25098"/>
<path d="M100.318 203.725C100.697 203.419 101.276 203.263 101.795 203.491C102.31 203.71 102.661 204.166 102.912 204.62C103.408 205.553 103.587 206.571 103.737 207.563C104.025 209.563 103.951 211.564 103.803 213.538L102.57 225.251C102.2 229.152 101.792 233.053 101.517 236.962C101.379 238.917 101.249 240.872 101.146 242.829C101.076 244.784 100.957 246.75 101.23 248.694C100.764 246.776 100.76 244.783 100.702 242.823C100.662 240.855 100.676 238.887 100.753 236.923C100.885 232.993 101.074 229.064 101.399 225.147C101.684 221.235 102.128 217.298 102.524 213.428C102.705 211.494 102.836 209.56 102.806 207.644C102.782 206.689 102.675 205.732 102.382 204.861C102.237 204.429 102.017 204.016 101.65 203.774C101.289 203.535 100.768 203.522 100.318 203.725Z" fill="#465941"/>
<path d="M101.801 248.935C101.521 247.84 102.072 246.681 103.196 246.424C106.688 245.63 108.108 244.211 108.769 243.218C109.537 242.064 109.502 239.636 109.414 238.232C109.291 236.277 111.213 234.665 111.944 234.175C114.318 232.583 115.166 229.732 115.242 228.674C115.388 226.658 114.611 224.655 113.976 222.695C113.741 221.969 113.369 221.185 112.647 220.883C111.877 220.561 111.013 220.921 110.371 221.398C109.137 222.312 108.28 223.685 108.002 225.19C107.612 227.309 108.291 229.742 107.096 231.522C106.493 232.419 105.483 233.009 104.955 233.95C103.898 235.833 105.124 238.275 104.723 240.408C104.474 241.727 103.627 242.792 102.744 243.756C101.825 244.759 100.734 245.578 100.648 247.038C100.6 247.853 101.114 248.433 101.801 248.935Z" fill="#779590"/>
<path d="M112.16 224.364C112.073 226.294 111.966 228.085 110.988 229.823C110.386 230.891 109.448 231.735 108.819 232.787C107.655 234.737 107.485 236.642 107.234 238.837C106.973 241.124 106.013 242.6 104.128 244.045C103.426 244.583 102.486 244.953 101.963 245.72C101.216 246.817 101.366 247.769 101.677 248.988C101.709 249.111 101.895 249.059 101.867 248.936C100.86 244.401 104.83 244.88 106.474 242.57C107.61 240.973 107.412 238.689 107.655 236.858C108.069 233.733 109.957 232.103 111.324 229.491C112.167 227.881 112.238 226.149 112.233 224.364C112.233 224.316 112.162 224.317 112.16 224.364Z" fill="#577052" fill-opacity="0.588235"/>
<path d="M104.336 244.138C105.961 244.235 107.604 243.72 108.455 242.237C108.491 242.174 108.402 242.128 108.361 242.182C107.905 242.776 107.401 243.278 106.716 243.597C105.961 243.949 105.149 243.961 104.336 244.05C104.281 244.056 104.279 244.134 104.336 244.138Z" fill="#577052" fill-opacity="0.588235"/>
<path d="M105.476 243.457C106.382 242.162 106.099 240.449 105.724 239.02C105.712 238.978 105.654 238.997 105.66 239.038C105.882 240.584 106.106 241.951 105.39 243.406C105.362 243.464 105.44 243.509 105.476 243.457Z" fill="#577052" fill-opacity="0.588235"/>
<path d="M107.448 239.379C108.293 238.818 108.628 237.878 108.847 236.928C108.856 236.89 108.802 236.876 108.788 236.912C108.458 237.813 108.174 238.695 107.395 239.31C107.356 239.341 107.407 239.406 107.448 239.379Z" fill="#577052" fill-opacity="0.588235"/>
<path d="M107.65 236.607C107.427 234.845 107.168 232.848 108.17 231.253C108.203 231.202 108.126 231.16 108.091 231.207C107.066 232.565 106.989 235.074 107.576 236.617C107.59 236.653 107.656 236.652 107.65 236.607Z" fill="#577052" fill-opacity="0.588235"/>
<path d="M108.262 234.194C109.197 232.038 112.365 231.98 113.212 229.704C113.233 229.649 113.143 229.61 113.117 229.664C112.451 231.047 111.148 231.563 109.93 232.345C109.226 232.797 108.438 233.331 108.153 234.149C108.132 234.212 108.235 234.256 108.262 234.194Z" fill="#577052" fill-opacity="0.588235"/>
<path d="M110.447 230.739C111.514 228.523 110.027 226.132 110.203 223.819C110.207 223.761 110.112 223.748 110.101 223.805C109.66 226.171 111.284 228.348 110.372 230.707C110.355 230.751 110.427 230.781 110.447 230.739Z" fill="#577052" fill-opacity="0.588235"/>
<path d="M111.918 227.844C112.815 226.405 113.759 224.508 113.127 222.795C113.103 222.728 113.012 222.755 113.022 222.824C113.313 224.723 112.635 226.13 111.855 227.807C111.835 227.849 111.893 227.885 111.918 227.844Z" fill="#577052" fill-opacity="0.588235"/>
<path d="M133.981 247.84C131.565 246.162 129.704 243.699 128.75 240.917C128.286 239.564 127.967 238.04 126.854 237.142C126.177 236.595 125.294 236.365 124.583 235.863C123.446 235.061 122.879 233.651 122.702 232.27C122.526 230.889 122.68 229.49 122.673 228.098C122.655 224.215 121.343 220.35 118.994 217.259C116.794 214.365 113.725 212.136 111.967 208.954C110.64 206.552 110.158 203.694 110.624 200.99C110.74 200.318 110.917 199.644 111.273 199.061C112.072 197.754 113.651 197.114 115.175 196.95C117.669 196.682 120.202 197.478 122.312 198.835C124.422 200.191 126.144 202.078 127.626 204.103C129.177 206.221 130.509 208.561 131.044 211.132C131.303 212.374 131.37 213.647 131.437 214.915C131.593 217.854 131.748 220.793 131.904 223.732C131.954 224.68 132.006 225.641 132.298 226.544C132.806 228.114 133.986 229.365 134.767 230.818C135.665 232.489 136.022 234.447 135.772 236.328C135.493 238.432 134.481 240.431 134.531 242.553C134.591 245.078 134.486 246.615 135.965 248.662L133.981 247.84Z" fill="#4F726B"/>
<path d="M118.609 205.766C121.541 209.796 123.683 214.413 124.799 219.275C125.309 221.495 125.383 223.851 126.155 226.002C126.794 227.784 127.999 229.159 128.917 230.784C130.738 234.008 129.77 237.686 131.894 240.712C132.892 242.134 133.148 243.674 133.984 245.138C134.71 246.409 135.728 247.04 135.882 248.662C135.892 248.769 136.035 248.768 136.047 248.662C136.148 247.775 136.084 247.379 135.73 246.63C135.44 246.019 134.701 245.517 134.361 244.918C133.86 244.034 133.807 242.993 133.383 242.09C132.508 240.229 131.141 239.245 130.88 236.958C130.695 235.329 130.8 233.847 130.209 232.29C129.264 229.801 127.209 227.972 126.4 225.394C125.662 223.039 125.572 220.513 124.936 218.125C123.717 213.542 121.556 209.482 118.698 205.713C118.659 205.661 118.569 205.711 118.609 205.766Z" fill="#34602D" fill-opacity="0.439216"/>
<path d="M131.49 239.616C131.322 237.714 132.542 236.051 132.557 234.136C132.571 232.435 132.101 230.732 131.552 229.141C131.497 228.981 131.257 229.044 131.297 229.211C131.824 231.396 132.538 233.581 131.997 235.843C131.671 237.209 131.047 238.223 131.263 239.646C131.282 239.774 131.501 239.745 131.49 239.616Z" fill="#34602D" fill-opacity="0.439216"/>
<path d="M130.569 236.639C130.2 233.545 126.638 232.019 125.325 229.38C125.254 229.238 125.011 229.337 125.066 229.489C126.121 232.404 129.328 233.668 130.351 236.668C130.389 236.779 130.584 236.77 130.569 236.639Z" fill="#34602D" fill-opacity="0.439216"/>
<path d="M128.515 229.29C128.096 228.013 127.669 226.834 128.016 225.465C128.236 224.599 128.723 223.824 128.942 222.951C129.331 221.404 129.206 219.865 128.645 218.386C128.596 218.254 128.395 218.304 128.431 218.444C128.809 219.91 128.997 221.372 128.616 222.861C128.367 223.833 127.811 224.699 127.608 225.682C127.341 226.984 127.792 228.193 128.347 229.36C128.391 229.455 128.547 229.388 128.515 229.29Z" fill="#34602D" fill-opacity="0.439216"/>
<path d="M124.502 222.81C123.706 221.652 122.871 220.556 122.329 219.251C121.893 218.199 121.682 217.074 121.231 216.027C120.426 214.158 119.101 212.6 117.367 211.542C117.242 211.466 117.087 211.654 117.207 211.749C119.395 213.486 120.672 215.431 121.507 218.09C122.097 219.966 123.046 221.462 124.377 222.907C124.437 222.973 124.555 222.886 124.502 222.81Z" fill="#34602D" fill-opacity="0.439216"/>
<path d="M124.095 215.702C123.867 213.392 123.499 211.253 123.561 208.917C123.607 207.148 123.37 205.482 122.456 203.946C122.369 203.799 122.165 203.927 122.232 204.077C123.295 206.452 123.024 208.489 123.077 210.955C123.111 212.575 123.565 214.152 123.882 215.731C123.905 215.849 124.107 215.825 124.095 215.702Z" fill="#34602D" fill-opacity="0.439216"/>
<path d="M132.903 230.753C131.549 226.646 127.059 223.565 127.09 219.262C127.106 217.11 128.301 215.108 128.489 212.963C128.862 208.708 125.332 205.116 123.975 201.043C123.839 200.636 123.732 200.22 123.641 199.802C125.162 201.028 126.469 202.522 127.626 204.102C129.177 206.221 130.509 208.561 131.044 211.132C131.303 212.374 131.371 213.647 131.438 214.915C131.593 217.854 131.749 220.793 131.904 223.732C131.954 224.68 132.006 225.641 132.299 226.544C132.807 228.114 133.986 229.365 134.767 230.818C135.665 232.489 136.022 234.447 135.772 236.328C135.493 238.432 134.481 240.431 134.531 242.553C134.548 243.234 134.674 243.892 134.875 244.531C134.594 245.661 134.996 246.862 135.98 247.91L135.965 248.662L133.981 247.84C133.38 247.422 132.814 246.956 132.288 246.449C132.251 246.38 132.209 246.314 132.176 246.245C130.92 243.614 132.035 241.135 132.673 238.501C133.286 235.967 133.74 233.294 132.903 230.753Z" fill="#606734" fill-opacity="0.25098"/>
<path d="M136.78 165.461C137.448 168.88 137.906 172.334 138.352 175.79C138.738 179.252 139.047 182.725 139.281 186.206C139.507 189.688 139.571 193.181 139.563 196.676C139.498 200.171 139.332 203.672 138.946 207.161C138.148 214.057 137.47 220.968 136.827 227.884C136.508 231.341 136.246 234.804 136.035 238.269C135.925 240.001 135.822 241.734 135.781 243.469C135.749 245.202 135.698 246.942 135.965 248.662C135.536 246.971 135.437 245.209 135.369 243.472C135.294 241.729 135.281 239.987 135.275 238.243C135.302 234.758 135.455 231.278 135.624 227.799C135.958 220.841 136.584 213.902 137.339 206.978C138.069 200.124 138.139 193.189 137.984 186.261C137.907 182.795 137.756 179.328 137.528 175.863C137.352 172.393 137.068 168.931 136.78 165.461Z" fill="#283B56"/>
<path d="M136.079 248.601C135.322 246.48 136.198 244.078 138.383 243.361C145.162 241.136 147.718 238.056 148.845 235.963C150.155 233.531 149.635 228.721 149.2 225.952C148.593 222.095 152.108 218.539 153.466 217.432C157.881 213.831 159.034 208.018 158.99 205.906C158.905 201.877 156.991 198.047 155.369 194.277C154.767 192.878 153.883 191.392 152.396 190.928C150.807 190.432 149.16 191.307 147.974 192.371C145.696 194.414 144.25 197.298 143.978 200.336C143.595 204.612 145.397 209.315 143.355 213.067C142.326 214.958 140.43 216.316 139.556 218.283C137.809 222.215 140.695 226.833 140.295 231.139C140.047 233.803 138.564 236.072 136.99 238.15C135.352 240.31 133.34 242.137 133.44 245.051C133.496 246.676 134.623 247.732 136.079 248.601Z" fill="#779590"/>
<path d="M152.073 197.918C152.206 201.068 152.488 204.275 151.466 207.322C150.601 209.902 148.824 212.016 147.503 214.355C145.249 218.347 144.977 222.186 145.04 226.659C145.078 229.335 145.089 232.505 143.745 234.883C142.519 237.05 140.11 238.072 138.274 239.612C135.082 242.289 134.359 244.726 135.839 248.711C135.926 248.944 136.297 248.85 136.217 248.607C133.634 240.84 140.12 240.639 143.647 235.909C145.74 233.101 145.567 228.948 145.438 225.637C145.212 219.839 146.969 215.883 149.909 211.042C152.449 206.858 152.751 202.746 152.22 197.918C152.21 197.827 152.069 197.822 152.073 197.918Z" fill="#577052" fill-opacity="0.588235"/>
<path d="M140.211 238.612C143.435 238.506 146.642 237.191 148.034 234.085C148.09 233.96 147.923 233.855 147.847 233.976C147.026 235.274 146.113 236.377 144.756 237.146C143.331 237.954 141.76 238.117 140.187 238.441C140.091 238.461 140.112 238.615 140.211 238.612Z" fill="#577052" fill-opacity="0.588235"/>
<path d="M142.352 237.057C143.909 234.32 143.034 230.971 142.025 228.207C141.996 228.128 141.878 228.158 141.898 228.242C142.625 231.272 143.319 233.966 142.17 236.981C142.13 237.087 142.297 237.153 142.352 237.057Z" fill="#577052" fill-opacity="0.588235"/>
<path d="M145.521 228.583C147.094 227.342 147.586 225.361 147.834 223.46C147.842 223.39 147.731 223.378 147.713 223.443C147.221 225.28 146.849 227.106 145.398 228.46C145.314 228.538 145.436 228.65 145.521 228.583Z" fill="#577052" fill-opacity="0.588235"/>
<path d="M145.394 223.04C144.622 219.564 143.765 215.735 145.431 212.342C145.483 212.237 145.334 212.147 145.272 212.25C143.5 215.193 143.772 220.081 145.256 223.098C145.295 223.178 145.412 223.12 145.394 223.04Z" fill="#577052" fill-opacity="0.588235"/>
<path d="M146.17 218.136C147.625 213.695 153.897 212.999 155.151 208.334C155.187 208.203 154.997 208.156 154.951 208.279C153.888 211.146 151.405 212.398 149.126 214.18C147.823 215.199 146.355 216.405 145.943 218.073C145.906 218.221 146.123 218.28 146.17 218.136Z" fill="#577052" fill-opacity="0.588235"/>
<path d="M149.864 210.879C151.571 206.281 148.171 201.845 148.091 197.217C148.089 197.081 147.895 197.086 147.883 197.217C147.447 201.997 151.079 205.968 149.705 210.835C149.676 210.939 149.828 210.977 149.864 210.879Z" fill="#577052" fill-opacity="0.588235"/>
<path d="M152.237 204.881C153.753 201.838 155.276 197.918 153.694 194.616C153.639 194.502 153.466 194.584 153.495 194.699C154.422 198.415 153.341 201.361 152.103 204.825C152.075 204.902 152.2 204.955 152.237 204.881Z" fill="#577052" fill-opacity="0.588235"/>
<path d="M167.535 155.724C170.509 171.52 160.114 186.735 144.318 189.709C128.523 192.683 113.307 182.288 110.334 166.493C107.36 150.697 117.754 135.481 133.55 132.508C149.346 129.534 164.561 139.928 167.535 155.724Z" fill="#EFCF3B"/>
<path d="M159.521 157.233C161.661 168.602 154.18 179.555 142.81 181.695C131.44 183.836 120.488 176.354 118.347 164.984C116.207 153.614 123.689 142.662 135.059 140.521C146.428 138.381 157.381 145.863 159.521 157.233Z" fill="#D8802A"/>
<path d="M159.048 157.567C161.08 168.363 153.976 178.763 143.18 180.795C132.384 182.827 121.986 175.723 119.953 164.927C117.921 154.132 125.024 143.732 135.82 141.7C146.616 139.668 157.015 146.772 159.048 157.567Z" fill="#E49333"/>
<path d="M114.764 205.258C116.086 212.281 111.465 219.045 104.443 220.367C97.4202 221.689 90.6558 217.068 89.3338 210.046C88.0119 203.023 92.6328 196.259 99.6552 194.937C106.678 193.615 113.442 198.236 114.764 205.258Z" fill="#EFCF3B"/>
<path d="M111.201 205.929C112.153 210.984 108.827 215.853 103.772 216.805C98.7176 217.756 93.8484 214.43 92.8968 209.375C91.9453 204.32 95.2714 199.451 100.326 198.5C105.381 197.548 110.25 200.874 111.201 205.929Z" fill="#D8802A"/>
<path d="M90.626 212.267C90.626 212.267 86.4764 200.359 98.444 195.768C98.444 195.768 89.73 199.651 90.626 212.267Z" fill="#F9F0BA"/>
<path d="M1.56079 69.1169C4.41285 79.0595 9.17037 89.6136 14.9608 97.1345C19.2604 102.719 37.4337 101.768 49.586 97.6383C53.6438 96.2593 56.6979 93.1313 55.1215 89.1462L54.3338 87.1549L20.7405 76.9812L8.21348 59.7251L1.56079 69.1169Z" fill="#DFB18C" fill-opacity="0.501961"/>
<path d="M108.774 81.5366C108.774 98.2456 95.2283 111.791 78.5196 111.791C61.8106 111.791 48.2654 98.2456 48.2654 81.5366C48.2654 64.8279 61.8106 51.2825 78.5196 51.2825C95.2283 51.2825 108.774 64.8279 108.774 81.5366Z" fill="#EFCF3B" fill-opacity="0.501961"/>
<path d="M100.297 81.5365C100.297 93.5637 90.5464 103.314 78.5196 103.314C66.492 103.314 56.7422 93.5637 56.7422 81.5365C56.7422 69.5094 66.492 59.7598 78.5196 59.7598C90.5464 59.7598 100.297 69.5094 100.297 81.5365Z" fill="#D8802A" fill-opacity="0.501961"/>
<path d="M99.7485 81.7878C99.7485 93.2079 90.4907 102.465 79.071 102.465C67.6509 102.465 58.3936 93.2079 58.3936 81.7878C58.3936 70.3681 67.6509 61.1104 79.071 61.1104C90.4907 61.1104 99.7485 70.3681 99.7485 81.7878Z" fill="#E49333" fill-opacity="0.501961"/>
<path d="M50.2745 87.199C50.2745 87.199 45.8902 58.0413 75.3768 52.6702C75.3768 52.6702 53.6726 57.822 50.2745 87.199Z" fill="#F9F0BA"/>
<path d="M69.069 84.2068C69.069 84.2068 87.8621 97.3829 91.5327 97.1337C95.2034 96.8844 98.7565 96.0398 99.3206 96.8018C99.8844 97.5637 92.1045 101.768 92.1045 101.768L77.2409 96.6977L67.1143 86.2992L69.069 84.2068Z" fill="#9A6228" fill-opacity="0.211765"/>
<path d="M53.7971 237.619C53.903 239.452 54.5103 241.255 55.5359 242.779C52.3394 243.377 49.0624 242.625 45.8978 241.876C45.7674 241.845 45.6269 241.809 45.5424 241.704C45.425 241.559 45.4616 241.348 45.503 241.166C46.0483 238.767 46.2873 236.299 46.2117 233.84L53.7971 237.619Z" fill="#EFC6A0"/>
<path d="M44.0796 241.947C44.5003 241.386 44.9189 240.777 45.2159 240.194C45.3663 240.254 45.5189 240.308 45.6711 240.357C47.3642 240.897 49.1182 241.247 50.8894 241.397C52.4373 241.529 54.1044 241.447 55.5208 240.885C55.5564 240.919 55.5905 240.964 55.6264 240.995C57.6021 242.687 71.6786 246.35 71.2723 248.528C71.1034 249.432 53.6326 248.656 52.1736 248.565C50.7146 248.473 49.7145 247.403 49.2596 247.4C48.8048 247.396 49.0486 248.528 48.5359 248.528C48.0233 248.528 44.3323 248.459 43.8596 248.528C43.3866 248.598 43.261 243.039 44.0796 241.947Z" fill="#2D2A2A"/>
<path d="M64.0261 244.33C64.0358 244.321 64.0451 244.312 64.0548 244.303C64.134 244.229 64.1344 244.115 64.0907 244.024C64.084 244.01 64.0771 243.995 64.0704 243.981C64.0278 243.893 63.8869 243.832 63.7932 243.868C63.3791 244.031 63.0364 244.469 62.7549 244.801C62.5108 245.088 62.8953 245.488 63.1742 245.22C63.2461 245.151 63.9933 244.461 63.7755 244.339C63.74 244.253 63.7048 244.166 63.6696 244.079C63.6674 244.092 63.666 244.106 63.6641 244.119C63.6349 244.325 63.855 244.489 64.0261 244.33Z" fill="#1D1C1C"/>
<path d="M61.7931 243.213C61.312 243.439 60.9073 243.809 60.5966 244.237C60.4314 244.464 60.8145 244.764 60.989 244.54C61.2983 244.143 61.6198 243.803 61.9757 243.45C62.1039 243.323 61.9424 243.143 61.7931 243.213Z" fill="#1D1C1C"/>
<path d="M59.6064 242.635C59.1663 242.743 58.7617 242.979 58.538 243.377C58.4265 243.576 58.6434 243.756 58.8309 243.67C59.192 243.505 59.5016 243.186 59.7479 242.878C59.8357 242.769 59.7571 242.598 59.6064 242.635Z" fill="#1D1C1C"/>
<path d="M57.9175 241.747C57.4357 242.072 56.9071 242.403 56.5204 242.841C56.3189 243.069 56.5805 243.472 56.8631 243.285C57.3572 242.959 57.7595 242.491 58.154 242.053C58.2947 241.897 58.1101 241.617 57.9175 241.747Z" fill="#1D1C1C"/>
<path d="M23.0361 237.619C23.142 239.452 23.7494 241.255 24.7746 242.779C21.5785 243.377 18.3012 242.625 15.1365 241.876C15.0061 241.845 14.8656 241.809 14.7811 241.704C14.6637 241.559 14.701 241.348 14.7421 241.166C15.2877 238.767 15.5262 236.299 15.451 233.84L23.0361 237.619Z" fill="#EFC6A0"/>
<path d="M13.318 241.947C13.7391 241.386 14.1575 240.777 14.4549 240.194C14.6053 240.254 14.7579 240.308 14.9098 240.357C16.6029 240.897 18.3569 241.247 20.1278 241.397C21.6757 241.529 23.3428 241.447 24.7592 240.885C24.7948 240.919 24.8292 240.964 24.8651 240.995C26.8404 242.687 40.9176 246.35 40.5109 248.528C40.342 249.432 22.8713 248.656 21.4123 248.565C19.9533 248.473 18.9529 247.403 18.498 247.4C18.0435 247.396 18.2873 248.528 17.7743 248.528C17.2617 248.528 13.5707 248.459 13.098 248.528C12.6254 248.598 12.4994 243.039 13.318 241.947Z" fill="#2D2A2A"/>
<path d="M33.2648 244.33C33.2744 244.321 33.2839 244.312 33.2932 244.303C33.3724 244.229 33.3729 244.115 33.3296 244.024C33.3226 244.01 33.3158 243.995 33.3088 243.981C33.2666 243.893 33.1259 243.832 33.0318 243.868C32.6177 244.031 32.275 244.469 31.9939 244.801C31.7494 245.088 32.134 245.488 32.4129 245.22C32.4851 245.151 33.2317 244.461 33.0139 244.339C32.9787 244.253 32.9436 244.166 32.908 244.079C32.9061 244.092 32.9043 244.106 32.9025 244.119C32.8732 244.325 33.094 244.489 33.2648 244.33Z" fill="#1D1C1C"/>
<path d="M31.032 243.213C30.5509 243.439 30.1466 243.809 29.8354 244.237C29.6706 244.464 30.0537 244.764 30.2278 244.54C30.5371 244.143 30.8586 243.803 31.2149 243.45C31.3427 243.323 31.1816 243.143 31.032 243.213Z" fill="#1D1C1C"/>
<path d="M28.845 242.635C28.4053 242.743 28 242.979 27.7766 243.377C27.6648 243.576 27.8824 243.756 28.0698 243.67C28.4305 243.505 28.7402 243.186 28.9865 242.878C29.0743 242.769 28.9958 242.598 28.845 242.635Z" fill="#1D1C1C"/>
<path d="M27.1573 241.747C26.675 242.072 26.1465 242.403 25.7602 242.841C25.5587 243.069 25.8202 243.472 26.1028 243.285C26.5965 242.959 26.9987 242.491 27.3931 242.053C27.5339 241.897 27.3499 241.617 27.1573 241.747Z" fill="#1D1C1C"/>
<path d="M25.0447 41.8254C23.9346 42.2636 10.5039 44.3612 7.64929 47.4455C4.92094 50.3939 0 69.8991 0 69.8991C0 69.8991 2.8378 73.1422 6.29213 73.9171C14.4598 75.7487 18.506 73.2648 18.506 73.2648L17.3954 58.3023L25.0447 41.8254Z" fill="black"/>
<path d="M3.41081 69.0269L3.87843 68.7202C6.82087 71.0063 11.4462 72.286 15.3761 71.7341L16.6569 76.6682C14.6275 77.0449 11.6194 77.1875 7.60759 76.2878C5.83153 75.8892 4.22221 74.8395 3.07397 73.9124C3.14917 72.2634 3.25894 70.6288 3.41081 69.0269Z" fill="#CCB19A"/>
<path d="M14.6073 69.2821L17.1922 73.8257C15.4047 74.4295 11.7844 75.1487 6.29213 73.9172C2.8378 73.1423 0 69.8991 0 69.8991C0 69.8991 0.497328 67.9312 1.26109 65.1536C4.07574 68.2894 9.93693 70.1588 14.6073 69.2821Z" fill="black"/>
<path d="M45.0331 20.5261C45.0331 20.5261 48.7183 25.1342 48.2949 25.838C47.4189 27.2948 44.4839 26.7018 44.4839 26.7018L45.0331 20.5261Z" fill="#E2B38C"/>
<path d="M41.9575 7.52934C43.448 8.78573 44.9899 11.1129 45.4036 13.1809C45.817 15.2484 44.8524 16.9023 44.8524 18.1428C44.8524 19.3836 45.1963 19.6591 45.5067 21.1755C45.8171 22.6916 47.3436 33.2309 44.4849 35.8507C41.6265 38.4706 34.916 36.3041 34.5145 37.0271C33.8252 38.2676 34.5145 44.3769 34.5145 44.1947L23.0736 43.3679C23.0736 43.3679 24.314 33.7191 23.0736 31.6515C21.8331 29.5836 14.2682 21.3137 16.045 14.5443C18.9396 3.51722 34.9277 1.60224 41.9575 7.52934Z" fill="#EFC6A0"/>
<path d="M47.8276 0.824377C47.8276 0.824377 50.9399 6.73777 48.5542 8.81274C46.1677 10.8873 38.0466 10.9903 36.698 10.6792C35.3494 10.3681 35.9149 13.159 35.9149 14.6421C35.9149 15.9537 36.7721 17.209 37.4981 18.4539C38.2245 19.6988 38.6325 24.4498 38.3214 24.7102C38.0102 24.9709 35.8971 24.371 35.2748 24.2169C34.6526 24.0628 34.4242 21.8585 33.7941 21.8993C31.6792 22.0367 32.0589 24.0627 31.9552 25.2036C31.8514 26.3448 31.3327 31.7396 30.0878 32.1545C28.8429 32.5693 22.722 32.7767 21.5808 32.1545C20.4396 31.5318 20.5435 29.5609 19.7138 28.7309C18.8837 27.9008 13.9041 20.4317 13.9041 15.8669C13.9041 11.3022 16.9631 7.49561 18.8836 6.9452C19.7355 6.70111 20.8919 2.82599 24.7463 1.63998C27.4161 0.818433 39.1263 -0.657981 45.056 2.45521C46.5542 3.24194 47.2049 1.65444 47.8276 0.824377Z" fill="#2D2A2A"/>
<path d="M44.8419 109.338C45.0193 110.921 45.1969 112.505 45.3743 114.088C45.3869 114.2 45.3973 114.323 45.3359 114.418C45.2773 114.508 45.1692 114.549 45.0673 114.584C44.5514 114.758 44.0198 114.887 43.4813 114.969C43.6257 112.847 43.5138 110.708 43.1482 108.612L44.8419 109.338Z" fill="#2D2F42"/>
<path d="M25.6955 112.269C25.5418 113.539 25.5294 114.827 25.6591 116.1C24.9564 116.034 24.2382 116.143 23.5874 116.414C23.4352 114.97 23.3992 113.514 23.4781 112.064L25.6955 112.269Z" fill="#2D2F42"/>
<path d="M33.108 105.512C37.0828 125.741 31.9469 173.375 31.2335 182.883C30.9035 187.284 27.3324 218.195 25.8749 230.746C25.4967 234.003 24.775 239.857 24.775 239.857C24.775 239.857 24.5211 239.857 20.8441 239.857C14.0903 239.857 12.3189 237.403 12.3189 237.403C12.3189 237.403 13.5677 184.48 13.7799 179.536C14.0033 174.337 13.5516 143.142 12.5226 136.961C11.9696 133.64 6.9359 126.302 12.5226 109.667L33.108 105.512Z" fill="#2D1F64"/>
<path d="M19.4113 111.791L33.7839 109.903C36.4171 131.921 31.899 174.008 31.2334 182.883C31.223 183.024 31.2082 183.198 31.1911 183.391C29.3358 170.719 25.9868 143.427 25.6957 142.389C23.1125 140.102 15.3544 131.448 19.4113 111.791Z" fill="#2D1F64"/>
<path d="M48.3516 108.612C52.3264 128.842 56.9871 170.075 56.9871 179.473C56.9871 185.032 55.7477 238.34 55.7477 238.34C55.7477 238.34 54.5206 240.194 50.8437 240.194C44.0899 240.194 42.9806 238.418 42.9806 238.418C42.9806 238.418 39.5076 189.197 38.5731 184.339C37.639 179.48 30.1219 141.297 29.7533 139.984C27.1702 137.697 15.7769 135.19 18.2227 111.281L48.3516 108.612Z" fill="#2F2166"/>
<path d="M32.7183 25.9019C32.6501 24.0747 33.5398 23.1439 34.2106 22.7038C34.3199 21.5482 34.6842 20.8674 35.4691 21.6497C36.1239 22.3023 36.0458 24.7899 35.9176 25.8152C35.7894 26.8404 37.1996 29.0191 36.7507 29.4036C36.4366 29.6729 35.7552 29.7536 35.1484 28.6128C34.2906 28.5102 32.7972 28.028 32.7183 25.9019Z" fill="#E2B38C"/>
<path d="M34.4831 21.5674C34.4831 21.5674 32.165 22.2071 32.2732 25.1147C32.3843 28.1031 35.2972 27.8482 35.2972 27.8482L34.4831 21.5674Z" fill="#E8BA95"/>
<path d="M35.0242 20.8624C35.6787 21.5151 35.6009 24.0026 35.4728 25.0279C35.3446 26.0531 36.7544 28.2322 36.3059 28.6167C35.8573 29.0008 34.6575 29.0112 33.999 25.6046C33.553 23.2974 33.506 19.349 35.0242 20.8624Z" fill="#EFC6A0"/>
<path d="M51.2745 57.2945C51.396 59.4847 51.8831 75.8978 51.2745 79.5544C50.6663 83.2109 49.4494 83.0894 49.2064 85.2792C48.963 87.4693 48.7193 105.112 49.2064 106.086C49.6931 107.059 51.0877 108.825 50.3902 109.614C49.6931 110.403 38.0276 113.508 31.9968 113.264C25.9663 113.021 11.7023 111.827 10.8789 110.403C9.29693 107.668 9.43215 106.244 9.91181 102C10.3915 97.7564 10.2613 88.8624 9.226 77.5682C8.56743 70.3836 8.56738 56.3212 8.56738 56.3212L17.5102 46.77L22.5751 40.4481C22.5751 40.4481 33.0825 39.7225 35.6157 40.8511C38.1488 41.9797 51.2745 57.2945 51.2745 57.2945Z" fill="black"/>
<path d="M51.2745 57.2945C51.396 59.4847 51.883 75.8978 51.2745 79.5544C50.6663 83.2109 49.4493 83.0894 49.2063 85.2792C48.963 87.4693 48.7192 105.112 49.2063 106.086C49.693 107.059 51.0876 108.825 50.3901 109.614C49.6931 110.403 38.0275 113.508 31.9967 113.264C25.9663 113.021 11.7022 111.827 10.8788 110.403C9.29686 107.668 10.9059 107.153 11.3855 102.909C11.8652 98.6646 13.4339 88.808 11.6089 77.6138C11.3237 75.8655 8.11011 54.7392 8.11011 54.7392L17.5101 46.77L22.575 40.4481C22.575 40.4481 33.0825 39.7225 35.6156 40.8511C38.1488 41.9797 51.2745 57.2945 51.2745 57.2945Z" fill="black"/>
<path d="M89.7893 103.371C90.6001 101.629 90.8268 99.4048 90.8727 97.8858C87.5466 96.9124 71.7354 87.8362 68.7666 83.8322C66.6228 80.9401 62.2141 67.7373 62.2141 67.7373L45.3835 65.9031C45.3835 65.9031 56.9531 89.167 59.6033 92.0713C62.2532 94.9756 81.3483 103.381 88.5722 103.381C89.0137 103.381 89.4097 103.377 89.7893 103.371Z" fill="#EFC6A0"/>
<path d="M51.2746 57.2944C51.3909 59.3898 51.8411 74.4953 51.3469 79.002C48.992 79.585 46.5649 79.7769 44.2492 79.0849L43.2477 60.8239L37.4336 45.9121C39.4886 46.5829 36.8979 42.9223 38.4684 43.2401C43.1695 47.8382 51.2746 57.2944 51.2746 57.2944Z" fill="black" fill-opacity="0.54902"/>
<path d="M33.1077 41.8254C40.3789 44.1986 43.7199 43.5578 49.4726 45.6031C57.012 48.2841 60.7542 64.4586 63.5937 71.5651C60.1138 76.0432 53.0518 77.5718 45.7712 76.3354L43.2638 61.1254L33.1077 41.8254Z" fill="black"/>
<path d="M45.7717 76.3354L45.074 72.101C47.2467 72.2632 50.2977 72.3188 53.1672 71.7636C57.0726 71.0076 60.4266 68.9863 62.2141 67.7373C62.7023 69.1719 63.1589 70.4756 63.5942 71.565C60.1143 76.0431 53.0522 77.5718 45.7717 76.3354Z" fill="black"/>
<path d="M90.8731 97.8859C96.2698 98.2226 98.6784 96.2286 99.3211 96.8017C99.9633 97.3747 100.052 98.077 100.052 98.077C100.052 98.077 100.736 98.9404 101.614 99.3778C102.493 99.8152 102.386 100.504 102.144 100.957C101.901 101.41 99.9015 105.256 97.7561 106.549C95.6108 107.842 92.1865 104.429 88.5726 103.381C87.1421 102.966 89.5526 97.8033 90.8731 97.8859Z" fill="#EFC6A0"/>
<path d="M40.5674 43.6271C40.5674 43.6271 39.5066 41.1361 38.665 40.7257C37.8239 40.3153 32.5015 38.563 28.0074 38.6326C23.513 38.7023 20.6452 39.6846 20.2948 39.895C19.944 40.1053 19.5742 43.0352 19.5742 43.0352C19.5742 43.0352 26.8478 42.4892 28.6194 42.4892C30.3914 42.4892 40.5674 43.6271 40.5674 43.6271Z" fill="black"/>
</svg>
