<svg width="258" height="184" viewBox="0 0 258 184" fill="none" xmlns="http://www.w3.org/2000/svg">
<path d="M78.8811 172.133C78.8811 176.563 61.223 180.154 39.4405 180.154C17.6581 180.154 0 176.563 0 172.133C0 167.703 17.6581 164.112 39.4405 164.112C61.223 164.112 78.8811 167.703 78.8811 172.133Z" fill="#D6CAF9"/>
<path d="M257.172 175.221C257.172 180.036 226.308 183.94 188.236 183.94C150.164 183.94 119.3 180.036 119.3 175.221C119.3 170.406 150.164 166.503 188.236 166.503C226.308 166.503 257.172 170.406 257.172 175.221Z" fill="#D6CAF9"/>
<path d="M240.831 10.0588V164.214C240.831 169.772 236.325 174.272 230.772 174.272H152.858C147.31 174.272 142.805 169.772 142.805 164.214V10.0588C142.805 4.5058 147.31 0 152.858 0H230.772C236.325 0 240.831 4.5058 240.831 10.0588Z" fill="#2D1F64"/>
<path d="M199.855 167.915H183.781C181.706 167.915 180.024 166.233 180.024 164.159C180.024 162.084 181.706 160.402 183.781 160.402H199.855C201.93 160.402 203.612 162.084 203.612 164.159C203.612 166.233 201.93 167.915 199.855 167.915Z" fill="#44319C"/>
<path d="M234.773 13.8692V150.386C234.773 153.076 232.589 155.266 229.893 155.266H153.737C151.047 155.266 148.857 153.076 148.857 150.386V13.8692C148.857 11.173 151.047 8.98901 153.737 8.98901H229.893C232.589 8.98901 234.773 11.173 234.773 13.8692Z" fill="#5456DF"/>
<path d="M225.619 9.22455L148.857 136.34V13.8692C148.857 11.173 151.047 8.98901 153.737 8.98901H224.495L225.619 9.22455Z" fill="#6467DF"/>
<path d="M216.095 68.9986C216.095 82.4072 205.225 93.2765 191.817 93.2765C178.408 93.2765 167.539 82.4072 167.539 68.9986C167.539 55.5904 178.408 44.7207 191.817 44.7207C205.225 44.7207 216.095 55.5904 216.095 68.9986Z" fill="#3F41A8"/>
<path d="M200.879 72.592L203.442 63.8539C203.713 62.9323 203.02 62.0097 202.06 62.0114L181.985 62.0459L181.503 58.717H177.189C176.864 58.717 176.6 58.9806 176.6 59.3057C176.6 59.6308 176.864 59.8944 177.189 59.8944H180.484L182.903 76.6233H202.736C203.061 76.6233 203.324 76.3598 203.324 76.0347C203.324 75.7096 203.061 75.446 202.736 75.446H183.923L183.66 73.625H199.499C200.138 73.625 200.699 73.2042 200.879 72.592Z" fill="#E8E4FD"/>
<path d="M185.271 77.8767C184.2 77.8767 183.332 78.7448 183.332 79.8158C183.332 80.8867 184.2 81.7548 185.271 81.7548C186.342 81.7548 187.21 80.8867 187.21 79.8158C187.21 78.7448 186.342 77.8767 185.271 77.8767Z" fill="#E8E4FD"/>
<path d="M200.472 77.8767C199.401 77.8767 198.533 78.7448 198.533 79.8158C198.533 80.8867 199.401 81.7548 200.472 81.7548C201.543 81.7548 202.411 80.8867 202.411 79.8158C202.411 78.7448 201.543 77.8767 200.472 77.8767Z" fill="#E8E4FD"/>
<path d="M193.078 93.5386C192.919 93.5427 192.785 93.4192 192.776 93.259C192.768 93.097 192.893 92.9586 193.056 92.9502C193.822 92.9116 194.597 92.8347 195.36 92.722C195.518 92.6954 195.67 92.8088 195.694 92.9696C195.718 93.1306 195.607 93.2802 195.446 93.304C194.665 93.4202 193.871 93.4986 193.085 93.5384C193.083 93.5384 193.08 93.5384 193.078 93.5386ZM189.564 93.468C189.552 93.4683 189.541 93.468 189.529 93.4667C188.744 93.3942 187.954 93.2828 187.18 93.1347C187.02 93.1045 186.915 92.9502 186.946 92.7907C186.976 92.6305 187.129 92.5265 187.29 92.5568C188.045 92.7007 188.817 92.8098 189.583 92.8809C189.745 92.8956 189.864 93.0391 189.849 93.2011C189.835 93.351 189.711 93.464 189.564 93.468ZM198.842 92.541C198.712 92.5444 198.591 92.4614 198.552 92.3319C198.505 92.1761 198.593 92.0121 198.749 91.965C199.486 91.7425 200.22 91.4822 200.931 91.1895C201.08 91.131 201.254 91.2 201.316 91.3502C201.377 91.5005 201.305 91.6725 201.155 91.7347C200.427 92.0333 199.674 92.301 198.919 92.5286C198.893 92.5362 198.867 92.5403 198.842 92.541ZM183.845 92.2284C183.81 92.2294 183.775 92.224 183.74 92.2123C182.994 91.9524 182.253 91.6535 181.539 91.3233C181.392 91.2553 181.327 91.0798 181.395 90.9326C181.463 90.7853 181.64 90.722 181.786 90.7888C182.483 91.1109 183.205 91.4029 183.934 91.6562C184.087 91.7097 184.168 91.8772 184.115 92.0311C184.073 92.15 183.964 92.2253 183.845 92.2284ZM204.194 90.188C204.091 90.1906 203.99 90.1387 203.933 90.0436C203.85 89.9043 203.897 89.7236 204.037 89.6406C204.698 89.2476 205.349 88.8181 205.969 88.3642C206.1 88.2699 206.283 88.2967 206.38 88.4275C206.476 88.5589 206.448 88.7431 206.317 88.8392C205.681 89.3046 205.015 89.7442 204.336 90.1469C204.292 90.1733 204.243 90.1867 204.194 90.188ZM178.592 89.6505C178.534 89.6522 178.476 89.637 178.424 89.6032C177.764 89.1732 177.117 88.7056 176.5 88.2141C176.373 88.1122 176.352 87.927 176.454 87.8001C176.556 87.6727 176.741 87.6517 176.868 87.7536C177.469 88.234 178.101 88.6899 178.746 89.1095C178.881 89.1984 178.92 89.3809 178.832 89.5171C178.776 89.6014 178.685 89.6481 178.592 89.6505ZM208.829 86.6203C208.751 86.6224 208.671 86.5929 208.612 86.5324C208.498 86.4162 208.499 86.23 208.615 86.1159C209.164 85.5781 209.693 85.0063 210.189 84.4158C210.293 84.2911 210.479 84.2748 210.603 84.3802C210.728 84.4844 210.744 84.6704 210.639 84.795C210.131 85.3995 209.59 85.9855 209.028 86.5363C208.972 86.5906 208.901 86.6185 208.829 86.6203ZM174.108 85.8925C174.027 85.8946 173.945 85.8634 173.885 85.7995C173.345 85.2237 172.828 84.6158 172.347 83.9923C172.248 83.8633 172.272 83.6786 172.401 83.5793C172.529 83.4811 172.714 83.5044 172.814 83.6326C173.283 84.2414 173.788 84.8348 174.315 85.3971C174.426 85.5155 174.419 85.702 174.301 85.8132C174.247 85.8641 174.177 85.8907 174.108 85.8925ZM212.484 82.051C212.428 82.0525 212.372 82.0385 212.321 82.0072C212.183 81.9215 212.141 81.7405 212.226 81.6018C212.631 80.9471 213.009 80.2649 213.348 79.5756C213.42 79.4294 213.597 79.3696 213.742 79.4415C213.888 79.5131 213.948 79.6898 213.876 79.8354C213.528 80.5416 213.142 81.2402 212.726 81.9119C212.672 81.9995 212.58 82.0486 212.484 82.051ZM170.649 81.1771C170.544 81.1797 170.44 81.1255 170.384 81.027C169.998 80.3401 169.641 79.6261 169.323 78.9042C169.257 78.7556 169.325 78.5819 169.473 78.5165C169.621 78.4504 169.796 78.5179 169.861 78.6667C170.172 79.3712 170.521 80.0682 170.898 80.7384C170.978 80.8802 170.927 81.0598 170.785 81.1394C170.742 81.1635 170.696 81.1758 170.649 81.1771ZM214.939 76.7399C214.907 76.7408 214.873 76.7365 214.841 76.7258C214.686 76.6758 214.601 76.5103 214.651 76.3553C214.887 75.6237 215.09 74.8713 215.253 74.1191C215.288 73.9606 215.443 73.8593 215.604 73.8939C215.763 73.9286 215.863 74.0855 215.828 74.2443C215.661 75.0151 215.453 75.7862 215.212 76.536C215.172 76.6582 215.06 76.7367 214.939 76.7399ZM168.42 75.7686C168.288 75.7722 168.166 75.6859 168.129 75.5526C167.92 74.7956 167.745 74.0164 167.609 73.237C167.582 73.0768 167.689 72.9245 167.849 72.8966C168.004 72.8666 168.161 72.9755 168.19 73.136C168.322 73.8971 168.492 74.6574 168.696 75.3962C168.74 75.5529 168.648 75.7149 168.491 75.7581C168.467 75.7645 168.443 75.7681 168.42 75.7686ZM216.045 70.9959C216.035 70.9963 216.026 70.9963 216.016 70.9953C215.854 70.9844 215.732 70.8439 215.743 70.6816C215.796 69.9143 215.812 69.1349 215.792 68.3657L215.789 68.2663C215.785 68.1037 215.913 67.9686 216.075 67.9644C216.238 67.96 216.373 68.0882 216.378 68.2508L216.38 68.3449C216.402 69.138 216.385 69.9361 216.331 70.7219C216.32 70.8746 216.195 70.992 216.045 70.9959ZM167.556 69.9585C167.393 69.9629 167.259 69.8595 167.254 69.6969L167.253 69.6474C167.233 68.8744 167.248 68.0934 167.3 67.3255C167.31 67.1633 167.454 67.0438 167.613 67.0514C167.775 67.0625 167.898 67.2028 167.887 67.3651C167.837 68.1146 167.822 68.8774 167.841 69.6318C167.846 69.7946 167.718 69.9543 167.556 69.9585ZM215.732 65.056C215.589 65.0598 215.461 64.9583 215.436 64.8128C215.302 64.0538 215.13 63.2939 214.924 62.554C214.881 62.3972 214.972 62.2351 215.129 62.1915C215.286 62.1488 215.448 62.24 215.491 62.3964C215.702 63.1546 215.878 63.9331 216.015 64.7107C216.043 64.8707 215.936 65.0234 215.776 65.0518C215.762 65.0542 215.747 65.0557 215.732 65.056ZM168.09 64.1587C168.067 64.1594 168.044 64.1574 168.02 64.1522C167.861 64.1182 167.76 63.9615 167.794 63.8025C167.96 63.029 168.167 62.2576 168.407 61.5097C168.457 61.3549 168.622 61.2678 168.777 61.3193C168.932 61.3687 169.017 61.5346 168.967 61.6893C168.733 62.4189 168.532 63.1714 168.37 63.9264C168.341 64.0618 168.222 64.1551 168.09 64.1587ZM214.029 59.4603C213.914 59.4632 213.802 59.3975 213.752 59.2852C213.442 58.585 213.092 57.8886 212.712 57.2159C212.632 57.0744 212.682 56.8947 212.824 56.8148C212.966 56.7354 213.145 56.785 213.224 56.9264C213.613 57.6157 213.972 58.329 214.29 59.0468C214.356 59.1954 214.289 59.3691 214.141 59.4351C214.104 59.451 214.066 59.4591 214.029 59.4603ZM170.008 58.6305C169.962 58.6318 169.914 58.6223 169.871 58.6006C169.724 58.529 169.664 58.353 169.735 58.2067C170.081 57.5024 170.466 56.8029 170.881 56.1288C170.966 55.9904 171.147 55.9484 171.286 56.032C171.424 56.1172 171.467 56.2987 171.382 56.4369C170.978 57.0954 170.601 57.7779 170.264 58.4659C170.214 58.5675 170.113 58.6277 170.008 58.6305ZM211.03 54.4393C210.94 54.4418 210.849 54.4025 210.79 54.3253C210.319 53.7176 209.813 53.1248 209.285 52.5641C209.174 52.4457 209.179 52.2596 209.298 52.148C209.416 52.036 209.602 52.042 209.714 52.1606C210.254 52.7349 210.773 53.3421 211.255 53.965C211.355 54.0935 211.331 54.2782 211.203 54.3779C211.152 54.4178 211.091 54.4379 211.03 54.4393ZM173.195 53.7241C173.125 53.726 173.056 53.7037 172.998 53.6557C172.874 53.5515 172.857 53.3659 172.962 53.2413C173.466 52.6379 174.007 52.0508 174.569 51.4957C174.686 51.3811 174.872 51.3833 174.986 51.4985C175.1 51.6143 175.098 51.8006 174.983 51.9149C174.434 52.4568 173.905 53.03 173.413 53.6185C173.357 53.6862 173.277 53.722 173.195 53.7241ZM206.92 50.2773C206.853 50.2789 206.785 50.258 206.729 50.2135C206.126 49.7342 205.493 49.2795 204.848 48.8609C204.711 48.7725 204.673 48.5903 204.761 48.4538C204.85 48.3174 205.032 48.2786 205.168 48.3671C205.829 48.7955 206.478 49.2618 207.095 49.7523C207.223 49.8538 207.243 50.0389 207.142 50.166C207.086 50.2368 207.004 50.275 206.92 50.2773ZM177.459 49.7189C177.366 49.7215 177.273 49.6799 177.214 49.599C177.117 49.468 177.146 49.2839 177.277 49.1875C177.91 48.7216 178.576 48.2802 179.254 47.8757C179.394 47.7923 179.574 47.8375 179.657 47.9776C179.741 48.1172 179.695 48.2978 179.556 48.3812C178.893 48.7762 178.244 49.207 177.625 49.662C177.575 49.699 177.517 49.7174 177.459 49.7189ZM201.935 47.2137C201.891 47.2149 201.847 47.2066 201.805 47.187C201.103 46.866 200.379 46.5756 199.654 46.3249C199.5 46.2717 199.419 46.1039 199.472 45.9504C199.525 45.7966 199.694 45.7153 199.846 45.7682C200.59 46.0256 201.331 46.3228 202.049 46.652C202.197 46.7198 202.262 46.8944 202.195 47.0421C202.146 47.1478 202.043 47.211 201.935 47.2137ZM182.552 46.848C182.434 46.8511 182.32 46.7823 182.272 46.6661C182.21 46.5159 182.282 46.3438 182.432 46.2818C183.163 45.9799 183.915 45.7111 184.667 45.4832C184.824 45.4361 184.987 45.5237 185.034 45.6795C185.081 45.8349 184.993 45.9995 184.838 46.0463C184.104 46.2691 183.37 46.5311 182.657 46.8257C182.623 46.8399 182.587 46.847 182.552 46.848ZM196.359 45.4367C196.339 45.4374 196.318 45.4359 196.297 45.4318C195.541 45.2888 194.769 45.1815 194.003 45.1123C193.841 45.0979 193.721 44.9547 193.735 44.7927C193.75 44.6308 193.894 44.5122 194.055 44.5261C194.841 44.5967 195.632 44.7069 196.406 44.8533C196.566 44.8836 196.67 45.0376 196.64 45.1973C196.614 45.3358 196.495 45.4333 196.359 45.4367ZM188.189 45.2862C188.043 45.2901 187.913 45.1842 187.89 45.0356C187.866 44.875 187.977 44.7251 188.137 44.7009C188.916 44.5838 189.71 44.5034 190.498 44.4616C190.501 44.4615 190.504 44.4615 190.506 44.4613C190.665 44.457 190.799 44.5804 190.808 44.7401C190.816 44.9022 190.692 45.041 190.53 45.0497C189.76 45.0903 188.985 45.1689 188.225 45.2829C188.213 45.285 188.201 45.2859 188.189 45.2862Z" fill="#E8E4FD"/>
<path d="M197.303 94.3738C197.303 97.4039 194.847 99.8603 191.817 99.8603C188.787 99.8603 186.33 97.4039 186.33 94.3738C186.33 91.3436 188.787 88.8872 191.817 88.8872C194.847 88.8872 197.303 91.3436 197.303 94.3738Z" fill="#F9CF59"/>
<path d="M191.568 96.9722L189.124 94.7691C188.92 94.585 188.904 94.27 189.087 94.0659C189.272 93.8619 189.586 93.8464 189.791 94.0295L191.462 95.5367L194.145 92.2857C194.32 92.0743 194.633 92.0437 194.846 92.2186C195.058 92.3935 195.088 92.7073 194.913 92.9192L191.568 96.9722Z" fill="#3F41A8"/>
<path d="M205.358 138.954H206.565V136.363H205.571V135.716C206.177 135.626 206.495 135.515 206.841 135.308H207.605V138.954H208.624V139.792H205.358V138.954Z" fill="white"/>
<path d="M209.433 137.531C209.433 136.005 210.119 135.224 211.157 135.224C212.195 135.224 212.881 136.005 212.881 137.531C212.881 139.054 212.195 139.877 211.157 139.877C210.119 139.877 209.433 139.054 209.433 137.531ZM211.955 137.531C211.955 136.367 211.602 136.028 211.157 136.028C210.712 136.028 210.359 136.367 210.359 137.531C210.359 138.696 210.712 139.073 211.157 139.073C211.602 139.073 211.955 138.696 211.955 137.531ZM210.627 137.518C210.627 137.192 210.858 136.98 211.157 136.98C211.456 136.98 211.686 137.192 211.686 137.518C211.686 137.845 211.456 138.057 211.157 138.057C210.858 138.057 210.627 137.845 210.627 137.518Z" fill="white"/>
<path d="M213.671 137.531C213.671 136.005 214.357 135.224 215.395 135.224C216.433 135.224 217.119 136.005 217.119 137.531C217.119 139.054 216.433 139.877 215.395 139.877C214.357 139.877 213.671 139.054 213.671 137.531ZM216.193 137.531C216.193 136.367 215.84 136.028 215.395 136.028C214.95 136.028 214.597 136.367 214.597 137.531C214.597 138.696 214.95 139.073 215.395 139.073C215.84 139.073 216.193 138.696 216.193 137.531ZM214.865 137.518C214.865 137.192 215.096 136.98 215.395 136.98C215.694 136.98 215.924 137.192 215.924 137.518C215.924 137.845 215.694 138.057 215.395 138.057C215.096 138.057 214.865 137.845 214.865 137.518Z" fill="white"/>
<path d="M217.637 139.081L218.955 137.855L219.315 138.189L218.171 139.597L217.637 139.081ZM217.691 136.4C217.691 135.666 218.141 135.224 218.738 135.224C219.336 135.224 219.786 135.666 219.786 136.4C219.786 137.129 219.336 137.592 218.738 137.592C218.141 137.592 217.691 137.129 217.691 136.4ZM219.073 136.4C219.073 135.917 218.915 135.78 218.738 135.78C218.562 135.78 218.404 135.917 218.404 136.4C218.404 136.88 218.562 137.035 218.738 137.035C218.915 137.035 219.073 136.88 219.073 136.4ZM219.481 138.685C219.481 137.951 219.931 137.508 220.528 137.508C221.126 137.508 221.576 137.951 221.576 138.685C221.576 139.414 221.126 139.877 220.528 139.877C219.931 139.877 219.481 139.414 219.481 138.685ZM219.963 136.794L221.106 135.387L221.641 135.903L220.323 137.128L219.963 136.794ZM220.863 138.685C220.863 138.202 220.705 138.065 220.528 138.065C220.352 138.065 220.194 138.202 220.194 138.685C220.194 139.164 220.352 139.32 220.528 139.32C220.705 139.32 220.863 139.164 220.863 138.685Z" fill="white"/>
<path d="M223.364 127.517C223.364 128.258 223.064 128.929 222.581 129.412C222.093 129.895 221.422 130.195 220.686 130.195H162.944C161.466 130.195 160.271 129 160.271 127.517C160.271 126.781 160.571 126.11 161.054 125.627C161.537 125.144 162.202 124.844 162.944 124.844H220.686C222.163 124.844 223.364 126.039 223.364 127.517Z" fill="#2D1F64"/>
<path d="M170.626 124.844V130.195H170.037V124.844H170.626Z" fill="#5456DF"/>
<path d="M181.481 124.844V130.195H180.892V124.844H181.481Z" fill="#5456DF"/>
<path d="M192.336 124.844V130.195H191.747V124.844H192.336Z" fill="#5456DF"/>
<path d="M203.196 124.844V130.195H202.608V124.844H203.196Z" fill="#5456DF"/>
<path d="M214.051 124.844V130.195H213.463V124.844H214.051Z" fill="#5456DF"/>
<path d="M39.9394 171.516C39.9394 173.329 31.7465 174.799 21.6399 174.799C11.5335 174.799 3.34058 173.329 3.34058 171.516C3.34058 169.703 11.5335 168.233 21.6399 168.233C31.7465 168.233 39.9394 169.703 39.9394 171.516Z" fill="#C1AFF9"/>
<path d="M83.1691 171.516C83.1691 173.329 74.976 174.799 64.8696 174.799C54.7631 174.799 46.5701 173.329 46.5701 171.516C46.5701 169.703 54.7631 168.233 64.8696 168.233C74.976 168.233 83.1691 169.703 83.1691 171.516Z" fill="#C1AFF9"/>
<path d="M34.7707 171.73H8.15058C7.81831 170.582 7.48017 168.315 9.32209 166.84C11.8635 164.806 24.0924 160.527 24.0924 160.527L32.9521 160.219C32.9521 160.219 36.4552 168.6 34.7707 171.73Z" fill="#2D1F64"/>
<path d="M33.1552 152.887L33.0533 160.832C33.0533 160.832 31.4236 162.793 28.4441 162.793C25.4646 162.793 24.0895 160.527 24.0895 160.527L24.4969 152.989L33.1552 152.887Z" fill="#FBBAAC"/>
<path d="M13.8012 167.731C13.4792 167.731 13.2183 167.47 13.2183 167.148V164.703C13.2183 164.381 13.4792 164.12 13.8012 164.12C14.1231 164.12 14.3841 164.381 14.3841 164.703V167.148C14.3841 167.47 14.1231 167.731 13.8012 167.731Z" fill="#422F95"/>
<path d="M17.3665 167.731C17.0447 167.731 16.7837 167.47 16.7837 167.148V163.48C16.7837 163.158 17.0447 162.898 17.3665 162.898C17.6883 162.898 17.9493 163.158 17.9493 163.48V167.148C17.9493 167.47 17.6883 167.731 17.3665 167.731Z" fill="#422F95"/>
<path d="M53.1664 171.73H79.7865C80.1188 170.582 80.4569 168.315 78.615 166.84C76.0736 164.806 63.8447 160.527 63.8447 160.527L54.985 160.219C54.985 160.219 51.4819 168.6 53.1664 171.73Z" fill="#2D1F64"/>
<path d="M54.7819 152.887L54.8838 160.832C54.8838 160.832 56.5135 162.793 59.493 162.793C62.4725 162.793 63.8476 160.527 63.8476 160.527L63.4401 152.989L54.7819 152.887Z" fill="#FBBAAC"/>
<path d="M74.2055 167.731C73.8837 167.731 73.6227 167.47 73.6227 167.148V164.703C73.6227 164.381 73.8837 164.12 74.2055 164.12C74.5273 164.12 74.7885 164.381 74.7885 164.703V167.148C74.7885 167.47 74.5273 167.731 74.2055 167.731Z" fill="#422F95"/>
<path d="M70.6406 167.731C70.3186 167.731 70.0576 167.47 70.0576 167.148V163.48C70.0576 163.158 70.3186 162.898 70.6406 162.898C70.9624 162.898 71.2234 163.158 71.2234 163.48V167.148C71.2234 167.47 70.9624 167.731 70.6406 167.731Z" fill="#422F95"/>
<path d="M29.3863 87.0161L20.694 153.023C20.694 153.023 24.7685 153.566 29.6579 153.566C34.5474 153.566 36.4487 153.023 36.4487 153.023L42.968 99.7828L52.4751 154.109C52.4751 154.109 57.6362 155.468 60.3526 155.468C63.0688 155.468 66.0568 154.653 66.0568 154.653L58.9943 88.6458L29.3863 87.0161Z" fill="#2F2166"/>
<path d="M29.7937 100.21C29.7407 100.21 29.6888 100.183 29.6599 100.134C29.6164 100.06 29.6412 99.9643 29.7149 99.9206C34.1892 97.2889 33.1818 89.6946 33.1712 89.6181C33.1593 89.5333 33.2185 89.4544 33.3035 89.4429C33.3847 89.4289 33.4666 89.4896 33.4787 89.5744C33.4896 89.6534 34.5259 97.4509 29.8726 100.189C29.8477 100.203 29.8208 100.21 29.7937 100.21Z" fill="#49339E"/>
<path d="M56.0062 101.16C55.9741 101.16 55.9416 101.151 55.9141 101.13C52.7494 98.7907 54.0317 91.248 54.0878 90.9283C54.1023 90.8428 54.1824 90.7846 54.2672 90.8022C54.3519 90.8167 54.4083 90.8973 54.3935 90.9817C54.3801 91.0582 53.0882 98.6549 56.0984 100.88C56.1676 100.931 56.1821 101.028 56.1312 101.097C56.1005 101.139 56.0535 101.16 56.0062 101.16Z" fill="#49339E"/>
<path d="M44.1222 92.4683C43.4003 92.4683 42.8129 91.8806 42.8129 91.1581C42.8129 90.4363 43.4003 89.8486 44.1222 89.8486C44.8447 89.8486 45.432 90.4363 45.432 91.1581C45.432 91.8806 44.8447 92.4683 44.1222 92.4683ZM44.1222 90.1592C43.5715 90.1592 43.1233 90.6075 43.1233 91.1581C43.1233 91.7095 43.5715 92.1577 44.1222 92.1577C44.6734 92.1577 45.1215 91.7095 45.1215 91.1581C45.1215 90.6075 44.6734 90.1592 44.1222 90.1592Z" fill="#49339E"/>
<path d="M161.92 22.9206V81.0407C161.92 83.6235 159.827 85.7106 157.25 85.7106H141.79V18.2507H157.25C159.827 18.2507 161.92 20.3378 161.92 22.9206Z" fill="#011F3B" fill-opacity="0.501961"/>
<path d="M102.187 19.9255C102.187 19.9255 93.6301 33.9146 84.5255 41.1131C75.4268 48.3058 61.1695 53.4702 61.1695 53.4702L60.7614 88.6468C60.7614 88.6468 53.831 89.871 46.0903 89.1889C38.3497 88.5127 27.6189 86.8807 27.6189 86.8807C27.6189 86.8807 28.0269 46.9478 31.151 42.0633C33.5118 38.3735 37.5744 37.4642 39.4222 37.2428C40.0225 37.1728 40.3897 37.1728 40.3897 37.1728L42.1616 37.2311L50.3162 37.5108H50.3687C50.3687 37.5108 51.8435 37.4002 54.2974 37.0446C58.2784 36.4559 64.8416 35.2084 71.8945 32.6904C83.3074 28.6162 101.097 13.9451 101.097 13.9451L102.187 19.9255Z" fill="#FD4169"/>
<path d="M53.0184 37.2396L46.8074 47.5597L39.4222 37.2428C40.0225 37.1729 40.3897 37.1729 40.3897 37.1729L42.1616 37.2311L46.8074 44.0973L50.3162 37.5108H50.3687C50.3687 37.5108 50.5645 37.5952 53.0184 37.2396Z" fill="#FD5679"/>
<path d="M45.3447 41.8234L46.4314 39.9559L48.095 41.6875L50.3687 37.5107L46.2616 36.2888L42.1616 37.231L45.3447 41.8234Z" fill="white"/>
<path d="M157.289 22.5595V75.7834C157.289 78.1453 155.37 80.0589 153.014 80.0589H69.2154C66.8535 80.0589 64.9399 78.1453 64.9399 75.7834V22.5595C64.9399 20.1977 66.8535 18.2842 69.2154 18.2842H153.014C155.37 18.2842 157.289 20.1977 157.289 22.5595Z" fill="#2D1F64"/>
<path d="M125.744 32.1927H72.0452V28.791H125.744V32.1927Z" fill="#382880"/>
<path d="M73.2023 49.0499C73.0006 49.0499 72.7986 49.0132 72.6151 48.9398V45.9304C72.7986 45.857 73.0006 45.8203 73.2023 45.8203H79.386C80.2668 45.8203 80.9824 46.5543 80.9824 47.435C80.9824 48.3158 80.2668 49.0499 79.386 49.0499H73.2023Z" fill="#FDC37E"/>
<path d="M87.6806 44.7928V46.6462H82.7079C82.3776 45.123 81.0014 43.9854 79.3867 43.9854H73.2031C73.0563 43.9854 72.8912 44.0038 72.7444 44.0404C73.0378 42.9946 74.0105 42.2239 75.1664 42.2239H85.1301C86.543 42.2239 87.6806 43.3799 87.6806 44.7928Z" fill="#FDC37E"/>
<path d="M82.6338 48.481H87.6798V50.8481C87.6798 52.261 86.5422 53.4169 85.1293 53.4169H75.1656C73.7527 53.4169 72.6151 52.261 72.6151 50.8481V50.8297C72.8169 50.8664 73.0006 50.8848 73.2023 50.8848H79.386C80.909 50.8848 82.2118 49.8756 82.6338 48.481Z" fill="#FDC37E"/>
<path d="M146.64 63.7497H72.0452V59.1633H146.64V63.7497Z" fill="#382880"/>
<path d="M146.64 72.0109H116.495V67.7283H146.64V72.0109Z" fill="#382880"/>
<path d="M116.579 18.2842C107.402 30.4795 86.0928 55.5221 64.9399 56.716V22.5595C64.9399 20.1977 66.8535 18.2842 69.2154 18.2842H116.579Z" fill="white" fill-opacity="0.101961"/>
<path d="M146.091 35.4133H131.738C130.346 35.4133 129.218 34.2853 129.218 32.8939V27.2233C129.218 25.832 130.346 24.7041 131.738 24.7041H146.091C147.483 24.7041 148.611 25.832 148.611 27.2233V32.8939C148.611 34.2853 147.483 35.4133 146.091 35.4133Z" fill="#4933A3"/>
<path d="M62.3218 83.6886C62.3218 83.6886 70.8104 87.9668 71.7611 87.0162C72.7119 86.0654 71.0141 85.522 71.0141 85.522C71.0141 85.522 73.4588 86.7444 74.0021 85.9975C74.5453 85.2504 72.1685 83.7566 72.1685 83.7566C72.1685 83.7566 75.4281 85.1147 75.9036 84.0961C76.3789 83.0776 70.8104 81.0404 70.8104 81.0404C70.8104 81.0404 75.2245 81.991 75.4281 81.0404C75.6318 80.0896 71.6932 79.1389 71.6932 79.1389C71.6932 79.1389 73.8662 78.7314 73.3909 77.509C72.9156 76.2868 64.9703 77.3053 64.9703 77.3053L62.3218 83.6886Z" fill="#FBBAAC"/>
<path d="M33.4608 39.7183C33.4608 39.7183 38.1465 42.8759 36.8223 51.0249C36.8223 51.0249 34.2757 59.8869 40.6931 64.1652C47.1104 68.4434 65.4456 76.9999 65.4456 76.9999L62.1861 83.9263C62.1861 83.9263 36.2111 79.6483 29.7937 70.7863C23.3765 61.9243 24.5987 46.9504 33.4608 39.7183Z" fill="#FD5679"/>
<path d="M33.4607 39.7183C33.4607 39.7183 38.1464 42.8759 36.8222 51.0249C36.8222 51.0249 36.1332 53.4223 36.3751 56.3251" stroke="#FD839E" stroke-width="0.1764" stroke-miterlimit="10" stroke-linecap="round"/>
<path d="M101.097 13.9469C101.097 13.9469 101.25 23.4202 103.084 23.4202C104.917 23.4202 103.95 17.6649 103.95 17.6649C103.95 17.6649 104.255 23.8785 105.783 23.8276C107.311 23.7767 106.445 17.1556 106.445 17.1556C106.445 17.1556 106.955 23.6748 108.483 23.573C110.01 23.471 108.635 16.8499 108.635 16.8499C108.635 16.8499 109.348 22.096 110.978 21.9431C112.608 21.7903 112.15 13.9469 110.774 13.3868C109.399 12.8265 106.955 12.2153 104.51 12.7245C102.065 13.234 101.097 13.9469 101.097 13.9469Z" fill="#FBBAAC"/>
<path d="M50.3686 22.6414V37.5106C50.3686 37.5106 49.6925 38.5949 45.5482 38.5949C41.4039 38.5949 40.8618 37.5106 40.8618 37.5106V22.6414H50.3686Z" fill="#FBBAAC"/>
<path d="M50.3686 30.1605V34.6428C49.8381 34.6138 49.2435 34.5787 48.5849 34.5205C40.1331 33.8093 41.6079 22.6589 41.6079 22.6589L50.3686 30.1605Z" fill="#FBA18C"/>
<path d="M58.9943 19.0401C58.7898 17.772 57.5688 17.851 57.0951 17.9311V15.781C57.0951 13.4086 56.0283 11.287 54.3438 9.86475C52.9975 8.72814 51.2545 8.04028 49.3485 8.04028C45.0761 8.04028 41.6079 11.5026 41.6079 15.781V17.926C41.2408 17.7337 40.8326 17.6112 40.3896 17.6112C38.9266 17.6112 38.1456 18.9403 38.472 20.4149C38.711 21.4756 39.3696 22.3383 40.8444 22.7114C41.0775 22.7698 41.3339 22.8163 41.6079 22.8513V24.7456C41.6079 29.0182 45.0761 32.4864 49.3485 32.4864C53.6269 32.4864 57.0951 29.0182 57.0951 24.7456V21.4307C57.6939 21.1495 59.199 20.3093 58.9943 19.0401Z" fill="#FBBAAC"/>
<path d="M58.5175 4.67759C57.9053 3.24966 55.6671 5.69772 55.6671 5.69772C55.6671 5.69772 56.5472 3.52354 55.9061 2.91152C55.259 2.29951 53.5978 3.7917 53.5978 3.7917C53.5978 3.7917 51.3188 2.23539 47.2095 3.21458C43.3333 4.14729 42.086 9.50977 41.9635 10.0926C41.7712 10.0402 41.5789 10.011 41.3748 10.011C39.6495 10.011 38.2506 11.952 38.2506 14.3536C38.2506 16.755 39.9876 19.4128 41.7129 19.4128C43.4382 19.4128 44.4933 16.755 44.4933 14.3536C44.4933 14.1612 44.4815 13.9688 44.4641 13.788C45.4201 14.1554 46.7373 14.3885 48.5384 14.3536C51.1788 14.301 53.1958 13.9688 54.7287 13.45C55.1892 14.5284 55.9236 15.6358 57.0951 16.3994V15.7815C57.0951 14.68 56.862 13.6365 56.4482 12.6865C60.7673 10.2034 58.9603 5.71518 58.5175 4.67759Z" fill="#0A2B54"/>
<path d="M41.0151 20.7635C40.3519 20.7635 39.88 20.61 39.6105 20.3054C39.3201 19.9779 39.3816 19.6011 39.3842 19.5851C39.3922 19.538 39.4371 19.5049 39.4851 19.5143C39.5325 19.5223 39.5643 19.5673 39.5567 19.6148C39.5547 19.6275 39.5081 19.9286 39.7436 20.1922C40.0052 20.4845 40.5267 20.6209 41.2487 20.5824C41.2505 20.5824 41.2518 20.5824 41.2532 20.5824C41.2996 20.5824 41.3381 20.6186 41.3405 20.6653C41.343 20.7137 41.3059 20.7547 41.2578 20.7573C41.1741 20.7615 41.0932 20.7635 41.0151 20.7635Z" fill="#D65B3F"/>
</svg>
