<svg width="236" height="185" viewBox="0 0 236 185" fill="none" xmlns="http://www.w3.org/2000/svg">
<path d="M229.283 79.6575C236.86 94.5329 237.822 109.996 233.2 128.024C228.886 144.847 196.542 194.333 136.621 171.516C90.4431 153.932 99.4335 99.639 112.681 94.3624C119.69 91.5701 99.1824 115.807 131.465 132.673C163.749 149.539 196.791 132.964 198.761 112.699C200.73 92.4344 168.598 77.8512 152.044 80.313C135.49 82.7756 129.935 48.2539 175.818 48.2539C198.624 48.2539 221.112 63.6177 229.283 79.6575Z" fill="#5456DF" fill-opacity="0.1"/>
<path d="M196.689 160.036L193.981 138.873L156.229 139.15V158.659L196.689 160.036Z" fill="#2D1F64"/>
<path d="M144.199 110.466C142.641 111.361 140.649 112.106 139.126 111.154C138.235 110.598 137.734 109.554 137.616 108.511C137.498 107.468 137.716 106.416 137.995 105.405C140.193 97.4398 154.667 80.149 160.905 73.8631C163.65 71.0975 167.131 88.504 166.407 90.7073C165.675 92.9391 151.425 106.316 144.199 110.466Z" fill="#2F2166"/>
<path d="M132.086 77.7387C131.343 76.7422 130.394 75.643 129.152 75.698C128.104 75.7435 127.258 76.6657 126.966 77.6741C126.878 77.9792 127.642 81.5234 128.66 85.3951L135.029 82.8527C133.75 80.4014 132.682 78.5365 132.086 77.7387Z" fill="#D6CAF9"/>
<path d="M135.029 82.8528L127.435 85.1148C129.772 93.9994 135.325 108.01 138.413 110.555C140.645 112.394 143.101 111.609 144.847 109.695C146.742 107.618 139.563 91.545 135.029 82.8528Z" fill="#2F2166"/>
<path d="M153.755 90.7672C153.295 87.6159 152.627 83.7317 154.469 81.0068C156.123 78.5618 163.259 68.9373 172.791 68.9373C186.379 68.9373 193.232 78.435 196.583 82.5268C197.949 90.804 194.92 100.583 192.453 108.499C189.982 116.427 191.304 137.04 194.008 145.063H154.385C154.489 137.721 154.658 96.9672 153.755 90.7672Z" fill="#2F2166"/>
<path d="M191.421 77.5736C190.125 77.1873 180.993 77.7686 183.43 84.2616C186.455 92.3217 192.5 98.8865 197.547 105.862C199.098 108.005 200.671 110.173 202.715 111.853C204.758 113.532 207.358 114.695 209.995 114.479C211.375 114.365 213.411 113.716 214.088 112.362C214.634 111.272 213.957 109.48 213.709 108.395C212.831 104.545 198.624 79.7232 191.421 77.5736Z" fill="#2F2166"/>
<path fill-rule="evenodd" clip-rule="evenodd" d="M203.467 101.606C203.48 101.659 203.488 101.712 203.488 101.767C203.483 101.713 203.473 101.66 203.467 101.606Z" fill="#2D1F64"/>
<path d="M184.01 131.177C183.884 132.518 186.551 133.731 187.865 134.028C188.245 134.115 190.195 132.168 192.931 130.271L188.756 126.001C186.807 128.437 184.036 130.903 184.01 131.177Z" fill="#D6CAF9"/>
<path d="M165.051 117.419C166.774 108.287 168.535 99.1811 170.596 90.9124C172.545 83.0927 177.234 77.5831 183.146 72.4478C178.264 68.6368 169.75 68.2755 165.565 73.2541C160.401 79.3988 162.042 90.5415 162.274 97.9082C162.457 103.754 164.148 117.429 165.051 117.419Z" fill="#D6CAF9"/>
<path d="M170.859 76.076C171.541 75.0927 172.448 74.052 172.241 72.8738C172.105 72.1011 171.435 71.4527 170.657 71.3414C167.774 70.9324 169.097 74.0688 169.509 75.4492C166.74 79.6023 163.409 88.3162 162.306 98.7155C162.603 104.92 164.188 117.429 165.051 117.419C166.225 111.197 167.419 104.994 168.711 99.0518C168.957 92.1897 169.584 77.9157 170.859 76.076Z" fill="#198E2C"/>
<path d="M214.204 110.398C213.859 109.159 212.59 108.43 211.381 107.99C209.351 107.251 206.801 106.751 204.648 107.185C203.162 107.484 202.703 108.834 201.855 109.923C199.73 112.646 191.425 122.524 187.265 127.723L191.817 133.446C198.54 128.783 210.753 116.981 212.798 114.31C213.672 113.167 214.591 111.785 214.204 110.398Z" fill="#2F2166"/>
<path fill-rule="evenodd" clip-rule="evenodd" d="M171.264 44.5086C172.312 43.456 179.557 40.6975 181.889 45.9249C182.701 47.7443 183.003 50.852 182.579 52.7982C182.015 55.382 179.537 63.7816 181.294 64.9874C179.525 65.4096 177.57 64.9706 176.151 63.8331C174.732 62.6942 173.879 60.882 173.907 59.0639C173.939 57.0087 175.016 54.9442 174.433 52.9729C174.08 51.7826 173.175 50.8508 172.301 49.9692C171.598 49.2598 170.415 48.4788 170.234 47.4679C170.048 46.4356 170.543 45.2323 171.264 44.5086Z" fill="black"/>
<path fill-rule="evenodd" clip-rule="evenodd" d="M164.578 47.8352C164.698 46.9656 164.977 46.0673 165.627 45.4775C166.669 44.5325 168.327 44.6832 169.598 45.2861C170.283 45.6104 170.985 46.1714 170.989 46.9285C170.992 47.5637 170.504 48.0817 170.028 48.5027C168.931 49.474 167.356 50.913 165.908 51.2994C164.122 51.7778 164.435 48.8616 164.578 47.8352Z" fill="#222B56"/>
<path d="M168.972 59.4095C169.903 55.3018 173.011 54.34 174.819 55.3257C175.977 63.0148 177.157 66.4323 180.171 70.6273C176.424 73.0293 170.027 72.582 168.644 70.6273C168.589 70.0113 168.491 61.5339 168.972 59.4095Z" fill="#F4A086"/>
<path d="M176.578 49.7169C174.836 45.5433 169.123 44.5314 165.904 48.1176C162.956 51.4022 162.608 60.0579 163.702 62.2002C165.615 65.948 172.475 64.3008 173.937 62.3378C176.079 59.4622 178.043 53.2265 176.578 49.7169Z" fill="#F7B690"/>
<path fill-rule="evenodd" clip-rule="evenodd" d="M165.082 48.9453C164.727 50.1869 163.814 53.9908 163.07 54.0338C164.063 52.4632 162.966 50.4106 162.726 48.8735C162.428 46.9632 163.131 44.9237 164.543 43.6019C165.956 42.2802 168.037 41.7143 169.924 42.139C170.965 42.3722 171.98 42.9297 172.523 43.8483C173.065 44.7669 173.005 46.0744 172.209 46.7838C171.562 47.3615 170.553 47.4536 169.732 47.2635C169.036 47.1031 168.823 46.6258 168.25 46.3089C166.46 45.3208 165.485 47.535 165.082 48.9453Z" fill="black"/>
<path d="M179.473 57.419C179.277 58.437 178.669 59.3688 177.815 59.9573C175.373 61.6392 174.441 58.1284 175.4 56.3915C176.544 54.3209 180.005 54.6499 179.473 57.419Z" fill="#F7B690"/>
<path fill-rule="evenodd" clip-rule="evenodd" d="M170.651 46.6629C170.67 47.4524 172.771 48.7359 173.35 49.2742C173.929 49.8124 174.584 50.3053 174.945 51.0087C175.411 51.9154 175.301 53.0087 175.041 53.9943C174.781 54.9788 174.383 55.9381 174.301 56.9537C174.218 57.9692 174.531 59.102 175.391 59.6488C175.017 58.7074 175.419 57.6236 176.022 56.8078C176.625 55.9932 177.422 55.3352 177.999 54.5016C179.106 52.9022 179.266 50.6953 178.401 48.9536C177.785 47.7131 176.094 45.7 174.803 45.2143C173.734 44.8136 170.61 44.8746 170.651 46.6629Z" fill="black"/>
<path d="M166.774 74.5628C167.378 74.1214 167.981 73.6788 168.585 73.2362C169.01 72.9252 169.489 72.5986 170.012 72.6561C170.53 72.7135 170.925 73.1286 171.272 73.5185C171.868 74.1884 172.464 74.8594 173.061 75.5294C173.343 75.8463 173.655 76.1801 174.07 76.2626C174.608 76.3679 175.119 76.0186 175.552 75.6825C177.472 74.1848 179.287 72.5508 180.978 70.7984C181.133 70.6381 181.297 70.4503 181.289 70.2278C181.283 70.0459 181.161 69.8905 181.045 69.7493C180.296 68.8379 179.546 67.9263 178.797 67.0149C177.13 67.8282 175.42 68.6273 173.584 68.8881C172.17 69.0879 170.653 68.9359 169.38 68.2553C169.168 68.1416 168.769 67.7493 168.526 67.8809C168.29 68.0077 168.233 68.7757 168.171 69.0208C167.953 69.8869 167.735 70.7517 167.517 71.6165C167.269 72.5986 167.022 73.5807 166.774 74.5628Z" fill="#D6CAF9"/>
<path d="M165.006 145.066C165.009 144.927 165.334 131.076 165.494 122.488L165.206 122.482C165.045 131.069 164.721 144.92 164.718 145.059L165.006 145.066Z" fill="#2F2166"/>
<path d="M167.153 117.289C171.515 108.958 177.316 101.594 184.393 95.4022L184.53 95.2825L179.894 91.9495L184.189 90.5277L184.208 90.4497C185.652 84.4694 186.094 79.2568 183.566 73.2507L183.3 73.3631C185.787 79.2699 185.362 84.4118 183.947 90.3042L179.266 91.8536L184.067 95.305C177.024 101.495 171.248 108.846 166.897 117.156L167.153 117.289Z" fill="#2F2166"/>
<path d="M163.555 117.482L163.811 117.349C160.048 110.137 157.706 102.041 157.035 93.9323L160.115 92.7373L159.422 92.7097C158.357 92.6675 157.526 91.6968 157.255 90.7593C156.957 89.7268 157.127 88.6171 157.355 87.5713C158.403 82.7599 160.725 78.307 164.072 74.6946L163.86 74.4995C160.479 78.1491 158.132 82.6482 157.073 87.5101C156.837 88.593 156.662 89.7455 156.978 90.8394C157.225 91.6943 157.904 92.6216 158.875 92.9094L156.73 93.7411L156.739 93.8483C157.401 102.032 159.758 110.204 163.555 117.482Z" fill="#2F2166"/>
<path d="M182.097 134.989C181.861 136.201 181.898 137.546 182.608 138.557C183.235 139.449 184.306 139.951 185.386 140.101C186.465 140.252 187.563 140.088 188.632 139.877C189.39 139.727 190.188 139.528 190.727 138.974C191.266 138.42 191.389 137.396 190.778 136.922C190.055 136.361 188.87 136.891 188.156 136.32C187.438 135.748 187.763 134.626 187.727 133.708C187.672 132.321 186.231 130.655 184.732 130.895C183.077 131.16 182.366 133.61 182.097 134.989Z" fill="#F7B690"/>
<path d="M124.838 73.125C125.775 70.8606 128.413 69.4408 130.819 69.9072C130.963 67.2888 129.042 60.6451 131.253 62.053C132.234 62.6786 133.91 71.2517 133.044 75.9037C132.758 77.442 132.258 79.0389 131.077 80.0652C127.137 83.4855 123.49 76.3834 124.838 73.125Z" fill="#F7B690"/>
<path d="M129.038 80.313C129.096 80.313 129.151 80.2771 129.173 80.2185C129.201 80.1443 129.162 80.0618 129.088 80.0343C128.626 79.8633 128.45 79.289 128.483 78.8273C128.506 78.4948 128.606 78.1766 128.711 77.8405C128.769 77.655 128.829 77.4625 128.875 77.2674C129.185 75.9541 128.82 74.5127 127.923 73.5055C127.861 73.4349 127.795 73.3655 127.73 73.2973C127.565 73.1238 127.409 72.96 127.295 72.7674C127.17 72.5545 127.077 72.2172 127.23 71.966C127.46 71.588 128.058 71.6346 128.5 71.789C130.01 72.3188 131.234 73.6657 131.618 75.2185C131.638 75.2961 131.716 75.3429 131.793 75.3249C131.87 75.3046 131.917 75.2268 131.898 75.149C131.491 73.5043 130.195 72.0785 128.595 71.5174C128.051 71.3261 127.303 71.2901 126.983 71.8164C126.765 72.1753 126.873 72.6191 127.047 72.9133C127.177 73.1346 127.352 73.3189 127.521 73.4959C127.584 73.5629 127.648 73.6287 127.708 73.6969C128.543 74.6359 128.883 75.978 128.594 77.2017C128.551 77.3859 128.492 77.5737 128.436 77.7543C128.33 78.0917 128.221 78.441 128.195 78.807C128.155 79.3728 128.386 80.0833 128.988 80.3046C129.004 80.3106 129.021 80.313 129.038 80.313Z" fill="#F4A086"/>
<path d="M170.253 124.625C170.253 125.304 170.806 125.857 171.485 125.857C172.165 125.857 172.718 125.304 172.718 124.625C172.718 123.945 172.165 123.391 171.485 123.391C170.806 123.391 170.253 123.945 170.253 124.625ZM169.964 124.625C169.964 123.786 170.647 123.103 171.485 123.103C172.324 123.103 173.006 123.786 173.006 124.625C173.006 125.463 172.324 126.145 171.485 126.145C170.647 126.145 169.964 125.463 169.964 124.625Z" fill="#2F2166"/>
<path d="M169.757 134.284C169.757 134.964 170.31 135.517 170.989 135.517C171.669 135.517 172.222 134.964 172.222 134.284C172.222 133.605 171.669 133.051 170.989 133.051C170.31 133.051 169.757 133.605 169.757 134.284ZM169.468 134.284C169.468 133.446 170.151 132.763 170.989 132.763C171.828 132.763 172.51 133.446 172.51 134.284C172.51 135.123 171.828 135.805 170.989 135.805C170.151 135.805 169.468 135.123 169.468 134.284Z" fill="#2F2166"/>
<path d="M198.696 156.983H202.802V156.274H198.696V156.983Z" fill="#5456DF" fill-opacity="0.1"/>
<path d="M191.898 124.938C191.462 124.938 191.109 124.727 191.109 124.466V124.12C191.109 123.86 191.462 123.648 191.898 123.648V124.938Z" fill="#2D1F64"/>
<path d="M188.896 135.83H191.898V135.358H188.896V135.83Z" fill="#2D1F64"/>
<path d="M191.898 136.239C191.462 136.239 191.109 136.028 191.109 135.767V135.421C191.109 135.16 191.462 134.949 191.898 134.949V136.239Z" fill="#2D1F64"/>
<path d="M179.929 177.198L140.863 177.172C140.616 177.171 140.415 176.971 140.416 176.724L140.437 145.664C140.437 145.417 140.638 145.217 140.885 145.217L179.951 145.244C180.198 145.244 180.398 145.445 180.398 145.692L180.377 176.751C180.377 176.998 180.176 177.198 179.929 177.198Z" fill="#2D1F64"/>
<path d="M177.867 145.242L142.969 145.218C141.57 145.218 140.436 146.35 140.435 147.748C140.434 149.146 141.567 150.281 142.965 150.281L177.864 150.305C179.262 150.306 180.396 149.173 180.397 147.775C180.398 146.377 179.265 145.243 177.867 145.242Z" fill="#4933A3"/>
<path d="M180.384 166.37L163.62 166.359C161.843 166.357 160.405 164.916 160.406 163.14C160.407 161.364 161.848 159.925 163.625 159.926L180.389 159.937L180.384 166.37Z" fill="#4933A3"/>
<path d="M165.384 163.143C165.383 163.98 164.705 164.657 163.868 164.657C163.032 164.656 162.354 163.978 162.355 163.141C162.355 162.305 163.034 161.628 163.87 161.628C164.707 161.629 165.384 162.307 165.384 163.143Z" fill="#D6CAF9"/>
<path d="M165.686 148.386L172.83 141.251L160.5 128.905L141.966 148.37L165.686 148.386Z" fill="#D6CAF9"/>
<path d="M178.486 138.851L167.46 127.81L148.22 147.024L170.287 147.04L178.486 138.851Z" fill="#D1DECF"/>
<path d="M158.316 142.043C156.964 143.394 156.729 145.437 157.608 147.031L164.947 147.036C165.827 145.443 165.596 143.4 164.245 142.047C162.609 140.409 159.955 140.407 158.316 142.043ZM167.459 129.455L149.865 147.026L151.509 147.027L165.255 133.299C166.563 134.449 168.487 134.522 169.872 133.516L172.785 136.433C171.777 137.816 171.847 139.74 172.995 141.049L166.999 147.038L168.643 147.039L176.842 138.85L167.459 129.455Z" fill="#8DBA86"/>
<path d="M175.774 148.392L181.948 142.227L170.922 131.186L153.707 148.377L175.774 148.392Z" fill="#D1DECF"/>
<path d="M161.777 145.418C160.958 146.237 160.552 147.309 160.553 148.382L168.928 148.388C168.93 147.315 168.525 146.242 167.707 145.422C166.071 143.784 163.416 143.782 161.777 145.418ZM170.921 132.83L155.351 148.379L156.995 148.38L168.717 136.674C170.024 137.824 171.948 137.897 173.333 136.891L176.247 139.808C175.238 141.191 175.308 143.115 176.457 144.424L172.485 148.39L174.129 148.391L180.304 142.225L170.921 132.83Z" fill="#8DBA86"/>
<path d="M176.949 140.71L143.893 140.687L143.888 148.371L176.943 148.393L176.949 140.71Z" fill="#D0E8CD"/>
<path d="M160.419 144.307C158.143 144.306 156.294 146.119 156.229 148.379L164.602 148.385C164.541 146.124 162.694 144.309 160.419 144.307ZM145.055 141.85L145.051 148.372L146.213 148.372L146.214 146.429C147.906 146.163 149.216 144.753 149.33 143.016L171.509 143.031C171.62 144.769 172.929 146.18 174.619 146.448L174.618 148.392L175.781 148.392L175.785 141.871L145.055 141.85Z" fill="#9ED096"/>
<path d="M169.424 182.217H196.689V177.365H169.424V182.217Z" fill="#F79A45"/>
<path d="M178.915 182.217H194.828V177.365H178.915V182.217Z" fill="#F8AD43"/>
<path d="M189.488 182.217H192.037V177.365H189.488V182.217Z" fill="#F8D24A"/>
<path d="M169.424 182.217H178.915V181.493H169.424V182.217ZM194.827 182.217H196.689V181.493H194.827V182.217Z" fill="#F37B2C"/>
<path d="M194.828 182.217H192.037V181.493H194.828V182.217ZM189.488 182.217H178.915V181.493H189.488V182.217Z" fill="#F48A2A"/>
<path d="M189.488 182.217H192.037V181.493H189.488V182.217Z" fill="#F4A82F"/>
<path d="M167.446 177.365H194.711V172.513H167.446V177.365Z" fill="#F79A45"/>
<path d="M176.937 177.365H192.85V172.513H176.937V177.365Z" fill="#F8AD43"/>
<path d="M187.51 177.365H190.059V172.513H187.51V177.365Z" fill="#F8D24A"/>
<path d="M194.711 177.365H192.849V176.641H194.711V177.365ZM176.937 177.365H167.446V176.641H176.937V177.365Z" fill="#F37B2C"/>
<path d="M192.85 177.365H190.059V176.641H192.85V177.365ZM187.51 177.365H176.937V176.641H187.51V177.365Z" fill="#F48A2A"/>
<path d="M190.059 177.365H187.51V176.641H190.059V177.365Z" fill="#F4A82F"/>
<path d="M169.424 172.513H196.689V167.661H169.424V172.513Z" fill="#F79A45"/>
<path d="M178.915 172.513H194.828V167.661H178.915V172.513Z" fill="#F8AD43"/>
<path d="M189.488 172.513H192.037V167.661H189.488V172.513Z" fill="#F8D24A"/>
<path d="M196.689 172.513H194.827V171.789H196.689V172.513ZM178.915 172.513H169.424V171.789H178.915V172.513Z" fill="#F37B2C"/>
<path d="M194.828 172.513H192.037V171.789H194.828V172.513ZM189.488 172.513H178.915V171.789H189.488V172.513Z" fill="#F48A2A"/>
<path d="M192.037 172.513H189.488V171.789H192.037V172.513Z" fill="#F4A82F"/>
<path d="M165.468 167.661H192.733V162.808H165.468V167.661Z" fill="#F79A45"/>
<path d="M174.959 167.661H190.872V162.808H174.959V167.661Z" fill="#F8AD43"/>
<path d="M185.532 167.661H188.081V162.808H185.532V167.661Z" fill="#F8D24A"/>
<path d="M192.733 167.661H190.872V166.937H192.733V167.661ZM174.959 167.661H165.468V166.937H174.959V167.661Z" fill="#F37B2C"/>
<path d="M190.872 167.661H188.081V166.937H190.872V167.661ZM185.533 167.661H174.959V166.937H185.533V167.661Z" fill="#F48A2A"/>
<path d="M185.532 167.661H188.081V166.937H185.532V167.661Z" fill="#F4A82F"/>
<path d="M167.446 162.808H194.711V157.956H167.446V162.808Z" fill="#F79A45"/>
<path d="M176.937 162.808H192.85V157.956H176.937V162.808Z" fill="#F8AD43"/>
<path d="M187.51 162.808H190.059V157.956H187.51V162.808Z" fill="#F8D24A"/>
<path d="M194.711 162.808H192.849V162.085H194.711V162.808ZM176.937 162.808H167.446V162.085H176.937V162.808Z" fill="#F37B2C"/>
<path d="M192.85 162.808H190.059V162.085H192.85V162.808ZM187.51 162.808H176.937V162.085H187.51V162.808Z" fill="#F48A2A"/>
<path d="M190.059 162.808H187.51V162.085H190.059V162.808Z" fill="#F4A82F"/>
<path d="M169.424 157.956H196.689V153.104H169.424V157.956Z" fill="#F79A45"/>
<path d="M178.915 157.956H194.828V153.104H178.915V157.956Z" fill="#F8AD43"/>
<path d="M189.488 157.956H192.037V153.104H189.488V157.956Z" fill="#F8D24A"/>
<path d="M196.689 157.956H194.827V157.233H196.689V157.956ZM178.915 157.956H169.424V157.233H178.915V157.956Z" fill="#F37B2C"/>
<path d="M194.828 157.956H192.037V157.233H194.828V157.956ZM189.488 157.956H178.915V157.233H189.488V157.956Z" fill="#F48A2A"/>
<path d="M192.037 157.956H189.488V157.233H192.037V157.956Z" fill="#F4A82F"/>
<path d="M13.8877 181.194H113.112V7.99048H13.8877V181.194Z" fill="#BDDBE3"/>
<path d="M13.8877 49.393H20.1986V47.7094H13.8877V49.393ZM13.8877 44.5571H20.1986V42.8731H13.8877V44.5571ZM13.8877 63.617H20.1986V61.9343H13.8877V63.617ZM13.8877 58.9239H20.1986V57.24H13.8877V58.9239ZM13.8877 39.8622H20.1986V38.18H13.8877V39.8622ZM13.8877 54.0873H20.1986V52.404H13.8877V54.0873ZM13.8877 35.0262H20.1986V33.3438H13.8877V35.0262ZM13.8877 9.58887V11.2713H20.1986V9.58887H13.8877ZM13.8877 15.966H20.1986V14.2826H13.8877V15.966ZM13.8877 30.3331H20.1986V28.6491H13.8877V30.3331ZM13.8877 25.496H20.1986V23.8132H13.8877V25.496ZM13.8877 20.8022H20.1986V19.1189H13.8877V20.8022ZM16.6092 11.9352H13.8877V13.6188H16.6092V11.9352ZM16.6092 64.282H13.8877V65.9645H16.6092V64.282ZM16.6092 59.5871H13.8877V61.2711H16.6092V59.5871ZM16.6092 54.7512H13.8877V56.4339H16.6092V54.7512ZM16.6092 40.526H13.8877V42.2099H16.6092V40.526ZM16.6092 45.2206H13.8877V46.9042H16.6092V45.2206ZM16.6092 16.6298H13.8877V18.3122H16.6092V16.6298ZM16.6092 21.466H13.8877V23.1494H16.6092V21.466ZM16.6092 26.1594H13.8877V27.8431H16.6092V26.1594ZM16.6092 30.9963H13.8877V32.6791H16.6092V30.9963ZM16.6092 35.69H13.8877V37.3736H16.6092V35.69ZM16.6092 50.0569H13.8877V51.7402H16.6092V50.0569ZM13.8877 68.8859H20.1986V67.2022H13.8877V68.8859ZM13.8877 83.1099H20.1986V81.4278H13.8877V83.1099ZM13.8877 92.6407H20.1986V90.9575H13.8877V92.6407ZM13.8877 73.5796H20.1986V71.8969H13.8877V73.5796ZM13.8877 78.4167H20.1986V76.7328H13.8877V78.4167ZM13.8877 87.9461H20.1986V86.2637H13.8877V87.9461ZM13.8877 111.701H20.1986V110.018H13.8877V111.701ZM13.8877 116.538H20.1986V114.854H13.8877V116.538ZM16.6092 121.895H13.8877V123.579H16.6092V121.895ZM13.8877 102.172H20.1986V100.488H13.8877V102.172ZM13.8877 97.477H20.1986V95.7943H13.8877V97.477ZM16.6092 112.366H13.8877V114.048H16.6092V112.366ZM16.6092 88.6109H13.8877V90.2936H16.6092V88.6109ZM16.6092 117.202H13.8877V118.885H16.6092V117.202ZM16.6092 74.2444H13.8877V75.9268H16.6092V74.2444ZM16.6092 93.3046H13.8877V94.9879H16.6092V93.3046ZM16.6092 79.0806H13.8877V80.7627H16.6092V79.0806ZM16.6092 83.7737H13.8877V85.4576H16.6092V83.7737ZM13.8877 121.232H20.1986V119.549H13.8877V121.232ZM16.6092 107.671H13.8877V109.355H16.6092V107.671ZM16.6092 102.835H13.8877V104.518H16.6092V102.835ZM16.6092 69.5497H13.8877V71.2331H16.6092V69.5497ZM16.6092 98.1405H13.8877V99.8242H16.6092V98.1405ZM13.8877 107.008H20.1986V105.324H13.8877V107.008ZM16.6092 160.449H13.8877V162.132H16.6092V160.449ZM13.8877 126.501H20.1986V124.817H13.8877V126.501ZM16.6092 150.919H13.8877V152.602H16.6092V150.919ZM16.6092 169.98H13.8877V171.663H16.6092V169.98ZM16.6092 165.286H13.8877V166.969H16.6092V165.286ZM16.6092 155.755H13.8877V157.439H16.6092V155.755ZM16.6092 127.164H13.8877V128.848H16.6092V127.164ZM16.6092 131.858H13.8877V133.541H16.6092V131.858ZM16.6092 136.695H13.8877V138.378H16.6092V136.695ZM16.6092 146.225H13.8877V147.908H16.6092V146.225ZM16.6092 141.388H13.8877V143.072H16.6092V141.388ZM16.6092 174.817H13.8877V176.499H16.6092V174.817ZM13.8877 145.561H20.1986V143.878H13.8877V145.561ZM13.8877 140.725H20.1986V139.042H13.8877V140.725ZM13.8877 150.255H20.1986V148.572H13.8877V150.255ZM13.8877 136.031H20.1986V134.348H13.8877V136.031ZM13.8877 131.194H20.1986V129.511H13.8877V131.194ZM13.8877 169.316H20.1986V167.633H13.8877V169.316ZM13.8877 178.846H20.1986V177.164H13.8877V178.846ZM13.8877 174.153H20.1986V172.469H13.8877V174.153ZM13.8877 164.622H20.1986V162.938H13.8877V164.622ZM13.8877 181.194H16.6092V179.51H13.8877V181.194ZM13.8877 159.786H20.1986V158.102H13.8877V159.786ZM13.8877 155.092H20.1986V153.409H13.8877V155.092Z" fill="#D6E6EB"/>
<path d="M113.112 47.7094H106.801V49.393H113.112V47.7094ZM113.112 42.8731H106.801V44.5571H113.112V42.8731ZM113.112 61.9343H106.801V63.617H113.112V61.9343ZM113.112 57.24H106.801V58.9239H113.112V57.24ZM113.112 38.18H106.801V39.8622H113.112V38.18ZM113.112 52.404H106.801V54.0873H113.112V52.404ZM113.112 33.3438H106.801V35.0262H113.112V33.3438ZM106.801 9.58887V11.2713H113.112V9.58887H106.801ZM113.112 14.2826H106.801V15.966H113.112V14.2826ZM113.112 28.6491H106.801V30.3331H113.112V28.6491ZM113.112 23.8132H106.801V25.496H113.112V23.8132ZM113.112 19.1189H106.801V20.8022H113.112V19.1189ZM110.39 13.6188H113.112V11.9352H110.39V13.6188ZM110.39 65.9645H113.112V64.282H110.39V65.9645ZM110.39 61.2711H113.112V59.5871H110.39V61.2711ZM110.39 56.4339H113.112V54.7512H110.39V56.4339ZM110.39 42.2099H113.112V40.526H110.39V42.2099ZM110.39 46.9042H113.112V45.2206H110.39V46.9042ZM110.39 18.3122H113.112V16.6298H110.39V18.3122ZM110.39 23.1494H113.112V21.466H110.39V23.1494ZM110.39 27.8431H113.112V26.1594H110.39V27.8431ZM110.39 32.6791H113.112V30.9963H110.39V32.6791ZM110.39 37.3736H113.112V35.69H110.39V37.3736ZM110.39 51.7402H113.112V50.0569H110.39V51.7402ZM113.112 67.2022H106.801V68.8859H113.112V67.2022ZM113.112 81.4278H106.801V83.1099H113.112V81.4278ZM113.112 90.9575H106.801V92.6407H113.112V90.9575ZM113.112 71.8969H106.801V73.5796H113.112V71.8969ZM113.112 76.7328H106.801V78.4167H113.112V76.7328ZM113.112 86.2637H106.801V87.9461H113.112V86.2637ZM113.112 110.018H106.801V111.701H113.112V110.018ZM113.112 114.854H106.801V116.538H113.112V114.854ZM110.39 123.579H113.112V121.895H110.39V123.579ZM113.112 100.488H106.801V102.172H113.112V100.488ZM113.112 95.7943H106.801V97.477H113.112V95.7943ZM110.39 114.048H113.112V112.366H110.39V114.048ZM110.39 90.2936H113.112V88.6109H110.39V90.2936ZM110.39 118.885H113.112V117.202H110.39V118.885ZM110.39 75.9268H113.112V74.2444H110.39V75.9268ZM110.39 94.9879H113.112V93.3046H110.39V94.9879ZM110.39 80.7627H113.112V79.0806H110.39V80.7627ZM110.39 85.4576H113.112V83.7737H110.39V85.4576ZM113.112 119.549H106.801V121.232H113.112V119.549ZM110.39 109.355H113.112V107.671H110.39V109.355ZM110.39 104.518H113.112V102.835H110.39V104.518ZM110.39 71.2331H113.112V69.5497H110.39V71.2331ZM110.39 99.8242H113.112V98.1405H110.39V99.8242ZM113.112 105.324H106.801V107.008H113.112V105.324ZM110.39 162.132H113.112V160.449H110.39V162.132ZM113.112 124.817H106.801V126.501H113.112V124.817ZM110.39 152.602H113.112V150.919H110.39V152.602ZM110.39 171.663H113.112V169.98H110.39V171.663ZM110.39 166.969H113.112V165.286H110.39V166.969ZM110.39 157.439H113.112V155.755H110.39V157.439ZM110.39 128.848H113.112V127.164H110.39V128.848ZM110.39 133.541H113.112V131.858H110.39V133.541ZM110.39 138.378H113.112V136.695H110.39V138.378ZM110.39 147.908H113.112V146.225H110.39V147.908ZM110.39 143.072H113.112V141.388H110.39V143.072ZM110.39 176.499H113.112V174.817H110.39V176.499ZM113.112 143.878H106.801V145.561H113.112V143.878ZM113.112 139.042H106.801V140.725H113.112V139.042ZM113.112 148.572H106.801V150.255H113.112V148.572ZM113.112 134.348H106.801V136.031H113.112V134.348ZM113.112 129.511H106.801V131.194H113.112V129.511ZM113.112 167.633H106.801V169.316H113.112V167.633ZM113.112 177.164H106.801V178.846H113.112V177.164ZM113.112 172.469H106.801V174.153H113.112V172.469ZM113.112 162.938H106.801V164.622H113.112V162.938ZM113.112 179.51H110.39V181.194H113.112V179.51ZM113.112 158.102H106.801V159.786H113.112V158.102ZM113.112 153.409H106.801V155.092H113.112V153.409Z" fill="#D6E6EB"/>
<path d="M9.86279 181.193H117.135V151.355H9.86279V181.193Z" fill="#BDDBE3"/>
<path d="M9.86279 151.355H117.136L113.112 148.621H13.8876L9.86279 151.355Z" fill="#D6E6EB"/>
<path d="M6 97.8393H120.999V94.5913H6V97.8393Z" fill="#D6E6EB"/>
<path d="M13.8877 27.0222H113.112V23.7739H13.8877V27.0222Z" fill="#D6E6EB"/>
<path d="M6 97.8396C12.6591 97.8396 10.0765 108.441 13.8875 108.441H113.112C116.922 108.441 114.341 97.8396 121 97.8396H6Z" fill="#BDDBE3"/>
<path d="M8.83032 7.99033H118.168V0H8.83032V7.99033Z" fill="#D6E6EB"/>
<path d="M13.8877 11.6164H113.112V11.2715H106.801V9.58903H113.112V7.99048H13.8877V9.58903H20.1986V11.2715H13.8877V11.6164Z" fill="#A5C8D3"/>
<path d="M13.8877 11.2713H20.1989V9.58887H13.8877V11.2713Z" fill="#BBD2DA"/>
<path d="M113.112 11.2713H106.801V9.58887H113.112V11.2713Z" fill="#BBD2DA"/>
<path d="M32.0881 181.193H94.9096V108.441H32.0881V181.193Z" fill="#A0C8D1"/>
<path d="M113.112 112.067H94.9109V108.441H110.39V109.355H113.112V110.018H106.801V111.701H113.112V112.067Z" fill="#A5C8D3"/>
<path d="M113.112 111.701H106.801V110.018H113.112V111.701ZM113.112 109.355H110.39V108.441H113.112V109.355Z" fill="#BBD2DA"/>
<path d="M32.0884 112.067H13.8877V111.701H20.1986V110.018H13.8877V109.355H16.6092V108.441H32.0884V112.067Z" fill="#A5C8D3"/>
<path d="M20.1986 111.701H13.8877V110.018H20.1986V111.701ZM16.6092 109.355H13.8877V108.441H16.6092V109.355Z" fill="#BBD2DA"/>
<path d="M32.0881 112.067H94.9096V108.441H32.0881V112.067Z" fill="#8BB7C2"/>
<path d="M25.7375 85.3329H48.0012V45.1003H25.7375V85.3329Z" fill="#DFEEF2"/>
<path fill-rule="evenodd" clip-rule="evenodd" d="M27.8835 83.1858H45.8533V47.2471H27.8835V83.1858Z" fill="#88BADB"/>
<path d="M35.7837 83.1856H33.3866L45.854 54.6458V60.1348L35.7837 83.1856ZM32.0166 83.1856H29.6183L45.3173 47.2466H45.854V51.5092L32.0166 83.1856ZM28.1908 83.1856H27.8835V70.2973L37.955 47.2466H43.8892L28.1908 83.1856Z" fill="#A0C8E2"/>
<path d="M27.8835 66.7448H45.8533V65.2166H27.8835V66.7448Z" fill="#DFEEF2"/>
<path d="M52.3684 85.3329H74.6318V45.1003H52.3684V85.3329Z" fill="#DFEEF2"/>
<path fill-rule="evenodd" clip-rule="evenodd" d="M54.5142 83.1858H72.4833V47.2471H54.5142V83.1858Z" fill="#88BADB"/>
<path d="M62.4131 83.1856H60.0169L72.4833 54.6458V60.1348L62.4131 83.1856ZM58.6469 83.1856H56.2507L71.9467 47.2466H72.4833V51.5092L58.6469 83.1856ZM54.8223 83.1856H54.5142V70.2973L64.5844 47.2466H70.5222L54.8223 83.1856Z" fill="#A0C8E2"/>
<path d="M54.5142 66.7448H72.4833V65.2166H54.5142V66.7448Z" fill="#DFEEF2"/>
<path d="M78.9978 85.3329H101.261V45.1003H78.9978V85.3329Z" fill="#DFEEF2"/>
<path fill-rule="evenodd" clip-rule="evenodd" d="M81.1431 83.1858H99.1122V47.2471H81.1431V83.1858Z" fill="#88BADB"/>
<path d="M89.0456 83.1856H86.6459L99.1122 54.6458V60.1348L89.0456 83.1856ZM85.2758 83.1856H82.8796L98.5792 47.2466H99.1122V51.5092L85.2758 83.1856ZM81.4512 83.1856H81.1431V70.2973L91.2133 47.2466H97.1511L81.4512 83.1856Z" fill="#A0C8E2"/>
<path d="M81.1431 66.7448H99.1122V65.2166H81.1431V66.7448Z" fill="#DFEEF2"/>
<path d="M32.1672 152.828H49.2483V114.525H32.1672V152.828Z" fill="#DFEEF2"/>
<path fill-rule="evenodd" clip-rule="evenodd" d="M34.4868 150.51H46.9307V116.844H34.4868V150.51Z" fill="#88BADB"/>
<path d="M34.4868 126.778H46.9307V124.631H34.4868V126.778Z" fill="#DFEEF2"/>
<path d="M77.8296 152.828H94.9104V114.525H77.8296V152.828Z" fill="#DFEEF2"/>
<path fill-rule="evenodd" clip-rule="evenodd" d="M80.1465 150.51H92.5901V116.844H80.1465V150.51Z" fill="#88BADB"/>
<path d="M80.1465 126.778H92.5901V124.631H80.1465V126.778Z" fill="#DFEEF2"/>
<path d="M48.0004 45.1001H25.7377L24.5784 36.7935H49.1603L48.0004 45.1001Z" fill="#D6E6EB"/>
<path d="M39.7829 45.1005H33.9551L33.6509 34.5159H40.0875L39.7829 45.1005Z" fill="#DFEEF2"/>
<path d="M74.6294 45.1001H52.3685L51.2083 36.7935H75.7893L74.6294 45.1001Z" fill="#D6E6EB"/>
<path d="M66.4146 45.1005H60.5856L60.281 34.5159H66.7191L66.4146 45.1005Z" fill="#DFEEF2"/>
<path d="M101.262 45.1001H78.9974L77.8372 36.7935H102.418L101.262 45.1001Z" fill="#D6E6EB"/>
<path d="M93.0447 45.1005H87.2157L86.9111 34.5159H93.3492L93.0447 45.1005Z" fill="#DFEEF2"/>
<path fill-rule="evenodd" clip-rule="evenodd" d="M54.5142 151.412H72.4833V116.673H54.5142V151.412Z" fill="#88BADB"/>
<path d="M52.3684 173.358H74.6318V114.525H52.3684V173.358Z" fill="#DFEEF2"/>
<path fill-rule="evenodd" clip-rule="evenodd" d="M54.5142 151.322H72.4833V116.671H54.5142V151.322Z" fill="#88BADB"/>
<path d="M54.5142 171.212H72.4833V151.412H54.5142V171.212Z" fill="#BDDBE3"/>
<path d="M54.5142 152.485H72.4833V150.338H54.5142V152.485Z" fill="#DFEEF2"/>
<path d="M54.5142 126.607H72.4833V124.46H54.5142V126.607Z" fill="#DFEEF2"/>
<path d="M62.4236 151.411H64.5708V126.548H62.4236V151.411Z" fill="#DFEEF2"/>
<path d="M71.1091 161.485H69.0863C69.0355 161.485 68.9958 161.443 68.9958 161.393V155.978C68.9958 155.927 69.0355 155.887 69.0863 155.887H71.1091C71.1599 155.887 71.1999 155.927 71.1999 155.978V161.393C71.1999 161.443 71.1599 161.485 71.1091 161.485Z" fill="#DFEEF2"/>
<path d="M70.9823 157.388C70.9823 157.878 70.5873 158.275 70.0978 158.275C69.6084 158.275 69.2097 157.878 69.2097 157.388C69.2097 156.898 69.6084 156.502 70.0978 156.502C70.5873 156.502 70.9823 156.898 70.9823 157.388Z" fill="#BDDBE3"/>
<path d="M69.9062 160.317H70.286V159.114H69.9062V160.317Z" fill="#BDDBE3"/>
<path d="M48.5437 177.277H78.4544V173.358H48.5437V177.277Z" fill="#DFEEF2"/>
<path d="M46.3979 181.194H80.6034V177.277H46.3979V181.194Z" fill="#DFEEF2"/>
<path d="M46.3945 181.194H80.6066V180.564H46.3945V181.194Z" fill="#F7F6F0"/>
<path d="M48.5398 177.276H78.4592V176.646H48.5398V177.276Z" fill="#F7F6F0"/>
<path fill-rule="evenodd" clip-rule="evenodd" d="M28.3297 184.037C27.0098 184.037 25.6544 184.031 24.2703 184.031C23.0575 184.031 21.8653 184.035 20.7011 184.035C13.2945 184.035 6.9942 183.857 3.3518 181.231C3.0282 180.998 2.7253 180.745 2.4445 180.471C1.6663 179.713 1.0581 178.793 0.642896 177.678C0.349595 176.891 0.152596 176.006 0.0603955 175.011C0.0203955 174.58 0 174.128 0 173.655C0 173.25 0.0145986 172.834 0.0435986 172.411C0.0997986 171.587 0.209598 170.733 0.370498 169.854C0.521198 169.031 0.716499 168.187 0.953799 167.331C1.1817 166.509 1.4482 165.676 1.7516 164.837C1.815 164.662 1.8807 164.485 1.9471 164.309L2.5736 162.761C2.63 162.631 2.6871 162.499 2.7448 162.369C3.1073 161.551 3.5023 160.735 3.9284 159.926C8.2531 151.717 15.7344 144.333 24.2703 144.333C32.6284 144.389 39.9754 151.49 44.3371 159.478C44.7775 160.285 45.1867 161.099 45.5642 161.917C45.9436 162.739 46.2907 163.564 46.6019 164.385C46.9203 165.223 47.2024 166.059 47.4463 166.883C47.6999 167.741 47.9114 168.586 48.0794 169.414C48.2576 170.295 48.3861 171.155 48.4613 171.983C48.5133 172.557 48.5398 173.115 48.5398 173.655C48.5398 173.98 48.5307 174.295 48.5119 174.599C48.451 175.596 48.2914 176.487 48.0411 177.285C47.6922 178.395 47.1668 179.324 46.4844 180.1C46.0416 180.604 45.533 181.044 44.9636 181.427C43.4693 182.435 41.5561 183.055 39.3249 183.437C36.2507 183.963 32.5714 184.035 28.5431 184.037C28.4717 184.037 28.4011 184.037 28.3297 184.037Z" fill="#009933"/>
<path fill-rule="evenodd" clip-rule="evenodd" d="M12.4507 133.055C12.4507 127.732 17.7742 128.002 24.2704 128.002C30.7664 128.002 36.0893 127.732 36.0893 133.055C36.0893 138.378 30.7664 147.066 24.2704 147.066C17.7742 147.066 12.4507 138.378 12.4507 133.055Z" fill="#009933"/>
<path fill-rule="evenodd" clip-rule="evenodd" d="M34.6454 145.415C34.6454 146.318 33.9235 147.04 33.0214 147.04H15.5184C14.6161 147.04 13.8943 146.318 13.8943 145.415V144.964C13.8943 144.062 14.6161 143.34 15.5184 143.34H33.1115C34.0136 143.34 34.7355 144.062 34.7355 144.964V145.415H34.6454Z" fill="#0E237E"/>
<path fill-rule="evenodd" clip-rule="evenodd" d="M24.2702 155.43C30.2493 155.43 35.0968 160.277 35.0968 166.257C35.0968 172.237 30.2493 177.083 24.2702 177.083C18.2903 177.083 13.4429 172.237 13.4429 166.257C13.4429 160.277 18.2903 155.43 24.2702 155.43Z" fill="white"/>
</svg>
