<svg width="134" height="58" viewBox="0 0 134 58" fill="none" xmlns="http://www.w3.org/2000/svg">
<path d="M10.9422 47.7H19.4922V51H7.49219V30H10.9422V47.7ZM25.8027 33.15C25.4027 33.55 24.9227 33.75 24.3627 33.75C23.8027 33.75 23.3127 33.55 22.8927 33.15C22.4927 32.73 22.2927 32.24 22.2927 31.68C22.2927 31.12 22.4927 30.64 22.8927 30.24C23.2927 29.82 23.7827 29.61 24.3627 29.61C24.9427 29.61 25.4327 29.82 25.8327 30.24C26.2327 30.64 26.4327 31.12 26.4327 31.68C26.4327 32.24 26.2227 32.73 25.8027 33.15ZM22.7427 51V36H25.9827V51H22.7427ZM47.0247 35.61C48.7247 35.61 50.0947 36.16 51.1347 37.26C52.1747 38.36 52.6947 39.84 52.6947 41.7V51H49.4547V41.91C49.4547 40.87 49.1947 40.07 48.6747 39.51C48.1547 38.93 47.4447 38.64 46.5447 38.64C45.5447 38.64 44.7447 38.97 44.1447 39.63C43.5647 40.29 43.2747 41.28 43.2747 42.6V51H40.0347V41.91C40.0347 40.87 39.7847 40.07 39.2847 39.51C38.8047 38.93 38.1147 38.64 37.2147 38.64C36.2347 38.64 35.4347 38.98 34.8147 39.66C34.1947 40.32 33.8847 41.3 33.8847 42.6V51H30.6447V36H33.8847V37.8C34.8447 36.34 36.2747 35.61 38.1747 35.61C40.0947 35.61 41.5147 36.4 42.4347 37.98C43.4347 36.4 44.9647 35.61 47.0247 35.61ZM60.1223 33.15C59.7223 33.55 59.2423 33.75 58.6823 33.75C58.1223 33.75 57.6323 33.55 57.2123 33.15C56.8123 32.73 56.6123 32.24 56.6123 31.68C56.6123 31.12 56.8123 30.64 57.2123 30.24C57.6123 29.82 58.1023 29.61 58.6823 29.61C59.2623 29.61 59.7523 29.82 60.1523 30.24C60.5523 30.64 60.7523 31.12 60.7523 31.68C60.7523 32.24 60.5423 32.73 60.1223 33.15ZM57.0623 51V36H60.3023V51H57.0623ZM73.3342 39.12H69.6142V46.32C69.6142 46.94 69.7542 47.39 70.0342 47.67C70.3142 47.93 70.7242 48.08 71.2642 48.12C71.8242 48.14 72.5142 48.13 73.3342 48.09V51C70.8542 51.3 69.0742 51.09 67.9942 50.37C66.9142 49.63 66.3742 48.28 66.3742 46.32V39.12H63.6142V36H66.3742V32.76L69.6142 31.8V36H73.3342V39.12ZM77.1728 51V29.1H80.4128V51H77.1728ZM87.6248 44.88C87.8648 46.02 88.4148 46.9 89.2748 47.52C90.1348 48.12 91.1848 48.42 92.4248 48.42C94.1448 48.42 95.4348 47.8 96.2948 46.56L98.9648 48.12C97.4848 50.3 95.2948 51.39 92.3948 51.39C89.9548 51.39 87.9848 50.65 86.4848 49.17C84.9848 47.67 84.2348 45.78 84.2348 43.5C84.2348 41.26 84.9748 39.39 86.4548 37.89C87.9348 36.37 89.8348 35.61 92.1548 35.61C94.3548 35.61 96.1548 36.38 97.5548 37.92C98.9748 39.46 99.6848 41.33 99.6848 43.53C99.6848 43.87 99.6448 44.32 99.5648 44.88H87.6248ZM87.5948 42.24H96.4148C96.1948 41.02 95.6848 40.1 94.8848 39.48C94.1048 38.86 93.1848 38.55 92.1248 38.55C90.9248 38.55 89.9248 38.88 89.1248 39.54C88.3248 40.2 87.8148 41.1 87.5948 42.24ZM105.76 40.14C105.76 40.64 106.03 41.04 106.57 41.34C107.13 41.62 107.8 41.87 108.58 42.09C109.38 42.29 110.18 42.53 110.98 42.81C111.78 43.09 112.45 43.57 112.99 44.25C113.55 44.91 113.83 45.75 113.83 46.77C113.83 48.21 113.27 49.34 112.15 50.16C111.05 50.98 109.66 51.39 107.98 51.39C106.5 51.39 105.23 51.08 104.17 50.46C103.11 49.84 102.34 48.98 101.86 47.88L104.65 46.26C105.17 47.7 106.28 48.42 107.98 48.42C109.68 48.42 110.53 47.86 110.53 46.74C110.53 46.26 110.25 45.87 109.69 45.57C109.15 45.27 108.48 45.02 107.68 44.82C106.9 44.6 106.11 44.35 105.31 44.07C104.51 43.79 103.83 43.33 103.27 42.69C102.73 42.03 102.46 41.2 102.46 40.2C102.46 38.82 102.98 37.71 104.02 36.87C105.08 36.03 106.39 35.61 107.95 35.61C109.19 35.61 110.29 35.89 111.25 36.45C112.23 36.99 112.98 37.75 113.5 38.73L110.77 40.26C110.25 39.12 109.31 38.55 107.95 38.55C107.33 38.55 106.81 38.69 106.39 38.97C105.97 39.23 105.76 39.62 105.76 40.14ZM119.58 40.14C119.58 40.64 119.85 41.04 120.39 41.34C120.95 41.62 121.62 41.87 122.4 42.09C123.2 42.29 124 42.53 124.8 42.81C125.6 43.09 126.27 43.57 126.81 44.25C127.37 44.91 127.65 45.75 127.65 46.77C127.65 48.21 127.09 49.34 125.97 50.16C124.87 50.98 123.48 51.39 121.8 51.39C120.32 51.39 119.05 51.08 117.99 50.46C116.93 49.84 116.16 48.98 115.68 47.88L118.47 46.26C118.99 47.7 120.1 48.42 121.8 48.42C123.5 48.42 124.35 47.86 124.35 46.74C124.35 46.26 124.07 45.87 123.51 45.57C122.97 45.27 122.3 45.02 121.5 44.82C120.72 44.6 119.93 44.35 119.13 44.07C118.33 43.79 117.65 43.33 117.09 42.69C116.55 42.03 116.28 41.2 116.28 40.2C116.28 38.82 116.8 37.71 117.84 36.87C118.9 36.03 120.21 35.61 121.77 35.61C123.01 35.61 124.11 35.89 125.07 36.45C126.05 36.99 126.8 37.75 127.32 38.73L124.59 40.26C124.07 39.12 123.13 38.55 121.77 38.55C121.15 38.55 120.63 38.69 120.21 38.97C119.79 39.23 119.58 39.62 119.58 40.14Z" fill="#66AD2C"/>
<path d="M80.287 2.38582C77.6167 -0.674851 72.9669 -0.786674 70.152 2.05029L63.8052 8.44666H63.8052L62.1684 10.0963C61.3954 10.8754 60.3815 11.3904 59.2912 11.4728C57.5959 11.6009 56.003 10.7823 55.0917 9.25906C54.8849 8.91344 54.7303 8.53598 54.6344 8.14412C54.1482 6.15813 54.954 4.1894 56.6864 3.1267C57.0387 2.91059 57.4244 2.74962 57.8251 2.65133C59.4148 2.26126 60.9917 2.71797 62.0932 3.82801L63.6459 5.39272C64.133 5.88361 64.9227 5.88361 65.4098 5.39272C65.8968 4.90183 65.8968 4.10594 65.4098 3.61499L63.9746 2.16873C62.6847 0.868782 60.9639 0.0526114 59.1404 0.00266361C56.7839 -0.0618114 54.5871 1.0465 53.2011 3.05635C52.6553 3.84767 52.2831 4.75483 52.1149 5.70348C51.6434 8.36457 52.6425 10.9518 54.7491 12.581C55.6965 13.3136 56.8289 13.7846 58.0131 13.9391C60.2093 14.2255 62.3273 13.4916 63.8571 11.9497L71.8306 3.914C73.4965 2.23512 76.1977 2.05084 77.9764 3.60776C80.0245 5.40045 80.0246 8.59947 77.9765 10.3922C76.1978 11.9492 73.4965 11.765 71.8306 10.086L70.3008 8.54427C69.8138 8.05338 69.024 8.05338 68.5369 8.54427H68.5369C68.0498 9.03516 68.0498 9.83105 68.5369 10.3219L70.152 11.9497C71.5061 13.3144 73.2848 13.9968 75.0634 13.9968C77.0159 13.9968 78.9684 13.1745 80.3593 11.5301C82.575 8.91047 82.5423 4.97094 80.287 2.38582Z" fill="#0E237E"/>
</svg>
