<svg width="56" height="26" viewBox="0 0 56 26" fill="none" xmlns="http://www.w3.org/2000/svg">
<path d="M52.2779 4.37515C47.343 -1.23755 38.7495 -1.44261 33.5473 3.75984L21.8176 15.4896H21.8174L18.7925 18.5147C17.3639 19.9434 15.49 20.8879 13.4751 21.039C10.342 21.2739 7.39801 19.7728 5.71382 16.9793C5.33168 16.3456 5.04589 15.6534 4.86871 14.9348C3.9701 11.2928 5.45943 7.68256 8.66107 5.73378C9.3121 5.33747 10.025 5.04228 10.7655 4.86203C13.7035 4.14673 16.6178 4.98423 18.6536 7.01984L21.5231 9.88922C22.4233 10.7894 23.8828 10.7894 24.783 9.88922C25.6831 8.98903 25.6831 7.52951 24.783 6.62921L22.1307 3.97704C19.7467 1.59318 16.5665 0.0964794 13.1964 0.00488472C8.84131 -0.11335 4.78131 1.91908 2.21971 5.60476C1.21114 7.05589 0.523155 8.71946 0.212434 10.4591C-0.659081 15.339 1.18745 20.0836 5.0807 23.0711C6.83155 24.4147 8.92441 25.2783 11.1131 25.5616C15.1719 26.0869 19.0861 24.741 21.9135 21.9135L36.6495 7.17753C39.7283 4.09878 44.7204 3.76085 48.0078 6.61594C51.7929 9.90339 51.793 15.7698 48.0079 19.0574C44.7207 21.9126 39.7283 21.5748 36.6495 18.4959L33.8223 15.6686C32.9221 14.7684 31.4626 14.7684 30.5624 15.6686H30.5623C29.6621 16.5688 29.6621 18.0283 30.5623 18.9285L33.5473 21.9135C36.0497 24.4161 39.337 25.6674 42.6242 25.6674C46.2327 25.6674 49.841 24.1595 52.4116 21.144C56.5065 16.3401 56.4461 9.11577 52.2779 4.37515Z" fill="#0E237E"/>
</svg>
