<svg width="18" height="13" viewBox="0 0 18 13" fill="none" xmlns="http://www.w3.org/2000/svg">
<path fill-rule="evenodd" clip-rule="evenodd" d="M1.21383 9.49644C0.897367 9.23623 0.739136 9.06099 0.739136 8.97072C0.739136 8.92823 0.831169 8.81937 1.01524 8.64413C1.1993 8.46889 1.43503 8.26178 1.72243 8.02281L2.00714 7.78739L2.56042 7.33778L3.80044 6.35005C3.86502 6.29695 3.9393 6.27039 4.02326 6.27039C4.13305 6.27039 4.34618 6.4005 4.66264 6.66071C4.97911 6.92092 5.13734 7.09616 5.13734 7.18643C5.13734 7.23423 5.08567 7.3099 4.98234 7.41345C4.879 7.517 4.77244 7.61392 4.66264 7.70419C4.55285 7.79447 4.42368 7.89669 4.27514 8.01087L4.02326 8.20602L4.95327 8.97072L8.3924 6.14295C7.54634 5.20832 7.12331 4.23918 7.12331 3.23552C7.12331 2.36993 7.4543 1.66498 8.1163 1.12067C8.77829 0.576353 9.63564 0.304199 10.6884 0.304199C11.7217 0.304199 12.7325 0.556439 13.7206 1.06093C14.7088 1.56541 15.5096 2.22389 16.1232 3.03638C16.7367 3.84887 17.0435 4.67994 17.0435 5.5296C17.0435 6.39519 16.7125 7.10014 16.0505 7.64445C15.3885 8.18877 14.5312 8.46092 13.4784 8.46092C12.2578 8.46092 11.0791 8.11309 9.94242 7.41743L3.442 12.7623C3.26116 12.911 3.04157 12.9854 2.78323 12.9854C2.51198 12.9854 2.25041 12.8818 1.99853 12.6747C1.74665 12.4676 1.62072 12.2525 1.62072 12.0295C1.62072 11.8171 1.71113 11.6365 1.89197 11.4878L4.02326 9.73541L3.09324 8.97072L2.85589 9.17782L2.48292 9.49644C2.37312 9.58672 2.25526 9.67434 2.12932 9.75931C2.00338 9.84427 1.91134 9.88675 1.85322 9.88675C1.74342 9.88675 1.5303 9.75665 1.21383 9.49644ZM8.98335 3.36295C8.98335 3.78778 9.16418 4.14888 9.52585 4.44626C9.88753 4.74364 10.3267 4.89233 10.8434 4.89233C11.1146 4.89233 11.3827 4.84189 11.6475 4.74099C11.5247 4.95871 11.4634 5.17909 11.4634 5.40213C11.4634 5.82696 11.6442 6.18806 12.0059 6.48545C12.3676 6.78283 12.8067 6.93152 13.3234 6.93152C13.8401 6.93152 14.2793 6.78283 14.6409 6.48545C15.0026 6.18806 15.1835 5.82696 15.1835 5.40213C15.1835 4.9773 15.0026 4.6162 14.6409 4.31881C14.2793 4.02143 13.8401 3.87274 13.3234 3.87274C13.0522 3.87274 12.7841 3.92319 12.5193 4.02409C12.6421 3.80636 12.7034 3.58598 12.7034 3.36295C12.7034 2.93811 12.5226 2.57701 12.1609 2.27963C11.7992 1.98225 11.3601 1.83356 10.8434 1.83356C10.3267 1.83356 9.88753 1.98225 9.52585 2.27963C9.16418 2.57701 8.98335 2.93811 8.98335 3.36295Z" fill="#4C4C4C"/>
</svg>
