<svg width="56" height="56" viewBox="0 0 56 56" fill="none" xmlns="http://www.w3.org/2000/svg">
<path d="M18.8727 42.8657C18.8585 42.7957 18.8377 42.7268 18.8104 42.6601C18.783 42.5944 18.7491 42.531 18.7098 42.4719C18.6704 42.4118 18.6244 42.356 18.5741 42.3057C18.5238 42.2554 18.468 42.2094 18.4079 42.17C18.3488 42.1307 18.2854 42.0967 18.2186 42.0694C18.153 42.0421 18.0841 42.0202 18.0141 42.007C17.873 41.9786 17.7275 41.9786 17.5875 42.007C17.5175 42.0202 17.4486 42.0421 17.3819 42.0694C17.3163 42.0967 17.2528 42.1307 17.1938 42.17C17.1336 42.2094 17.0778 42.2554 17.0275 42.3057C16.9772 42.356 16.9313 42.4118 16.8919 42.4719C16.8514 42.531 16.8186 42.5944 16.7913 42.6601C16.7639 42.7268 16.742 42.7957 16.7289 42.8657C16.7147 42.9357 16.707 43.0079 16.707 43.079C16.707 43.1501 16.7147 43.2223 16.7289 43.2923C16.742 43.3623 16.7639 43.4312 16.7913 43.4969C16.8186 43.5636 16.8514 43.627 16.8919 43.6861C16.9313 43.7463 16.9772 43.802 17.0275 43.8524C17.0778 43.9027 17.1336 43.9486 17.1938 43.988C17.2528 44.0275 17.3163 44.0614 17.3819 44.0887C17.4486 44.1161 17.5175 44.138 17.5875 44.1511C17.6575 44.1653 17.7297 44.173 17.8008 44.173C17.8719 44.173 17.9441 44.1653 18.0141 44.1511C18.0841 44.138 18.153 44.1161 18.2186 44.0887C18.2854 44.0614 18.3488 44.0274 18.4079 43.988C18.468 43.9486 18.5238 43.9027 18.5741 43.8524C18.6244 43.802 18.6704 43.7463 18.7098 43.6861C18.7491 43.627 18.783 43.5636 18.8104 43.4969C18.8377 43.4312 18.8585 43.3623 18.8727 43.2923C18.8869 43.2223 18.8946 43.1501 18.8946 43.079C18.8946 43.0079 18.8869 42.9357 18.8727 42.8657Z" fill="#0E237E"/>
<path d="M50.3133 43.2026C50.309 43.1916 50.3046 43.1808 50.3 43.1701C49.2933 40.8143 46.9323 39.9436 44.1381 40.8979L36.5179 43.0053C36.0774 41.6711 34.9784 40.5357 33.4246 39.959C33.415 39.9555 33.4053 39.952 33.3956 39.9487L25.0193 37.1056C24.3221 36.2044 22.1383 33.8983 18.0494 33.8983C15.1919 33.8983 12.664 35.8587 11.2178 37.9955H1.09378C0.489687 37.9955 0 38.4852 0 39.0894V52.8802C0 53.4844 0.489687 53.9741 1.09378 53.9741H7.59709C8.20119 53.9741 8.69088 53.4844 8.69088 52.8802V51.9358H11.7407C12.3448 51.9358 12.8345 51.4461 12.8345 50.842V50.5272C14.6123 50.6823 15.197 51.0195 16.8298 51.9611C18.0855 52.6852 19.9833 53.7796 23.401 55.3163C23.4168 55.3234 23.4329 55.3302 23.449 55.3366C24.1049 55.5946 25.3872 56 26.968 56C28.0683 56 29.3136 55.8034 30.5918 55.224L47.4351 49.193C47.4651 49.1823 47.4946 49.1702 47.5235 49.1569C49.1332 48.4162 51.532 46.3289 50.3133 43.2026ZM6.50331 51.7863H2.18757V40.1831H6.50331V51.7863ZM10.6469 49.748H8.69088V40.1831H10.6469V49.748ZM46.6494 47.1505L29.8137 53.1787C29.7989 53.184 29.7789 53.1919 29.7644 53.1978C29.7496 53.2038 29.7348 53.2101 29.7203 53.2168C27.3755 54.2945 25.1467 53.6493 24.2732 53.3097C20.972 51.8241 19.21 50.8081 17.9226 50.0657C16.1328 49.0335 15.2703 48.536 12.8345 48.3349V39.5248C13.8713 37.8254 15.8818 36.0859 18.0495 36.0859C21.7668 36.0859 23.342 38.5038 23.4039 38.6014C23.5375 38.8186 23.7428 38.9824 23.9842 39.0643L32.677 42.0149C34.0653 42.536 34.799 43.725 34.4618 44.9107C34.3062 45.4583 33.9466 45.9124 33.4493 46.1895C32.9564 46.4642 32.3865 46.5321 31.8433 46.3818L22.0438 43.2762C21.4676 43.0936 20.8531 43.4126 20.6706 43.9885C20.4881 44.5644 20.807 45.1791 21.3829 45.3617L31.1995 48.4727C31.2099 48.476 31.2203 48.4791 31.2308 48.4821C31.6227 48.5936 32.0217 48.6487 32.4183 48.6487C33.1444 48.6487 33.8624 48.4637 34.5141 48.1006C35.5218 47.5391 36.2505 46.6187 36.5659 45.509C36.5911 45.4204 36.6134 45.3318 36.6328 45.2432L44.8452 42.968C46.0313 42.5629 47.5883 42.4168 48.2816 44.0135C48.9991 45.888 47.1342 46.9192 46.6494 47.1505Z" fill="#0E237E"/>
<path d="M39.2732 14.3863C39.259 14.3163 39.2382 14.2474 39.2098 14.1807C39.1824 14.1151 39.1496 14.0516 39.1092 13.9926C39.0698 13.9324 39.0238 13.8766 38.9735 13.8263C38.9232 13.776 38.8674 13.73 38.8073 13.6907C38.7482 13.6513 38.6848 13.6174 38.6191 13.59C38.5524 13.5627 38.4835 13.5408 38.4146 13.5277C38.2735 13.4992 38.128 13.4992 37.9869 13.5277C37.9169 13.5408 37.848 13.5627 37.7824 13.59C37.7157 13.6174 37.6522 13.6513 37.5932 13.6907C37.533 13.73 37.4772 13.776 37.4269 13.8263C37.3766 13.8766 37.3307 13.9324 37.2913 13.9926C37.2519 14.0516 37.218 14.1151 37.1907 14.1807C37.1633 14.2474 37.1414 14.3163 37.1283 14.3863C37.1141 14.4564 37.1064 14.5285 37.1064 14.5996C37.1064 14.6707 37.1141 14.7429 37.1283 14.8129C37.1414 14.8829 37.1633 14.9519 37.1907 15.0175C37.218 15.0842 37.2519 15.1477 37.2913 15.2067C37.3307 15.2669 37.3766 15.3227 37.4269 15.373C37.4772 15.4233 37.533 15.4692 37.5932 15.5086C37.6522 15.548 37.7157 15.5819 37.7824 15.6093C37.848 15.6366 37.9169 15.6574 37.9869 15.6716C38.0569 15.6858 38.1291 15.6935 38.2002 15.6935C38.2713 15.6935 38.3435 15.6858 38.4146 15.6716C38.4835 15.6574 38.5524 15.6366 38.6191 15.6093C38.6848 15.5819 38.7482 15.548 38.8073 15.5086C38.8674 15.4692 38.9232 15.4233 38.9735 15.373C39.0238 15.3227 39.0698 15.2669 39.1092 15.2067C39.1496 15.1477 39.1824 15.0842 39.2098 15.0175C39.2382 14.9519 39.259 14.8829 39.2732 14.8129C39.2874 14.7429 39.294 14.6707 39.294 14.5996C39.294 14.5285 39.2874 14.4564 39.2732 14.3863Z" fill="#0E237E"/>
<path d="M54.9055 3.7046H48.4022C47.7981 3.7046 47.3084 4.19432 47.3084 4.79845V5.74287H44.2586C43.6545 5.74287 43.1649 6.23259 43.1649 6.83672V7.15152C41.387 6.99631 40.8023 6.65918 39.1696 5.7176C37.9139 4.99348 36.0161 3.89909 32.5984 2.36235C32.5825 2.35513 32.5665 2.34846 32.5502 2.34211C31.4377 1.90435 28.522 1.04306 25.4079 2.45445L21.0066 4.03046L17.2965 0.32036C16.8694 -0.106787 16.1768 -0.106787 15.7497 0.32036L3.56956 12.5011C3.17558 12.8952 3.1 13.5785 3.56956 14.0481L24.3828 34.8625C24.7159 35.1957 25.4958 35.2965 25.9298 34.8625L37.0497 23.7421C37.3388 23.767 37.6388 23.7805 37.9498 23.7805C40.8074 23.7805 43.3352 21.8201 44.7812 19.6834H54.9055C55.5096 19.6834 55.9993 19.1937 55.9993 18.5895V4.79845C55.9993 4.19432 55.5096 3.7046 54.9055 3.7046ZM16.523 2.64073L19.016 5.13382C18.2749 5.59214 17.4182 5.83738 16.523 5.83738C15.6278 5.83738 14.7711 5.59225 14.0301 5.13382L16.523 2.64073ZM8.38287 15.7677L5.88992 13.2745L8.38287 10.7814C8.84116 11.5225 9.08639 12.3793 9.08639 13.2745C9.08639 14.1697 8.84127 15.0265 8.38287 15.7677ZM25.1564 32.542L22.6639 30.0494C24.1856 29.1102 26.1269 29.1102 27.6488 30.0494L25.1564 32.542ZM29.2247 28.4736C26.8077 26.7202 23.5051 26.7202 21.088 28.4736L9.95868 17.3435C10.8128 16.1687 11.274 14.7576 11.274 13.2745C11.274 11.7914 10.8129 10.3803 9.95868 9.20554L12.4544 6.70983C13.6291 7.56401 15.0401 8.02518 16.5231 8.02518C18.0062 8.02518 19.4172 7.56401 20.5919 6.70983L22.9576 9.07571C22.4472 9.15107 21.9494 9.3193 21.4852 9.578C20.7012 10.0149 20.086 10.6691 19.703 11.4606C18.4692 11.6891 17.327 12.2865 16.4309 13.1824C14 15.6136 14 19.5693 16.431 22.0005C17.6464 23.2159 19.243 23.8238 20.8397 23.8238C22.4363 23.8238 24.0331 23.216 25.2486 22.0005C26.0394 21.2096 26.5934 20.2376 26.8709 19.1783L30.5639 20.4318C30.1482 22.3578 30.574 24.3841 31.7226 25.9756L29.2247 28.4736ZM22.5747 17.7197C22.5843 17.7232 22.594 17.7267 22.6037 17.73L24.7908 18.4724C24.6257 19.2178 24.2519 19.9032 23.7017 20.4535C22.1236 22.0315 19.5559 22.0317 17.978 20.4535C16.3999 18.8755 16.3999 16.3077 17.978 14.7295C18.3586 14.3486 18.8078 14.0509 19.2973 13.8491C19.4992 15.5295 20.709 17.0273 22.5747 17.7197ZM33.2986 24.3994C32.8764 23.7113 32.6375 22.9261 32.5998 22.1246C33.1237 22.5034 33.764 22.8745 34.5288 23.1691L33.2986 24.3994ZM43.1647 18.1534C42.1281 19.853 40.1175 21.5926 37.9498 21.5926C37.5442 21.5926 37.1641 21.5637 36.8088 21.5123C36.8074 21.5121 36.8059 21.5118 36.8045 21.5116C34.4424 21.1685 33.1717 19.8259 32.7529 19.2943C32.7306 19.2615 32.6355 19.1371 32.6214 19.1164C32.494 18.8887 32.2851 18.7056 32.0187 18.6151L23.3222 15.6634C21.9344 15.1425 21.2008 13.954 21.537 12.7687C21.5373 12.768 21.5375 12.7672 21.5377 12.7664C21.538 12.7656 21.5382 12.7646 21.5385 12.7637C21.6948 12.2179 22.0537 11.7651 22.5499 11.4887C23.0427 11.2141 23.6125 11.1459 24.1559 11.2965L33.9554 14.4021C34.5314 14.5848 35.1461 14.2657 35.3286 13.6898C35.511 13.1138 35.1922 12.4991 34.6163 12.3165L26.8225 9.84665L26.7545 9.77861C26.7538 9.77795 26.7532 9.77719 26.7524 9.77653L22.7174 5.74134L26.1856 4.49939C26.1973 4.49512 26.2118 4.48976 26.2234 4.48506C26.2263 4.48386 26.232 4.48167 26.2348 4.48047C26.2497 4.47445 26.2644 4.46811 26.2789 4.46143C28.6236 3.38378 30.8522 4.02882 31.7258 4.36857C35.0272 5.85412 36.7893 6.87019 38.0767 7.61258C39.8666 8.64484 40.729 9.14221 43.1647 9.34337V18.1534ZM47.3084 17.4955H45.3524V7.93056H47.3084V17.4955ZM53.8117 17.4955H49.496V5.89229H53.8117V17.4955Z" fill="#0E237E"/>
</svg>
