<svg width="71" height="47" viewBox="0 0 71 47" fill="none" xmlns="http://www.w3.org/2000/svg">
<rect x="3.84985" y="4.80029" width="22.8" height="28.5" fill="#351AC6" fill-opacity="0.24"/>
<circle cx="15.2501" cy="16.1999" r="3.8" fill="#0E237E"/>
<path d="M8.60517 24.0871C11.6894 21.1064 19.4902 21.2359 21.9685 24.0872C22.8505 25.102 22.8505 26.7935 22.8505 26.7935V29.4999H7.65057L7.65051 26.7935C7.65051 26.7935 7.65035 25.0099 8.60517 24.0871Z" fill="#0E237E"/>
<rect x="28.5504" y="4.80029" width="26.6" height="2.85" fill="black"/>
<rect x="28.5504" y="8.6001" width="26.6" height="2.85" fill="black"/>
<rect x="28.5504" y="12.3999" width="26.6" height="2.85" fill="black"/>
<rect x="28.5504" y="17.1499" width="26.6" height="16.15" fill="black"/>
<path d="M19.525 1H58V36.15H1V1H15.725" stroke="black" stroke-width="2"/>
<path d="M70.25 33C70.25 40.2932 64.1189 46.25 56.5 46.25C48.8811 46.25 42.75 40.2932 42.75 33C42.75 25.7068 48.8811 19.75 56.5 19.75C64.1189 19.75 70.25 25.7068 70.25 33Z" fill="white" stroke="#1E282B" stroke-width="1.5"/>
<path d="M53.5256 36.604L64.2886 26.9575C64.8787 26.4286 65.7248 26.5265 66.1785 27.1762C66.6322 27.8259 66.5216 28.7813 65.9315 29.3102L55.1686 38.9568L53.5256 36.604Z" fill="#0E237E"/>
<path d="M55.2423 38.9169C54.0904 39.9377 52.4476 39.7383 51.5732 38.4717L47.7917 32.9943C47.3545 32.3609 47.467 31.4338 48.0429 30.9234C48.6189 30.4131 49.4403 30.5127 49.8775 31.146L55.2423 38.9169Z" fill="#0E237E"/>
</svg>
