<svg width="24" height="24" viewBox="0 0 24 24" fill="none" xmlns="http://www.w3.org/2000/svg">
<g clip-path="url(#clip0)">
<path d="M7.81274 7.23625L5.82422 5.24773L7.81274 3.25902C8.36188 2.70988 9.25232 2.70988 9.80127 3.25902C10.3506 3.80815 10.3506 4.69859 9.80127 5.24773L7.81274 7.23625Z" fill="#3AAAFF"/>
<path d="M18.7502 18.1735L16.7617 16.185L18.7502 14.1963C19.2994 13.6471 20.1896 13.6471 20.7388 14.1963C21.2879 14.7456 21.2879 15.6358 20.7388 16.185L18.7502 18.1735Z" fill="#0095FF"/>
<path d="M5.3413 3.43038C4.15917 2.8016 2.77069 2.83163 1.62646 3.51095C1.43035 3.6274 1.30309 3.83138 1.2846 4.05843C1.26757 4.26479 1.34283 4.46731 1.48803 4.61251C1.50268 4.62698 1.51769 4.64107 1.53417 4.65481L10.3675 12.0459L14.0522 8.05837L5.3413 3.43038Z" fill="#25D9F8"/>
<path d="M20.5677 18.6567L16.0248 10.1055L12.1523 13.8701L19.3433 22.4638C19.3568 22.4803 19.3709 22.4953 19.3854 22.5099C19.5306 22.655 19.7331 22.7304 19.9395 22.7134C20.1665 22.6949 20.3705 22.5678 20.4869 22.3715C21.1663 21.2273 21.1963 19.8388 20.5677 18.6567Z" fill="#00C0F1"/>
<path d="M23.1129 4.62598L7.84627 18.7103L9.11172 21.5508C9.35085 22.0851 9.23824 22.7179 8.83047 23.1257L8.15554 23.7865C7.83218 24.124 7.28377 24.0396 7.05874 23.66L4.51375 19.4837L0.337485 16.9385C-0.0561917 16.6996 -0.112405 16.1653 0.210959 15.8419L0.871787 15.167C1.27956 14.7592 1.91238 14.6466 2.44668 14.8857L5.28701 16.1512L19.3728 0.885864C19.8789 0.309265 20.5961 0 21.3131 0C21.9881 0 22.6489 0.253052 23.1973 0.801453C24.3503 1.95447 24.2099 3.65588 23.1129 4.62598Z" fill="#EDE9E8"/>
<path d="M23.1118 4.62604L7.84521 18.7103L9.11066 21.5508C9.34979 22.0851 9.23718 22.718 8.82941 23.1257L8.15448 23.7866C7.83112 24.124 7.28271 24.0396 7.05768 23.66L4.5127 19.4838L23.1962 0.801514C24.3492 1.95453 24.2088 3.65594 23.1118 4.62604Z" fill="#D2C5C2"/>
<path d="M5.9326 18.7665C5.9326 18.9494 5.87639 19.1322 5.73595 19.2587L3.73918 21.2555C3.47203 21.5226 3.02214 21.5226 2.74089 21.2555C2.47374 20.9742 2.47374 20.5243 2.74089 20.257L4.73747 18.2604C5.00462 17.9933 5.4547 17.9933 5.73595 18.2604C5.87639 18.401 5.9326 18.5838 5.9326 18.7665Z" fill="#25D9F8"/>
<path d="M5.93292 18.7664C5.93292 18.9493 5.87671 19.132 5.73627 19.2585L3.7395 21.2553C3.47235 21.5225 3.02246 21.5225 2.74121 21.2553L5.73627 18.2603C5.87671 18.4009 5.93292 18.5836 5.93292 18.7664Z" fill="#00C0F1"/>
</g>
<defs>
<clipPath id="clip0">
<rect width="24" height="24" fill="white"/>
</clipPath>
</defs>
</svg>
