<svg width="56" height="56" viewBox="0 0 56 56" fill="none" xmlns="http://www.w3.org/2000/svg">
<g clip-path="url(#clip0)">
<path d="M40.4254 25.1461C40.9499 25.1461 41.3752 25.5713 41.3752 26.0958H43.2747C43.2696 24.8929 42.5095 23.8225 41.3752 23.4214V22.2968H39.4757V23.4214C38.1684 23.8819 37.3837 25.2184 37.6184 26.5841C37.8535 27.9503 39.0393 28.9478 40.4254 28.9451C40.9499 28.9451 41.3752 29.3703 41.3752 29.8948C41.3752 30.4193 40.9499 30.8445 40.4254 30.8445C39.9009 30.8445 39.4757 30.4193 39.4757 29.8948H37.5762C37.5813 31.0982 38.3413 32.1685 39.4757 32.5692V33.6938H41.3752V32.5692C42.6825 32.1087 43.4671 30.7727 43.232 29.4065C42.9973 28.0407 41.8115 27.0432 40.4254 27.0456C39.9009 27.0456 39.4757 26.6203 39.4757 26.0958C39.4757 25.5713 39.9009 25.1461 40.4254 25.1461Z" fill="#0E237E"/>
<path d="M49.7969 18.4177C53.3274 13.234 58.3446 4.53322 54.944 1.13259C51.5429 -2.26851 42.8403 2.74688 37.6584 6.27922C27.7389 1.89127 16.1063 4.80034 9.42053 13.3416C9.408 13.3546 9.39177 13.3615 9.38064 13.3754C9.37044 13.3926 9.36117 13.4098 9.35282 13.4278C3.9771 20.3089 2.82747 29.5912 6.36121 37.5759C2.83118 42.7597 -2.18653 51.4604 1.21457 54.8615C2.06647 55.6513 3.20357 56.0598 4.36293 55.9935C8.49999 55.9935 14.5254 52.419 18.5011 49.7149C28.4224 54.1033 40.0569 51.1919 46.7417 42.6479C46.7524 42.6354 46.7682 42.6317 46.7779 42.6182C46.7881 42.6015 46.7974 42.5839 46.8053 42.5663C52.181 35.6848 53.3311 26.4029 49.7969 18.4177ZM45.8384 40.6932C44.5598 39.781 43.1913 39.0015 41.7546 38.3661C41.9591 37.7048 42.1446 37.0255 42.3111 36.3289C45.8578 35.5211 48.5067 32.5601 48.9167 28.9456H49.8989C49.719 33.1736 48.3078 37.2569 45.8384 40.6932ZM18.3165 47.5316C15.7108 46.222 13.3916 44.4064 11.4949 42.1911C12.6078 41.4037 13.7946 40.7257 15.0383 40.1669C15.9616 42.666 17.3046 44.9889 19.0089 47.0368C18.7766 47.2 18.5447 47.3707 18.3147 47.5283L18.3165 47.5316ZM6.25779 28.9456H12.8977C12.9658 32.1399 13.475 35.3096 14.4104 38.3643C12.971 38.9996 11.5997 39.7801 10.3179 40.6932C7.84843 37.2569 6.43726 33.1736 6.25779 28.9456ZM10.3179 15.299C11.5969 16.2103 12.9654 16.9894 14.4021 17.6238C13.4769 20.6822 12.9719 23.8519 12.9014 27.0462H6.25779C6.43726 22.8187 7.84843 18.7354 10.3179 15.299ZM47.6099 18.2345C47.0399 19.0512 46.4361 19.8813 45.7809 20.7531L45.4831 21.1227C44.5357 20.4206 43.4519 19.9235 42.3018 19.6629C42.1372 18.9728 41.9517 18.2939 41.7463 17.6257C43.1848 16.9912 44.5547 16.2117 45.8347 15.299C46.5029 16.2293 47.0974 17.2111 47.6117 18.2345H47.6099ZM14.7962 28.9456H27.1286V35.6157C23.3839 35.6894 19.6767 36.3758 16.1541 37.6483C15.3189 34.8204 14.8621 31.8937 14.7962 28.9456ZM27.1286 20.3761V27.0462H14.8009C14.8695 24.0991 15.3282 21.1742 16.1648 18.3477C19.6841 19.6179 23.3876 20.3028 27.1286 20.3761ZM39.9845 18.3505C40.0935 18.715 40.1988 19.0818 40.2957 19.4551C35.9963 19.5238 32.4162 22.7737 31.9335 27.0462H29.0281V20.3761C32.7663 20.3028 36.467 19.6184 39.9845 18.3505ZM29.0281 37.5152C29.502 37.5282 29.9741 37.55 30.443 37.581C29.9681 38.0207 29.5002 38.451 29.0281 38.879V37.5152ZM29.0281 35.6157V28.9456H31.9335C32.1417 30.8048 32.9565 32.5434 34.2517 33.8929L33.998 34.1618C33.4281 34.7318 32.8582 35.2883 32.2808 35.8411C31.21 35.7196 30.1258 35.6444 29.0281 35.6157ZM35.3619 35.4858L35.7074 35.1181C37.0694 36.0228 38.6638 36.5158 40.2985 36.5371C40.2039 36.9123 40.0954 37.2787 39.9864 37.6418C38.251 37.0032 36.4647 36.5158 34.6459 36.1847C34.8843 35.951 35.1245 35.7223 35.3619 35.4858ZM40.4251 34.6441C36.7532 34.6441 33.7768 31.6678 33.7768 27.9959C33.7768 24.3244 36.7532 21.3477 40.4251 21.3477C44.0965 21.3477 47.0733 24.3244 47.0733 27.9959C47.0687 31.666 44.0947 34.6395 40.4251 34.6441ZM29.0281 18.4766V6.21059C33.2574 6.71514 37.1153 10.5624 39.3803 16.5488C36.058 17.7532 32.5609 18.4047 29.0281 18.4766ZM27.1286 6.21059V18.4766C23.5953 18.4047 20.0982 17.7532 16.7764 16.5488C19.0432 10.5605 22.9002 6.71514 27.1286 6.21059ZM16.7621 39.4518C20.088 38.2428 23.5902 37.5889 27.1286 37.5152V40.5671C24.8938 42.5148 22.6743 44.3155 20.5059 45.9368C18.8823 44.0141 17.6144 41.8169 16.7621 39.449V39.4518ZM27.1286 43.0801V49.7784C25.16 49.5067 23.3213 48.6404 21.8581 47.2951C23.5907 45.9924 25.3474 44.5873 27.1286 43.0801ZM29.0281 49.7784V41.4329C30.3345 40.2786 31.6408 39.0785 32.9477 37.8324C35.1435 38.1371 37.2999 38.6782 39.3793 39.4471C37.1501 45.3613 33.302 49.2702 29.0281 49.7784ZM48.9167 27.0462C48.7247 25.3317 48.0156 23.716 46.8841 22.4133L47.2811 21.9195C47.7114 21.3495 48.1149 20.7991 48.5035 20.2611C49.329 22.4338 49.7997 24.7246 49.8989 27.0462H48.9167ZM53.601 2.47327C54.8735 3.74625 54.3105 8.16434 48.8216 16.4603C48.2276 15.3992 47.5538 14.385 46.8053 13.426C46.7974 13.4079 46.7881 13.3903 46.7779 13.3736C46.7663 13.3583 46.7492 13.3527 46.738 13.3397C44.7884 10.861 42.3672 8.79225 39.6149 7.25355C47.9108 1.76282 52.3289 1.20169 53.601 2.47327ZM44.6637 13.8039C43.5549 14.5886 42.3723 15.2643 41.1337 15.8212C40.0286 12.7169 38.232 9.90431 35.8795 7.59718C39.2778 8.90448 42.2963 11.0377 44.6637 13.8039ZM20.2772 7.59718C17.9247 9.90477 16.1281 12.7174 15.023 15.8222C13.7844 15.2643 12.6023 14.5886 11.493 13.8039C13.8599 11.0377 16.8789 8.90448 20.2772 7.59718ZM2.55572 53.5185C1.28321 52.2469 1.84619 47.8279 7.336 39.5315C7.92866 40.5949 8.60248 41.611 9.35096 42.5709C9.35931 42.589 9.36859 42.6062 9.37879 42.6229C9.38992 42.6382 9.40708 42.6442 9.41867 42.6572C11.3683 45.1359 13.789 47.2042 16.5418 48.7434C8.24679 54.229 3.82916 54.7934 2.55572 53.5185ZM35.8567 48.4016C38.2177 46.0926 40.0212 43.2758 41.1295 40.165C42.37 40.7234 43.5535 41.4 44.6637 42.1851C42.2912 44.9587 39.2643 47.0966 35.8567 48.4044V48.4016Z" fill="#0E237E"/>
</g>
<defs>
<clipPath id="clip0">
<rect width="56" height="56" fill="white"/>
</clipPath>
</defs>
</svg>
