<svg width="56" height="56" viewBox="0 0 56 56" fill="none" xmlns="http://www.w3.org/2000/svg">
<path d="M37.424 6.91981C36.7599 2.97509 32.7083 0 28.0001 0C24.9722 0 22.0966 1.23825 20.3087 3.3135C19.9435 3.73673 20.0527 4.33041 20.5521 4.6399C21.0499 4.94828 21.7521 4.8568 22.1166 4.43302C23.4852 2.84606 25.6842 1.89839 27.9998 1.89839C31.6006 1.89839 34.6983 4.17246 35.2063 7.18759C35.2863 7.66115 35.7657 8.0029 36.314 8.0029C36.3662 8.0029 36.42 7.99956 36.4734 7.99345C37.0857 7.9192 37.5113 7.43842 37.424 6.91981Z" fill="#0E237E"/>
<path d="M53.5997 17.5452L50.2398 12.7993C50.0376 12.5132 49.6731 12.3386 49.2794 12.3386H46.0595C45.4414 12.3386 44.9397 12.7637 44.9397 13.2876C44.9397 13.8115 45.4414 14.2367 46.0595 14.2367H48.6454L50.6614 17.0841H5.33801L7.35397 14.2367H8.54012C9.15829 14.2367 9.65999 13.8115 9.65999 13.2876C9.65999 12.7637 9.15829 12.3386 8.54012 12.3386H6.72004C6.3263 12.3386 5.96176 12.5132 5.75964 12.7993L2.3997 17.5452C2.192 17.8388 2.18708 18.2039 2.38559 18.5015C2.5841 18.799 2.95619 18.9831 3.36011 18.9831H52.6393C53.0432 18.9831 53.415 18.799 53.6138 18.5015C53.8127 18.2039 53.8074 17.8383 53.5997 17.5452Z" fill="#0E237E"/>
<path d="M48.0174 8.79347C47.8606 8.57908 47.6102 8.42697 47.3208 8.36969L32.0531 5.34344C31.764 5.28588 31.4595 5.3287 31.2069 5.46106C30.9549 5.59398 30.7751 5.80615 30.7075 6.05141L29.5561 10.2225C29.415 10.7327 29.7891 11.2433 30.3915 11.3623C30.9936 11.4819 31.5967 11.1649 31.7371 10.6543L32.6336 7.40784L45.7199 10.002L43.6636 17.4529C43.5225 17.9632 43.8966 18.4737 44.499 18.5927C44.5853 18.6097 44.6709 18.6177 44.7556 18.6177C45.2642 18.6177 45.7245 18.3224 45.8443 17.885L48.1559 9.51006C48.2241 9.26508 48.1743 9.00703 48.0174 8.79347Z" fill="#0E237E"/>
<path d="M28.5923 11.0372L27.5719 3.72254C27.5371 3.47255 27.3865 3.24426 27.1529 3.08854C26.9192 2.93282 26.6243 2.86163 26.328 2.89111L7.59567 4.76753C6.98176 4.82927 6.54274 5.30088 6.61526 5.8217L8.31655 18.0215C8.38414 18.5045 8.86746 18.8596 9.42756 18.8596C9.4712 18.8596 9.51615 18.8571 9.56078 18.853C10.1744 18.7912 10.6134 18.3196 10.5412 17.7988L8.97115 6.5408L25.4791 4.88738L26.3677 11.2594C26.4405 11.7799 26.9944 12.1498 27.6116 12.0908C28.2255 12.0297 28.6645 11.5578 28.5923 11.0372Z" fill="#0E237E"/>
<path d="M37.4492 17.6731L35.2261 9.83872C35.1566 9.5943 34.9751 9.38268 34.7222 9.25116C34.4692 9.12074 34.1657 9.07986 33.8753 9.13826L15.833 12.8155C15.2316 12.9378 14.8615 13.4506 15.0058 13.9603L16.1168 17.8761C16.2612 18.3864 16.8663 18.7003 17.4674 18.5771C18.0688 18.4548 18.4389 17.942 18.2946 17.4323L17.4451 14.4391L33.3096 11.2063L35.2708 18.1175C35.3938 18.5526 35.8532 18.8446 36.3588 18.8446C36.4458 18.8446 36.5337 18.836 36.622 18.8179C37.2234 18.6953 37.5935 18.1828 37.4492 17.6731Z" fill="#0E237E"/>
<path d="M53.7585 17.9854C53.7277 17.481 53.2361 17.085 52.6396 17.085H3.36043C2.76391 17.085 2.27239 17.4807 2.24154 17.9854L0.00147525 55.0023C-0.0142745 55.262 0.0966301 55.5162 0.307939 55.7047C0.519575 55.893 0.812913 56 1.12003 56H54.879C55.1858 56 55.4795 55.8932 55.6921 55.7047C55.9031 55.5162 56.014 55.2623 55.9986 55.0023L53.7585 17.9854ZM2.29864 54.1016L4.42386 18.9831H51.5749L53.7001 54.1016H2.29864Z" fill="#0E237E"/>
<path d="M36.399 20.8812C34.5461 20.8812 33.0391 22.1584 33.0391 23.7287C33.0391 25.2989 34.5461 26.5761 36.399 26.5761C38.2519 26.5761 39.7589 25.2989 39.7589 23.7287C39.7589 22.1584 38.2519 20.8812 36.399 20.8812ZM36.399 24.678C35.7812 24.678 35.2791 24.2523 35.2791 23.729C35.2791 23.2056 35.7815 22.7799 36.399 22.7799C37.0165 22.7799 37.5189 23.2056 37.5189 23.729C37.5189 24.2523 37.0165 24.678 36.399 24.678Z" fill="#0E237E"/>
<path d="M19.6012 20.8812C17.7483 20.8812 16.2412 22.1584 16.2412 23.7287C16.2412 25.2989 17.7483 26.5761 19.6012 26.5761C21.454 26.5761 22.9611 25.2989 22.9611 23.7287C22.9611 22.1584 21.454 20.8812 19.6012 20.8812ZM19.6012 24.678C18.9836 24.678 18.4813 24.2523 18.4813 23.729C18.4813 23.2056 18.9836 22.7799 19.6012 22.7799C20.2187 22.7799 20.721 23.2056 20.721 23.729C20.721 24.2523 20.2187 24.678 19.6012 24.678Z" fill="#0E237E"/>
<path d="M36.399 23.7287H36.3128C35.6946 23.7287 35.1929 24.1539 35.1929 24.6778C35.1929 24.8073 35.2231 24.9311 35.2792 25.0437V29.898C35.2792 33.2996 32.0134 36.0676 27.9992 36.0676C23.985 36.0676 20.7192 33.2999 20.7192 29.898V24.678C20.7192 24.1541 20.2175 23.729 19.5994 23.729C18.9812 23.729 18.4795 24.1541 18.4795 24.678V29.8983C18.4795 34.3469 22.75 37.966 27.9992 37.966C33.2485 37.966 37.5189 34.3469 37.5189 29.8983V24.678C37.5189 24.1541 37.0172 23.7287 36.399 23.7287Z" fill="#0E237E"/>
</svg>
