<svg width="58" height="58" viewBox="0 0 58 58" fill="none" xmlns="http://www.w3.org/2000/svg">
<circle cx="29" cy="29" r="28" stroke="#0E237E" stroke-width="2"/>
<path d="M19.1301 45.3334C19.0247 45.3334 18.9178 45.3127 18.8178 45.2689C18.484 45.1233 18.3536 44.7775 18.5268 44.4966L37.9227 12.9764C38.0952 12.6953 38.5066 12.5853 38.8397 12.7312C39.1735 12.8767 39.3038 13.2226 39.1306 13.5037L19.7348 45.0239C19.614 45.2205 19.3765 45.3334 19.1301 45.3334Z" fill="#0E237E" stroke="#0E237E" stroke-width="0.8"/>
<path d="M20.8337 26.4232C16.3308 26.4232 12.667 23.338 12.667 19.5461C12.667 15.7542 16.3308 12.6689 20.8337 12.6689C25.3366 12.6689 29.0003 15.7542 29.0003 19.5461C29.0003 23.338 25.3366 26.4232 20.8337 26.4232ZM20.8337 13.8151C17.0811 13.8151 14.0281 16.386 14.0281 19.5461C14.0281 22.7061 17.0811 25.277 20.8337 25.277C24.5862 25.277 27.6392 22.7061 27.6392 19.5461C27.6392 16.386 24.5862 13.8151 20.8337 13.8151Z" fill="#0E237E" stroke="#0E237E" stroke-width="0.8"/>
<path d="M37.1667 45.3332C32.6638 45.3332 29 42.248 29 38.4561C29 34.6642 32.6638 31.579 37.1667 31.579C41.6696 31.579 45.3333 34.6642 45.3333 38.4561C45.3333 42.248 41.6696 45.3332 37.1667 45.3332ZM37.1667 32.7252C33.4141 32.7252 30.3611 35.2961 30.3611 38.4561C30.3611 41.6162 33.4141 44.1871 37.1667 44.1871C40.9193 44.1871 43.9722 41.6162 43.9722 38.4561C43.9722 35.2961 40.9193 32.7252 37.1667 32.7252Z" fill="#0E237E" stroke="#0E237E" stroke-width="0.8"/>
</svg>
