<svg width="16" height="16" viewBox="0 0 16 16" fill="none" xmlns="http://www.w3.org/2000/svg">
<g clip-path="url(#clip0)">
<path d="M8 0C6.41775 0 4.87103 0.469192 3.55544 1.34824C2.23985 2.22729 1.21447 3.47672 0.608967 4.93853C0.00346625 6.40034 -0.15496 8.00887 0.153721 9.56072C0.462403 11.1126 1.22433 12.538 2.34315 13.6569C3.46197 14.7757 4.88743 15.5376 6.43928 15.8463C7.99113 16.155 9.59966 15.9965 11.0615 15.391C12.5233 14.7855 13.7727 13.7602 14.6518 12.4446C15.5308 11.129 16 9.58225 16 8C16 5.87827 15.1571 3.84344 13.6569 2.34315C12.1566 0.842855 10.1217 0 8 0V0ZM11.4158 10.3132C11.3658 10.3992 11.2838 10.4619 11.1877 10.4874C11.0916 10.5129 10.9893 10.4992 10.9033 10.4493L7.5 8.475V2.375C7.5 2.27554 7.53951 2.18016 7.60984 2.10983C7.68017 2.03951 7.77555 2 7.875 2C7.97446 2 8.06984 2.03951 8.14017 2.10983C8.21049 2.18016 8.25 2.27554 8.25 2.375V8.04225L11.2798 9.8C11.3224 9.82473 11.3598 9.85763 11.3897 9.89683C11.4197 9.93602 11.4416 9.98073 11.4542 10.0284C11.4669 10.0761 11.47 10.1258 11.4634 10.1747C11.4568 10.2235 11.4406 10.2706 11.4158 10.3132Z" fill="#69779B" fill-opacity="0.4"/>
</g>
<defs>
<clipPath id="clip0">
<rect width="16" height="16" fill="white"/>
</clipPath>
</defs>
</svg>
