<svg width="56" height="56" viewBox="0 0 56 56" fill="none" xmlns="http://www.w3.org/2000/svg">
<g clip-path="url(#clip0)">
<path d="M55.8764 4.86746L55.7708 3.86383C55.5595 1.80374 53.8691 0.219058 51.7562 0.0605896L50.9111 0.00776691C48.3756 -0.0978785 45.8929 0.85293 44.0969 2.6489L35.6453 11.0477L7.96619 10.9949C5.64199 10.9949 3.37061 11.9457 1.68029 13.636L0.518188 14.7981C0.148429 15.1679 -0.0100394 15.8018 0.095606 16.33C0.254074 16.8582 0.623833 17.2808 1.15206 17.4393L23.1791 23.4611L18.0553 28.5849L8.75853 28.9018C7.80772 28.9018 6.90974 29.2715 6.22304 30.0111L5.32505 30.9091C4.9553 31.2788 4.79683 31.8599 4.90247 32.3881C5.06094 32.9163 5.4307 33.2861 5.9061 33.4974L17.7384 37.9873L22.4924 50.2422C22.7037 50.7704 23.1791 51.1402 23.7074 51.193C24.2356 51.2458 24.711 51.0873 25.0807 50.6648L26.0316 49.7139C26.6654 49.0801 27.0352 48.2349 27.1408 47.1785L27.4578 37.8288L32.6344 32.7579L38.6034 54.8377C38.7618 55.366 39.1844 55.7886 39.7126 55.947C39.8711 55.9998 39.9768 55.9998 40.1352 55.9998C40.5578 55.9998 40.9804 55.8414 41.2973 55.5244L42.4594 54.3623C44.1497 52.672 45.1006 50.4006 45.1006 48.0236V20.3445L53.2881 12.1042C55.2425 10.2026 56.1933 7.50859 55.8764 4.86746ZM51.809 10.6251L43.2518 19.1824C43.0405 19.3937 42.9348 19.6578 42.9348 19.9219V48.0236C42.9348 49.8724 42.1953 51.5627 40.9276 52.8833L40.3993 53.4115L34.1134 30.5393C34.0078 30.1695 33.7437 29.9054 33.3739 29.7998C33.2683 29.7998 33.2155 29.747 33.1098 29.747C32.8457 29.747 32.5816 29.8526 32.3703 30.0639L25.609 36.7196C25.3977 36.9308 25.292 37.1421 25.292 37.4591L24.9751 47.1785C24.9751 47.4954 24.8695 47.9708 24.4997 48.2877L24.1299 48.6575L19.5344 36.7724C19.4287 36.5083 19.2174 36.297 18.9005 36.1913L7.43796 31.807L7.7549 31.4901C7.91337 31.3316 8.33595 31.0147 8.86418 31.0147L18.6364 30.6978C18.9005 30.6978 19.1646 30.5921 19.3231 30.3808L26.0316 23.6723C26.2957 23.4082 26.4013 23.0385 26.2957 22.6687C26.19 22.299 25.9259 22.0348 25.5562 21.9292L2.6311 15.6433L3.15932 15.1151C4.42707 13.8473 6.17022 13.1078 7.96619 13.1078L36.0679 13.1606C36.332 13.1606 36.5961 13.055 36.8074 12.8437L45.576 4.12794C46.9494 2.75455 48.851 2.01503 50.8054 2.12068L51.6506 2.1735C52.707 2.22632 53.5522 3.07148 53.6578 4.07512L53.7635 5.07875C53.9748 7.13883 53.2881 9.1461 51.809 10.6251Z" fill="#0E237E"/>
</g>
<defs>
<clipPath id="clip0">
<rect width="56" height="56" fill="white"/>
</clipPath>
</defs>
</svg>
