<svg width="12" height="12" viewBox="0 0 12 12" fill="none" xmlns="http://www.w3.org/2000/svg">
<path fill-rule="evenodd" clip-rule="evenodd" d="M10 3.41421L1.70711 11.7071C1.31658 12.0976 0.683417 12.0976 0.292893 11.7071C-0.0976305 11.3166 -0.0976305 10.6834 0.292893 10.2929L8.58579 2L1 2C0.447715 2 0 1.55229 0 1C0 0.447715 0.447715 0 1 0L11 0C11.1356 0 11.2649 0.0269861 11.3828 0.0758791C11.499 0.123949 11.6079 0.19486 11.7028 0.28861C11.7049 0.290736 11.7071 0.292872 11.7092 0.295017C11.8889 0.475811 12 0.724936 12 1L12 11C12 11.5523 11.5523 12 11 12C10.4477 12 10 11.5523 10 11L10 3.41421Z" fill="black"/>
</svg>
