<svg width="22" height="20" viewBox="0 0 22 20" fill="none" xmlns="http://www.w3.org/2000/svg">
<path d="M2.86957 2.85714V0H4.78261V2.85714H7.65217V4.7619H4.78261V7.61905H2.86957V4.7619H0V2.85714H2.86957ZM5.73913 8.57143V5.71429H8.6087V2.85714H15.3043L17.0548 4.7619H20.087C21.1391 4.7619 22 5.61905 22 6.66667V18.0952C22 19.1429 21.1391 20 20.087 20H4.78261C3.73043 20 2.86957 19.1429 2.86957 18.0952V8.57143H5.73913ZM12.4348 17.1429C15.0748 17.1429 17.2174 15.0095 17.2174 12.381C17.2174 9.75238 15.0748 7.61905 12.4348 7.61905C9.79478 7.61905 7.65217 9.75238 7.65217 12.381C7.65217 15.0095 9.79478 17.1429 12.4348 17.1429ZM9.37391 12.381C9.37391 14.0667 10.7417 15.4286 12.4348 15.4286C14.1278 15.4286 15.4957 14.0667 15.4957 12.381C15.4957 10.6952 14.1278 9.33333 12.4348 9.33333C10.7417 9.33333 9.37391 10.6952 9.37391 12.381Z" fill="#556080"/>
</svg>
