<svg width="17" height="15" viewBox="0 0 17 15" fill="none" xmlns="http://www.w3.org/2000/svg">
<path fill-rule="evenodd" clip-rule="evenodd" d="M5.63647 0.972649C6.58743 0.589839 7.5842 0.398438 8.62681 0.398438C9.66943 0.398438 10.6662 0.589839 11.6172 0.972649C12.5681 1.35546 13.3873 1.87036 14.0747 2.51736C14.7622 3.16436 15.3093 3.93536 15.716 4.83038C16.1227 5.7254 16.3261 6.66354 16.3261 7.64482C16.3261 8.62072 16.1242 9.55616 15.7203 10.4512C15.3164 11.3462 14.7708 12.1172 14.0833 12.7642C13.3959 13.4112 12.5767 13.9274 11.6257 14.313C10.6748 14.6985 9.67516 14.8912 8.62681 14.8912C7.57847 14.8912 6.57883 14.6998 5.62788 14.317C4.67692 13.9342 3.85916 13.4179 3.17459 12.7682C2.49002 12.1185 1.94437 11.3475 1.53763 10.4552C1.1309 9.5629 0.927536 8.62611 0.927536 7.64482C0.927536 6.66354 1.1309 5.7254 1.53763 4.83038C1.94437 3.93536 2.49145 3.16436 3.17889 2.51736C3.86633 1.87036 4.68551 1.35546 5.63647 0.972649ZM13.9458 11.3246C14.7994 10.2193 15.2262 8.99273 15.2262 7.64481C15.2262 6.80371 15.0515 6.00036 14.702 5.23474C14.3526 4.46912 13.8828 3.80865 13.2928 3.25331C12.7027 2.69796 12.001 2.25585 11.1875 1.92696C10.374 1.59807 9.52048 1.43362 8.62681 1.43362C7.73314 1.43362 6.87958 1.59807 6.06611 1.92696C5.25264 2.25585 4.55089 2.69796 3.96084 3.25331C3.37079 3.80865 2.90105 4.46912 2.5516 5.23474C2.20215 6.00036 2.02743 6.80371 2.02743 7.64481C2.02743 8.99273 2.45421 10.2193 3.30778 11.3246C3.68587 9.56153 4.56234 8.68001 5.93722 8.68001C6.68767 9.37014 7.58419 9.71521 8.62681 9.71521C9.66942 9.71521 10.5659 9.37014 11.3164 8.68001C12.6913 8.68001 13.5677 9.56153 13.9458 11.3246ZM8.62681 9.1976C9.53767 9.1976 10.3139 8.89567 10.9555 8.2918C11.6028 7.68254 11.9265 6.94929 11.9265 6.09201C11.9265 5.23473 11.6043 4.50282 10.9598 3.89626C10.3153 3.2897 9.53767 2.98642 8.62681 2.98642C7.71595 2.98642 6.9383 3.2897 6.29383 3.89626C5.64935 4.50282 5.32712 5.23473 5.32712 6.09201C5.32712 6.94929 5.64935 7.6812 6.29383 8.28776C6.9383 8.89432 7.71595 9.1976 8.62681 9.1976Z" fill="#4C4C4C"/>
</svg>
