<svg width="56" height="56" viewBox="0 0 56 56" fill="none" xmlns="http://www.w3.org/2000/svg">
<path d="M52.8646 21.8704H51.5324V13.8655C51.5324 10.5923 48.8679 7.93931 45.6062 7.93931H44.3774L44.3888 4.96474C44.3888 2.75965 42.5972 0.968018 40.3921 0.968018H4.85808C2.20509 0.968018 0.0344545 3.1042 0 5.75719C0 5.78016 0 5.80313 0 5.8261V45.0353C0 47.2404 1.79163 49.032 3.99672 49.032H45.6177C48.8909 49.032 51.5439 46.3676 51.5439 43.1059V35.0894H52.8761C54.5989 35.0894 56 33.6883 56 31.9656V24.9943C55.9885 23.2716 54.5874 21.8704 52.8646 21.8704ZM4.85808 3.72438H40.3921C41.0697 3.72438 41.6325 4.27565 41.6325 4.95325L41.621 7.93931H4.85808C3.69811 7.93931 2.75636 6.99755 2.75636 5.83759C2.75636 4.67762 3.69811 3.72438 4.85808 3.72438ZM48.776 43.0944C48.776 44.8401 47.3519 46.2642 45.6062 46.2642H3.98523C3.30763 46.2642 2.74487 45.7129 2.74487 45.0238V10.2133C3.38802 10.5234 4.10008 10.6957 4.85808 10.6957H45.6062C47.3519 10.6957 48.776 12.1198 48.776 13.8655V21.8704H39.37C37.6473 21.8704 36.2461 23.2716 36.2461 24.9943V31.9656C36.2461 33.6883 37.6473 35.0894 39.37 35.0894H48.776V43.0944ZM53.2322 31.9656C53.2322 32.1723 53.0714 32.3331 52.8646 32.3331H39.3815C39.1747 32.3331 39.0139 32.1723 39.0139 31.9656V24.9943C39.0139 24.799 39.1747 24.6268 39.3815 24.6268H52.8646C53.0599 24.6268 53.2322 24.7876 53.2322 24.9943V31.9656Z" fill="#0E237E"/>
</svg>
