<svg width="196" height="46" viewBox="0 0 196 46" fill="none" xmlns="http://www.w3.org/2000/svg">
<path d="M9.83569 10.4H17.3597V31.034H30.0517V37H9.83569V10.4ZM32.687 16.404H39.907V37H32.687V16.404ZM36.297 14.124C34.9797 14.124 33.9157 13.7567 33.105 13.022C32.2944 12.2873 31.889 11.3753 31.889 10.286C31.889 9.19667 32.2944 8.28466 33.105 7.55C33.9157 6.81533 34.9797 6.448 36.297 6.448C37.6144 6.448 38.6784 6.80267 39.489 7.512C40.2997 8.196 40.705 9.08267 40.705 10.172C40.705 11.312 40.2997 12.262 39.489 13.022C38.6784 13.7567 37.6144 14.124 36.297 14.124ZM71.4272 16.062C73.9605 16.062 75.9745 16.822 77.4692 18.342C78.9892 19.862 79.7492 22.1547 79.7492 25.22V37H72.5292V26.398C72.5292 24.954 72.2505 23.89 71.6932 23.206C71.1612 22.522 70.4012 22.18 69.4132 22.18C68.3238 22.18 67.4498 22.56 66.7912 23.32C66.1325 24.08 65.8032 25.2327 65.8032 26.778V37H58.5832V26.398C58.5832 23.586 57.5445 22.18 55.4672 22.18C54.3525 22.18 53.4658 22.56 52.8072 23.32C52.1485 24.08 51.8192 25.2327 51.8192 26.778V37H44.5992V16.404H51.4772V18.57C52.2372 17.734 53.1365 17.1133 54.1752 16.708C55.2392 16.2773 56.3918 16.062 57.6332 16.062C59.0772 16.062 60.3692 16.328 61.5092 16.86C62.6492 17.392 63.5738 18.2027 64.2832 19.292C65.0938 18.2533 66.1198 17.4553 67.3612 16.898C68.6025 16.3407 69.9578 16.062 71.4272 16.062ZM84.3062 16.404H91.5262V37H84.3062V16.404ZM87.9162 14.124C86.5989 14.124 85.5349 13.7567 84.7242 13.022C83.9135 12.2873 83.5082 11.3753 83.5082 10.286C83.5082 9.19667 83.9135 8.28466 84.7242 7.55C85.5349 6.81533 86.5989 6.448 87.9162 6.448C89.2335 6.448 90.2975 6.80267 91.1082 7.512C91.9189 8.196 92.3242 9.08267 92.3242 10.172C92.3242 11.312 91.9189 12.262 91.1082 13.022C90.2975 13.7567 89.2335 14.124 87.9162 14.124ZM110.43 36.164C109.822 36.544 109.075 36.8353 108.188 37.038C107.327 37.2407 106.402 37.342 105.414 37.342C102.729 37.342 100.664 36.6833 99.2203 35.366C97.7763 34.0487 97.0543 32.0853 97.0543 29.476V22.56H94.0523V17.164H97.0543V11.806H104.274V17.164H108.986V22.56H104.274V29.4C104.274 30.1347 104.464 30.7173 104.844 31.148C105.25 31.5533 105.782 31.756 106.44 31.756C107.276 31.756 108.011 31.5407 108.644 31.11L110.43 36.164ZM113.214 8.804H120.434V37H113.214V8.804ZM146.179 26.74C146.179 26.7907 146.141 27.386 146.065 28.526H131.093C131.397 29.59 131.979 30.4133 132.841 30.996C133.727 31.5533 134.829 31.832 136.147 31.832C137.135 31.832 137.983 31.6927 138.693 31.414C139.427 31.1353 140.162 30.6793 140.897 30.046L144.697 33.998C142.695 36.2273 139.769 37.342 135.919 37.342C133.512 37.342 131.397 36.886 129.573 35.974C127.749 35.062 126.33 33.7953 125.317 32.174C124.329 30.5527 123.835 28.716 123.835 26.664C123.835 24.6373 124.316 22.826 125.279 21.23C126.267 19.6087 127.622 18.342 129.345 17.43C131.067 16.518 133.005 16.062 135.159 16.062C137.211 16.062 139.073 16.4927 140.745 17.354C142.417 18.19 143.734 19.4187 144.697 21.04C145.685 22.636 146.179 24.536 146.179 26.74ZM135.197 21.192C134.082 21.192 133.145 21.5087 132.385 22.142C131.65 22.7753 131.181 23.6367 130.979 24.726H139.415C139.212 23.6367 138.731 22.7753 137.971 22.142C137.236 21.5087 136.311 21.192 135.197 21.192ZM156.993 37.342C155.271 37.342 153.573 37.152 151.901 36.772C150.229 36.3667 148.887 35.8473 147.873 35.214L150.039 30.274C150.977 30.8567 152.091 31.3253 153.383 31.68C154.675 32.0093 155.955 32.174 157.221 32.174C158.387 32.174 159.21 32.06 159.691 31.832C160.198 31.5787 160.451 31.224 160.451 30.768C160.451 30.312 160.147 29.9953 159.539 29.818C158.957 29.6153 158.019 29.4253 156.727 29.248C155.081 29.0453 153.675 28.7793 152.509 28.45C151.369 28.1207 150.381 27.5127 149.545 26.626C148.709 25.7393 148.291 24.498 148.291 22.902C148.291 21.5847 148.684 20.4193 149.469 19.406C150.255 18.3673 151.395 17.5567 152.889 16.974C154.409 16.366 156.221 16.062 158.323 16.062C159.818 16.062 161.3 16.214 162.769 16.518C164.239 16.822 165.467 17.2527 166.455 17.81L164.289 22.712C162.465 21.6987 160.489 21.192 158.361 21.192C157.221 21.192 156.385 21.3313 155.853 21.61C155.321 21.8633 155.055 22.2053 155.055 22.636C155.055 23.1173 155.347 23.4593 155.929 23.662C156.512 23.8393 157.475 24.0293 158.817 24.232C160.515 24.4853 161.921 24.7767 163.035 25.106C164.15 25.4353 165.113 26.0433 165.923 26.93C166.759 27.7913 167.177 29.0073 167.177 30.578C167.177 31.87 166.785 33.0353 165.999 34.074C165.214 35.0873 164.049 35.8853 162.503 36.468C160.983 37.0507 159.147 37.342 156.993 37.342ZM177.775 37.342C176.052 37.342 174.355 37.152 172.683 36.772C171.011 36.3667 169.668 35.8473 168.655 35.214L170.821 30.274C171.758 30.8567 172.873 31.3253 174.165 31.68C175.457 32.0093 176.736 32.174 178.003 32.174C179.168 32.174 179.991 32.06 180.473 31.832C180.979 31.5787 181.233 31.224 181.233 30.768C181.233 30.312 180.929 29.9953 180.321 29.818C179.738 29.6153 178.801 29.4253 177.509 29.248C175.862 29.0453 174.456 28.7793 173.291 28.45C172.151 28.1207 171.163 27.5127 170.327 26.626C169.491 25.7393 169.073 24.498 169.073 22.902C169.073 21.5847 169.465 20.4193 170.251 19.406C171.036 18.3673 172.176 17.5567 173.671 16.974C175.191 16.366 177.002 16.062 179.105 16.062C180.599 16.062 182.081 16.214 183.551 16.518C185.02 16.822 186.249 17.2527 187.237 17.81L185.071 22.712C183.247 21.6987 181.271 21.192 179.143 21.192C178.003 21.192 177.167 21.3313 176.635 21.61C176.103 21.8633 175.837 22.2053 175.837 22.636C175.837 23.1173 176.128 23.4593 176.711 23.662C177.293 23.8393 178.256 24.0293 179.599 24.232C181.296 24.4853 182.702 24.7767 183.817 25.106C184.931 25.4353 185.894 26.0433 186.705 26.93C187.541 27.7913 187.959 29.0073 187.959 30.578C187.959 31.87 187.566 33.0353 186.781 34.074C185.995 35.0873 184.83 35.8853 183.285 36.468C181.765 37.0507 179.928 37.342 177.775 37.342Z" fill="white"/>
</svg>
