<svg width="196" height="65" viewBox="0 0 196 65" fill="none" xmlns="http://www.w3.org/2000/svg">
<path d="M47.1895 3.5L43.7095 14H41.6395L39.0445 6.23L36.4045 14H34.3195L30.8395 3.5H32.8645L35.4745 11.48L38.1895 3.5H39.9895L42.6445 11.525L45.3295 3.5H47.1895ZM55.5275 10.04C55.5275 10.17 55.5175 10.355 55.4975 10.595H49.2125C49.3225 11.185 49.6075 11.655 50.0675 12.005C50.5375 12.345 51.1175 12.515 51.8075 12.515C52.6875 12.515 53.4125 12.225 53.9825 11.645L54.9875 12.8C54.6275 13.23 54.1725 13.555 53.6225 13.775C53.0725 13.995 52.4525 14.105 51.7625 14.105C50.8825 14.105 50.1075 13.93 49.4375 13.58C48.7675 13.23 48.2475 12.745 47.8775 12.125C47.5175 11.495 47.3375 10.785 47.3375 9.995C47.3375 9.215 47.5125 8.515 47.8625 7.895C48.2225 7.265 48.7175 6.775 49.3475 6.425C49.9775 6.075 50.6875 5.9 51.4775 5.9C52.2575 5.9 52.9525 6.075 53.5625 6.425C54.1825 6.765 54.6625 7.25 55.0025 7.88C55.3525 8.5 55.5275 9.22 55.5275 10.04ZM51.4775 7.4C50.8775 7.4 50.3675 7.58 49.9475 7.94C49.5375 8.29 49.2875 8.76 49.1975 9.35H53.7425C53.6625 8.77 53.4175 8.3 53.0075 7.94C52.5975 7.58 52.0875 7.4 51.4775 7.4ZM57.3285 2.87H59.2035V14H57.3285V2.87ZM65.3395 14.105C64.5095 14.105 63.7645 13.93 63.1045 13.58C62.4445 13.23 61.9295 12.745 61.5595 12.125C61.1895 11.495 61.0045 10.785 61.0045 9.995C61.0045 9.205 61.1895 8.5 61.5595 7.88C61.9295 7.26 62.4395 6.775 63.0895 6.425C63.7495 6.075 64.4995 5.9 65.3395 5.9C66.1295 5.9 66.8195 6.06 67.4095 6.38C68.0095 6.7 68.4595 7.16 68.7595 7.76L67.3195 8.6C67.0895 8.23 66.7995 7.955 66.4495 7.775C66.1095 7.585 65.7345 7.49 65.3245 7.49C64.6245 7.49 64.0445 7.72 63.5845 8.18C63.1245 8.63 62.8945 9.235 62.8945 9.995C62.8945 10.755 63.1195 11.365 63.5695 11.825C64.0295 12.275 64.6145 12.5 65.3245 12.5C65.7345 12.5 66.1095 12.41 66.4495 12.23C66.7995 12.04 67.0895 11.76 67.3195 11.39L68.7595 12.23C68.4495 12.83 67.9945 13.295 67.3945 13.625C66.8045 13.945 66.1195 14.105 65.3395 14.105ZM73.8631 14.105C73.0531 14.105 72.3231 13.93 71.6731 13.58C71.0231 13.23 70.5131 12.745 70.1431 12.125C69.7831 11.495 69.6031 10.785 69.6031 9.995C69.6031 9.205 69.7831 8.5 70.1431 7.88C70.5131 7.26 71.0231 6.775 71.6731 6.425C72.3231 6.075 73.0531 5.9 73.8631 5.9C74.6831 5.9 75.4181 6.075 76.0681 6.425C76.7181 6.775 77.2231 7.26 77.5831 7.88C77.9531 8.5 78.1381 9.205 78.1381 9.995C78.1381 10.785 77.9531 11.495 77.5831 12.125C77.2231 12.745 76.7181 13.23 76.0681 13.58C75.4181 13.93 74.6831 14.105 73.8631 14.105ZM73.8631 12.5C74.5531 12.5 75.1231 12.27 75.5731 11.81C76.0231 11.35 76.2481 10.745 76.2481 9.995C76.2481 9.245 76.0231 8.64 75.5731 8.18C75.1231 7.72 74.5531 7.49 73.8631 7.49C73.1731 7.49 72.6031 7.72 72.1531 8.18C71.7131 8.64 71.4931 9.245 71.4931 9.995C71.4931 10.745 71.7131 11.35 72.1531 11.81C72.6031 12.27 73.1731 12.5 73.8631 12.5ZM90.0411 5.9C91.0511 5.9 91.8511 6.195 92.4411 6.785C93.0311 7.365 93.3261 8.24 93.3261 9.41V14H91.4511V9.65C91.4511 8.95 91.2961 8.425 90.9861 8.075C90.6761 7.715 90.2311 7.535 89.6511 7.535C89.0211 7.535 88.5161 7.745 88.1361 8.165C87.7561 8.575 87.5661 9.165 87.5661 9.935V14H85.6911V9.65C85.6911 8.95 85.5361 8.425 85.2261 8.075C84.9161 7.715 84.4711 7.535 83.8911 7.535C83.2511 7.535 82.7411 7.74 82.3611 8.15C81.9911 8.56 81.8061 9.155 81.8061 9.935V14H79.9311V5.99H81.7161V7.01C82.0161 6.65 82.3911 6.375 82.8411 6.185C83.2911 5.995 83.7911 5.9 84.3411 5.9C84.9411 5.9 85.4711 6.015 85.9311 6.245C86.4011 6.465 86.7711 6.795 87.0411 7.235C87.3711 6.815 87.7961 6.49 88.3161 6.26C88.8361 6.02 89.4111 5.9 90.0411 5.9ZM103.325 10.04C103.325 10.17 103.315 10.355 103.295 10.595H97.0103C97.1203 11.185 97.4053 11.655 97.8653 12.005C98.3353 12.345 98.9153 12.515 99.6053 12.515C100.485 12.515 101.21 12.225 101.78 11.645L102.785 12.8C102.425 13.23 101.97 13.555 101.42 13.775C100.87 13.995 100.25 14.105 99.5603 14.105C98.6803 14.105 97.9053 13.93 97.2353 13.58C96.5653 13.23 96.0453 12.745 95.6753 12.125C95.3153 11.495 95.1353 10.785 95.1353 9.995C95.1353 9.215 95.3103 8.515 95.6603 7.895C96.0203 7.265 96.5153 6.775 97.1453 6.425C97.7753 6.075 98.4853 5.9 99.2753 5.9C100.055 5.9 100.75 6.075 101.36 6.425C101.98 6.765 102.46 7.25 102.8 7.88C103.15 8.5 103.325 9.22 103.325 10.04ZM99.2753 7.4C98.6753 7.4 98.1653 7.58 97.7453 7.94C97.3353 8.29 97.0853 8.76 96.9953 9.35H101.54C101.46 8.77 101.215 8.3 100.805 7.94C100.395 7.58 99.8853 7.4 99.2753 7.4ZM113.712 5.9C114.492 5.9 115.187 6.07 115.797 6.41C116.417 6.75 116.902 7.23 117.252 7.85C117.602 8.47 117.777 9.185 117.777 9.995C117.777 10.805 117.602 11.525 117.252 12.155C116.902 12.775 116.417 13.255 115.797 13.595C115.187 13.935 114.492 14.105 113.712 14.105C113.162 14.105 112.657 14.01 112.197 13.82C111.747 13.63 111.367 13.345 111.057 12.965V14H109.272V2.87H111.147V6.965C111.467 6.615 111.842 6.35 112.272 6.17C112.712 5.99 113.192 5.9 113.712 5.9ZM113.502 12.5C114.192 12.5 114.757 12.27 115.197 11.81C115.647 11.35 115.872 10.745 115.872 9.995C115.872 9.245 115.647 8.64 115.197 8.18C114.757 7.72 114.192 7.49 113.502 7.49C113.052 7.49 112.647 7.595 112.287 7.805C111.927 8.005 111.642 8.295 111.432 8.675C111.222 9.055 111.117 9.495 111.117 9.995C111.117 10.495 111.222 10.935 111.432 11.315C111.642 11.695 111.927 11.99 112.287 12.2C112.647 12.4 113.052 12.5 113.502 12.5ZM122.513 5.9C123.693 5.9 124.593 6.185 125.213 6.755C125.843 7.315 126.158 8.165 126.158 9.305V14H124.388V13.025C124.158 13.375 123.828 13.645 123.398 13.835C122.978 14.015 122.468 14.105 121.868 14.105C121.268 14.105 120.743 14.005 120.293 13.805C119.843 13.595 119.493 13.31 119.243 12.95C119.003 12.58 118.883 12.165 118.883 11.705C118.883 10.985 119.148 10.41 119.678 9.98C120.218 9.54 121.063 9.32 122.213 9.32H124.283V9.2C124.283 8.64 124.113 8.21 123.773 7.91C123.443 7.61 122.948 7.46 122.288 7.46C121.838 7.46 121.393 7.53 120.953 7.67C120.523 7.81 120.158 8.005 119.858 8.255L119.123 6.89C119.543 6.57 120.048 6.325 120.638 6.155C121.228 5.985 121.853 5.9 122.513 5.9ZM122.258 12.74C122.728 12.74 123.143 12.635 123.503 12.425C123.873 12.205 124.133 11.895 124.283 11.495V10.565H122.348C121.268 10.565 120.728 10.92 120.728 11.63C120.728 11.97 120.863 12.24 121.133 12.44C121.403 12.64 121.778 12.74 122.258 12.74ZM132.312 14.105C131.482 14.105 130.737 13.93 130.077 13.58C129.417 13.23 128.902 12.745 128.532 12.125C128.162 11.495 127.977 10.785 127.977 9.995C127.977 9.205 128.162 8.5 128.532 7.88C128.902 7.26 129.412 6.775 130.062 6.425C130.722 6.075 131.472 5.9 132.312 5.9C133.102 5.9 133.792 6.06 134.382 6.38C134.982 6.7 135.432 7.16 135.732 7.76L134.292 8.6C134.062 8.23 133.772 7.955 133.422 7.775C133.082 7.585 132.707 7.49 132.297 7.49C131.597 7.49 131.017 7.72 130.557 8.18C130.097 8.63 129.867 9.235 129.867 9.995C129.867 10.755 130.092 11.365 130.542 11.825C131.002 12.275 131.587 12.5 132.297 12.5C132.707 12.5 133.082 12.41 133.422 12.23C133.772 12.04 134.062 11.76 134.292 11.39L135.732 12.23C135.422 12.83 134.967 13.295 134.367 13.625C133.777 13.945 133.092 14.105 132.312 14.105ZM140.55 10.565L139.155 11.885V14H137.28V2.87H139.155V9.59L143.04 5.99H145.29L141.945 9.35L145.605 14H143.325L140.55 10.565ZM155.776 13.565C155.556 13.745 155.286 13.88 154.966 13.97C154.656 14.06 154.326 14.105 153.976 14.105C153.096 14.105 152.416 13.875 151.936 13.415C151.456 12.955 151.216 12.285 151.216 11.405V7.55H149.896V6.05H151.216V4.22H153.091V6.05H155.236V7.55H153.091V11.36C153.091 11.75 153.186 12.05 153.376 12.26C153.566 12.46 153.841 12.56 154.201 12.56C154.621 12.56 154.971 12.45 155.251 12.23L155.776 13.565ZM160.655 14.105C159.845 14.105 159.115 13.93 158.465 13.58C157.815 13.23 157.305 12.745 156.935 12.125C156.575 11.495 156.395 10.785 156.395 9.995C156.395 9.205 156.575 8.5 156.935 7.88C157.305 7.26 157.815 6.775 158.465 6.425C159.115 6.075 159.845 5.9 160.655 5.9C161.475 5.9 162.21 6.075 162.86 6.425C163.51 6.775 164.015 7.26 164.375 7.88C164.745 8.5 164.93 9.205 164.93 9.995C164.93 10.785 164.745 11.495 164.375 12.125C164.015 12.745 163.51 13.23 162.86 13.58C162.21 13.93 161.475 14.105 160.655 14.105ZM160.655 12.5C161.345 12.5 161.915 12.27 162.365 11.81C162.815 11.35 163.04 10.745 163.04 9.995C163.04 9.245 162.815 8.64 162.365 8.18C161.915 7.72 161.345 7.49 160.655 7.49C159.965 7.49 159.395 7.72 158.945 8.18C158.505 8.64 158.285 9.245 158.285 9.995C158.285 10.745 158.505 11.35 158.945 11.81C159.395 12.27 159.965 12.5 160.655 12.5Z" fill="white"/>
<path d="M9.83569 29.4H17.3597V50.034H30.0517V56H9.83569V29.4ZM32.687 35.404H39.907V56H32.687V35.404ZM36.297 33.124C34.9797 33.124 33.9157 32.7567 33.105 32.022C32.2944 31.2873 31.889 30.3753 31.889 29.286C31.889 28.1967 32.2944 27.2847 33.105 26.55C33.9157 25.8153 34.9797 25.448 36.297 25.448C37.6144 25.448 38.6784 25.8027 39.489 26.512C40.2997 27.196 40.705 28.0827 40.705 29.172C40.705 30.312 40.2997 31.262 39.489 32.022C38.6784 32.7567 37.6144 33.124 36.297 33.124ZM71.4272 35.062C73.9605 35.062 75.9745 35.822 77.4692 37.342C78.9892 38.862 79.7492 41.1547 79.7492 44.22V56H72.5292V45.398C72.5292 43.954 72.2505 42.89 71.6932 42.206C71.1612 41.522 70.4012 41.18 69.4132 41.18C68.3238 41.18 67.4498 41.56 66.7912 42.32C66.1325 43.08 65.8032 44.2327 65.8032 45.778V56H58.5832V45.398C58.5832 42.586 57.5445 41.18 55.4672 41.18C54.3525 41.18 53.4658 41.56 52.8072 42.32C52.1485 43.08 51.8192 44.2327 51.8192 45.778V56H44.5992V35.404H51.4772V37.57C52.2372 36.734 53.1365 36.1133 54.1752 35.708C55.2392 35.2773 56.3918 35.062 57.6332 35.062C59.0772 35.062 60.3692 35.328 61.5092 35.86C62.6492 36.392 63.5738 37.2027 64.2832 38.292C65.0938 37.2533 66.1198 36.4553 67.3612 35.898C68.6025 35.3407 69.9578 35.062 71.4272 35.062ZM84.3062 35.404H91.5262V56H84.3062V35.404ZM87.9162 33.124C86.5989 33.124 85.5349 32.7567 84.7242 32.022C83.9135 31.2873 83.5082 30.3753 83.5082 29.286C83.5082 28.1967 83.9135 27.2847 84.7242 26.55C85.5349 25.8153 86.5989 25.448 87.9162 25.448C89.2335 25.448 90.2975 25.8027 91.1082 26.512C91.9189 27.196 92.3242 28.0827 92.3242 29.172C92.3242 30.312 91.9189 31.262 91.1082 32.022C90.2975 32.7567 89.2335 33.124 87.9162 33.124ZM110.43 55.164C109.822 55.544 109.075 55.8353 108.188 56.038C107.327 56.2407 106.402 56.342 105.414 56.342C102.729 56.342 100.664 55.6833 99.2203 54.366C97.7763 53.0487 97.0543 51.0853 97.0543 48.476V41.56H94.0523V36.164H97.0543V30.806H104.274V36.164H108.986V41.56H104.274V48.4C104.274 49.1347 104.464 49.7173 104.844 50.148C105.25 50.5533 105.782 50.756 106.44 50.756C107.276 50.756 108.011 50.5407 108.644 50.11L110.43 55.164ZM113.214 27.804H120.434V56H113.214V27.804ZM146.179 45.74C146.179 45.7907 146.141 46.386 146.065 47.526H131.093C131.397 48.59 131.979 49.4133 132.841 49.996C133.727 50.5533 134.829 50.832 136.147 50.832C137.135 50.832 137.983 50.6927 138.693 50.414C139.427 50.1353 140.162 49.6793 140.897 49.046L144.697 52.998C142.695 55.2273 139.769 56.342 135.919 56.342C133.512 56.342 131.397 55.886 129.573 54.974C127.749 54.062 126.33 52.7953 125.317 51.174C124.329 49.5527 123.835 47.716 123.835 45.664C123.835 43.6373 124.316 41.826 125.279 40.23C126.267 38.6087 127.622 37.342 129.345 36.43C131.067 35.518 133.005 35.062 135.159 35.062C137.211 35.062 139.073 35.4927 140.745 36.354C142.417 37.19 143.734 38.4187 144.697 40.04C145.685 41.636 146.179 43.536 146.179 45.74ZM135.197 40.192C134.082 40.192 133.145 40.5087 132.385 41.142C131.65 41.7753 131.181 42.6367 130.979 43.726H139.415C139.212 42.6367 138.731 41.7753 137.971 41.142C137.236 40.5087 136.311 40.192 135.197 40.192ZM156.993 56.342C155.271 56.342 153.573 56.152 151.901 55.772C150.229 55.3667 148.887 54.8473 147.873 54.214L150.039 49.274C150.977 49.8567 152.091 50.3253 153.383 50.68C154.675 51.0093 155.955 51.174 157.221 51.174C158.387 51.174 159.21 51.06 159.691 50.832C160.198 50.5787 160.451 50.224 160.451 49.768C160.451 49.312 160.147 48.9953 159.539 48.818C158.957 48.6153 158.019 48.4253 156.727 48.248C155.081 48.0453 153.675 47.7793 152.509 47.45C151.369 47.1207 150.381 46.5127 149.545 45.626C148.709 44.7393 148.291 43.498 148.291 41.902C148.291 40.5847 148.684 39.4193 149.469 38.406C150.255 37.3673 151.395 36.5567 152.889 35.974C154.409 35.366 156.221 35.062 158.323 35.062C159.818 35.062 161.3 35.214 162.769 35.518C164.239 35.822 165.467 36.2527 166.455 36.81L164.289 41.712C162.465 40.6987 160.489 40.192 158.361 40.192C157.221 40.192 156.385 40.3313 155.853 40.61C155.321 40.8633 155.055 41.2053 155.055 41.636C155.055 42.1173 155.347 42.4593 155.929 42.662C156.512 42.8393 157.475 43.0293 158.817 43.232C160.515 43.4853 161.921 43.7767 163.035 44.106C164.15 44.4353 165.113 45.0433 165.923 45.93C166.759 46.7913 167.177 48.0073 167.177 49.578C167.177 50.87 166.785 52.0353 165.999 53.074C165.214 54.0873 164.049 54.8853 162.503 55.468C160.983 56.0507 159.147 56.342 156.993 56.342ZM177.775 56.342C176.052 56.342 174.355 56.152 172.683 55.772C171.011 55.3667 169.668 54.8473 168.655 54.214L170.821 49.274C171.758 49.8567 172.873 50.3253 174.165 50.68C175.457 51.0093 176.736 51.174 178.003 51.174C179.168 51.174 179.991 51.06 180.473 50.832C180.979 50.5787 181.233 50.224 181.233 49.768C181.233 49.312 180.929 48.9953 180.321 48.818C179.738 48.6153 178.801 48.4253 177.509 48.248C175.862 48.0453 174.456 47.7793 173.291 47.45C172.151 47.1207 171.163 46.5127 170.327 45.626C169.491 44.7393 169.073 43.498 169.073 41.902C169.073 40.5847 169.465 39.4193 170.251 38.406C171.036 37.3673 172.176 36.5567 173.671 35.974C175.191 35.366 177.002 35.062 179.105 35.062C180.599 35.062 182.081 35.214 183.551 35.518C185.02 35.822 186.249 36.2527 187.237 36.81L185.071 41.712C183.247 40.6987 181.271 40.192 179.143 40.192C178.003 40.192 177.167 40.3313 176.635 40.61C176.103 40.8633 175.837 41.2053 175.837 41.636C175.837 42.1173 176.128 42.4593 176.711 42.662C177.293 42.8393 178.256 43.0293 179.599 43.232C181.296 43.4853 182.702 43.7767 183.817 44.106C184.931 44.4353 185.894 45.0433 186.705 45.93C187.541 46.7913 187.959 48.0073 187.959 49.578C187.959 50.87 187.566 52.0353 186.781 53.074C185.995 54.0873 184.83 54.8853 183.285 55.468C181.765 56.0507 179.928 56.342 177.775 56.342Z" fill="white"/>
</svg>
