<svg width="28" height="20" viewBox="0 0 28 20" fill="none" xmlns="http://www.w3.org/2000/svg">
<path d="M25.0834 0.666626H2.91665C1.309 0.666626 0 1.97563 0 3.58333V16.4167C0 18.0243 1.309 19.3333 2.91665 19.3333H25.0833C26.6909 19.3333 27.9999 18.0243 27.9999 16.4167V3.58333C28 1.97563 26.691 0.666626 25.0834 0.666626ZM26.8334 16.4166C26.8334 17.3815 26.0482 18.1666 25.0834 18.1666H2.91665C1.9518 18.1666 1.16665 17.3815 1.16665 16.4166V3.58333C1.16665 2.61848 1.9518 1.83333 2.91665 1.83333H25.0833C26.0481 1.83333 26.8333 2.61848 26.8333 3.58333V16.4166H26.8334Z" fill="#323A5D"/>
<path d="M27.4166 4.16663H0.583352C0.261352 4.16663 0 4.42798 0 4.74998V8.24998C0 8.57198 0.261352 8.83333 0.583352 8.83333H27.4167C27.7387 8.83333 28.0001 8.57198 28.0001 8.24998V4.74998C28 4.42798 27.7386 4.16663 27.4166 4.16663ZM26.8334 7.66663H1.16665V5.33327H26.8333V7.66663H26.8334Z" fill="#323A5D"/>
<path d="M11.0834 12.3334H4.08335C3.76135 12.3334 3.5 12.5947 3.5 12.9167C3.5 13.2387 3.76135 13.5 4.08335 13.5H11.0834C11.4054 13.5 11.6667 13.2387 11.6667 12.9167C11.6667 12.5947 11.4054 12.3334 11.0834 12.3334Z" fill="#323A5D"/>
<path d="M11.0834 14.6666H4.08335C3.76135 14.6666 3.5 14.928 3.5 15.25C3.5 15.572 3.76135 15.8333 4.08335 15.8333H11.0834C11.4054 15.8333 11.6667 15.572 11.6667 15.25C11.6666 14.928 11.4054 14.6666 11.0834 14.6666Z" fill="#323A5D"/>
<path d="M22.7499 11.1666H21.5833C20.6184 11.1666 19.8333 11.9518 19.8333 12.9166V14.0833C19.8333 15.0481 20.6184 15.8333 21.5833 15.8333H22.7499C23.7148 15.8333 24.4999 15.0481 24.4999 14.0833V12.9166C24.4999 11.9518 23.7148 11.1666 22.7499 11.1666ZM23.3333 14.0833C23.3333 14.4053 23.0719 14.6667 22.7499 14.6667H21.5833C21.2613 14.6667 20.9999 14.4053 20.9999 14.0833V12.9167C20.9999 12.5947 21.2613 12.3333 21.5833 12.3333H22.7499C23.0719 12.3333 23.3333 12.5947 23.3333 12.9167V14.0833Z" fill="#323A5D"/>
</svg>
