<svg width="24" height="28" viewBox="0 0 24 28" fill="none" xmlns="http://www.w3.org/2000/svg">
<path d="M10.25 3.5H1.5V27.125H22.5V3.5H13.75" stroke="#323A5D" stroke-width="1.5" stroke-miterlimit="10" stroke-linecap="round" stroke-linejoin="round"/>
<path d="M10.25 0.875H13.75V5.25H10.25V0.875Z" stroke="#323A5D" stroke-width="1.5" stroke-miterlimit="10" stroke-linecap="round" stroke-linejoin="round"/>
<path d="M13.75 24.5H6.75M17.25 21H6.75H17.25Z" stroke="#323A5D" stroke-width="1.5" stroke-miterlimit="10" stroke-linecap="round" stroke-linejoin="round"/>
<path d="M12 13.5625C13.4497 13.5625 14.625 12.3872 14.625 10.9375C14.625 9.48775 13.4497 8.3125 12 8.3125C10.5503 8.3125 9.375 9.48775 9.375 10.9375C9.375 12.3872 10.5503 13.5625 12 13.5625Z" stroke="#323A5D" stroke-width="1.5" stroke-miterlimit="10" stroke-linecap="round" stroke-linejoin="round"/>
<path d="M16.375 17.9375C16.375 16.7772 15.9141 15.6644 15.0936 14.8439C14.2731 14.0234 13.1603 13.5625 12 13.5625C10.8397 13.5625 9.72688 14.0234 8.90641 14.8439C8.08594 15.6644 7.625 16.7772 7.625 17.9375H16.375Z" stroke="#323A5D" stroke-width="1.5" stroke-miterlimit="10" stroke-linecap="round" stroke-linejoin="round"/>
</svg>
