<svg width="28" height="26" viewBox="0 0 28 26" fill="none" xmlns="http://www.w3.org/2000/svg">
<path d="M26.4323 11.4352H25.7662V7.43274C25.7662 5.79615 24.434 4.46965 22.8031 4.46965H22.1887L22.1944 2.98237C22.1944 1.87983 21.2986 0.984009 20.1961 0.984009H2.42904C1.10254 0.984009 0.0172272 2.0521 0 3.3786C0 3.39008 0 3.40157 0 3.41305V23.0177C0 24.1202 0.895816 25.016 1.99836 25.016H22.8089C24.4454 25.016 25.7719 23.6838 25.7719 22.0529V18.0447H26.4381C27.2994 18.0447 28 17.3442 28 16.4828V12.9971C27.9943 12.1358 27.2937 11.4352 26.4323 11.4352ZM2.42904 2.36219H20.1961C20.5349 2.36219 20.8162 2.63782 20.8162 2.97663L20.8105 4.46965H2.42904C1.84906 4.46965 1.37818 3.99878 1.37818 3.41879C1.37818 2.83881 1.84906 2.36219 2.42904 2.36219ZM24.388 22.0472C24.388 22.92 23.676 23.6321 22.8031 23.6321H1.99262C1.65381 23.6321 1.37244 23.3565 1.37244 23.0119V5.60665C1.69401 5.7617 2.05004 5.84783 2.42904 5.84783H22.8031C23.676 5.84783 24.388 6.55989 24.388 7.43274V11.4352H19.685C18.8236 11.4352 18.1231 12.1358 18.1231 12.9971V16.4828C18.1231 17.3442 18.8236 18.0447 19.685 18.0447H24.388V22.0472ZM26.6161 16.4828C26.6161 16.5862 26.5357 16.6665 26.4323 16.6665H19.6907C19.5874 16.6665 19.507 16.5862 19.507 16.4828V12.9971C19.507 12.8995 19.5874 12.8134 19.6907 12.8134H26.4323C26.5299 12.8134 26.6161 12.8938 26.6161 12.9971V16.4828Z" fill="#323A5D"/>
</svg>
