<svg width="30" height="40" viewBox="0 0 30 40" fill="none" xmlns="http://www.w3.org/2000/svg">
<path d="M24.8276 0H5.17241C2.32759 0 0 1.83673 0 4.08163V35.9184C0 38.1633 2.32759 40 5.17241 40H24.8276C27.6724 40 30 38.1633 30 35.9184V4.08163C30 1.83673 27.6724 0 24.8276 0ZM15 38.3673C13.0009 38.3673 11.3793 37.4539 11.3793 36.3265C11.3793 35.1992 13.0009 34.2857 15 34.2857C16.9986 34.2857 18.6207 35.1992 18.6207 36.3265C18.6207 37.4543 16.9986 38.3673 15 38.3673ZM25.8621 32.2449H4.13793V5.30612H25.8621V32.2449Z" fill="#73002C"/>
</svg>
