<svg width="40" height="40" viewBox="0 0 40 40" fill="none" xmlns="http://www.w3.org/2000/svg">
<path d="M26.0465 2.88083C25.5651 2.88083 25.1744 2.60083 25.1744 2.25583V0.625C25.1744 0.28 25.5651 0 26.0465 0C26.5279 0 26.9186 0.28 26.9186 0.625V2.25583C26.9186 2.60083 26.5279 2.88083 26.0465 2.88083Z" fill="#F89D4B"/>
<path d="M33.6872 5.14908C33.4639 5.14908 33.2407 5.08824 33.0709 4.96574C32.7302 4.72158 32.7302 4.32574 33.0709 4.08158L34.6802 2.92824C35.0209 2.68408 35.5732 2.68408 35.9139 2.92824C36.2546 3.17241 36.2546 3.56824 35.9139 3.81241L34.3046 4.96574C34.1337 5.08741 33.9105 5.14908 33.6872 5.14908Z" fill="#F89D4B"/>
<path d="M39.1279 10.625H36.8523C36.371 10.625 35.9803 10.345 35.9803 10C35.9803 9.655 36.371 9.375 36.8523 9.375H39.1279C39.6093 9.375 40 9.655 40 10C40 10.345 39.6093 10.625 39.1279 10.625Z" fill="#F89D4B"/>
<path d="M35.2965 17.2541C35.0732 17.2541 34.85 17.1932 34.6802 17.0707L33.0709 15.9174C32.7302 15.6732 32.7302 15.2774 33.0709 15.0332C33.4116 14.7891 33.9639 14.7891 34.3046 15.0332L35.9139 16.1866C36.2546 16.4307 36.2546 16.8266 35.9139 17.0707C35.743 17.1932 35.5198 17.2541 35.2965 17.2541Z" fill="#F89D4B"/>
<path d="M16.7965 17.2541C16.5733 17.2541 16.35 17.1932 16.1802 17.0707C15.8395 16.8266 15.8395 16.4307 16.1802 16.1866L17.7895 15.0332C18.1302 14.7891 18.6826 14.7891 19.0233 15.0332C19.3639 15.2774 19.3639 15.6732 19.0233 15.9174L17.4139 17.0707C17.243 17.1932 17.0198 17.2541 16.7965 17.2541Z" fill="#F89D4B"/>
<path d="M15.2407 10.625H12.9651C12.4837 10.625 12.093 10.345 12.093 10C12.093 9.655 12.4837 9.375 12.9651 9.375H15.2407C15.7221 9.375 16.1128 9.655 16.1128 10C16.1128 10.345 15.7221 10.625 15.2407 10.625Z" fill="#F89D4B"/>
<path d="M18.4058 5.14908C18.1826 5.14908 17.9593 5.08824 17.7895 4.96574L16.1802 3.81241C15.8395 3.56824 15.8395 3.17241 16.1802 2.92824C16.5209 2.68408 17.0733 2.68408 17.4139 2.92824L19.0233 4.08158C19.3639 4.32574 19.3639 4.72158 19.0233 4.96574C18.8512 5.08741 18.6291 5.14908 18.4058 5.14908Z" fill="#F89D4B"/>
<path d="M29.5349 17.5V18.5417C29.5349 19.3417 28.6163 20 27.5 20H24.593C23.6163 20 22.5582 19.4667 22.5582 18.3V17.5H29.5349Z" fill="#73002C"/>
<path d="M31.1744 5.46634C29.2674 4.358 26.7558 3.92467 24.3023 4.29967C21.2209 4.758 18.7209 6.558 18.0814 8.76634C17.4302 11.033 18.6163 13.283 21.1512 14.658C21.8372 15.0247 22.314 15.5913 22.4767 16.2497V16.258C22.5 16.2497 22.5349 16.2497 22.5581 16.2497H29.5349C29.5581 16.2497 29.5698 16.2497 29.593 16.258V16.2497C29.7558 15.6163 30.2791 15.033 31.0814 14.583C33.0465 13.4663 34.186 11.7997 34.186 9.99967C34.186 8.23301 33.093 6.583 31.1744 5.46634ZM30.407 10.4163C29.9302 10.4163 29.5349 10.133 29.5349 9.79134C29.5349 8.52467 28.1046 7.49967 26.3372 7.49967C25.8605 7.49967 25.4651 7.21634 25.4651 6.87467C25.4651 6.533 25.8605 6.24967 26.3372 6.24967C29.0581 6.24967 31.2791 7.84134 31.2791 9.79134C31.2791 10.133 30.8837 10.4163 30.407 10.4163Z" fill="#F89D4B"/>
<path d="M22.4767 16.25H22.5581C22.5349 16.25 22.5 16.25 22.4767 16.2583V16.25Z" fill="#73002C"/>
<path d="M33.194 22.8042L29.0707 29.2559C28.2456 30.5468 26.965 31.304 25.6069 31.304H17.9506C17.3486 31.304 16.8605 30.72 16.8605 29.9997C16.8605 29.2793 17.3486 28.6953 17.9506 28.6953H24.5864C26.0127 28.6953 27.2071 27.2987 27.1798 25.5924C27.1534 23.939 26.0249 22.6084 24.6367 22.6084H17.0058C14.8149 20.0878 11.4339 19.7928 8.96061 21.9066L8.13953 22.6084V37.391H15.407H16.8605H27.0977C29.3233 37.391 31.3961 36.0369 32.5996 33.7969L36.8539 25.8785C37.086 25.4466 37.2093 24.9441 37.2093 24.4306C37.2094 21.8701 34.4939 20.7702 33.194 22.8042Z" fill="#73002C"/>
<path d="M4.8692 20H1.09012C0.488082 20 0 20.584 0 21.3043V38.6957C0 39.416 0.488082 40 1.09012 40H4.8692C5.47123 40 5.95931 39.416 5.95931 38.6957V21.3043C5.95931 20.584 5.47123 20 4.8692 20Z" fill="#73002C"/>
</svg>
