<svg width="40" height="40" viewBox="0 0 40 40" fill="none" xmlns="http://www.w3.org/2000/svg">
<path d="M19.1308 5.74594L9.9463 0.0572012C9.82325 -0.0190671 9.68899 -0.0190671 9.56593 0.0572012L0.381479 5.74594C0.153125 5.88737 0.000305335 6.26604 4.56823e-07 6.69113C-0.000304421 7.11623 0.15202 7.49549 0.380183 7.63786L9.56464 13.3698C9.62656 13.4085 9.69135 13.4278 9.7561 13.4278C9.82088 13.4278 9.88563 13.4085 9.94756 13.3698L19.132 7.63786C19.3602 7.49549 19.5125 7.11623 19.5122 6.69113C19.5119 6.26604 19.3591 5.88737 19.1308 5.74594Z" fill="#73002C"/>
<path d="M18.1392 19.1411V10.3877L16.9959 11.1012V19.1411C16.6516 19.4891 16.4195 20.1411 16.4195 20.8887C16.4195 21.6363 16.6516 22.2883 16.9959 22.6362V27.568C16.9959 28.1222 17.2519 28.5715 17.5676 28.5715C17.8833 28.5715 18.1392 28.1222 18.1392 27.568V22.6363C18.4836 22.2884 18.7156 21.6363 18.7156 20.8888C18.7156 20.1411 18.4836 19.4891 18.1392 19.1411Z" fill="#73002C"/>
<path d="M9.75609 15.4349C9.55986 15.4349 9.3666 15.3763 9.18166 15.2609L4.01843 12.0386V16.4546C4.01843 17.535 4.66047 18.4487 5.9267 19.1702C7.0304 19.7991 8.39038 20.1454 9.75609 20.1454C11.1218 20.1454 12.4817 19.7991 13.5855 19.1702C14.8517 18.4487 15.4937 17.535 15.4937 16.4546V12.0386L10.3306 15.2609C10.1456 15.3763 9.95231 15.4349 9.75609 15.4349Z" fill="#73002C"/>
<path d="M23.5022 16.6764C23.0271 16.6764 22.5828 16.4769 22.2496 16.1117C21.9163 15.7465 21.7343 15.2596 21.7343 14.7356H21.722C21.722 14.6037 21.7343 14.4684 21.759 14.34C21.9287 13.4405 22.663 12.7812 23.5053 12.7812H39.386V11.4287H23.5022C22.0768 11.4287 20.8334 12.5411 20.5495 14.0695C20.5094 14.2892 20.4878 14.5056 20.4878 14.7423H20.5001V37.9579C20.5001 39.0838 21.3363 40.0001 22.3637 40.0001H40V16.6764H23.5022ZM34.7856 35.5369H29.8798V34.1844H34.7856V35.5369ZM35.233 24.6798C35.233 24.9165 35.1127 25.1329 34.9214 25.2411C34.7301 25.3493 34.5018 25.3323 34.3228 25.1937L32.3543 23.662L30.3858 25.1937C30.2871 25.2715 30.1698 25.3121 30.0526 25.3121C29.9631 25.3121 29.8706 25.2884 29.7872 25.2411C29.596 25.1329 29.4756 24.9165 29.4756 24.6798V18.5361H35.2299V24.6798H35.233Z" fill="#73002C"/>
</svg>
