<svg width="40" height="40" viewBox="0 0 40 40" fill="none" xmlns="http://www.w3.org/2000/svg">
<path d="M23.4176 7.03125H16.5824C14.4546 8.97344 11.7834 10.4695 8.78049 11.4047V18.5742C8.78049 24.6375 13.1639 30.075 20 32.5641C26.8361 30.075 31.2195 24.6375 31.2195 18.5742V11.4055C28.2156 10.4703 25.5454 8.97422 23.4176 7.03125ZM27.8644 17.1117L18.758 24.4032C18.4722 24.6321 18.0976 24.7469 17.7239 24.7469C17.3493 24.7469 16.9746 24.632 16.6888 24.4032L12.1356 20.7579C11.5649 20.3001 11.5649 19.5579 12.1356 19.1001C12.7073 18.643 13.6341 18.643 14.2059 19.1001L17.7239 21.9173L25.7951 15.4548C26.3659 14.997 27.2927 14.997 27.8644 15.4548C28.4351 15.9125 28.4351 16.6539 27.8644 17.1117ZM38.5278 5.46875C34.3093 5.46875 30.4673 3.6125 28.4985 0.625C28.2458 0.240625 27.7473 0 27.2048 0H12.795C12.2526 0 11.754 0.240625 11.5004 0.625C9.53268 3.6125 5.69073 5.46875 1.46341 5.46875C0.65561 5.46875 0 5.99375 0 6.64062V18.5742C0 23.3719 1.87219 27.9531 5.41366 31.8227C8.95512 35.6922 13.8459 38.5007 19.559 39.9453C19.7024 39.982 19.8517 40 20 40C20.1483 40 20.2976 39.982 20.441 39.9453C26.1542 38.5008 31.0449 35.6923 34.5863 31.8227C38.1278 27.953 40 23.3719 40 18.5742V6.64062C40 5.99375 39.3356 5.46875 38.5278 5.46875ZM34.1463 18.5211C34.1463 25.6977 28.8146 32.1156 20.5629 34.8711C20.3824 34.9313 20.1912 34.9609 20 34.9609C19.8088 34.9609 19.6166 34.9313 19.4371 34.8711C11.1854 32.1156 5.85366 25.6976 5.85366 18.5211V10.5273C5.85366 10.0211 6.25951 9.57187 6.86049 9.41406C9.96585 8.59609 12.7015 7.09219 14.7707 5.06484C15.0488 4.79219 15.4654 4.63438 15.9044 4.63438H24.0956C24.5444 4.63438 25.0732 4.9125 25.2292 5.06484C27.2984 7.09219 30.034 8.59609 33.1394 9.41406C33.5678 9.52656 33.8955 9.78672 34.0497 10.1109C34.0517 10.1141 34.0526 10.118 34.0545 10.1211C34.0917 10.2016 34.1179 10.2859 34.1327 10.3727C34.1337 10.3813 34.1355 10.3906 34.1366 10.3992C34.1424 10.4414 34.1463 10.4836 34.1463 10.5273V18.5211Z" fill="#73002C"/>
</svg>
