<svg width="40" height="15" viewBox="0 0 40 15" fill="none" xmlns="http://www.w3.org/2000/svg">
<path d="M25 7.5C25 11.6423 22.7615 15 20 15C17.2385 15 15 11.6423 15 7.5C15 3.3577 17.2385 0 20 0C22.7615 0 25 3.3577 25 7.5Z" fill="#73002C"/>
<path d="M10 7.5C10 11.6423 7.76154 15 5 15C2.23846 15 0 11.6423 0 7.5C0 3.3577 2.23846 0 5 0C7.76154 0 10 3.3577 10 7.5Z" fill="#73002C"/>
<path d="M40 7.5C40 11.6423 37.7615 15 35 15C32.2385 15 30 11.6423 30 7.5C30 3.3577 32.2385 0 35 0C37.7615 0 40 3.3577 40 7.5Z" fill="#73002C"/>
</svg>
