<svg width="40" height="40" viewBox="0 0 40 40" fill="none" xmlns="http://www.w3.org/2000/svg">
<path d="M17.4107 16.0255C18.1037 15.8808 18.8162 15.7165 19.5405 15.5496C22.4943 14.9247 22.4286 14.8988 22.7058 14.666L15.8489 4.15371C15.0743 4.48443 14.1788 4.30918 13.5695 3.7085L9.2678 6.81035C9.42192 7.20703 9.46537 7.64188 9.38921 8.07295C9.31305 8.50403 9.12399 8.89364 8.84399 9.20506L18.3811 23.8258C18.7601 23.6633 19.1745 23.6185 19.5848 23.6991C19.9948 23.7801 20.3657 23.9799 20.6623 24.2748L24.0384 21.8392C23.0566 21.5655 22.5024 21.1731 21.9498 20.6848C20.3132 19.2429 18.8144 20.1392 17.7812 19.8133C16.509 19.5563 15.9775 18.7451 15.9775 17.8685C15.9775 16.9606 16.5671 16.2026 17.4107 16.0255Z" fill="#73002C"/>
<path d="M18.6861 27.8815C18.73 27.9484 18.7923 27.9696 18.8255 27.9757C18.8591 27.9832 18.924 27.987 18.9885 27.9399L27.3045 21.9425C26.8461 22.02 26.3419 22.073 25.8165 22.073C25.665 22.073 25.5114 22.0671 25.3571 22.0577L20.8428 25.3148C20.7662 25.3704 20.6752 25.3996 20.5834 25.3996C20.5552 25.3996 20.5274 25.3968 20.4992 25.3916C20.3796 25.368 20.2738 25.2955 20.2048 25.1899C20.0189 24.904 19.7385 24.7113 19.4155 24.6477C19.0911 24.5841 18.7654 24.6562 18.4939 24.8522C18.2852 25.0024 17.9993 24.9469 17.8564 24.7268L7.85568 9.39518C7.78669 9.28965 7.76071 9.15962 7.78266 9.03383C7.80506 8.90804 7.87405 8.79685 7.97441 8.7243C8.24545 8.52926 8.42733 8.23575 8.48737 7.89701C8.54695 7.55781 8.47751 7.21483 8.29159 6.93027C8.2226 6.82475 8.19662 6.69472 8.21857 6.56893C8.24097 6.44314 8.30996 6.33148 8.41031 6.25893L13.3876 2.66993C13.5968 2.51965 13.8818 2.57571 14.0247 2.79431C14.4095 3.38132 15.1774 3.5302 15.7369 3.12833C15.9461 2.97804 16.2311 3.03364 16.374 3.25365L23.2952 13.8649C23.5016 13.4682 23.663 13.0047 23.5528 12.4716C23.4018 12.0308 19.7461 6.62169 19.4172 6.03867L15.5438 0.0990337C15.4999 0.0316653 15.4377 0.0109357 15.4045 0.00433689C15.37 -0.0031996 15.3051 -0.00602584 15.2419 0.040144L5.41497 7.13192C5.36569 7.16772 5.33299 7.22049 5.32268 7.28032C5.31552 7.32036 5.31596 7.38019 5.35673 7.44097L18.6861 27.8815Z" fill="#73002C"/>
<path d="M26.6516 8.73118C24.7441 6.42832 24.3911 5.19691 20.7277 5.88231C20.6433 5.89845 20.5543 5.91706 20.4633 5.93649C21.2851 7.19161 24.3295 11.6817 24.4497 12.2674C24.6459 13.2167 24.305 13.9795 23.986 14.5373C23.2108 15.919 22.7372 15.8987 17.5899 16.9715C16.6146 17.1774 16.2846 19.1247 18.9819 18.8961C21.6143 18.6779 22.3609 19.9148 23.0985 20.3905C25.4366 21.8898 28.712 20.7094 32.0687 19.7614L32.4475 11.4665L32.1746 11.3982C30.4144 10.9572 28.0033 10.3532 26.6516 8.73118ZM31.0147 12.9515C30.9574 13.1635 30.7732 13.3015 30.5739 13.3015C30.5322 13.3015 30.4897 13.2959 30.4476 13.2831C28.3491 12.6542 26.5593 11.573 25.2727 10.1563C25.0975 9.96362 25.1042 9.65834 25.2875 9.4746C25.4703 9.28992 25.761 9.29699 25.9357 9.49015C27.1099 10.7824 28.7572 11.7732 30.6993 12.355C30.9426 12.4281 31.0842 12.6952 31.0147 12.9515Z" fill="#73002C"/>
<path d="M39.5155 10.6311L33.9267 10.3489C33.6274 10.3395 33.4063 10.5769 33.394 10.8577L32.9223 21.1875C32.9155 21.3302 32.9626 21.4669 33.054 21.5729C33.1454 21.6789 33.2708 21.7411 33.4066 21.7477L38.9949 22.0299C39.2655 22.036 39.5142 21.8155 39.5276 21.521L39.9993 11.1913C40.0132 10.8965 39.7959 10.6447 39.5155 10.6311ZM34.7609 11.7594C34.7734 11.4933 34.9911 11.2963 35.2411 11.3006L36.0421 11.3411C36.2953 11.3538 36.4906 11.5799 36.4785 11.8461C36.4664 12.1043 36.2639 12.3055 36.0206 12.3055C36.013 12.3055 36.0059 12.3055 35.9982 12.305L35.1972 12.2645C34.9441 12.2518 34.7488 12.0256 34.7609 11.7594ZM37.179 20.0599C36.6896 20.5744 35.9011 20.5649 35.4208 20.0599C34.9314 19.5453 34.9314 18.7255 35.4208 18.2108C35.9011 17.7058 36.6896 17.6963 37.179 18.211C37.6593 18.716 37.6593 19.5547 37.179 20.0599ZM39.2431 13.9501C39.231 14.2083 39.0285 14.4095 38.7853 14.4095C38.7776 14.4095 38.7705 14.4095 38.7629 14.409C38.5097 14.3963 38.3144 14.1702 38.3265 13.904L38.3942 12.4256L37.6155 12.3865C37.3624 12.3738 37.1671 12.1476 37.1792 11.8815C37.1913 11.6153 37.4112 11.4052 37.6594 11.4226L38.8964 11.4848C39.0178 11.4909 39.132 11.5474 39.214 11.6421C39.296 11.7368 39.3385 11.8621 39.3327 11.9898L39.2431 13.9501Z" fill="#73002C"/>
<path d="M5.94005 27.7974H0.256258C0.115138 27.7974 0 27.9184 0 28.0673V38.7486C0 38.897 0.115138 39.018 0.256258 39.018H5.94005C6.08117 39.018 6.19631 38.897 6.19631 38.7486V28.0673C6.19631 27.9184 6.08117 27.7974 5.94005 27.7974ZM3.25607 37.9962H1.43002C1.17645 37.9962 0.971267 37.7804 0.971267 37.5137V36.4156C0.971267 36.1489 1.17645 35.9331 1.43002 35.9331C1.68359 35.9331 1.88877 36.1489 1.88877 36.4156V37.0313H3.25607C3.50965 37.0313 3.71483 37.2471 3.71483 37.5138C3.71483 37.7804 3.50965 37.9962 3.25607 37.9962ZM2.93696 31.2581C2.26669 31.2581 1.7217 30.6876 1.7217 29.9777C1.7217 29.2678 2.2667 28.6906 2.93696 28.6906C3.60098 28.6906 4.14595 29.2678 4.14595 29.9777C4.14595 30.6876 3.60098 31.2581 2.93696 31.2581Z" fill="#73002C"/>
<path d="M28.8777 31.5968L20.4195 35.5575C20.062 35.8095 19.6332 35.9565 19.1722 35.9565H13.0073C12.7537 35.9565 12.5485 35.7407 12.5485 35.4741C12.5485 35.2074 12.7537 34.9916 13.0073 34.9916H19.1722C19.4451 34.9916 19.6995 34.904 19.911 34.7542C19.9231 34.7448 19.9356 34.7353 19.9491 34.7264C20.2869 34.4692 20.5077 34.0485 20.5077 33.574C20.5077 32.792 19.9087 32.156 19.1722 32.156H15.0067C13.5583 32.156 12.1279 31.7546 10.8694 30.9956C9.74987 30.3205 8.47709 29.9634 7.18909 29.9634H7.11652V37.163L12.445 39.2788C15.2388 40.3897 18.4469 40.2093 21.1166 38.7926L29.983 34.0862C30.6093 33.7535 30.8731 32.963 30.5837 32.286C30.2903 31.6005 29.5242 31.2924 28.8777 31.5968Z" fill="#73002C"/>
</svg>
