<svg width="40" height="40" viewBox="0 0 40 40" fill="none" xmlns="http://www.w3.org/2000/svg">
<path d="M10.877 10.0156C10.6001 9.81706 10.1293 9.62626 9.47079 9.44629V13.6062C10.3724 13.5631 10.9938 13.2339 11.3386 12.6169C11.517 12.3 11.6062 11.9339 11.6062 11.517C11.6062 10.8603 11.3646 10.3588 10.877 10.0156Z" fill="#73002C"/>
<path d="M7.2338 4.73532C6.93832 5.13058 6.79239 5.54466 6.79239 5.97679C6.79239 6.49839 6.96462 6.90603 7.31399 7.20151C7.66619 7.49544 8.13236 7.703 8.72022 7.81851V4.10156C8.02613 4.1307 7.53083 4.33851 7.2338 4.73532Z" fill="#73002C"/>
<path d="M9.08765 0C4.06606 0 0 4.06915 0 9.08919C0 14.1092 4.06915 18.1784 9.08765 18.1784C14.1061 18.1784 18.1753 14.1092 18.1753 9.08919C18.1753 4.06915 14.1092 0 9.08765 0ZM11.6601 14.1216C11.1555 14.4478 10.4263 14.6646 9.47079 14.7693V16.3031H8.71998V14.7693C7.18921 14.6692 6.14601 14.1262 5.59837 13.14C5.29825 12.6061 5.15077 11.8877 5.15077 10.9814H6.54617C6.58768 11.7044 6.70474 12.2306 6.8909 12.563C7.2217 13.1583 7.82787 13.4922 8.72023 13.566V9.25704C7.5788 9.0402 6.73259 8.68001 6.18804 8.17233C5.64349 7.6662 5.37122 6.96463 5.37122 6.06917C5.37122 5.26756 5.66515 4.54614 6.25121 3.9031C6.84036 3.26006 7.66363 2.9339 8.72049 2.92307V1.87085H9.47131V2.90631C10.5235 2.98005 11.3251 3.28791 11.8836 3.83246C12.4467 4.377 12.7422 5.09559 12.7667 5.9895H11.3852C11.3483 5.5896 11.2406 5.24487 11.0606 4.95404C10.7267 4.42161 10.1976 4.1416 9.47131 4.11711V7.96787C10.696 8.3095 11.5237 8.63102 11.962 8.93088C12.6744 9.42618 13.0281 10.1602 13.0281 11.1294C13.0323 12.5323 12.5738 13.5294 11.6601 14.1216Z" fill="#73002C"/>
<path d="M9.08765 21.8232C4.06451 21.8232 0 25.8939 0 30.9109C0 35.9309 4.06915 40.0001 9.08765 40.0001C14.1061 40.0001 18.1753 35.9309 18.1753 30.9109C18.1756 25.8924 14.1092 21.8232 9.08765 21.8232ZM12.5416 36.8341C12.1417 37.0265 11.7155 37.1234 11.2617 37.1234C10.9309 37.1234 10.3755 36.9973 9.59404 36.7418C8.81563 36.4894 8.20173 36.3633 7.74794 36.3633C7.33102 36.3633 6.93267 36.434 6.56035 36.5786C6.33887 36.6678 6.05886 36.8156 5.7095 37.0247L4.89268 35.8507C5.51122 35.4153 6.01426 34.9323 6.3974 34.4076C6.77745 33.8814 6.9667 33.3093 6.9667 32.6923C6.9667 32.5154 6.93292 32.3107 6.86047 32.0737C6.81432 31.9229 6.74213 31.7215 6.6359 31.4614H4.80811V30.6015H6.10502C6.10502 30.6291 6.01271 30.4568 5.8281 30.0845C5.64194 29.7122 5.5205 29.4415 5.45888 29.2708C5.40654 29.1107 5.36194 28.9245 5.31888 28.7154C5.28046 28.5017 5.2619 28.274 5.2619 28.034C5.2619 27.1741 5.6141 26.4016 6.31412 25.7232C7.01105 25.0449 8.01403 24.7033 9.32176 24.7033C10.5511 24.7033 11.4788 25.0402 12.1095 25.7109C12.7386 26.3846 13.0663 27.3355 13.0849 28.5633H11.5526C11.5526 27.731 11.3587 27.0988 10.9711 26.668C10.5818 26.2356 9.9911 26.0187 9.19723 26.0187C8.42811 26.0187 7.84179 26.2204 7.44653 26.6264C7.04972 27.0325 6.84964 27.5235 6.84964 28.1018C6.84964 28.388 6.91281 28.6832 7.03735 28.9849C7.15879 29.2878 7.42204 29.8295 7.82658 30.6064H10.5375V31.4678H8.19735C8.25278 31.7202 8.29274 31.9185 8.31569 32.0631C8.34173 32.2062 8.35102 32.354 8.35102 32.5077C8.35102 33.0584 8.18652 33.6045 7.85881 34.1416C7.52491 34.6799 7.00795 35.2108 6.302 35.7417C6.68205 35.5493 7.05591 35.3939 7.42513 35.2832C7.79435 35.1708 8.15584 35.1157 8.50675 35.1157C8.90356 35.1157 9.43134 35.2111 10.0806 35.408C10.736 35.6035 11.1606 35.7004 11.3667 35.7004C11.625 35.7004 11.8604 35.6496 12.0791 35.5511C12.2082 35.4895 12.4129 35.3634 12.6821 35.1711L13.3651 36.2896C13.0617 36.5294 12.7863 36.7124 12.5416 36.8341Z" fill="#73002C"/>
<path d="M30.9123 0C25.8908 0 21.8247 4.06915 21.8247 9.08919C21.8247 14.1092 25.8938 18.1784 30.9123 18.1784C35.9308 18.1784 40 14.1077 40 9.08919C40.0003 4.06915 35.9308 0 30.9123 0ZM34.4986 13.8986C33.6939 14.9371 32.6063 15.4554 31.2385 15.4554C30.0599 15.4554 29.0724 15.0307 28.2662 14.1786C27.5107 13.377 27.0216 12.26 26.8107 10.8278H24.7369L25.0817 9.66004H26.6955C26.6831 9.43546 26.6769 9.2047 26.6769 8.96775C26.6769 8.76458 26.6831 8.56166 26.6955 8.35849H24.7385L25.0848 7.18921H26.8277C27.017 6.18623 27.3661 5.31681 27.8738 4.58147C28.7336 3.33999 29.9138 2.7199 31.4247 2.7199C32.7107 2.7199 33.7032 3.12289 34.414 3.93069C35.128 4.73694 35.5201 5.6538 35.6 6.67998H34.257C34.1077 5.90158 33.8063 5.28303 33.3494 4.8277C32.8956 4.37236 32.2601 4.14469 31.4417 4.14469C30.4387 4.14469 29.6263 4.56471 29.0139 5.40473C28.6723 5.86626 28.4309 6.4616 28.2801 7.19101H32.8709L32.5246 8.36029H28.1138C28.0937 8.6403 28.0878 8.93733 28.0878 9.24956C28.0878 9.39111 28.0909 9.52957 28.094 9.66184H32.8693L32.523 10.8296H28.2169C28.3492 11.5494 28.5831 12.1726 28.9185 12.6989C29.4692 13.5758 30.2984 14.0159 31.4017 14.0159C32.4171 14.0159 33.1924 13.5528 33.7248 12.6251C34.0079 12.136 34.2111 11.4943 34.3495 10.6989H35.6926C35.5694 11.9692 35.1741 13.0369 34.4986 13.8986Z" fill="#73002C"/>
<path d="M30.9124 21.8232C25.8908 21.8232 21.8247 25.8939 21.8247 30.9109C21.8247 35.9325 25.8939 40.0001 30.9124 40.0001C35.9309 40.0001 40 35.9309 40 30.9109C40.0003 25.8924 35.9309 21.8232 30.9124 21.8232ZM35.3324 28.6417V29.8339H33.0893L31.9538 31.763H35.0429V32.9553H31.7413V37.1229H30.0674V32.9553H26.8587V31.763H29.857L28.7215 29.8339H26.4415V28.6417H28.0215L25.7015 24.694H27.6693L30.9046 30.6708L34.1523 24.694H36.1247L33.7939 28.6417H35.3324Z" fill="#73002C"/>
</svg>
