<svg width="40" height="40" viewBox="0 0 40 40" fill="none" xmlns="http://www.w3.org/2000/svg">
<path d="M16.0736 27V22.554H15.0296V21.222H16.0736V19.926H15.0296V18.594H16.0736V14.148H18.8996L20.3036 18.594H21.9416V14.148H23.9396V18.594H24.9656V19.926H23.9396V21.222H24.9656V22.554H23.9396V27H21.0956L19.6556 22.554H18.0716V27H16.0736ZM17.9996 18.594H18.5036L17.9816 16.866H17.9096L17.9996 18.594ZM18.0716 21.222H19.2596L18.8636 19.926H18.0356L18.0716 21.222ZM21.1496 21.222H21.9776L21.9416 19.926H20.7356L21.1496 21.222ZM21.9956 24.192H22.0856L22.0136 22.554H21.5276L21.9956 24.192Z" fill="#73002C"/>
<path d="M11.9731 11.3288V8.98517H20.3992C23.2151 8.98517 25.736 10.5546 26.6722 12.8906C26.9952 13.6965 27.9581 13.6816 27.9268 13.6724C28.49 13.6724 28.9921 13.36 29.1806 12.8926C30.8972 8.63384 27.231 3.51679 20.3992 3.51679H11.9732V1.17319C11.9732 0.249049 10.8113 -0.311577 9.92716 0.185377L0.614046 5.41937C-0.217441 5.88656 -0.202007 6.9643 0.645269 7.41196L9.95829 12.3335C10.8436 12.8016 11.9731 12.2383 11.9731 11.3288Z" fill="#73002C"/>
<path d="M39.3549 32.5882L30.0419 27.6667C29.1564 27.1986 28.0269 27.7619 28.0269 28.6714V31.015H19.6009C16.785 31.015 14.2641 29.4456 13.3279 27.1096C13.0049 26.3037 12.0419 26.3186 12.0733 26.3278C11.5101 26.3278 11.008 26.6402 10.8195 27.1076C9.10283 31.3664 12.769 36.4834 19.6008 36.4834H28.0268V38.827C28.0268 39.7512 29.1887 40.3118 30.0729 39.8148L39.3859 34.5808C40.2175 34.1136 40.2021 33.036 39.3549 32.5882Z" fill="#73002C"/>
<path d="M20.9224 17.2129C20.9224 17.2129 20.9268 17.2169 20.9358 17.2238L20.9224 17.2129Z" fill="#73002C"/>
</svg>
