<svg width="40" height="40" viewBox="0 0 40 40" fill="none" xmlns="http://www.w3.org/2000/svg">
<path d="M1.52758 4.53729C0.683932 4.53729 0 3.52157 0 2.26865C0 1.01572 0.683932 0 1.52758 0H6.9789C7.52981 0 8.02121 0.509486 8.21156 1.27437L13.2713 21.5986L11.2453 4.65297C11.237 4.58084 11.2321 4.50805 11.2321 4.43592C11.2321 3.74837 11.6071 3.19209 12.0688 3.19209H25.6166H39.1631C39.2121 3.19209 39.2611 3.19859 39.3092 3.21159C39.7647 3.33181 40.0675 3.97712 39.987 4.65297L37.555 24.9974C37.4841 25.5913 37.1362 26.0235 36.731 26.0235H35.3072L35.6353 22.6767H33.6312L33.3687 26.0235H35.3072L34.9698 29.4664C34.9094 30.0766 34.5576 30.5302 34.141 30.5302H25.617H13.1522C12.6022 30.5302 12.1108 30.0221 11.92 29.2546L5.76682 4.53729H1.52758ZM26.7337 10.9618L26.7661 7.61501H25.617H24.4671L24.4999 10.9618H25.617H26.7337ZM26.6843 15.9832L26.7167 12.6365H25.6166H24.5161L24.5489 15.9832H25.6166H26.6843ZM26.6353 21.004L26.6672 17.6572H25.617H24.5655L24.5984 21.004H25.617H26.6353ZM26.5863 26.0248L26.6182 22.678H25.617H24.6145L24.6478 26.0248H25.617H26.5863ZM27.6207 22.6774L27.5555 26.0241H29.4931L29.6248 22.6774H27.6207ZM30.6264 22.6774L30.4619 26.0241H32.4003L32.6301 22.6774H30.6264ZM35.7999 21.004L36.128 17.6572H34.0251L33.7629 21.004H35.7999ZM30.8728 17.6572L30.7082 21.004H32.7447L32.9744 17.6572H30.8728ZM27.7187 17.6572L27.6535 21.004H29.6896L29.8208 17.6572H27.7187ZM27.8176 12.6365L27.752 15.9832H29.8869L30.0182 12.6365H27.8176ZM27.9161 7.61436L27.8509 10.9611H30.0838L30.2155 7.61436H27.9161ZM31.365 7.61436L31.2005 10.9611H33.4339L33.6636 7.61436H31.365ZM31.1187 12.6365L30.9541 15.9832H33.0895L33.3192 12.6365H31.1187ZM34.4193 12.6365L34.1568 15.9832H36.2921L36.6203 12.6365H34.4193ZM34.551 10.9618H36.7844L36.973 9.0369C37.04 8.35715 36.7232 7.72679 36.2654 7.62866C36.2252 7.61956 36.1854 7.61501 36.1455 7.61501H34.8131L34.551 10.9618ZM17.8636 26.0248L17.6011 22.678H15.5974L15.9256 26.0248H17.8636ZM23.6134 22.6774H21.6088L21.7405 26.0241H23.679L23.6134 22.6774ZM20.6072 22.6774H18.6036L18.8328 26.0241H20.7713L20.6072 22.6774ZM15.4338 21.004H17.4698L17.2073 17.6572H15.1051L15.4338 21.004ZM20.3609 17.6572H18.2587L18.4876 21.004H20.5245L20.3609 17.6572ZM23.5145 17.6572H21.4115L21.5432 21.004H23.5797L23.5145 17.6572ZM23.416 12.6365H21.2146L21.3463 15.9832H23.4817L23.416 12.6365ZM23.318 7.61436H21.0181L21.1494 10.9611H23.3828L23.318 7.61436ZM19.8686 7.61436H17.5696L17.7989 10.9611H20.0327L19.8686 7.61436ZM20.1149 12.6365H17.9144L18.1437 15.9832H20.279L20.1149 12.6365ZM16.8139 12.6365H14.6133L14.9415 15.9832H17.076L16.8139 12.6365ZM16.6822 10.9618L16.4196 7.61501H15.0881C14.626 7.61501 14.2514 8.17259 14.2514 8.85819C14.2514 8.91862 14.2545 8.97971 14.2602 9.03755L14.4492 10.9624H16.6822" fill="#73002C"/>
<path d="M16.6541 35.9611C16.6541 33.7294 15.4368 31.9209 13.9341 31.9209C12.4319 31.9209 11.2146 33.7294 11.2146 35.9611C11.2146 38.1914 12.4324 39.9999 13.9341 39.9999C15.4368 39.9993 16.6541 38.1907 16.6541 35.9611Z" fill="#73002C"/>
<path d="M31.5178 35.9611C31.5178 33.7294 30.3004 31.9209 28.7978 31.9209C27.2956 31.9209 26.0774 33.7294 26.0774 35.9611C26.0774 38.1914 27.2956 39.9999 28.7978 39.9999C30.3004 39.9993 31.5178 38.1907 31.5178 35.9611Z" fill="#73002C"/>
</svg>
