<svg width="40" height="40" viewBox="0 0 40 40" fill="none" xmlns="http://www.w3.org/2000/svg">
<path d="M22.2958 27.1017C23.4496 27.1017 24.385 26.166 24.385 25.0118C24.385 23.8576 23.4496 22.9219 22.2958 22.9219C21.1419 22.9219 20.2065 23.8576 20.2065 25.0118C20.2065 26.166 21.1419 27.1017 22.2958 27.1017Z" fill="#73002C"/>
<path d="M35.5207 9.3554C34.9597 9.66779 34.3707 9.92702 33.7615 10.1297C33.7667 10.2154 33.7866 10.2959 33.7866 10.3826C33.7934 11.3969 33.4338 12.3796 32.7738 13.1497C32.1139 13.9198 31.198 14.4256 30.1949 14.5739C29.1918 14.7221 28.1688 14.5029 27.3144 13.9567C26.46 13.4104 25.8316 12.5737 25.5449 11.6008C25.2582 10.6278 25.3325 9.58398 25.7541 8.66146C26.1757 7.73894 26.9163 6.9998 27.8395 6.58011C28.7626 6.16042 29.8063 6.08843 30.7783 6.37738C31.7503 6.66632 32.5853 7.29677 33.1295 8.15266C33.857 7.89534 34.5519 7.55376 35.2 7.13488C35.0574 6.51465 34.7295 5.95253 34.2598 5.52322C33.7901 5.09392 33.201 4.81777 32.5706 4.7315L23.1398 3.47756C22.914 3.44751 22.6865 3.4325 22.4587 3.43263C21.0725 3.4301 19.7413 3.97498 18.7545 4.94885L0.917553 22.7955C0.330044 23.3834 0 24.1806 0 25.0119C0 25.8431 0.330044 26.6403 0.917553 27.2282L12.7677 39.0821C13.3554 39.6698 14.1524 40 14.9834 40C15.8144 40 16.6113 39.6698 17.199 39.0821L35.0401 21.2396C35.6061 20.67 36.0341 19.9782 36.2914 19.2175C36.5487 18.4568 36.6284 17.6472 36.5245 16.8508L35.5207 9.3554ZM7.67103 29.1917C6.84461 29.1917 6.03674 28.9465 5.34959 28.4872C4.66244 28.028 4.12687 27.3752 3.81061 26.6114C3.49435 25.8477 3.41161 25.0072 3.57283 24.1964C3.73406 23.3856 4.13203 22.6409 4.7164 22.0563C5.30077 21.4718 6.0453 21.0737 6.85585 20.9124C7.6664 20.7511 8.50655 20.8339 9.27007 21.1502C10.0336 21.4666 10.6862 22.0023 11.1453 22.6897C11.6045 23.3771 11.8495 24.1852 11.8495 25.0119C11.8495 26.1204 11.4093 27.1836 10.6257 27.9674C9.84205 28.7513 8.77924 29.1917 7.67103 29.1917ZM16.028 36.5063H13.9388V13.5174H16.028V36.5063ZM22.2957 29.1917C21.4693 29.1917 20.6614 28.9465 19.9743 28.4872C19.2871 28.028 18.7516 27.3752 18.4353 26.6114C18.1191 25.8477 18.0363 25.0072 18.1975 24.1964C18.3588 23.3856 18.7567 22.6409 19.3411 22.0563C19.9255 21.4718 20.67 21.0737 21.4806 20.9124C22.2911 20.7511 23.1313 20.8339 23.8948 21.1502C24.6583 21.4666 25.3109 22.0023 25.77 22.6897C26.2292 23.3771 26.4742 24.1852 26.4742 25.0119C26.4742 26.1204 26.034 27.1836 25.2504 27.9674C24.4668 28.7513 23.4039 29.1917 22.2957 29.1917Z" fill="#73002C"/>
<path d="M7.67103 27.1017C8.82489 27.1017 9.76028 26.166 9.76028 25.0118C9.76028 23.8576 8.82489 22.9219 7.67103 22.9219C6.51717 22.9219 5.58179 23.8576 5.58179 25.0118C5.58179 26.166 6.51717 27.1017 7.67103 27.1017Z" fill="#73002C"/>
<path d="M37.2558 0C36.6198 0.49271 36.0145 1.02384 35.4434 1.59041C34.9743 2.0596 34.546 2.53818 34.1449 3.02199C35.4217 3.5514 36.4361 4.56618 36.9654 5.84336C37.4281 5.45986 37.9055 5.03143 38.3944 4.54135C38.9649 3.97332 39.5011 3.37175 40 2.73986C38.9495 1.97364 38.0238 1.04942 37.2558 0Z" fill="#73002C"/>
<path d="M29.6081 8.29248C29.1952 8.29248 28.7915 8.41487 28.4481 8.64419C28.1047 8.87351 27.8369 9.19948 27.6786 9.58093C27.5202 9.96238 27.4785 10.3822 27.5585 10.7874C27.6385 11.1926 27.8368 11.565 28.1282 11.8576C28.4197 12.1501 28.7912 12.3498 29.196 12.4312C29.6008 12.5127 30.0207 12.4723 30.4026 12.3153C30.7844 12.1582 31.1112 11.8915 31.3417 11.5488C31.5721 11.2061 31.6959 10.8027 31.6973 10.3897C31.1608 10.332 30.6592 10.0954 30.2735 9.71779C29.903 9.32748 29.6694 8.82721 29.6081 8.29248Z" fill="#73002C"/>
</svg>
