<svg width="40" height="40" viewBox="0 0 40 40" fill="none" xmlns="http://www.w3.org/2000/svg">
<path d="M29.6727 32.1115C29.4031 32.3915 29.0722 32.5419 28.7342 32.5521C28.534 32.5574 28.3329 32.5146 28.1417 32.4195C27.9094 32.3035 27.7144 32.1121 27.5563 31.885C26.0078 34.4201 23.8172 36.2912 21.2858 37.117C22.6974 35.8792 23.8649 33.7453 24.6476 31.0473H27.222C27.2121 30.9902 27.1923 30.939 27.1871 30.8814L27.0525 29.5942H25.0187C25.4157 27.8159 25.6527 25.8438 25.6976 23.7462H26.4407L26.2887 22.2931H25.6976C25.6764 21.3198 25.6093 20.3757 25.5106 19.4648C25.1429 19.5939 24.7609 19.7211 24.3823 19.8483C24.4645 20.6426 24.5249 21.4536 24.5447 22.2931H20.4799L20.2457 23.7462H24.5442C24.4951 25.8515 24.2426 27.8391 23.8186 29.5942H18.9592V26.383L18.3682 26.9032C18.1968 27.056 18.0037 27.1405 17.8054 27.1922V29.5942H12.9461C12.7388 28.7345 12.5731 27.8171 12.4518 26.8592C12.3257 26.9235 12.1959 26.9883 12.0722 27.0549C11.8248 27.1874 11.6039 27.3194 11.3688 27.452C11.4721 28.1881 11.5939 28.9093 11.7455 29.5942H8.05977V29.593C7.72788 29.848 7.4111 30.1025 7.11745 30.3611C6.88565 30.5669 6.67461 30.769 6.47491 30.9694C8.74338 36.3352 13.2274 40 18.3819 40C23.2157 40 27.45 36.7698 29.8304 31.9444L29.6727 32.1115ZM8.72355 31.0473H12.117C12.9012 33.7453 14.0668 35.8792 15.4789 37.117C12.6741 36.2032 10.2805 34.0105 8.72355 31.0473ZM17.8054 36.8061C15.9722 36.4226 14.3732 34.2364 13.3577 31.0473H17.8054V36.8061ZM18.9592 31.0473H23.4069C22.3924 34.2346 20.7915 36.4226 18.9592 36.8061V31.0473Z" fill="#73002C"/>
<path d="M40 7.788C38.114 6.22612 34.1705 7.32841 29.7955 9.45452L22.1087 0L19.5192 0.111776L25.6985 11.6502C23.1563 13.1223 20.6381 14.7609 18.43 16.2752L15.2405 13.2418L13.9158 13.4362L17.2096 18.6617L17.4934 25.3254L18.5872 24.364L19.379 19.431C21.8292 18.7247 24.5792 17.8495 27.257 16.8317L28.6983 30.6288L30.6962 28.5508L31.4771 15.0575C35.8762 12.9962 39.4089 10.5307 40 7.788Z" fill="#73002C"/>
<path d="M21.6653 7.5571L21.0289 6.36859C20.1702 6.15337 19.2878 6.03564 18.3804 6.03564C11.6473 6.03564 6.067 12.2897 5.07086 20.4231C5.89941 19.636 6.70434 18.9439 7.4413 18.3416C7.61598 17.6894 7.81379 17.0497 8.05881 16.4426H9.9156C10.585 15.9569 11.2724 15.4717 11.9957 14.9896H8.72259C10.2786 12.0263 12.6732 9.83422 15.4784 8.9198C14.7268 9.57975 14.047 10.4995 13.4545 11.6179C13.5475 11.5804 13.64 11.5406 13.7396 11.5269L15.0644 11.3325C15.0724 11.3319 15.0818 11.3325 15.0889 11.3319C15.8901 10.1921 16.8107 9.43884 17.8045 9.23194V13.2713L18.5669 13.9972C18.7 13.9075 18.8261 13.8284 18.9583 13.7386V9.23194C20.0786 9.4656 21.1111 10.3812 21.9779 11.7796L23.4726 10.8848L21.6653 7.5571Z" fill="#73002C"/>
<path d="M15.7131 19.3771L13.6372 16.0845C12.227 16.9947 10.6526 18.0732 9.00728 19.3646C7.16985 20.8189 5.24083 22.4979 3.47186 24.6377C2.59374 25.7156 1.74962 26.9136 1.06507 28.3583C0.726569 29.0819 0.43292 29.8738 0.230859 30.7312C0.176567 30.9411 0.140215 31.167 0.0986699 31.3858C0.076481 31.4946 0.0660946 31.6087 0.049571 31.7205L0.00141632 32.1254L0 32.6201L0.0108584 33.349C0.0613736 34.2271 0.247383 35.1618 0.617513 35.9769C0.979145 36.7992 1.52206 37.4312 2.06215 37.8366C3.16074 38.647 4.19087 38.7796 5.07796 38.8456C6.85921 38.914 8.22642 38.5483 9.18291 38.3093C9.4808 38.2296 9.73149 38.1571 9.94394 38.0947C7.16796 37.911 5.43864 37.0726 4.51001 36.4377C4.24469 36.2682 3.99873 36.078 3.78864 35.8568C3.69186 35.7623 3.63898 35.7004 3.63898 35.7004L3.65692 35.6986C3.5998 35.6303 3.53323 35.5661 3.48508 35.4929C3.06679 34.8633 3.05593 34.2913 3.20417 33.4709C3.22967 33.3864 3.25186 33.3097 3.27027 33.2301L3.3831 32.755L3.38688 32.7414C3.39726 32.667 3.37649 32.8252 3.37932 32.8044L3.38546 32.7877L3.39585 32.7503L3.41662 32.6783C3.4322 32.6314 3.4407 32.5838 3.46005 32.5345C3.49735 32.4375 3.52284 32.3406 3.56769 32.2425C3.72443 31.8483 3.93877 31.447 4.20409 31.0487C4.73615 30.2502 5.45611 29.4856 6.245 28.787C7.83694 27.3892 9.69561 26.2447 11.4783 25.2881C13.0287 24.4593 14.5257 23.788 15.8769 23.2232L15.7131 19.3771Z" fill="#73002C"/>
</svg>
