<svg width="20" height="30" viewBox="0 0 20 30" fill="none" xmlns="http://www.w3.org/2000/svg">
<path d="M17 0H3C1.3457 0 0 1.26159 0 2.8125V27.1875C0 28.7384 1.3457 30 3 30H17C18.6543 30 20 28.7384 20 27.1875V2.8125C20 1.26159 18.6543 0 17 0ZM3 1.875H17C17.5518 1.875 18 2.29523 18 2.8125V22.5H2V2.8125C2 2.29523 2.44824 1.875 3 1.875ZM17 28.125H3C2.44824 28.125 2 27.7048 2 27.1875V24.375H18V27.1875C18 27.7048 17.5518 28.125 17 28.125Z" fill="#73002C"/>
<path d="M10.7072 25.5871C11.0977 25.9532 11.0977 26.5468 10.7072 26.913C10.3166 27.2791 9.68345 27.2791 9.29291 26.913C8.90236 26.5468 8.90236 25.9532 9.29291 25.5871C9.68345 25.221 10.3166 25.221 10.7072 25.5871Z" fill="#73002C"/>
</svg>
