<svg width="30" height="30" viewBox="0 0 30 30" fill="none" xmlns="http://www.w3.org/2000/svg">
<path d="M30 15C30 6.71471 23.2846 0 15 0C6.71471 0 0 6.71541 0 15C0 23.2853 6.71541 30 15 30C23.2853 30 30 23.2846 30 15ZM1.79482 15.8824H4.626C4.81229 18.0914 5.69106 20.1059 7.04406 21.7081L5.04282 23.7094C3.18447 21.5875 1.99241 18.8688 1.79482 15.8824ZM5.04282 6.29059L7.04412 8.29188C5.69106 9.89406 4.81229 11.9086 4.626 14.1176H1.79482C1.99241 11.1312 3.18447 8.41253 5.04282 6.29059ZM28.2052 14.1176H25.374C25.1877 11.9086 24.3089 9.89406 22.9559 8.29188L24.9572 6.29059C26.8155 8.41253 28.0076 11.1312 28.2052 14.1176ZM15 23.6471C10.232 23.6471 6.35294 19.768 6.35294 15C6.35294 10.232 10.232 6.35294 15 6.35294C19.768 6.35294 23.6471 10.232 23.6471 15C23.6471 19.768 19.768 23.6471 15 23.6471ZM21.7081 7.04412C20.1059 5.69106 18.0914 4.81229 15.8824 4.626V1.79482C18.8688 1.99241 21.5875 3.18447 23.7094 5.04282L21.7081 7.04412ZM14.1176 4.626C11.9086 4.81229 9.89406 5.69106 8.29188 7.04412L6.29059 5.04282C8.41253 3.18447 11.1312 1.99241 14.1176 1.79482V4.626ZM8.29188 22.9559C9.89406 24.3089 11.9086 25.1877 14.1176 25.3739V28.2051C11.1312 28.0075 8.41253 26.8154 6.29065 24.9571L8.29188 22.9559ZM15.8824 25.374C18.0914 25.1877 20.1059 24.3089 21.7081 22.9559L23.7094 24.9572C21.5875 26.8155 18.8688 28.0076 15.8824 28.2052V25.374H15.8824ZM22.9559 21.7081C24.3089 20.1059 25.1878 18.0914 25.374 15.8824H28.2052C28.0076 18.8688 26.8155 21.5875 24.9572 23.7094L22.9559 21.7081Z" fill="#73002C"/>
<circle cx="4" cy="19" r="1" fill="#73002C"/>
<circle cx="26" cy="11" r="1" fill="#73002C"/>
<circle cx="19" cy="26" r="1" fill="#73002C"/>
<circle cx="10" cy="4" r="1" fill="#73002C"/>
</svg>
