<svg width="40" height="40" viewBox="0 0 40 40" fill="none" xmlns="http://www.w3.org/2000/svg">
<path d="M25.1238 0C20.192 0 16.1797 2.69954 16.1797 6.01766C16.1797 7.92732 17.5179 9.70929 19.7811 10.844V11.3465C19.2299 11.6724 18.881 12.1498 18.881 12.6812C18.881 13.1491 19.1516 13.5752 19.5924 13.8928C19.1516 14.2105 18.881 14.6365 18.881 15.1044C18.881 15.9015 19.6649 16.5777 20.7415 16.8021C21.0878 18.2196 22.9205 19.3046 25.1238 19.3046C27.3271 19.3046 29.16 18.2196 29.5063 16.8021C30.5827 16.5775 31.3668 15.9015 31.3668 15.1042C31.3668 14.6365 31.0962 14.2104 30.6554 13.8927C31.0962 13.575 31.3668 13.1491 31.3668 12.6812C31.3668 12.1498 31.0179 11.6724 30.4664 11.3463V10.844C32.7297 9.70929 34.0679 7.92732 34.0679 6.01766C34.0679 2.69954 30.0555 0 25.1238 0ZM28.7255 12.0352C29.2548 12.0352 29.6856 12.325 29.6856 12.6812C29.6856 13.0374 29.2548 13.3273 28.7255 13.3273H21.5223C20.9928 13.3273 20.562 13.0374 20.562 12.6812C20.562 12.325 20.9928 12.0352 21.5223 12.0352H28.7255ZM25.1238 18.1735C23.8944 18.1735 22.8502 17.63 22.4936 16.8815H27.754C27.3976 17.6301 26.3532 18.1735 25.1238 18.1735ZM28.7255 15.7504H21.5223C20.9928 15.7504 20.562 15.4605 20.562 15.1044C20.562 14.7481 20.9928 14.4584 21.5223 14.4584H28.7255C29.2548 14.4584 29.6856 14.7481 29.6856 15.1044C29.6856 15.4605 29.2548 15.7504 28.7255 15.7504ZM29.1582 10.0813C28.9251 10.1863 28.7852 10.3626 28.7852 10.5513V10.9051C28.7653 10.9048 28.7454 10.904 28.7255 10.904H27.7651V8.67507L28.9722 7.86296C29.3005 7.64204 29.3005 7.28399 28.9722 7.06307C28.644 6.84215 28.1117 6.84215 27.7835 7.06307L26.3302 8.04088C26.1726 8.14692 26.0839 8.29067 26.0839 8.44075V10.904H24.1637V8.44075C24.1637 8.29081 24.075 8.14692 23.9174 8.04088L22.4641 7.06307C22.1359 6.84229 21.6038 6.84229 21.2754 7.06307C20.947 7.28399 20.947 7.64204 21.2754 7.86296L22.4825 8.67507V10.9042H21.5223C21.5022 10.9042 21.4823 10.9048 21.4624 10.9051V10.5513C21.4624 10.3626 21.3225 10.1863 21.0893 10.0813C19.0679 9.17083 17.8609 7.65176 17.8609 6.01766C17.8609 3.32313 21.1191 1.13113 25.1238 1.13113C29.1285 1.13113 32.3867 3.32313 32.3867 6.01766C32.3867 7.65176 31.1796 9.17083 29.1582 10.0813Z" fill="#73002C"/>
<path d="M14.2593 6.01771C14.2593 5.70533 13.883 5.45215 13.4187 5.45215H11.6179C11.1536 5.45215 10.7773 5.70533 10.7773 6.01771C10.7773 6.32995 11.1536 6.58328 11.6179 6.58328H13.4187C13.883 6.58328 14.2593 6.32995 14.2593 6.01771Z" fill="#73002C"/>
<path d="M38.6296 5.45215H36.8289C36.3648 5.45215 35.9883 5.70533 35.9883 6.01771C35.9883 6.32995 36.3648 6.58328 36.8289 6.58328H38.6296C39.0939 6.58328 39.4702 6.32995 39.4702 6.01771C39.4702 5.70533 39.0939 5.45215 38.6296 5.45215Z" fill="#73002C"/>
<path d="M14.5657 9.46548L13.0062 10.0713C12.6043 10.2275 12.4666 10.5733 12.6987 10.8439C12.8543 11.0254 13.1369 11.1267 13.4274 11.1267C13.5699 11.1267 13.7146 11.1024 13.8468 11.0508L15.4063 10.4452C15.8085 10.2889 15.9462 9.94312 15.7141 9.67256C15.4821 9.402 14.9679 9.30936 14.5657 9.46548Z" fill="#73002C"/>
<path d="M35.2605 2.64583C35.403 2.64583 35.5475 2.62138 35.6799 2.56998L37.2397 1.96406C37.6416 1.80794 37.7795 1.46212 37.5472 1.19156C37.315 0.921003 36.801 0.828362 36.399 0.984629L34.8393 1.5904C34.4374 1.74652 34.2995 2.09249 34.5318 2.3629C34.6874 2.54435 34.97 2.64583 35.2605 2.64583Z" fill="#73002C"/>
<path d="M37.2395 10.0711L35.68 9.46548C35.2779 9.30936 34.7637 9.402 34.5316 9.67256C34.2996 9.94297 34.4375 10.2889 34.8394 10.4451L36.3991 11.0507C36.5313 11.1021 36.6758 11.1265 36.8185 11.1265C37.109 11.1265 37.3916 11.0251 37.5473 10.8436C37.7795 10.5732 37.6416 10.2272 37.2395 10.0711Z" fill="#73002C"/>
<path d="M15.4064 1.59022L13.8469 0.984591C13.4448 0.828325 12.9308 0.921113 12.6988 1.19167C12.4665 1.46223 12.6044 1.80805 13.0063 1.96417L14.5658 2.56994C14.6983 2.62134 14.8427 2.64579 14.9852 2.64579C15.276 2.64579 15.5583 2.54431 15.7142 2.36286C15.9462 2.0923 15.8083 1.74648 15.4064 1.59022Z" fill="#73002C"/>
<path d="M5.42974 31.1943C5.39074 31.4841 5.67691 31.6239 6.07054 31.5063L10.9307 30.0535C11.7631 29.8002 12.5525 29.2141 12.9736 28.5781L14.007 28.277C14.5639 28.1144 15.0673 28.1185 15.4247 28.2889L21.5034 31.187C22.5819 31.7011 24.1024 31.7112 25.7853 31.2154C25.8545 31.1951 25.1919 31.4346 35.9281 27.4997C37.5109 26.9251 38.813 25.5499 38.8309 24.4337C38.8462 23.3268 37.5866 22.8863 36.0179 23.4448L29.9633 25.3452C30.1301 24.7009 29.9269 24.1529 29.3655 23.8852L24.2665 21.4543C23.9084 20.7595 23.3245 20.2159 22.5301 19.8372C20.3282 18.7874 17.1748 19.0394 13.8353 20.7386C13.5003 20.4367 12.8827 20.3692 12.1537 20.591L7.338 22.0609C6.94482 22.181 6.59567 22.512 6.55667 22.8018L5.42974 31.1943ZM21.4232 20.8879C22.1236 21.2218 22.6301 21.7066 22.9292 22.3291C22.9564 22.3858 23.0029 22.4305 23.066 22.4606L28.2586 24.9362C28.7544 25.1726 28.6838 25.8369 28.0665 26.423C27.4561 27.0026 26.5494 27.2784 26.045 27.038L22.3143 25.2593C22.0618 25.1389 21.6092 25.2766 21.3037 25.5667C20.998 25.857 20.9551 26.1897 21.2076 26.3101L24.9383 28.0887C25.9469 28.5696 27.7603 28.0179 28.9809 26.859C29.0782 26.7666 29.1689 26.6723 29.2542 26.5766C35.1115 24.7379 35.9358 24.4801 35.9742 24.4661C36.7657 24.1794 37.4032 24.3992 37.3954 24.9555C37.3864 25.5134 36.7354 26.2011 35.9405 26.4898L25.9053 30.1686C24.6106 30.5437 23.4413 30.5324 22.6101 30.1362L16.5314 27.2381C15.9357 26.9541 15.0961 26.947 14.1682 27.218L13.3258 27.4637L14.0788 21.6395C16.817 20.2338 19.4692 19.9563 21.4232 20.8879ZM12.0187 21.6421C12.352 21.5407 12.6164 21.6199 12.6628 21.8381C12.6835 21.9313 12.7067 21.5852 11.8496 28.2588C11.8112 28.5559 11.4489 28.8859 11.0722 29.0005L6.92886 30.239L7.91513 22.8946L12.0187 21.6421Z" fill="#73002C"/>
</svg>
