<svg width="30" height="30" viewBox="0 0 30 30" fill="none" xmlns="http://www.w3.org/2000/svg">
<path d="M28.75 4.94781H17.5L21.375 1.06472C21.625 0.814196 21.625 0.438413 21.375 0.187891C21.125 -0.0626305 20.75 -0.0626305 20.5 0.187891L15.75 4.94781H14.375L9.5 0.187891C9.25 -0.0626305 8.875 -0.0626305 8.625 0.187891C8.375 0.438413 8.375 0.814196 8.625 1.06472L12.5 4.94781H1.25C0.5 4.94781 0 5.44885 0 6.20042V28.7474C0 29.499 0.5 30 1.25 30H28.75C29.5 30 30 29.499 30 28.7474V6.20042C30 5.44885 29.5 4.94781 28.75 4.94781ZM27.5 27.4948H2.5V7.45303H27.5V27.4948Z" fill="#73002C"/>
<path d="M25 11.2108C25.6904 11.2108 26.25 10.65 26.25 9.95818C26.25 9.26638 25.6904 8.70557 25 8.70557C24.3096 8.70557 23.75 9.26638 23.75 9.95818C23.75 10.65 24.3096 11.2108 25 11.2108Z" fill="#73002C"/>
<path d="M25 14.9686C25.6904 14.9686 26.25 14.4078 26.25 13.716C26.25 13.0242 25.6904 12.4634 25 12.4634C24.3096 12.4634 23.75 13.0242 23.75 13.716C23.75 14.4078 24.3096 14.9686 25 14.9686Z" fill="#73002C"/>
<path d="M25 18.7264C25.6904 18.7264 26.25 18.1656 26.25 17.4738C26.25 16.782 25.6904 16.2212 25 16.2212C24.3096 16.2212 23.75 16.782 23.75 17.4738C23.75 18.1656 24.3096 18.7264 25 18.7264Z" fill="#73002C"/>
<path d="M20 8.70557H6.25C4.875 8.70557 3.75 9.83291 3.75 11.2108V23.7369C3.75 25.1147 4.875 26.2421 6.25 26.2421H20C21.375 26.2421 22.5 25.1147 22.5 23.7369V11.2108C22.5 9.83291 21.375 8.70557 20 8.70557ZM21.25 23.7369C21.25 24.4884 20.75 24.9895 20 24.9895H6.25C5.5 24.9895 5 24.4884 5 23.7369V11.2108C5 10.4592 5.5 9.95818 6.25 9.95818H20C20.75 9.95818 21.25 10.4592 21.25 11.2108V23.7369Z" fill="#73002C"/>
</svg>
