<svg width="29" height="30" viewBox="0 0 29 30" fill="none" xmlns="http://www.w3.org/2000/svg">
<path d="M14.512 0H14.4851C7.01744 0.0325012 0.794275 3.95622 0.0755032 9.08546C-0.275425 11.8085 0.614499 13.5656 2.37942 15.856C2.92538 16.5223 3.54929 17.1568 4.24451 17.753C4.72215 18.1849 5.17225 18.593 5.57293 19.029C6.47646 20.0146 7.0463 21.1283 7.23934 22.2869C6.23034 22.6943 5.67841 23.4821 5.84193 24.2807C6.00546 25.0795 6.85259 25.7307 7.98565 25.9291V28C7.98797 28.686 8.50043 29.3232 9.34292 29.6876C9.38571 29.7075 9.43115 29.7242 9.47925 29.7375C9.9068 29.9073 10.3907 29.9977 10.884 30H18.1301C19.7308 30 21.0284 29.1046 21.0284 28V25.9291C22.1667 25.7314 23.0175 25.0768 23.1784 24.2743C23.3392 23.4718 22.778 22.6824 21.7601 22.2789C21.9554 21.123 22.5253 20.0125 23.4268 19.029C23.8275 18.593 24.2773 18.1849 24.7549 17.753C25.4501 17.1568 26.074 16.5223 26.62 15.856C28.3843 13.5661 29.2748 11.8089 28.9249 9.08546C28.2051 3.95554 21.9806 0.0318146 14.512 0ZM9.81956 28.6729C9.57312 28.4901 9.43579 28.2497 9.4348 28V26.0001H16.4089L9.81956 28.6729ZM19.5792 28C19.5792 28.5523 18.9304 29 18.1301 29H11.8737L19.2691 26.0001H19.5792V28ZM20.3036 25.0001H8.71039C7.91002 25.0001 7.26124 24.5524 7.26124 24.0001C7.26124 23.4478 7.91002 23.0001 8.71039 23.0001H20.3036C21.104 23.0001 21.7528 23.4478 21.7528 24.0001C21.7528 24.5524 21.104 25.0001 20.3036 25.0001ZM11.6087 13H9.4348C8.63443 13 7.98565 12.5523 7.98565 12C7.98565 11.4478 8.63443 11.0001 9.4348 11.0001H10.1595C10.9599 11.0001 11.6087 11.4478 11.6087 12V13ZM14.507 14H15.9562V21.9999H13.0578V14H14.507ZM25.338 15.3859C24.8289 16.0046 24.2474 16.5932 23.5993 17.1465C23.1246 17.5765 22.6341 18.021 22.1999 18.4934C21.2247 19.557 20.5925 20.7529 20.3464 21.9999H17.4053V14H19.5792C21.1799 14 22.4775 13.1046 22.4775 12C22.4775 10.8955 21.1799 10.0001 19.5792 10.0001H18.8545C17.2537 10.0001 15.9562 10.8955 15.9562 12V13H13.0578V12C13.0578 10.8955 11.7603 10.0001 10.1595 10.0001H9.4348C7.83406 10.0001 6.53649 10.8955 6.53649 12C6.53649 13.1046 7.83406 14 9.4348 14H11.6087V21.9999H8.65102C8.40457 20.7529 7.77237 19.557 6.79654 18.4934C6.36202 18.021 5.87212 17.5765 5.39747 17.1465C4.74935 16.5932 4.16789 16.0046 3.65842 15.3859C1.9877 13.2179 1.19496 11.662 1.51802 9.17404C2.13065 4.54285 7.75877 0.997696 14.498 0.997696C21.2373 0.997696 26.8651 4.54285 27.4777 9.17404C27.7988 11.6624 27.0091 13.2186 25.338 15.3859ZM17.4053 13V12C17.4053 11.4478 18.0541 11.0001 18.8545 11.0001H19.5792C20.3796 11.0001 21.0284 11.4478 21.0284 12C21.0284 12.5523 20.3796 13 19.5792 13H17.4053Z" fill="#73002C"/>
</svg>
