<svg width="20" height="30" viewBox="0 0 20 30" fill="none" xmlns="http://www.w3.org/2000/svg">
<path d="M18.2422 16.9545H16.875V2.60436C16.875 1.8838 16.6127 1.2998 16.2891 1.2998C15.9654 1.2998 15.7031 1.8838 15.7031 2.60436V16.9545H4.29688V2.60436C4.29688 1.8838 4.03458 1.2998 3.71094 1.2998C3.3873 1.2998 3.125 1.8838 3.125 2.60436V16.9545H1.75781C0.788574 16.9545 0 18.7099 0 20.8682V28.6955C0 29.4158 0.262299 30.0001 0.585938 30.0001H19.4141C19.7377 30.0001 20 29.4158 20 28.6955V20.8682C20 18.7099 19.2114 16.9545 18.2422 16.9545ZM18.8281 27.391H1.17188V20.8682C1.17188 20.1486 1.43478 19.5636 1.75781 19.5636H18.2422C18.5652 19.5636 18.8281 20.1486 18.8281 20.8682V27.391Z" fill="#73002C"/>
<path d="M7.51392 4.89676C8.88477 1.84498 11.115 1.84498 12.4858 4.89676C12.6001 5.15156 12.7501 5.27896 12.9001 5.27896C13.05 5.27896 13.2 5.15156 13.3144 4.89676C13.5433 4.38751 13.5433 3.56129 13.3144 3.0517C11.4867 -1.01723 8.51292 -1.01723 6.68522 3.0517C6.45649 3.56129 6.45649 4.38717 6.68522 4.89676C6.9141 5.40602 7.28519 5.40602 7.51392 4.89676Z" fill="#73002C"/>
<path d="M11.2428 8.96874C11.3926 8.96874 11.5426 8.84134 11.6571 8.58655C11.8858 8.07729 11.8858 7.25107 11.6571 6.74182C11.2144 5.75593 10.6259 5.21338 9.99982 5.21338C9.37375 5.21338 8.78522 5.75593 8.34256 6.74182C8.11368 7.25107 8.11368 8.07695 8.34256 8.58655C8.57129 9.09614 8.94238 9.0958 9.17111 8.58655C9.39252 8.0936 9.68671 7.8225 9.99982 7.8225C10.3128 7.8225 10.6071 8.0936 10.8284 8.58655C10.9428 8.84134 11.0928 8.96874 11.2428 8.96874Z" fill="#73002C"/>
<path d="M8.24219 23.4772C8.24219 24.1974 7.97989 24.7817 7.65625 24.7817C7.33261 24.7817 7.07031 24.1974 7.07031 23.4772C7.07031 22.7566 7.33261 22.1726 7.65625 22.1726C7.97989 22.1726 8.24219 22.7566 8.24219 23.4772Z" fill="#73002C"/>
<path d="M10.5859 23.4772C10.5859 24.1974 10.3236 24.7817 10 24.7817C9.67636 24.7817 9.41406 24.1974 9.41406 23.4772C9.41406 22.7566 9.67636 22.1726 10 22.1726C10.3236 22.1726 10.5859 22.7566 10.5859 23.4772Z" fill="#73002C"/>
<path d="M12.9297 23.4772C12.9297 24.1974 12.6674 24.7817 12.3438 24.7817C12.0201 24.7817 11.7578 24.1974 11.7578 23.4772C11.7578 22.7566 12.0201 22.1726 12.3438 22.1726C12.6674 22.1726 12.9297 22.7566 12.9297 23.4772Z" fill="#73002C"/>
<path d="M10.5859 11.7362C10.5859 12.4564 10.3236 13.0408 10 13.0408C9.67636 13.0408 9.41406 12.4564 9.41406 11.7362C9.41406 11.0156 9.67636 10.4316 10 10.4316C10.3236 10.4316 10.5859 11.0156 10.5859 11.7362Z" fill="#73002C"/>
</svg>
