<svg width="30" height="30" viewBox="0 0 30 30" fill="none" xmlns="http://www.w3.org/2000/svg">
<path d="M18.5371 18.9182L12.0954 15.7755C11.8781 15.6696 11.6195 15.6799 11.412 15.8028C11.2046 15.9259 11.0782 16.1439 11.0782 16.3788V22.6641C11.0782 22.899 11.2046 23.117 11.412 23.2401C11.5242 23.3067 11.7812 23.3892 12.0954 23.2674L18.5371 20.1249C18.7729 20.0098 18.9216 19.7765 18.9216 19.5215C18.9216 19.2665 18.7729 19.0332 18.5371 18.9182ZM12.48 21.5645V17.4785L16.6677 19.5215L12.48 21.5645ZM29.7737 0.178494C29.6295 0.0505517 29.4368 -0.0130813 29.241 0.00224467L0.642679 2.2998C0.279405 2.32902 0 2.62194 0 2.97361V6.24106C0 6.43016 0.0820772 6.61061 0.226296 6.73863C0.356187 6.85388 0.525715 6.91721 0.700849 6.91721C0.720161 6.91721 0.739629 6.91638 0.759097 6.91488L29.3573 4.61733C29.7206 4.58811 30 4.29518 30 3.94351V0.676064C30 0.486968 29.9179 0.306511 29.7737 0.178494ZM28.5983 3.32138L1.4017 5.50631V3.59575L28.5983 1.41081V3.32138ZM29.2992 9.04309H21.4882C21.4859 9.04309 21.4835 9.04309 21.4812 9.04309H13.4678C13.466 9.04309 13.4641 9.04309 13.4622 9.04309H5.44871C5.4463 9.04302 5.44388 9.04302 5.44155 9.04309H0.700849C0.313747 9.04309 0 9.34578 0 9.71924V29.3239C0 29.6973 0.313747 30 0.700849 30H5.44155C5.44279 30 5.44396 30 5.44521 30C5.44638 30 5.44754 30 5.44871 30H13.4622C13.4641 30 13.466 30 13.4678 30H21.4812C21.4835 30 21.4859 30 21.4882 30H29.2992C29.6863 30 30 29.6973 30 29.3239V9.71924C30 9.34578 29.6863 9.04309 29.2992 9.04309ZM21.1743 10.3954L22.9735 12.3105H16.8455L15.0464 10.3954H21.1743ZM13.1545 10.3954L14.9537 12.3105H8.82564L7.02648 10.3954H13.1545ZM1.4017 10.3954H5.13473L6.93389 12.3105H1.4017V10.3954ZM5.13473 28.6477H1.4017V26.7326H6.93389L5.13473 28.6477ZM13.1545 28.6477H7.02648L8.82564 26.7326H14.9537L13.1545 28.6477ZM21.1743 28.6477H15.0464L16.8455 26.7326H22.9736L21.1743 28.6477ZM28.5983 28.6477H23.0661L24.8653 26.7326H28.5983V28.6477ZM28.5983 25.3803H24.5569C24.5556 25.3803 24.5544 25.3803 24.5532 25.3803H16.5372C16.5357 25.3803 16.5344 25.3803 16.5331 25.3803H8.51664C8.51578 25.3803 8.51493 25.3803 8.51399 25.3803H1.4017V13.6628H8.51399C8.51493 13.6628 8.51578 13.6628 8.51664 13.6628H16.533C16.5344 13.6628 16.5358 13.6628 16.5371 13.6628H24.5531C24.5543 13.6628 24.5556 13.6628 24.5567 13.6628H28.5981V25.3803H28.5983ZM28.5983 12.3105H24.8653L23.0661 10.3954H28.5983V12.3105Z" fill="#73002C"/>
</svg>
