<svg width="29" height="30" viewBox="0 0 29 30" fill="none" xmlns="http://www.w3.org/2000/svg">
<path d="M25.7249 11.613C23.9194 11.613 22.4507 13.1324 22.4507 15.0001V30.0001H28.9991V15.0001C28.9991 13.1324 27.5304 11.613 25.7249 11.613ZM28.0636 29.0324H23.3862V28.0646H28.0636V29.0324ZM28.0636 27.0969H23.3862V15.0001C23.3862 13.6661 24.4353 12.5808 25.7249 12.5808C27.0144 12.5808 28.0636 13.6661 28.0636 15.0001V27.0969Z" fill="#73002C"/>
<path d="M25.7235 13.5483C24.9499 13.5483 24.3203 14.1996 24.3203 15C24.3203 15.8003 24.9499 16.4516 25.7235 16.4516C26.4972 16.4516 27.1268 15.8003 27.1268 15C27.1268 14.1996 26.4972 13.5483 25.7235 13.5483ZM25.7235 15.4838C25.4658 15.4838 25.2558 15.2666 25.2558 15C25.2558 14.7333 25.4658 14.5161 25.7235 14.5161C25.9813 14.5161 26.1913 14.7333 26.1913 15C26.1913 15.2666 25.9813 15.4838 25.7235 15.4838Z" fill="#73002C"/>
<path d="M5.6129 13.8281V11.6129C5.6129 10.1773 4.59931 8.985 3.27419 8.75323V5.7629C4.59931 5.53161 5.6129 4.33935 5.6129 2.90323C5.6129 1.3021 4.35421 0 2.80645 0C1.25869 0 0 1.3021 0 2.90323C0 4.33887 1.0136 5.53113 2.33871 5.7629V8.75371C1.0136 8.985 0 10.1773 0 11.6129V30H5.6129V21.5903C5.98242 21.451 6.33089 21.2361 6.6265 20.9303L21.7098 5.32694L17.77 1.25129L5.6129 13.8281ZM0.935484 2.90323C0.935484 1.83581 1.77461 0.967742 2.80645 0.967742C3.83829 0.967742 4.67742 1.83581 4.67742 2.90323C4.67742 3.97065 3.83829 4.83871 2.80645 4.83871C1.77461 4.83871 0.935484 3.97065 0.935484 2.90323ZM2.80645 9.67742C3.83829 9.67742 4.67742 10.5455 4.67742 11.6129H0.935484C0.935484 10.5455 1.77461 9.67742 2.80645 9.67742ZM4.67742 29.0323H0.935484V28.0645H4.67742V29.0323ZM4.67742 27.0968H0.935484V12.5806H4.67742V14.7958L2.68718 16.8547C2.16097 17.3985 1.87097 18.1224 1.87097 18.8923C1.87097 19.6621 2.16097 20.386 2.68718 20.9303C3.23023 21.4921 3.94353 21.7727 4.65684 21.7727C4.66386 21.7727 4.6704 21.7708 4.67742 21.7708V27.0968ZM5.96511 20.2461C5.24339 20.9918 4.06936 20.9918 3.3481 20.2461C2.99916 19.8847 2.80645 19.4037 2.80645 18.8923C2.80645 18.3808 2.99916 17.9003 3.34856 17.5389L5.16808 15.6566L7.32671 18.8376L5.96511 20.2461ZM9.30947 16.7869L8.76502 15.9847L7.99932 16.5402L8.63779 17.4808L7.99792 18.1427L5.83929 14.9618L6.47916 14.2998L7.26544 15.4587L8.03113 14.9027L7.15084 13.6055L8.44602 12.2656L10.6051 15.4466L9.30947 16.7869ZM11.2763 14.7518L9.11769 11.5708L9.75757 10.9089L11.9162 14.0898L11.2763 14.7518ZM12.5883 13.3945L10.4292 10.214L11.6954 8.90419L13.8807 12.0576L12.5883 13.3945ZM14.551 11.3642L12.3657 8.21081L13.0065 7.5479L15.1918 10.7013L14.551 11.3642ZM15.8621 10.0079L13.6768 6.85403L14.9439 5.54323L17.1558 8.66952L15.8621 10.0079ZM17.8256 7.97661L15.6137 4.85081L16.2554 4.18694L18.4674 7.31274L17.8256 7.97661ZM19.1367 6.62032L16.9248 3.49403L17.77 2.61968L20.387 5.32694L19.1367 6.62032Z" fill="#73002C"/>
</svg>
