<svg width="30" height="30" viewBox="0 0 30 30" fill="none" xmlns="http://www.w3.org/2000/svg">
<g clip-path="url(#clip0)">
<path d="M30 23.9875L22.4469 19.2284C23.1631 17.9764 23.5728 16.5278 23.5728 14.9851C23.5728 13.637 23.2597 12.3608 22.703 11.2248V8.49037C22.703 5.23979 20.0583 2.59529 16.8077 2.59529H9.49493V0L0 5.98274L7.5531 10.7419C6.83693 11.9939 6.42723 13.4425 6.42723 14.9851C6.42723 16.3332 6.74034 17.6095 7.29721 18.7454V21.4799C7.29721 24.7305 9.94171 27.375 13.1923 27.375H20.5053V29.9702L30 23.9875ZM8.18665 14.9851C8.18665 11.2283 11.2431 8.17177 15 8.17177C18.7569 8.17177 21.8134 11.2283 21.8134 14.9851C21.8134 18.742 18.7569 21.7985 15 21.7985C11.2431 21.7985 8.18665 18.742 8.18665 14.9851ZM7.73529 8.77693L3.3007 5.98274L7.73529 3.18832V4.35471H16.8077C19.0881 4.35471 20.9434 6.21002 20.9434 8.49037V8.81287C19.4012 7.32719 17.3055 6.41212 15 6.41212C13.4063 6.41212 11.9131 6.84998 10.6332 7.61055H7.73529V8.77693ZM9.05663 21.1574C10.5991 22.6428 12.6945 23.5579 15 23.5579C16.5937 23.5579 18.0872 23.1203 19.3668 22.3595H22.2647V21.1933L26.6993 23.9875L22.2647 26.7819V25.6155H13.1923C10.9119 25.6155 9.05663 23.7602 9.05663 21.4799V21.1574Z" fill="#73002C"/>
<path d="M12.8187 17.75V15.28H12.2387V14.54H12.8187V13.82H12.2387V13.08H12.8187V10.61H14.3887L15.1687 13.08H16.0787V10.61H17.1887V13.08H17.7587V13.82H17.1887V14.54H17.7587V15.28H17.1887V17.75H15.6087L14.8087 15.28H13.9287V17.75H12.8187ZM13.8887 13.08H14.1687L13.8787 12.12H13.8387L13.8887 13.08ZM13.9287 14.54H14.5887L14.3687 13.82H13.9087L13.9287 14.54ZM15.6387 14.54H16.0987L16.0787 13.82H15.4087L15.6387 14.54ZM16.1087 16.19H16.1587L16.1187 15.28H15.8487L16.1087 16.19Z" fill="#73002C"/>
</g>
<defs>
<clipPath id="clip0">
<rect width="30" height="30" fill="white"/>
</clipPath>
</defs>
</svg>
