<svg width="30" height="30" viewBox="0 0 30 30" fill="none" xmlns="http://www.w3.org/2000/svg">
<path d="M23.5189 26.4417L9.75499 12.2919C9.75498 12.2919 9.75496 12.2918 9.75494 12.2918C9.24921 11.7719 8.59097 11.6497 8.02278 11.6292C7.65193 11.6159 7.21469 11.6472 6.80491 11.6766C6.62251 11.6897 6.44554 11.7024 6.28229 11.7106C5.16154 11.7668 4.09789 11.677 3.14426 10.7414L0.929369 6.80121L2.81515 8.73916C2.8152 8.73921 2.81526 8.73927 2.81531 8.73933C3.55612 9.50095 4.65095 9.50462 5.49783 9.30392C6.3737 9.09635 7.25894 8.61559 7.83185 8.02663C8.40719 7.43517 8.87255 6.52919 9.07282 5.63787C9.26598 4.77818 9.26252 3.67556 8.5305 2.92321C8.53049 2.92319 8.53047 2.92318 8.53045 2.92316L6.6147 0.953952L6.6217 0.946754L10.4208 3.20361C11.3413 4.1953 11.423 5.2934 11.3621 6.44792C11.3534 6.61187 11.3407 6.78762 11.3276 6.96821C11.2969 7.3928 11.2642 7.84413 11.278 8.23182C11.2986 8.81373 11.4209 9.47706 11.928 9.99821C11.928 9.99824 11.928 9.99826 11.928 9.99828L25.7468 24.2045C25.5598 24.1357 25.3603 24.0992 25.1562 24.0992C24.6895 24.0992 24.2462 24.29 23.9227 24.6226C23.7627 24.7871 23.6368 24.9813 23.5513 25.1935L24.247 25.4738L23.5513 25.1935C23.4658 25.4057 23.422 25.6325 23.422 25.861C23.422 26.0586 23.4548 26.255 23.5189 26.4417Z" stroke="#73002C" stroke-width="1.5"/>
<path d="M25.881 7.80115H25.5642L25.3434 8.02819L17.6451 15.9421L17.3188 15.6067L25.046 7.663L25.2583 7.44465V7.14004V6.09202L28.0116 3.91484L29.0146 4.94596L26.8781 7.80115H25.881Z" stroke="#73002C" stroke-width="1.5"/>
<path d="M26.2854 7.80117L28.859 5.15547L26.8793 7.80117H26.2854Z" stroke="#73002C" stroke-width="1.5"/>
<path d="M14.9858 15.551L15.3878 15.1418L18.0841 17.8858L17.6638 18.3136L7.06613 29.0989C7.06612 29.0989 7.0661 29.0989 7.06609 29.0989C6.97663 29.1899 6.90823 29.2236 6.86604 29.2372C6.82512 29.2504 6.77788 29.2549 6.71342 29.2422C6.56591 29.213 6.33979 29.093 6.06987 28.8184L4.66461 27.3881L4.66351 27.387C4.57964 27.302 4.51194 27.1996 4.46537 27.0851C4.41878 26.9706 4.39453 26.8471 4.39453 26.7218C4.39453 26.5965 4.41878 26.473 4.46537 26.3585C4.51194 26.244 4.57964 26.1416 4.66351 26.0566L4.66461 26.0555L14.9858 15.551ZM14.7512 14.261C14.7513 14.2611 14.7513 14.2611 14.7514 14.2612L14.7512 14.2611L14.7512 14.261Z" stroke="#73002C" stroke-width="1.5"/>
<path d="M6.06969 28.8187L5.95404 28.7009L16.3411 18.0228L17.1414 18.8454L7.06596 29.0992C7.06594 29.0992 7.06593 29.0992 7.06592 29.0992C6.97646 29.1903 6.90806 29.2239 6.86587 29.2375C6.82494 29.2507 6.77771 29.2552 6.71325 29.2425C6.56576 29.2133 6.3397 29.0934 6.06985 28.8188C6.0698 28.8188 6.06974 28.8187 6.06969 28.8187Z" stroke="#73002C" stroke-width="1.5"/>
</svg>
