<svg width="29" height="30" viewBox="0 0 29 30" fill="none" xmlns="http://www.w3.org/2000/svg">
<path d="M8.21196 26.5001H13.533C13.7999 26.5001 14.0163 26.2762 14.0163 26.0001C14.0163 25.7239 13.7999 25.5001 13.533 25.5001L8.21631 25.5036L11.0312 20.8036L11.2289 21.6796C11.2799 21.9058 11.4747 22.0659 11.6992 22.0661C11.7365 22.0661 11.7736 22.0617 11.8099 22.0531C12.0695 21.9902 12.2308 21.7217 12.1705 21.4531L11.7045 19.3871C11.6437 19.1185 11.3842 18.9516 11.1245 19.0141L9.12739 19.4961C8.87318 19.564 8.7179 19.8295 8.77765 20.0939C8.8374 20.3584 9.09032 20.5252 9.34731 20.4696L10.2217 20.2586L7.39464 24.9776C7.21011 25.2847 7.20093 25.6712 7.37066 25.9874C7.54038 26.3035 7.86237 26.4998 8.21196 26.5001Z" fill="#73002C"/>
<path d="M12.1874 17.9265C12.2965 17.9963 12.4279 18.0184 12.5527 17.9879C12.6775 17.9574 12.7855 17.8769 12.8529 17.764L14.4958 15L17.971 20.808L17.1048 20.6C16.8448 20.5372 16.5848 20.7043 16.5241 20.9732C16.4634 21.2422 16.6249 21.5112 16.8849 21.574L18.8816 22.056C18.9177 22.0645 18.9547 22.0689 18.9918 22.069C19.2164 22.069 19.4115 21.9089 19.4625 21.6825L19.928 19.6165C19.9803 19.3512 19.819 19.091 19.5642 19.0296C19.3093 18.9681 19.0534 19.1276 18.9869 19.3895L18.7878 20.2735L15.3175 14.4735C15.1433 14.1795 14.8339 14.0002 14.5006 14.0002C14.1673 14.0002 13.8579 14.1795 13.6838 14.4735L12.0308 17.2385C11.8905 17.4732 11.9606 17.7812 12.1874 17.9265Z" fill="#73002C"/>
<path d="M19.7422 23.7645L20.7901 25.5H16.6334L17.2583 24.8535C17.4222 24.6548 17.4105 24.3591 17.2316 24.1748C17.0527 23.9905 16.7668 23.9797 16.5754 24.15L15.1254 25.65C14.9367 25.8453 14.9367 26.1618 15.1254 26.357L16.5754 27.857C16.765 28.0465 17.0665 28.0438 17.2529 27.8509C17.4394 27.6581 17.442 27.3462 17.2588 27.15L16.6339 26.5H20.7905C21.1395 26.4981 21.4602 26.3013 21.6291 25.9854C21.798 25.6695 21.7888 25.2839 21.605 24.977L20.5643 23.238C20.4216 23.0086 20.1276 22.9399 19.9034 23.0835C19.6792 23.2272 19.6077 23.5302 19.7427 23.7645H19.7422Z" fill="#73002C"/>
<path d="M27.55 7.5C28.3508 7.5 29 6.82843 29 6V2.5C28.9984 1.11997 27.9174 0.00165306 26.5833 0H18.85C17.516 0.00165306 16.4349 1.11997 16.4333 2.5V4.733L15.196 3.8775C15.0625 3.78578 14.9826 3.63076 14.9833 3.465V2.861C15.2814 2.68379 15.4656 2.35566 15.4667 2V1C15.4667 0.447715 15.0339 0 14.5 0H12.5667C12.0328 0 11.6 0.447715 11.6 1V2C11.601 2.35566 11.7852 2.68379 12.0833 2.861V3.465C12.0838 3.63173 12.0029 3.78745 11.8682 3.879L10.1766 5.0475C10.0348 4.83902 9.86278 4.65436 9.66667 4.5L9.17415 4.1175C9.62721 3.7067 9.78616 3.04812 9.57294 2.46523C9.35971 1.88234 8.81912 1.49761 8.21667 1.5H4.35C3.74755 1.49761 3.20695 1.88234 2.99373 2.46523C2.78051 3.04812 2.93946 3.7067 3.39252 4.1175L2.9 4.5C2.2929 4.97337 1.93515 5.71355 1.93333 6.5V9H0.966667C0.432791 9 0 9.44771 0 10V12C0 12.5523 0.432791 13 0.966667 13H1.05608L4.12138 28.4035C4.30901 29.3315 5.09862 29.9972 6.01508 30H22.9849C23.9014 29.9972 24.691 29.3315 24.8786 28.4035L27.9439 13H28.0333C28.5672 13 29 12.5523 29 12V10C29 9.44771 28.5672 9 28.0333 9H25.1333V7.5H27.55ZM26.5833 1C27.3841 1 28.0333 1.67157 28.0333 2.5V6C28.0333 6.27614 27.8169 6.5 27.55 6.5H25.1333V2.5C25.1333 1.67157 25.7825 1 26.5833 1ZM10.6333 9V8H16.9167V9H10.6333ZM12.5667 1H14.5V2H12.5667V1ZM12.4028 4.712C12.808 4.43581 13.0513 3.96696 13.05 3.465V3H14.0167V3.465C14.0152 3.96598 14.2575 4.43409 14.6614 4.7105L16.704 6.1225C16.8375 6.21421 16.9174 6.36924 16.9167 6.535L16.9167 7H10.6333V6.5C10.6326 6.32339 10.6135 6.14737 10.5763 5.975L12.4028 4.712ZM4.35 2.5H8.21667C8.4836 2.5 8.7 2.72386 8.7 3C8.7 3.27614 8.4836 3.5 8.21667 3.5H4.35C4.08306 3.5 3.86667 3.27614 3.86667 3C3.86667 2.72386 4.08306 2.5 4.35 2.5ZM3.48 5.3L4.51095 4.5H8.05572L9.08667 5.3C9.31189 5.47866 9.48106 5.72219 9.5729 6H2.99377C3.08587 5.72233 3.25498 5.47887 3.48 5.3ZM2.9 7H9.66667V9H2.9V7ZM23.9318 28.2C23.8386 28.6646 23.4436 28.9983 22.9849 29H6.01508C5.55637 28.9983 5.16144 28.6646 5.06823 28.2L2.04305 13H26.9569L23.9318 28.2ZM28.0333 12H0.966667V10H28.0333V12ZM17.8833 9V6.535C17.8808 6.11391 17.705 5.71387 17.4 5.435V2.5C17.4 1.67157 18.0492 1 18.85 1H24.65C24.3354 1.43228 24.1657 1.95892 24.1667 2.5V9H17.8833Z" fill="#73002C"/>
<path d="M22.7167 3H18.85C18.5831 3 18.3667 3.22386 18.3667 3.5C18.3667 3.77614 18.5831 4 18.85 4H22.7167C22.9836 4 23.2 3.77614 23.2 3.5C23.2 3.22386 22.9836 3 22.7167 3Z" fill="#73002C"/>
<path d="M22.7168 5H19.3334C19.0665 5 18.8501 5.22386 18.8501 5.5C18.8501 5.77614 19.0665 6 19.3334 6H22.7168C22.9837 6 23.2001 5.77614 23.2001 5.5C23.2001 5.22386 22.9837 5 22.7168 5Z" fill="#73002C"/>
<path d="M22.7168 7H19.3334C19.0665 7 18.8501 7.22386 18.8501 7.5C18.8501 7.77614 19.0665 8 19.3334 8H22.7168C22.9837 8 23.2001 7.77614 23.2001 7.5C23.2001 7.22386 22.9837 7 22.7168 7Z" fill="#73002C"/>
</svg>
