<svg width="29" height="30" viewBox="0 0 29 30" fill="none" xmlns="http://www.w3.org/2000/svg">
<g clip-path="url(#clip0)">
<path d="M28.5169 9.4999H25.1336C24.8666 9.4999 24.6502 9.72377 24.6502 9.9999V11.4999H20.3003V10.9999C20.3003 10.7238 20.0839 10.4999 19.8169 10.4999H17.8836V7.99992C17.8836 7.72379 17.6672 7.49992 17.4003 7.49992H15.9503V4.49995H17.352L20.2428 5.09995C21.3628 5.33157 22.4523 4.58001 22.6762 3.42134C22.9001 2.26266 22.1736 1.13561 21.0535 0.903991C20.786 0.848679 20.5104 0.848679 20.2428 0.903991L17.352 1.49998H15.9503V0.499995C15.9503 0.223873 15.7339 0 15.467 0H13.5337C13.2668 0 13.0504 0.223873 13.0504 0.499995V1.49998H11.6487L8.75743 0.899991C7.63738 0.666993 6.54681 1.41742 6.32158 2.5761C6.09635 3.73477 6.82176 4.86295 7.94181 5.09595C8.07576 5.12382 8.21199 5.13788 8.34859 5.13795C8.48592 5.13788 8.62282 5.12382 8.75749 5.09595L11.6487 4.49995H13.0504V7.49992H11.6004C11.3334 7.49992 11.117 7.72379 11.117 7.99992V10.4999H9.18373C8.91681 10.4999 8.7004 10.7238 8.7004 10.9999V11.9999H6.28376C2.81527 12.004 0.00447574 14.9117 0.000488281 18.4998V21.4998C0.000488281 21.7759 0.216899 21.9998 0.483817 21.9998H5.3171C5.58402 21.9998 5.80043 21.7759 5.80043 21.4998V18.4998C5.80043 18.2237 6.01684 17.9998 6.28376 17.9998H8.7004V18.9998C8.7004 19.2759 8.91681 19.4998 9.18373 19.4998H19.8169C20.0839 19.4998 20.3003 19.2759 20.3003 18.9998V18.4998H24.6502V19.9998C24.6502 20.2759 24.8666 20.4998 25.1336 20.4998H28.5169C28.7838 20.4998 29.0002 20.2759 29.0002 19.9998V9.9999C29.0002 9.72377 28.7838 9.4999 28.5169 9.4999ZM15.9503 2.49997H17.4003C17.4328 2.50029 17.4652 2.49691 17.497 2.48997L20.4346 1.88248C21.0312 1.75942 21.6113 2.15998 21.7303 2.77716C21.8492 3.39434 21.462 3.9944 20.8654 4.11746C20.7232 4.14677 20.5768 4.14677 20.4346 4.11746L17.4969 3.50996C17.4651 3.50303 17.4328 3.49965 17.4002 3.49996H15.9503V2.49997H15.9503ZM8.7004 16.9998H6.28376C5.48294 16.9998 4.83377 17.6714 4.83377 18.4998V20.9998H0.967145V18.4998C0.970589 15.4638 3.34893 13.0034 6.28376 12.9999H8.7004V16.9998ZM14.017 0.99999H14.9837V1.49998H14.017V0.99999ZM14.017 2.49997H14.9837V3.49996H14.017V2.49997ZM14.017 4.49995H14.9837V7.49992H14.017V4.49995ZM11.6004 3.49996C11.5679 3.49965 11.5355 3.50303 11.5037 3.50996L8.56603 4.11746C7.96942 4.24052 7.38937 3.83996 7.27041 3.22278C7.15145 2.6056 7.53866 2.00554 8.13527 1.88248C8.27748 1.85317 8.42387 1.85317 8.56609 1.88248L11.5038 2.48997C11.5355 2.49691 11.5679 2.50029 11.6004 2.49997H13.0504V3.49996H11.6004ZM12.0837 8.49991H16.917V10.4999H12.0837V8.49991ZM19.3336 18.4998H9.66705V11.4999H19.3336V18.4998ZM24.6502 17.4998H20.3003V12.4999H24.6502V17.4998ZM28.0335 19.4998H25.6169V10.4999H28.0335V19.4998Z" fill="#73002C"/>
<path d="M5.0529 26.5794L3.32597 23.2629C3.17747 23.0196 2.86638 22.947 2.63124 23.1006C2.56793 23.142 2.51434 23.1974 2.47434 23.2629L0.747412 26.5794C0.380808 27.2758 0.399235 28.1212 0.795745 28.7999C1.24168 29.5578 2.04255 30.0145 2.90016 29.9998C3.75776 30.0145 4.55864 29.5578 5.00457 28.7999C5.40108 28.1212 5.41951 27.2758 5.0529 26.5794ZM4.17518 28.2869C3.90252 28.7417 3.41732 29.013 2.90016 28.9998C2.383 29.013 1.89779 28.7417 1.62514 28.2869C1.40202 27.9107 1.39205 27.4393 1.59904 27.0534L2.90016 24.5534L4.20128 27.0534C4.40826 27.4393 4.39829 27.9107 4.17518 28.2869Z" fill="#73002C"/>
</g>
<defs>
<clipPath id="clip0">
<rect width="29" height="30" fill="white"/>
</clipPath>
</defs>
</svg>
