<svg width="30" height="18" viewBox="0 0 30 18" fill="none" xmlns="http://www.w3.org/2000/svg">
<path d="M8.4082 17.3496C10.4648 17.3496 12.3457 16.6114 13.7871 15.3809C12.9961 14.4492 12.3985 13.377 12.0117 12.2168C11.1328 13.2012 9.84961 13.834 8.4082 13.834C5.73627 13.834 3.51562 11.6719 3.51562 9C3.51562 6.32807 5.73627 4.16602 8.4082 4.16602C11.097 4.16602 13.2422 6.3634 13.2422 9C13.2422 13.5751 16.948 17.3496 21.5918 17.3496C26.1973 17.3496 30 13.6055 30 9C30 4.39453 26.1973 0.650391 21.5918 0.650391C19.5352 0.650391 17.6543 1.38861 16.2129 2.61914C17.0039 3.55084 17.6015 4.62305 17.9883 5.7832C18.8672 4.79883 20.1503 4.16607 21.5918 4.16607C24.2637 4.16607 26.4844 6.32813 26.4844 9.00006C26.4844 11.672 24.2637 13.834 21.5918 13.834C18.903 13.834 16.7578 11.6367 16.7578 9.00006C16.7578 4.42494 13.052 0.650449 8.4082 0.650449C3.80273 0.650391 0 4.39453 0 9C0 13.6055 3.80273 17.3496 8.4082 17.3496Z" fill="#323A5D"/>
</svg>
