<svg width="72" height="72" viewBox="0 0 72 72" fill="none" xmlns="http://www.w3.org/2000/svg">
<circle cx="36" cy="36" r="35" stroke="#323A5D" stroke-opacity="0.7" stroke-dasharray="2 5"/>
<g clip-path="url(#clip0)">
<path d="M28.3096 45.7412C30.7089 45.7412 32.9033 44.88 34.585 43.4443C33.6621 42.3574 32.9649 41.1064 32.5137 39.7529C31.4883 40.9014 29.9912 41.6396 28.3096 41.6396C25.1923 41.6396 22.6016 39.1173 22.6016 36C22.6016 32.8827 25.1923 30.3604 28.3096 30.3604C31.4464 30.3604 33.9492 32.924 33.9492 36C33.9492 41.3376 38.2727 45.7412 43.6904 45.7412C49.0635 45.7412 53.5 41.373 53.5 36C53.5 30.627 49.0635 26.2588 43.6904 26.2588C41.2911 26.2588 39.0967 27.12 37.415 28.5557C38.3379 29.6426 39.0351 30.8936 39.4863 32.2471C40.5117 31.0986 42.0087 30.3604 43.6904 30.3604C46.8077 30.3604 49.3984 32.8828 49.3984 36.0001C49.3984 39.1173 46.8077 41.6397 43.6904 41.6397C40.5536 41.6397 38.0508 39.0761 38.0508 36.0001C38.0508 30.6624 33.7273 26.2589 28.3096 26.2589C22.9365 26.2588 18.5 30.627 18.5 36C18.5 41.373 22.9365 45.7412 28.3096 45.7412Z" fill="#323A5D" fill-opacity="0.9"/>
</g>
<defs>
<clipPath id="clip0">
<rect x="18.5" y="18.5" width="35" height="35" fill="white"/>
</clipPath>
</defs>
</svg>
