<svg width="80" height="80" viewBox="0 0 80 80" fill="none" xmlns="http://www.w3.org/2000/svg">
<path d="M72.9041 43.8611C72.9041 63.8202 56.7224 80 36.7639 80C31.8677 80 27.2003 79.0265 22.9431 77.2619C11.3074 72.442 2.73682 61.7187 0.964966 48.8281C0.739746 47.2046 0.625 45.5463 0.625 43.8611C0.625 23.9008 16.8048 7.72095 36.7639 7.72095C56.7224 7.72095 72.9041 23.9008 72.9041 43.8611Z" fill="#937DE2"/>
<path d="M36.764 7.72095C34.853 7.72095 32.9774 7.87048 31.147 8.15613C48.4388 10.8545 61.6707 25.8112 61.6707 43.8611C61.6707 61.9086 48.4401 76.8646 31.1494 79.5642C32.9792 79.8498 34.8536 80 36.7634 80C56.7225 80 72.9042 63.8202 72.9042 43.8611C72.9042 23.9008 56.7225 7.72095 36.764 7.72095Z" fill="#7570D6"/>
<path d="M77.4163 41.1896L56.7797 54.8547C55.3093 55.8289 53.5283 56.2152 51.7876 55.9369C50.0426 55.6592 48.2573 56.04 46.7833 57.016L44.0215 58.8464L28.5552 36.048L32.3497 19.6551C32.6445 18.3789 32.7904 17.0856 32.7904 15.7971C32.7904 12.464 31.8157 9.17418 29.9462 6.35008C29.4866 5.6555 29.2668 4.86998 29.2668 4.09422C29.2668 2.76853 29.9102 1.46787 31.0991 0.68052C32.7013 -0.380881 34.8247 -0.183738 36.2041 1.15415L38.6626 3.53514C41.4739 6.2628 43.6425 9.58372 45.0042 13.2568L46.3372 16.8457L60.0646 7.77586C62.257 6.32444 65.2227 6.95921 66.6228 9.20469C67.9729 11.3678 67.2796 14.2261 65.1525 15.6341C65.1269 15.6512 65.125 15.6787 65.1336 15.6994C65.1458 15.722 65.1714 15.7373 65.2001 15.7251C65.7427 15.5163 66.3103 15.415 66.8731 15.415C67.7715 15.415 68.662 15.6738 69.4237 16.1664C69.9486 16.5057 70.4137 16.9568 70.7805 17.511C71.4892 18.5815 71.7003 19.837 71.4684 21.004C71.1046 22.8424 69.7686 23.7897 69.5061 23.9679C69.4616 23.999 69.4494 24.0607 69.4805 24.107C69.4805 24.1083 69.4823 24.1101 69.4835 24.1101C69.5128 24.1516 69.5727 24.1632 69.6154 24.1363C69.9895 24.0454 70.3704 24.0021 70.7512 24.0021C71.6808 24.0021 72.6055 24.2663 73.3916 24.7674C73.9232 25.1074 74.3932 25.5566 74.757 26.1072C76.184 28.2617 75.5944 31.1658 73.4374 32.5934C73.3843 32.6294 73.3312 32.6654 73.2781 32.6996C73.2476 32.724 73.2384 32.7631 73.2543 32.7905C73.2573 32.7972 73.2647 32.8046 73.2714 32.8076C73.2952 32.8265 73.333 32.8284 73.3642 32.8046C74.7039 32.348 76.162 32.5555 77.3351 33.3154C77.8753 33.6621 78.3544 34.129 78.7334 34.7015C80.161 36.8579 79.5708 39.762 77.4163 41.1896Z" fill="#FDD7BD"/>
<path d="M44.2175 63.1732L35.5115 68.9386L22.9425 77.262C11.3068 72.4414 2.73621 61.72 0.964355 48.8281L15.5505 39.1687L24.4299 33.288C25.4523 32.6105 26.8317 32.8919 27.5092 33.916L44.8456 60.0922C45.5231 61.1164 45.2417 62.4933 44.2175 63.1732Z" fill="#87DBFF"/>
<path d="M44.2178 63.1732L35.5117 68.9386L15.5508 39.1687L24.4302 33.288C25.4525 32.6105 26.8319 32.8919 27.5094 33.916L44.8458 60.0916C45.5233 61.1164 45.2419 62.4933 44.2178 63.1732Z" fill="#6FC7FF"/>
<path d="M69.4227 16.1658L62.5557 19.8407C61.5815 20.3607 60.3737 20.0891 59.7188 19.2023L65.1326 15.6995C65.1448 15.722 65.1704 15.7373 65.1991 15.7251C65.7417 15.5164 66.3093 15.415 66.8721 15.415C67.7711 15.415 68.661 15.6738 69.4227 16.1658Z" fill="#FAC5AA"/>
<path d="M73.391 24.7675L66.6735 28.3594C65.6993 28.8812 64.4915 28.6102 63.8359 27.7234L69.2498 24.22L69.4835 24.1101C69.5128 24.1516 69.5726 24.1632 69.6154 24.1364C69.9895 24.0454 70.3704 24.0021 70.7512 24.0021C71.6808 24.0021 72.6055 24.2664 73.391 24.7675Z" fill="#FAC5AA"/>
<path d="M77.3344 33.3154L71.4176 36.4807C70.4447 37.0001 69.2374 36.7291 68.5801 35.8423L73.27 32.8076C73.2945 32.8266 73.3323 32.8284 73.3628 32.804C74.7025 32.348 76.1607 32.5556 77.3344 33.3154Z" fill="#FAC5AA"/>
</svg>
