<svg width="40" height="28" viewBox="0 0 40 28" fill="none" xmlns="http://www.w3.org/2000/svg">
<path d="M14.75 17.9375L16.75 10.0625H19.875L17.9375 17.9375H14.75Z" fill="#3C58BF"/>
<path d="M14.75 17.9375L17.3125 10.0625H19.875L17.9375 17.9375H14.75Z" fill="#293688"/>
<path d="M29.25 10.1503C28.625 9.97529 27.625 9.80029 26.375 9.80029C23.25 9.80029 21 10.894 21 12.469C21 13.6503 22.5625 14.2628 23.8125 14.6565C25.0625 15.0503 25.4375 15.3128 25.4375 15.6628C25.4375 16.1878 24.4375 16.4503 23.5625 16.4503C22.3125 16.4503 21.625 16.319 20.5625 16.0128L20.125 15.8815L19.6875 17.6753C20.4375 17.894 21.8125 18.1128 23.25 18.1128C26.5625 18.1128 28.75 17.019 28.75 15.3565C28.75 14.4378 27.9375 13.7378 26.0625 13.169C24.9375 12.7753 24.25 12.5565 24.25 12.1628C24.25 11.8128 24.8125 11.4628 26.0625 11.4628C27.125 11.4628 27.875 11.594 28.4375 11.769L28.75 11.8565L29.25 10.1503Z" fill="#3C58BF"/>
<path d="M29.25 10.1503C28.625 9.97529 27.625 9.80029 26.375 9.80029C23.25 9.80029 21.5625 10.894 21.5625 12.469C21.5625 13.6503 22.5625 14.2628 23.8125 14.6565C25.0625 15.0503 25.4375 15.3128 25.4375 15.6628C25.4375 16.1878 24.4375 16.4503 23.5625 16.4503C22.3125 16.4503 21.625 16.319 20.5625 16.0128L20.125 15.8815L19.6875 17.6753C20.4375 17.894 21.8125 18.1128 23.25 18.1128C26.5625 18.1128 28.75 17.019 28.75 15.3565C28.75 14.4378 27.9375 13.7378 26.0625 13.169C24.9375 12.7753 24.25 12.5565 24.25 12.1628C24.25 11.8128 24.8125 11.4628 26.0625 11.4628C27.125 11.4628 27.875 11.594 28.4375 11.769L28.75 11.8565L29.25 10.1503Z" fill="#293688"/>
<path d="M34.625 10.0625C33.875 10.0625 33.3125 10.1062 33 10.6312L28.3125 17.9375H31.6875L32.3125 16.625H36.3125L36.6875 17.9375H39.6875L37.0625 10.0625H34.625ZM33.1875 15.3125C33.375 14.9187 34.4375 12.9938 34.4375 12.9938C34.4375 12.9938 34.6875 12.5125 34.875 12.2062L35.0625 12.95C35.0625 12.95 35.6875 14.9187 35.8125 15.3562H33.1875V15.3125Z" fill="#3C58BF"/>
<path d="M35.375 10.0625C34.625 10.0625 34.0625 10.1062 33.75 10.6312L28.3125 17.9375H31.6875L32.3125 16.625H36.3125L36.6875 17.9375H39.6875L37.0625 10.0625H35.375ZM33.1875 15.3125C33.4375 14.875 34.4375 12.9938 34.4375 12.9938C34.4375 12.9938 34.6875 12.5125 34.875 12.2062L35.0625 12.95C35.0625 12.95 35.6875 14.9187 35.8125 15.3562H33.1875V15.3125Z" fill="#293688"/>
<path d="M9 15.5752L8.6875 14.4377C8.125 13.1252 6.3125 11.6814 4.3125 10.9814L7.125 17.9814H10.5L15.5625 10.1064H12.1875L9 15.5752Z" fill="#3C58BF"/>
<path d="M9 15.5752L8.6875 14.4377C8.125 13.1252 6.3125 11.6814 4.3125 10.9814L7.125 17.9814H10.5L15.5625 10.1064H12.8125L9 15.5752Z" fill="#293688"/>
<path d="M0.3125 10.0625L0.875 10.15C4.875 10.8063 7.625 12.4688 8.6875 14.4375L7.5625 10.7188C7.375 10.1937 6.8125 10.0625 6.125 10.0625H0.3125Z" fill="#FFBC00"/>
<path d="M0.3125 10.0625C4.3125 10.7188 7.625 12.425 8.6875 14.3938L7.625 11.2875C7.4375 10.7625 6.8125 10.4562 6.125 10.4562L0.3125 10.0625Z" fill="#F7981D"/>
<path d="M0.3125 10.0625C4.3125 10.7188 7.625 12.425 8.6875 14.3938L7.9375 12.6875C7.75 12.1625 7.5 11.6375 6.625 11.4188L0.3125 10.0625Z" fill="#ED7C00"/>
<path d="M12.125 15.3125L10 13.825L9 15.4875L8.75 14.3938C8.1875 13.0813 6.375 11.6375 4.375 10.9375L7.1875 17.9375H10.5625L12.125 15.3125Z" fill="#051244"/>
<path d="M17.9375 17.9377L15.25 16.0127L14.75 17.9377H17.9375Z" fill="#051244"/>
<path d="M25.125 15.2256C25.375 15.4006 25.5 15.5318 25.4375 15.7068C25.4375 16.2318 24.4375 16.4943 23.5625 16.4943C22.3125 16.4943 21.625 16.3631 20.5625 16.0568L20.125 15.9256L19.6875 17.7193C20.4375 17.9381 21.8125 18.1568 23.25 18.1568C25.25 18.1568 26.875 17.7631 27.8125 17.0631L25.125 15.2256Z" fill="#051244"/>
<path d="M28.75 17.9378H31.6875L32.3125 16.6253H36.3125L36.6875 17.9378H39.6875L38.625 14.744L34.875 12.2065L35.0625 12.9065C35.0625 12.9065 35.6875 14.8753 35.8125 15.3128H33.1875C33.4375 14.8753 34.4375 12.994 34.4375 12.994C34.4375 12.994 34.6875 12.5128 34.875 12.2065" fill="#051244"/>
</svg>
