<svg width="30" height="30" viewBox="0 0 30 30" fill="none" xmlns="http://www.w3.org/2000/svg">
<path d="M0.9375 10.7812V22.5C0.9375 22.873 1.08566 23.2306 1.34938 23.4944C1.6131 23.7581 1.97079 23.9062 2.34375 23.9062H27.6562C28.0292 23.9062 28.3869 23.7581 28.6506 23.4944C28.9143 23.2306 29.0625 22.873 29.0625 22.5V10.7812M29.0625 7.5C29.0625 7.12704 28.9143 6.76935 28.6506 6.50563C28.3869 6.24191 28.0292 6.09375 27.6562 6.09375H2.34375C1.97079 6.09375 1.6131 6.24191 1.34938 6.50563C1.08566 6.76935 0.9375 7.12704 0.9375 7.5V10.7812H29.0625V7.5Z" stroke="black" stroke-width="1.8" stroke-miterlimit="10" stroke-linecap="round" stroke-linejoin="round"/>
<path d="M4.6875 18.2812H8.4375M4.6875 14.5312H14.0625H4.6875ZM22.5 14.5312H25.3125H22.5Z" stroke="black" stroke-width="1.8" stroke-miterlimit="10" stroke-linecap="round" stroke-linejoin="round"/>
</svg>
