<svg width="30" height="30" viewBox="0 0 30 30" fill="none" xmlns="http://www.w3.org/2000/svg">
<path d="M26.25 11.25V28.75H3.75V11.25" stroke="#111111" stroke-width="2" stroke-miterlimit="10" stroke-linecap="round" stroke-linejoin="round"/>
<path d="M28.75 6.25H1.25V11.25H28.75V6.25Z" stroke="#111111" stroke-width="2" stroke-miterlimit="10" stroke-linecap="round" stroke-linejoin="round"/>
<path d="M17.5 6.25V28.75H12.5V6.25" stroke="#560BD0" stroke-width="2" stroke-miterlimit="10" stroke-linecap="round" stroke-linejoin="round"/>
<path d="M7.5 3.75C7.5 2.36937 8.61937 1.25 10 1.25C13.6981 1.25 15 6.25 15 6.25C15 6.25 11.3806 6.25 10 6.25C8.61937 6.25 7.5 5.13063 7.5 3.75Z" stroke="#111111" stroke-width="2" stroke-miterlimit="10" stroke-linecap="round" stroke-linejoin="round"/>
<path d="M22.5 3.75C22.5 2.36937 21.3806 1.25 20 1.25C16.3019 1.25 15 6.25 15 6.25C15 6.25 18.6194 6.25 20 6.25C21.3806 6.25 22.5 5.13063 22.5 3.75Z" stroke="#111111" stroke-width="2" stroke-miterlimit="10" stroke-linecap="round" stroke-linejoin="round"/>
</svg>
