<svg width="30" height="30" viewBox="0 0 30 30" fill="none" xmlns="http://www.w3.org/2000/svg">
<g clip-path="url(#clip0)">
<path d="M15 19.6875C17.5888 19.6875 19.6875 17.5888 19.6875 15C19.6875 12.4112 17.5888 10.3125 15 10.3125C12.4112 10.3125 10.3125 12.4112 10.3125 15C10.3125 17.5888 12.4112 19.6875 15 19.6875Z" stroke="black" stroke-width="2" stroke-miterlimit="10" stroke-linecap="round" stroke-linejoin="round"/>
<path d="M28.5938 12.6562H25.523C25.2521 11.4356 24.7697 10.2718 24.0975 9.2175L26.2697 7.04531C26.3576 6.95741 26.4069 6.8382 26.4069 6.71391C26.4069 6.58961 26.3576 6.4704 26.2697 6.3825L23.618 3.73031C23.5301 3.64244 23.4109 3.59307 23.2866 3.59307C23.1623 3.59307 23.0431 3.64244 22.9552 3.73031L20.783 5.9025C19.7285 5.23045 18.5645 4.74817 17.3438 4.4775V1.40625C17.3438 1.28193 17.2944 1.1627 17.2065 1.07479C17.1185 0.986886 16.9993 0.9375 16.875 0.9375H13.125C13.0007 0.9375 12.8815 0.986886 12.7935 1.07479C12.7056 1.1627 12.6562 1.28193 12.6562 1.40625V4.4775C11.4356 4.74837 10.2718 5.2308 9.2175 5.90297L7.04484 3.73031C6.95694 3.64244 6.83773 3.59307 6.71344 3.59307C6.58914 3.59307 6.46993 3.64244 6.38203 3.73031L3.73031 6.38203C3.64244 6.46993 3.59307 6.58914 3.59307 6.71344C3.59307 6.83773 3.64244 6.95694 3.73031 7.04484L5.9025 9.21703C5.23045 10.2715 4.74817 11.4355 4.4775 12.6562H1.40625C1.28193 12.6562 1.1627 12.7056 1.07479 12.7935C0.986886 12.8815 0.9375 13.0007 0.9375 13.125V16.875C0.9375 16.9993 0.986886 17.1185 1.07479 17.2065C1.1627 17.2944 1.28193 17.3438 1.40625 17.3438H4.4775C4.74836 18.5644 5.23079 19.7282 5.90297 20.7825L3.73031 22.9552C3.64244 23.0431 3.59307 23.1623 3.59307 23.2866C3.59307 23.4109 3.64244 23.5301 3.73031 23.618L6.38203 26.2697C6.46993 26.3576 6.58914 26.4069 6.71344 26.4069C6.83773 26.4069 6.95694 26.3576 7.04484 26.2697L9.21703 24.0975C10.2715 24.7697 11.4355 25.2521 12.6562 25.523V28.5938C12.6562 28.7181 12.7056 28.8373 12.7935 28.9252C12.8815 29.0131 13.0007 29.0625 13.125 29.0625H16.875C16.9993 29.0625 17.1185 29.0131 17.2065 28.9252C17.2944 28.8373 17.3438 28.7181 17.3438 28.5938V25.523C18.5644 25.2521 19.7282 24.7696 20.7825 24.0975L22.9547 26.2697C23.0426 26.3576 23.1618 26.4069 23.2861 26.4069C23.4104 26.4069 23.5296 26.3576 23.6175 26.2697L26.2692 23.618C26.3571 23.5301 26.4065 23.4109 26.4065 23.2866C26.4065 23.1623 26.3571 23.0431 26.2692 22.9552L24.097 20.783C24.7694 19.7286 25.252 18.5646 25.523 17.3438H28.5938C28.7181 17.3438 28.8373 17.2944 28.9252 17.2065C29.0131 17.1185 29.0625 16.9993 29.0625 16.875V13.125C29.0625 13.0007 29.0131 12.8815 28.9252 12.7935C28.8373 12.7056 28.7181 12.6562 28.5938 12.6562Z" stroke="#202020" stroke-width="2" stroke-miterlimit="10" stroke-linecap="round" stroke-linejoin="round"/>
</g>
<defs>
<clipPath id="clip0">
<rect width="30" height="30" fill="white"/>
</clipPath>
</defs>
</svg>
