<svg width="17" height="17" viewBox="0 0 17 17" fill="none" xmlns="http://www.w3.org/2000/svg">
<path d="M15.1406 2.65625H1.85938C0.834129 2.65625 0 3.49038 0 4.51562V12.4844C0 13.5096 0.834129 14.3438 1.85938 14.3438H15.1406C16.1659 14.3438 17 13.5096 17 12.4844V4.51562C17 3.49038 16.1659 2.65625 15.1406 2.65625ZM1.85938 3.71875H15.1406C15.58 3.71875 15.9375 4.07625 15.9375 4.51562V5.57812H1.0625V4.51562C1.0625 4.07625 1.42 3.71875 1.85938 3.71875ZM15.1406 13.2812H1.85938C1.42 13.2812 1.0625 12.9238 1.0625 12.4844V6.64062H15.9375V12.4844C15.9375 12.9238 15.58 13.2812 15.1406 13.2812Z" fill="#0E237E"/>
<path d="M3.71875 11.6875H3.1875C2.89412 11.6875 2.65625 11.4496 2.65625 11.1562V10.625C2.65625 10.3316 2.89412 10.0938 3.1875 10.0938H3.71875C4.01213 10.0938 4.25 10.3316 4.25 10.625V11.1562C4.25 11.4496 4.01213 11.6875 3.71875 11.6875Z" fill="#0E237E"/>
</svg>
