<svg width="17" height="17" viewBox="0 0 17 17" fill="none" xmlns="http://www.w3.org/2000/svg">
<g clip-path="url(#clip0)">
<path d="M14.875 6.375V16.2917H2.125V6.375" stroke="#0E237E" stroke-width="2" stroke-miterlimit="10" stroke-linecap="round" stroke-linejoin="round"/>
<path d="M16.2916 3.54169H0.708252V6.37502H16.2916V3.54169Z" stroke="#0E237E" stroke-width="2" stroke-miterlimit="10" stroke-linecap="round" stroke-linejoin="round"/>
<path d="M9.91659 3.54169V16.2917H7.08325V3.54169" stroke="#0E237E" stroke-width="2" stroke-miterlimit="10" stroke-linecap="round" stroke-linejoin="round"/>
<path d="M4.25 2.12501C4.25 1.34266 4.88431 0.708344 5.66667 0.708344C7.76227 0.708344 8.5 3.54168 8.5 3.54168C8.5 3.54168 6.44902 3.54168 5.66667 3.54168C4.88431 3.54168 4.25 2.90736 4.25 2.12501Z" stroke="#0E237E" stroke-width="2" stroke-miterlimit="10" stroke-linecap="round" stroke-linejoin="round"/>
<path d="M12.75 2.12501C12.75 1.34266 12.1157 0.708344 11.3333 0.708344C9.23773 0.708344 8.5 3.54168 8.5 3.54168C8.5 3.54168 10.551 3.54168 11.3333 3.54168C12.1157 3.54168 12.75 2.90736 12.75 2.12501Z" stroke="#0E237E" stroke-width="2" stroke-miterlimit="10" stroke-linecap="round" stroke-linejoin="round"/>
</g>
<defs>
<clipPath id="clip0">
<rect width="17" height="17" fill="white"/>
</clipPath>
</defs>
</svg>
