<svg width="29" height="29" viewBox="0 0 29 29" fill="none" xmlns="http://www.w3.org/2000/svg">
<g clip-path="url(#clip0)">
<path d="M28.9231 16.5423C28.863 16.4987 28.7934 16.4701 28.72 16.4588C28.6466 16.4475 28.5716 16.454 28.5012 16.4777L27.5403 16.7964C27.0028 16.9734 26.4285 17.0073 25.8739 16.8948C26.5518 14.3417 26.4134 11.6403 25.4779 9.1698C24.5425 6.6993 22.8571 4.58367 20.6581 3.11978C18.4592 1.65589 15.8571 0.9172 13.217 1.00737C10.5769 1.09755 8.03123 2.01206 5.93729 3.62258C3.84335 5.2331 2.30619 7.4588 1.54152 9.98736C0.776846 12.5159 0.823033 15.2204 1.6736 17.7214C2.52417 20.2224 4.13642 22.3943 6.28413 23.9324C8.43185 25.4705 11.0072 26.2975 13.6489 26.2975C13.7295 26.2975 13.8148 26.2975 13.872 26.2928H13.8917C15.7596 26.2578 17.5963 25.8077 19.2687 24.9752C19.7684 26.1838 20.6437 27.1997 21.7653 27.8725L23.72 29.0444C23.7929 29.0882 23.8763 29.1113 23.9614 29.1113C24.0464 29.1113 24.1299 29.0882 24.2028 29.0444L26.157 27.8725C27.0579 27.3291 27.8037 26.5627 28.3222 25.6472C28.8408 24.7317 29.1147 23.6981 29.1176 22.6459V16.9225C29.1176 16.8483 29.1 16.7751 29.0662 16.709C29.0323 16.6429 28.9833 16.5858 28.9231 16.5423ZM14.1176 25.3272V19.735H18.8051V20.8469C17.6459 23.4752 15.9551 25.0872 14.1176 25.3272ZM1.94185 13.1725C2.00488 11.5441 2.40923 9.94716 3.12872 8.485H6.80232C6.4022 10.0164 6.18522 11.5899 6.15591 13.1725H1.94185ZM7.75763 8.485H13.1801V13.1725H7.09294C7.12159 11.5887 7.34483 10.0144 7.75763 8.485ZM25.3559 13.1725H21.1418C21.1125 11.5899 20.8956 10.0164 20.4954 8.485H24.169C24.8885 9.94716 25.2929 11.5441 25.3559 13.1725ZM20.2048 13.1725H14.1176V8.485H19.5401C19.9529 10.0144 20.1762 11.5887 20.2048 13.1725ZM14.1176 7.5475V1.95578C16.2908 2.23141 18.1751 4.40125 19.2523 7.5475H14.1176ZM13.1801 1.95578V7.5475H8.04544C9.12263 4.40125 11.007 2.23141 13.1801 1.95578ZM13.1801 14.11V18.7975H7.77685C7.35909 17.2689 7.13268 15.6944 7.10278 14.11H13.1801ZM13.1801 19.735V25.3291C11.0754 25.0591 9.17185 22.9816 8.0595 19.735H13.1801ZM19.4225 16.4781C19.352 16.4546 19.277 16.4481 19.2035 16.4593C19.1301 16.4704 19.0603 16.4989 19 16.5423C18.9397 16.5857 18.8906 16.6428 18.8567 16.7089C18.8228 16.775 18.8052 16.8482 18.8051 16.9225V18.7975H14.1176V14.11H20.2011C20.1827 14.9645 20.109 15.8169 19.9803 16.6619L19.4225 16.4781ZM21.1386 14.11H25.3503C25.3178 14.9476 25.1953 15.7793 24.9847 16.5906C24.8312 16.5102 24.684 16.4182 24.5445 16.3155L24.2211 16.0764C24.1393 16.0164 24.0403 15.9845 23.9389 15.9855C23.8375 15.9865 23.7391 16.0204 23.6586 16.082L23.3773 16.2963C23.0254 16.5616 22.6236 16.7532 22.1959 16.8597C21.7682 16.9661 21.3235 16.9853 20.8883 16.9159C21.0354 15.9874 21.119 15.0499 21.1386 14.11ZM23.6548 7.5475H20.2198C19.6534 5.61626 18.5985 3.86374 17.157 2.45922C19.8658 3.31595 22.1736 5.12311 23.6548 7.5475ZM10.1408 2.45922C8.69927 3.86374 7.64437 5.61626 7.07794 7.5475H3.64294C5.12416 5.12311 7.43193 3.31595 10.1408 2.45922ZM1.94372 14.11H6.16482C6.19208 15.6925 6.40814 17.2662 6.80841 18.7975H3.13247C2.40875 17.3368 2.00356 15.7391 1.94372 14.11ZM3.64247 19.735H7.07466C7.6243 21.6584 8.66495 23.4056 10.0943 24.805C7.40071 23.9521 5.10816 22.1506 3.64247 19.735ZM18.8126 22.8447C18.8254 23.2579 18.8802 23.6688 18.9762 24.0709C18.4093 24.3631 17.819 24.6073 17.2114 24.8013C17.8331 24.2263 18.372 23.5678 18.8126 22.8447ZM28.1801 22.6459C28.1776 23.5361 27.9457 24.4105 27.5069 25.1849C27.068 25.9594 26.437 26.6076 25.6747 27.0672L23.9614 28.0947L22.2476 27.0672C21.4835 26.6097 20.851 25.9619 20.4119 25.187C19.9729 24.4121 19.7423 23.5366 19.7426 22.6459V17.5736L20.075 17.6852C20.1256 17.7006 20.1776 17.7156 20.2254 17.7288C20.8564 17.9118 21.5215 17.945 22.1676 17.8256C22.8137 17.7062 23.4229 17.4376 23.9468 17.0411L23.9872 17.0711C24.5324 17.4744 25.1666 17.7409 25.8363 17.848C26.5061 17.9551 27.1917 17.8997 27.8356 17.6866L28.1801 17.5717V22.6459Z" fill="url(#paint0_linear)"/>
<path d="M27.1751 18.3234C26.4443 18.4289 25.699 18.3597 25.0001 18.1213C24.7157 18.0262 24.4414 17.9031 24.1812 17.7538C24.1105 17.7136 24.0305 17.6924 23.9492 17.6924C23.8678 17.6924 23.7878 17.7136 23.7171 17.7538C22.8154 18.2632 21.7711 18.462 20.7453 18.3196C20.6789 18.3103 20.6112 18.3153 20.547 18.3344C20.4827 18.3534 20.4232 18.386 20.3726 18.43C20.322 18.474 20.2814 18.5283 20.2536 18.5894C20.2258 18.6504 20.2114 18.7166 20.2114 18.7837V22.6462C20.2116 23.4558 20.4214 24.2516 20.8206 24.956C21.2198 25.6605 21.7946 26.2495 22.489 26.6657L23.72 27.4035C23.7928 27.4472 23.8762 27.4703 23.9611 27.4703C24.0461 27.4703 24.1295 27.4472 24.2023 27.4035L25.4346 26.6648C26.1273 26.2469 26.7007 25.6576 27.0995 24.9537C27.4982 24.2499 27.709 23.4552 27.7114 22.6462V18.7874C27.7114 18.7202 27.6969 18.6537 27.669 18.5925C27.641 18.5313 27.6002 18.4768 27.5494 18.4328C27.4985 18.3888 27.4387 18.3562 27.3742 18.3373C27.3096 18.3184 27.2417 18.3137 27.1751 18.3234ZM26.7739 22.6462C26.772 23.2934 26.6034 23.9293 26.2843 24.4924C25.9653 25.0556 25.5065 25.527 24.9523 25.8613L23.9614 26.4552L22.9714 25.8613C22.4155 25.5288 21.9554 25.0577 21.6359 24.4942C21.3165 23.9307 21.1487 23.2939 21.1489 22.6462V19.297C22.1183 19.3408 23.0826 19.1328 23.9478 18.6932C24.1896 18.8172 24.4403 18.9229 24.6978 19.0096C25.3648 19.2387 26.0695 19.3382 26.7739 19.3026V22.6462Z" fill="#0E237E"/>
<path d="M25.505 21.2786L23.4926 23.2909L22.4984 22.2962C22.4552 22.2514 22.4035 22.2157 22.3463 22.1912C22.2891 22.1666 22.2276 22.1537 22.1653 22.1531C22.1031 22.1526 22.0414 22.1644 21.9838 22.188C21.9261 22.2116 21.8738 22.2464 21.8298 22.2904C21.7858 22.3344 21.751 22.3868 21.7274 22.4444C21.7038 22.502 21.692 22.5637 21.6925 22.6259C21.6931 22.6882 21.706 22.7497 21.7306 22.8069C21.7551 22.8641 21.7908 22.9158 21.8356 22.959L23.1612 24.2851C23.2491 24.373 23.3683 24.4224 23.4926 24.4224C23.6169 24.4224 23.7361 24.373 23.824 24.2851L26.1678 21.9414C26.2532 21.853 26.3004 21.7346 26.2994 21.6116C26.2983 21.4887 26.249 21.3712 26.1621 21.2843C26.0752 21.1974 25.9576 21.1481 25.8347 21.147C25.7118 21.1459 25.5934 21.1932 25.505 21.2786Z" fill="#0E237E"/>
</g>
<defs>
<linearGradient id="paint0_linear" x1="15.0551" y1="30.4675" x2="15.0551" y2="0.88516" gradientUnits="userSpaceOnUse">
<stop/>
<stop offset="0.046875" stop-color="#000B0B"/>
<stop offset="0.510417" stop-color="#000B0B"/>
<stop offset="0.9999" stop-color="#000D0E"/>
<stop offset="1" stop-color="#00E7F0"/>
</linearGradient>
<clipPath id="clip0">
<rect width="29" height="29" fill="white"/>
</clipPath>
</defs>
</svg>
