<svg width="15" height="15" viewBox="0 0 15 15" fill="none" xmlns="http://www.w3.org/2000/svg">
<g clip-path="url(#clip0)">
<mask id="mask0" mask-type="alpha" maskUnits="userSpaceOnUse" x="0" y="0" width="15" height="16">
<path d="M14.2322 5.92639L13.1794 5.74773C13.0697 5.39368 12.9287 5.05212 12.7564 4.72624L13.3768 3.85827C13.64 3.48852 13.5993 2.98404 13.2765 2.66442L12.3427 1.73065C12.1673 1.55517 11.9354 1.45804 11.6878 1.45804C11.4936 1.45804 11.3087 1.51758 11.152 1.63038L10.2809 2.25081C9.94246 2.0722 9.58841 1.92492 9.22179 1.81525L9.04629 0.774942C8.97114 0.326857 8.58569 0.000976562 8.13134 0.000976562H6.81217C6.35783 0.000976562 5.97238 0.326857 5.89717 0.774942L5.71547 1.84032C5.36452 1.95 5.02295 2.09413 4.69707 2.2696L3.83537 1.64918C3.67869 1.53637 3.49068 1.47684 3.29641 1.47684C3.04886 1.47684 2.81385 1.57398 2.64151 1.74945L1.70461 2.68323C1.38499 3.00284 1.34112 3.50733 1.60433 3.87708L2.23103 4.75758C2.05869 5.08659 1.92082 5.42813 1.81428 5.78223L0.773964 5.95768C0.325881 6.03289 0 6.41834 0 6.87268V8.19185C0 8.6462 0.325881 9.03165 0.773964 9.10685L1.83935 9.28856C1.94902 9.63951 2.09316 9.98104 2.26863 10.307L1.65133 11.1655C1.38813 11.5352 1.42886 12.0398 1.75161 12.3594L2.68538 13.2931C2.86086 13.4686 3.09273 13.5657 3.34028 13.5657C3.53455 13.5657 3.71943 13.5062 3.8761 13.3934L4.7566 12.7667C5.07308 12.9328 5.40522 13.0675 5.74676 13.1741L5.92226 14.2269C5.99747 14.675 6.38286 15.0009 6.83721 15.0009H8.15953C8.61388 15.0009 8.99933 14.675 9.07453 14.2269L9.25314 13.1741C9.60719 13.0644 9.94878 12.9234 10.2746 12.7511L11.1426 13.3715C11.2993 13.4843 11.4873 13.5438 11.6816 13.5438C11.9291 13.5438 12.161 13.4467 12.3365 13.2712L13.2702 12.3374C13.5898 12.0178 13.6337 11.5133 13.3705 11.1436L12.7501 10.2725C12.9224 9.94349 13.0666 9.6019 13.1731 9.25096L14.2259 9.07551C14.674 9.0003 14.9999 8.61485 14.9999 8.16051V6.84134C15.0062 6.38699 14.6803 6.00154 14.2322 5.92639ZM14.1602 8.16051C14.1602 8.20127 14.1319 8.23571 14.0912 8.24197L12.7751 8.46134C12.6091 8.48953 12.4775 8.61175 12.4367 8.77153C12.3176 9.23218 12.1359 9.67401 11.8915 10.0845C11.8069 10.2286 11.8132 10.4072 11.9103 10.5451L12.6843 11.6355C12.7062 11.6669 12.7031 11.7139 12.6749 11.7421L11.7411 12.6759C11.7192 12.6978 11.6972 12.7009 11.6816 12.7009C11.6628 12.7009 11.6471 12.6946 11.6346 12.6852L10.5472 11.9113C10.4125 11.8141 10.2308 11.8079 10.0866 11.8925C9.67614 12.1369 9.23431 12.3186 8.77371 12.4377C8.61077 12.4784 8.48855 12.6132 8.46352 12.7761L8.241 14.0922C8.23474 14.1329 8.20029 14.1611 8.15953 14.1611H6.84036C6.7996 14.1611 6.76515 14.1329 6.7589 14.0922L6.53953 12.7761C6.51134 12.61 6.38912 12.4784 6.22934 12.4377C5.78126 12.3218 5.34884 12.1432 4.94461 11.9113C4.87881 11.8737 4.80361 11.8549 4.73153 11.8549C4.64693 11.8549 4.55919 11.8799 4.48713 11.9332L3.39041 12.7135C3.37474 12.7228 3.35907 12.7291 3.34341 12.7291C3.33087 12.7291 3.30581 12.726 3.28387 12.7041L2.3501 11.7703C2.3219 11.7421 2.31877 11.6982 2.3407 11.6637L3.11153 10.5827C3.20867 10.4448 3.21493 10.2631 3.13033 10.1189C2.88592 9.71161 2.69792 9.26978 2.57884 8.80913C2.53497 8.64935 2.40337 8.52713 2.24043 8.49894L0.914974 8.27332C0.874236 8.26706 0.846036 8.23261 0.846036 8.19185V6.87268C0.846036 6.83192 0.874236 6.79747 0.914974 6.79121L2.22163 6.57185C2.3877 6.54366 2.52244 6.42144 2.56317 6.25851C2.67911 5.7979 2.85772 5.35292 3.099 4.94245C3.1836 4.79831 3.1742 4.61971 3.07706 4.48497L2.29683 3.38825C2.27489 3.35692 2.27803 3.30992 2.30623 3.28172L3.24001 2.34795C3.26194 2.32601 3.28387 2.32287 3.29954 2.32287C3.31834 2.32287 3.33401 2.32914 3.34654 2.33854L4.42759 3.10938C4.56546 3.20651 4.7472 3.21278 4.89134 3.12818C5.29867 2.88377 5.7405 2.69576 6.20116 2.57669C6.36093 2.53282 6.48315 2.40121 6.51134 2.23827L6.73697 0.912818C6.74322 0.87208 6.77767 0.84388 6.81843 0.84388H8.1376C8.17836 0.84388 8.21281 0.87208 8.21907 0.912818L8.43843 2.21947C8.46662 2.38554 8.58884 2.52029 8.75177 2.56102C9.22495 2.68009 9.67614 2.86496 10.096 3.11251C10.2402 3.19711 10.4188 3.19085 10.5566 3.09371L11.6377 2.31661C11.6533 2.30721 11.669 2.30094 11.6847 2.30094C11.6972 2.30094 11.7223 2.30407 11.7442 2.32601L12.678 3.25978C12.7062 3.28799 12.7093 3.33185 12.6874 3.36632L11.9135 4.45364C11.8163 4.58837 11.81 4.77011 11.8946 4.91425C12.139 5.32473 12.3208 5.76656 12.4399 6.22716C12.4806 6.39009 12.6154 6.51232 12.7783 6.5374L14.0943 6.75987C14.1351 6.76613 14.1633 6.80058 14.1633 6.84134V8.16051H14.1602Z" fill="#323A5D"/>
</mask>
<g mask="url(#mask0)">
<path d="M14.2322 5.92639L13.1794 5.74773C13.0697 5.39368 12.9287 5.05212 12.7564 4.72624L13.3768 3.85827C13.64 3.48852 13.5993 2.98404 13.2765 2.66442L12.3427 1.73065C12.1673 1.55517 11.9354 1.45804 11.6878 1.45804C11.4936 1.45804 11.3087 1.51758 11.152 1.63038L10.2809 2.25081C9.94246 2.0722 9.58841 1.92492 9.22179 1.81525L9.04629 0.774942C8.97114 0.326857 8.58569 0.000976562 8.13134 0.000976562H6.81217C6.35783 0.000976562 5.97238 0.326857 5.89717 0.774942L5.71547 1.84032C5.36452 1.95 5.02295 2.09413 4.69707 2.2696L3.83537 1.64918C3.67869 1.53637 3.49068 1.47684 3.29641 1.47684C3.04886 1.47684 2.81385 1.57398 2.64151 1.74945L1.70461 2.68323C1.38499 3.00284 1.34112 3.50733 1.60433 3.87708L2.23103 4.75758C2.05869 5.08659 1.92082 5.42813 1.81428 5.78223L0.773964 5.95768C0.325881 6.03289 0 6.41834 0 6.87268V8.19185C0 8.6462 0.325881 9.03165 0.773964 9.10685L1.83935 9.28856C1.94902 9.63951 2.09316 9.98104 2.26863 10.307L1.65133 11.1655C1.38813 11.5352 1.42886 12.0398 1.75161 12.3594L2.68538 13.2931C2.86086 13.4686 3.09273 13.5657 3.34028 13.5657C3.53455 13.5657 3.71943 13.5062 3.8761 13.3934L4.7566 12.7667C5.07308 12.9328 5.40522 13.0675 5.74676 13.1741L5.92226 14.2269C5.99747 14.675 6.38286 15.0009 6.83721 15.0009H8.15953C8.61388 15.0009 8.99933 14.675 9.07453 14.2269L9.25314 13.1741C9.60719 13.0644 9.94878 12.9234 10.2746 12.7511L11.1426 13.3715C11.2993 13.4843 11.4873 13.5438 11.6816 13.5438C11.9291 13.5438 12.161 13.4467 12.3365 13.2712L13.2702 12.3374C13.5898 12.0178 13.6337 11.5133 13.3705 11.1436L12.7501 10.2725C12.9224 9.94349 13.0666 9.6019 13.1731 9.25096L14.2259 9.07551C14.674 9.0003 14.9999 8.61485 14.9999 8.16051V6.84134C15.0062 6.38699 14.6803 6.00154 14.2322 5.92639ZM14.1602 8.16051C14.1602 8.20127 14.1319 8.23571 14.0912 8.24197L12.7751 8.46134C12.6091 8.48953 12.4775 8.61175 12.4367 8.77153C12.3176 9.23218 12.1359 9.67401 11.8915 10.0845C11.8069 10.2286 11.8132 10.4072 11.9103 10.5451L12.6843 11.6355C12.7062 11.6669 12.7031 11.7139 12.6749 11.7421L11.7411 12.6759C11.7192 12.6978 11.6972 12.7009 11.6816 12.7009C11.6628 12.7009 11.6471 12.6946 11.6346 12.6852L10.5472 11.9113C10.4125 11.8141 10.2308 11.8079 10.0866 11.8925C9.67614 12.1369 9.23431 12.3186 8.77371 12.4377C8.61077 12.4784 8.48855 12.6132 8.46352 12.7761L8.241 14.0922C8.23474 14.1329 8.20029 14.1611 8.15953 14.1611H6.84036C6.7996 14.1611 6.76515 14.1329 6.7589 14.0922L6.53953 12.7761C6.51134 12.61 6.38912 12.4784 6.22934 12.4377C5.78126 12.3218 5.34884 12.1432 4.94461 11.9113C4.87881 11.8737 4.80361 11.8549 4.73153 11.8549C4.64693 11.8549 4.55919 11.8799 4.48713 11.9332L3.39041 12.7135C3.37474 12.7228 3.35907 12.7291 3.34341 12.7291C3.33087 12.7291 3.30581 12.726 3.28387 12.7041L2.3501 11.7703C2.3219 11.7421 2.31877 11.6982 2.3407 11.6637L3.11153 10.5827C3.20867 10.4448 3.21493 10.2631 3.13033 10.1189C2.88592 9.71161 2.69792 9.26978 2.57884 8.80913C2.53497 8.64935 2.40337 8.52713 2.24043 8.49894L0.914974 8.27332C0.874236 8.26706 0.846036 8.23261 0.846036 8.19185V6.87268C0.846036 6.83192 0.874236 6.79747 0.914974 6.79121L2.22163 6.57185C2.3877 6.54366 2.52244 6.42144 2.56317 6.25851C2.67911 5.7979 2.85772 5.35292 3.099 4.94245C3.1836 4.79831 3.1742 4.61971 3.07706 4.48497L2.29683 3.38825C2.27489 3.35692 2.27803 3.30992 2.30623 3.28172L3.24001 2.34795C3.26194 2.32601 3.28387 2.32287 3.29954 2.32287C3.31834 2.32287 3.33401 2.32914 3.34654 2.33854L4.42759 3.10938C4.56546 3.20651 4.7472 3.21278 4.89134 3.12818C5.29867 2.88377 5.7405 2.69576 6.20116 2.57669C6.36093 2.53282 6.48315 2.40121 6.51134 2.23827L6.73697 0.912818C6.74322 0.87208 6.77767 0.84388 6.81843 0.84388H8.1376C8.17836 0.84388 8.21281 0.87208 8.21907 0.912818L8.43843 2.21947C8.46662 2.38554 8.58884 2.52029 8.75177 2.56102C9.22495 2.68009 9.67614 2.86496 10.096 3.11251C10.2402 3.19711 10.4188 3.19085 10.5566 3.09371L11.6377 2.31661C11.6533 2.30721 11.669 2.30094 11.6847 2.30094C11.6972 2.30094 11.7223 2.30407 11.7442 2.32601L12.678 3.25978C12.7062 3.28799 12.7093 3.33185 12.6874 3.36632L11.9135 4.45364C11.8163 4.58837 11.81 4.77011 11.8946 4.91425C12.139 5.32473 12.3208 5.76656 12.4399 6.22716C12.4806 6.39009 12.6154 6.51232 12.7783 6.5374L14.0943 6.75987C14.1351 6.76613 14.1633 6.80058 14.1633 6.84134V8.16051H14.1602Z" fill="#0E237E" stroke="#0E237E" stroke-width="10"/>
</g>
<mask id="mask1" mask-type="alpha" maskUnits="userSpaceOnUse" x="4" y="4" width="7" height="7">
<path d="M7.50149 4.2616C5.71546 4.2616 4.26465 5.71242 4.26465 7.49845C4.26465 9.28454 5.71546 10.7353 7.50149 10.7353C9.28758 10.7353 10.7384 9.28454 10.7384 7.49845C10.7384 5.71242 9.28758 4.2616 7.50149 4.2616ZM7.50149 9.8893C6.18232 9.8893 5.11068 8.81768 5.11068 7.49845C5.11068 6.17928 6.18232 5.10763 7.50149 5.10763C8.82072 5.10763 9.89234 6.17928 9.89234 7.49845C9.89234 8.81768 8.82072 9.8893 7.50149 9.8893Z" fill="#323A5D"/>
</mask>
<g mask="url(#mask1)">
<path d="M7.50149 4.2616C5.71546 4.2616 4.26465 5.71242 4.26465 7.49845C4.26465 9.28454 5.71546 10.7353 7.50149 10.7353C9.28758 10.7353 10.7384 9.28454 10.7384 7.49845C10.7384 5.71242 9.28758 4.2616 7.50149 4.2616ZM7.50149 9.8893C6.18232 9.8893 5.11068 8.81768 5.11068 7.49845C5.11068 6.17928 6.18232 5.10763 7.50149 5.10763C8.82072 5.10763 9.89234 6.17928 9.89234 7.49845C9.89234 8.81768 8.82072 9.8893 7.50149 9.8893Z" fill="#0E237E"/>
<path d="M7.50152 1.67542C4.28714 1.67542 1.67847 4.2841 1.67847 7.49848H6.85088C6.85088 7.14075 7.1438 6.84784 7.50152 6.84784V1.67542ZM1.67847 7.49848C1.67847 10.7129 4.28714 13.3216 7.50152 13.3216V8.14917C7.1438 8.14917 6.85088 7.85625 6.85088 7.49848H1.67847ZM7.50152 13.3216C10.716 13.3216 13.3246 10.7129 13.3246 7.49848H8.15221C8.15221 7.85625 7.85929 8.14917 7.50152 8.14917V13.3216ZM13.3246 7.49848C13.3246 4.2841 10.7159 1.67542 7.50152 1.67542V6.84784C7.85929 6.84784 8.15221 7.14075 8.15221 7.49848H13.3246ZM7.50152 7.30311C7.61066 7.30311 7.69693 7.38934 7.69693 7.49848H2.5245C2.5245 10.246 4.75403 12.4755 7.50152 12.4755V7.30311ZM7.69693 7.49848C7.69693 7.60761 7.61066 7.69389 7.50152 7.69389V2.52145C4.75403 2.52145 2.5245 4.75098 2.5245 7.49848H7.69693ZM7.50152 7.69389C7.39243 7.69389 7.30616 7.60761 7.30616 7.49848H12.4786C12.4786 4.75098 10.2491 2.52145 7.50152 2.52145V7.69389ZM7.30616 7.49848C7.30616 7.38934 7.39243 7.30311 7.50152 7.30311V12.4755C10.2491 12.4755 12.4786 10.246 12.4786 7.49848H7.30616Z" fill="#0E237E"/>
</g>
</g>
<defs>
<clipPath id="clip0">
<rect width="15" height="15" fill="white"/>
</clipPath>
</defs>
</svg>
