<svg width="30" height="30" viewBox="0 0 30 30" fill="none" xmlns="http://www.w3.org/2000/svg">
<path d="M11.5589 13.4483C11.6205 13.8234 11.7655 14.059 11.9086 14.2094C12.2475 16.4619 14.1339 18.5567 15.8573 18.5567C17.8688 18.5567 19.699 16.2915 20.0506 14.213C20.1956 14.0644 20.3405 13.827 20.4039 13.4483C20.5181 13.026 20.6685 12.2903 20.4076 11.9478C20.3949 11.9297 20.3768 11.9134 20.3677 11.8971C20.6087 11.0109 20.9168 9.17705 19.8186 7.92849C19.719 7.80345 19.1028 7.06772 17.7872 6.67992L17.1602 6.46246C16.1237 6.14353 15.4713 6.07104 15.4441 6.06923C15.397 6.06561 15.3481 6.06923 15.3028 6.0801C15.2647 6.09098 15.1433 6.12359 15.0473 6.11091C14.799 6.07467 14.4275 6.20152 14.3623 6.22689C14.2771 6.26132 12.2711 7.0641 11.6622 8.93423C11.606 9.08463 11.3614 9.88016 11.6857 11.8282C11.6368 11.8608 11.5951 11.9025 11.5571 11.9496C11.2961 12.2921 11.4429 13.026 11.5589 13.4483Z" fill="#030104"/>
<path d="M22.2885 19.276C22.2885 19.276 22.207 19.2488 22.082 19.2089C21.2158 18.803 20.3985 18.5439 20.3985 18.5439C20.2209 18.4841 20.0687 18.4225 19.9273 18.3572C19.3438 18.0691 18.8545 17.7411 18.7531 17.433C18.7531 17.433 19.0937 20.713 16.2251 20.7873L15.8283 20.7692C13.2315 20.539 13.0593 17.4258 13.0593 17.4258C12.7875 18.2793 9.52201 19.2724 9.52201 19.2724C8.5507 19.642 8.14116 20.2038 8.14116 20.2038C6.70594 22.3349 6.53741 27.07 6.53741 27.07C6.55554 28.1537 7.02307 28.266 7.02307 28.266C10.323 29.7375 15.5021 29.9966 15.5021 29.9966C15.7811 30.0039 16.0421 29.9894 16.3012 29.973L16.3067 30.0002C16.3067 30.0002 21.4858 29.7375 24.7857 28.266C24.7857 28.266 25.2532 28.1518 25.2731 27.0736C25.2731 27.0736 25.1028 22.3367 23.6676 20.2074C23.6694 20.202 23.258 19.6457 22.2885 19.276Z" fill="#030104"/>
<path d="M18.639 17.5737C18.677 17.5266 18.7133 17.4795 18.7531 17.4324C18.7459 17.4016 18.7441 17.3853 18.7441 17.3853C18.7115 17.4541 18.6752 17.5067 18.639 17.5737Z" fill="#030104"/>
<path d="M13.0756 17.4216L13.0666 17.3872L13.0593 17.4253C13.0611 17.418 13.0666 17.409 13.0702 17.4053C13.0702 17.4053 13.072 17.409 13.0756 17.4216Z" fill="#030104"/>
<path d="M15.7685 0C7.98354 0 1.6483 6.33525 1.6483 14.1202C1.6483 15.6587 1.9165 17.1863 2.40396 18.6361L1.13184 18.3516C0.629876 18.2338 0.135162 18.5527 0.0228089 19.0547C-0.0895438 19.553 0.223957 20.0495 0.72592 20.1619L4.95183 21.1096C5.02069 21.1241 5.08774 21.1314 5.15479 21.1314C5.57883 21.1314 5.96301 20.8378 6.06086 20.4083L6.96512 16.3836C7.07747 15.8834 6.76216 15.3869 6.26382 15.2745C5.75824 15.164 5.26715 15.4757 5.15479 15.9758L4.84854 17.344C4.54229 16.3056 4.36832 15.2292 4.36832 14.1202C4.36832 7.83207 9.484 2.71821 15.7703 2.71821C22.0566 2.71821 27.1723 7.83389 27.1723 14.1202C27.1723 16.0175 26.6975 17.8931 25.7987 19.5421L28.1871 20.8414C29.2998 18.7919 29.8887 16.4706 29.8887 14.1202C29.8887 6.33525 23.5535 0 15.7685 0Z" fill="#0E237E"/>
</svg>
