<svg width="25" height="26" viewBox="0 0 25 26" fill="none" xmlns="http://www.w3.org/2000/svg">
<path d="M11.5685 5C9.3317 5 7.51196 6.89253 7.51196 9.21875C7.51196 11.545 9.3317 13.4375 11.5685 13.4375C13.8052 13.4375 15.6249 11.545 15.6249 9.21875C15.6249 6.89253 13.8052 5 11.5685 5ZM11.5685 12.5C9.82876 12.5 8.4134 11.028 8.4134 9.21875C8.4134 7.40947 9.82876 5.9375 11.5685 5.9375C13.3081 5.9375 14.7235 7.40947 14.7235 9.21875C14.7235 11.028 13.3081 12.5 11.5685 12.5Z" fill="#0E237E"/>
<path d="M12.8254 14.4062H10.3114C8.23202 14.4062 6.17988 15.4047 4.80762 17.5456V21H18.3293V17.5456C16.959 15.4078 14.9074 14.4062 12.8254 14.4062ZM17.4278 20.0625H17.4278H5.70906V17.8324C6.76167 16.2713 8.47204 15.3438 10.3114 15.3438H12.8255C14.6649 15.3438 16.3752 16.2713 17.4278 17.8324V20.0625Z" fill="#0E237E"/>
</svg>
