<svg width="24" height="24" viewBox="0 0 24 24" fill="none" xmlns="http://www.w3.org/2000/svg">
<path d="M23.039 12.3176H18.3605C18.2933 11.7469 18.1616 11.1957 17.9727 10.6715H23.1115C23.4983 10.6715 23.8131 10.3602 23.8173 9.97341C23.8785 4.40508 19.3837 0 13.9623 0C13.5724 0 13.2564 0.316047 13.2564 0.705882V6.09515C12.7428 5.92748 12.2051 5.81407 11.6498 5.76179V3.10024C11.6498 2.7104 11.3338 2.39435 10.9439 2.39435C4.97324 2.39435 0.140625 7.22588 0.140625 13.1972C0.140625 19.1676 4.97267 24 10.9439 24C13.334 24 15.5991 23.2351 17.4942 21.7879C17.8059 21.5498 17.8631 21.1037 17.624 20.7947L15.9965 18.6922C16.48 18.2472 16.9048 17.7396 17.2579 17.1821L19.2897 19.8071C19.5272 20.1139 19.9679 20.1716 20.2763 19.936C22.4489 18.2768 23.7131 15.7603 23.7448 13.0317C23.7493 12.6387 23.4318 12.3176 23.039 12.3176ZM14.6682 1.44061C18.7349 1.77459 22.0914 5.03666 22.3853 9.25972H17.2876C16.6368 8.21492 15.7356 7.3416 14.6682 6.72489V1.44061ZM16.0565 21.0762C14.5361 22.0676 12.7826 22.5882 10.9439 22.5882C5.76543 22.5882 1.55239 18.3754 1.55239 13.1972C1.55239 8.25628 5.38787 4.19431 10.238 3.83233V5.76169C6.44933 6.1184 3.47465 9.31666 3.47465 13.1971C3.47465 17.3155 6.82519 20.6661 10.9436 20.6661C12.3841 20.6661 13.7304 20.2557 14.8725 19.5464L16.0565 21.0762ZM10.9436 19.2543C7.60364 19.2543 4.88641 16.5371 4.88641 13.1971C4.88641 9.85713 7.60364 7.13991 10.9436 7.13991C14.2835 7.13991 17.0008 9.85713 17.0008 13.1971C17.0008 16.5371 14.2835 19.2543 10.9436 19.2543ZM19.957 18.3627L17.9539 15.7749C18.1919 15.1299 18.3429 14.4433 18.3934 13.7294H22.291C22.1002 15.5111 21.277 17.1455 19.957 18.3627Z" fill="#323A5D" fill-opacity="0.5"/>
<path d="M15.1415 13.3996H13.9385V12.2435H15.1415C15.3222 12.2435 15.4688 12.0971 15.4688 11.9163C15.4688 11.7355 15.3222 11.589 15.1415 11.589H13.9385V9.98482C13.9385 9.75065 13.8922 9.57878 13.801 9.47408C13.7143 9.37447 13.6003 9.32812 13.4425 9.32812C13.2919 9.32812 13.1822 9.37415 13.0971 9.47313C13.007 9.57794 12.9612 9.75014 12.9612 9.98493V11.5892H10.6984L9.73626 10.1333C9.65392 10.0034 9.5765 9.88165 9.50131 9.76482C9.43362 9.65961 9.36759 9.57395 9.30523 9.50998C9.25002 9.45335 9.1871 9.40953 9.11352 9.37584C9.04408 9.34414 8.95581 9.32823 8.85138 9.32823C8.71817 9.32823 8.59726 9.36472 8.48148 9.4397C8.36691 9.51385 8.28771 9.60554 8.23934 9.72C8.19688 9.82879 8.17441 9.99548 8.17441 10.2106V11.5891H6.9834C6.80268 11.5891 6.65625 11.7356 6.65625 11.9164C6.65625 12.0972 6.80268 12.2436 6.98342 12.2436H8.17443V13.3998H6.98342C6.80268 13.3998 6.65625 13.5462 6.65625 13.7271C6.65625 13.9078 6.80268 14.0542 6.98342 14.0542H8.17443V15.8857C8.17443 16.113 8.22218 16.2831 8.31676 16.3912C8.4067 16.4943 8.52074 16.5422 8.67561 16.5422C8.82502 16.5422 8.93817 16.4941 9.03201 16.3908C9.12809 16.285 9.1767 16.115 9.1767 15.8858V14.0542H11.2243L12.3324 15.7533C12.4094 15.8656 12.489 15.979 12.5683 16.0901C12.6399 16.1899 12.718 16.2779 12.8004 16.3514C12.8746 16.4178 12.9542 16.4665 13.0369 16.4962C13.122 16.5269 13.2215 16.5424 13.3319 16.5424C13.6316 16.5424 13.9385 16.4507 13.9385 15.7703V14.0542H15.1414C15.3222 14.0542 15.4687 13.9076 15.4687 13.7269C15.4688 13.5461 15.3222 13.3996 15.1415 13.3996ZM12.9612 12.2435V13.3996H11.895L11.1311 12.2435H12.9612ZM9.17672 10.915L9.6164 11.589H9.17672V10.915ZM9.17672 13.3996V12.2435H10.0433L10.7974 13.3996H9.17672ZM12.9612 15.0133L12.3276 14.0542H12.9612V15.0133Z" fill="#323A5D" fill-opacity="0.5"/>
</svg>
