<svg width="26" height="24" viewBox="0 0 26 24" fill="none" xmlns="http://www.w3.org/2000/svg">
<path d="M12.8129 24L12.4913 23.8392C12.0893 23.6784 3.16531 19.1762 0.51222 11.6993C-1.01531 7.27751 0.9946 2.29293 4.93403 0.604604C7.58712 -0.601345 10.7226 0.0418231 12.8933 2.13214C15.064 0.12222 18.1995 -0.520968 20.8526 0.684981C24.792 2.45371 26.8019 7.43831 25.194 11.7797C22.5409 19.2566 13.6169 23.7588 13.2149 23.9196L12.8129 24ZM7.74791 1.56935C7.02435 1.56935 6.22038 1.73015 5.5772 2.05173C2.36134 3.41848 0.753405 7.51869 2.03975 11.1365C4.13006 17.1663 11.205 21.2665 12.8129 22.2313C14.5012 21.3469 21.4957 17.2467 23.6664 11.2169C24.9528 7.5991 23.3448 3.49888 20.129 2.13214C17.7975 1.08698 15.1444 1.81055 13.4561 3.82047L12.8129 4.54403L12.1697 3.82047C11.1246 2.37333 9.43624 1.56935 7.74791 1.56935Z" fill="#323A5D" fill-opacity="0.5"/>
</svg>
