<svg width="22" height="24" viewBox="0 0 22 24" fill="none" xmlns="http://www.w3.org/2000/svg">
<path d="M18.2482 24H3.12592C2.29833 24 1.62122 23.3229 1.62122 22.4953V10.6834C1.62122 9.85583 2.29833 9.17871 3.12592 9.17871H18.2482C19.0758 9.17871 19.7529 9.85583 19.7529 10.6834V22.4953C19.7529 23.3229 19.0758 24 18.2482 24ZM3.12592 10.6834V22.4953H18.2482V10.6834H3.12592Z" fill="#560BD0" fill-opacity="1"/>
<path d="M0.718231 12.7148C0.567761 12.7148 0.342051 12.6395 0.266816 12.5643C-0.0341241 12.2633 -0.109364 11.8119 0.191576 11.511L9.21978 0.677135C9.59596 0.225724 10.1226 0 10.7245 0C11.3264 0 11.853 0.225724 12.2292 0.677135L21.2574 11.511C21.5583 11.8119 21.4831 12.3386 21.1822 12.5643C20.8812 12.8652 20.3546 12.79 20.1289 12.489L11.1007 1.65518C10.9502 1.50471 10.7997 1.5047 10.7245 1.5047C10.6492 1.5047 10.4988 1.50471 10.3483 1.65518L1.3201 12.489C1.0944 12.5643 0.943936 12.7148 0.718231 12.7148Z" fill="#560BD0" fill-opacity="1"/>
</svg>
