<svg width="24" height="24" viewBox="0 0 24 24" fill="none" xmlns="http://www.w3.org/2000/svg">
<path d="M22.6563 10.6589H22.0853V7.22817C22.0853 5.82538 20.9434 4.68838 19.5455 4.68838H19.0189L19.0238 3.41356C19.0238 2.46853 18.2559 1.70068 17.3109 1.70068H2.08203C0.945037 1.70068 0.0147662 2.61619 0 3.75319C0 3.76303 0 3.77288 0 3.78272V20.5867C0 21.5317 0.767842 22.2995 1.71288 22.2995H19.5505C20.9532 22.2995 22.0902 21.1576 22.0902 19.7598V16.3242H22.6612C23.3995 16.3242 24 15.7237 24 14.9854V11.9977C23.9951 11.2593 23.3946 10.6589 22.6563 10.6589ZM2.08203 2.88198H17.3109C17.6013 2.88198 17.8425 3.11824 17.8425 3.40864L17.8376 4.68838H2.08203C1.58491 4.68838 1.1813 4.28477 1.1813 3.78764C1.1813 3.29051 1.58491 2.88198 2.08203 2.88198ZM20.904 19.7548C20.904 20.503 20.2937 21.1133 19.5455 21.1133H1.70796C1.41756 21.1133 1.17637 20.8771 1.17637 20.5817V5.66295C1.45201 5.79585 1.75718 5.86968 2.08203 5.86968H19.5455C20.2937 5.86968 20.904 6.48001 20.904 7.22817V10.6589H16.8728C16.1345 10.6589 15.534 11.2593 15.534 11.9977V14.9854C15.534 15.7237 16.1345 16.3242 16.8728 16.3242H20.904V19.7548ZM22.8138 14.9854C22.8138 15.0739 22.7449 15.1429 22.6563 15.1429H16.8778C16.7892 15.1429 16.7203 15.0739 16.7203 14.9854V11.9977C16.7203 11.914 16.7892 11.8401 16.8778 11.8401H22.6563C22.74 11.8401 22.8138 11.9091 22.8138 11.9977V14.9854Z" fill="#323A5D" fill-opacity="0.5"/>
</svg>
