<svg width="60" height="60" viewBox="0 0 60 60" fill="none" xmlns="http://www.w3.org/2000/svg">
<rect width="60" height="60" rx="20" fill="white"/>
<path d="M41.0253 47H18.9744C17.7587 47 16.7732 46.0145 16.7732 44.7988V15.2012C16.7732 13.9855 17.7587 13 18.9744 13H41.0253C42.241 13 43.2265 13.9855 43.2265 15.2012V44.7988C43.2265 46.0145 42.241 47 41.0253 47Z" fill="#F89D4B"/>
<path d="M41.0253 13H18.9744C17.7587 13 16.7732 13.9855 16.7732 15.2012V24.8872H43.2265V15.2012C43.2265 13.9855 42.241 13 41.0253 13Z" fill="#F89D4B"/>
<path d="M25.0286 32.7195H20.0569V28.157C20.0569 27.5806 20.5242 27.1133 21.1006 27.1133H25.0286V32.7195Z" fill="white"/>
<path d="M30 27.1135H25.0283V32.7195H30V27.1135Z" fill="white"/>
<path d="M34.9717 27.1135H30V32.7195H34.9717V27.1135Z" fill="white"/>
<path d="M25.0283 32.7195H20.0566V38.3255H25.0283V32.7195Z" fill="white"/>
<path d="M30 32.7195H25.0283V38.3255H30V32.7195Z" fill="white"/>
<path d="M34.9717 32.7195H30V38.3255H34.9717V32.7195Z" fill="white"/>
<path d="M25.0286 43.9322H21.1006C20.5242 43.9322 20.0569 43.4649 20.0569 42.8885V38.3259H25.0286V43.9322Z" fill="white"/>
<path d="M30 38.3262H25.0283V43.9322H30V38.3262Z" fill="white"/>
<path d="M34.9717 38.3262H30V43.9322H34.9717V38.3262Z" fill="white"/>
<path opacity="0.1" d="M30 27.1135H25.0283V32.7195H30V27.1135Z" fill="black"/>
<path opacity="0.1" d="M25.0283 32.7192H20.0566V38.3253H25.0283V32.7192Z" fill="black"/>
<path opacity="0.1" d="M34.9717 32.7192H30V38.3253H34.9717V32.7192Z" fill="black"/>
<path opacity="0.1" d="M30 38.3262H25.0283V43.9322H30V38.3262Z" fill="black"/>
<path d="M34.9714 32.7192H39.9431V42.8881C39.9431 43.4645 39.4758 43.9318 38.8994 43.9318H34.9714V32.7192Z" fill="#F89D4B"/>
<path d="M38.277 39.6179H36.6382C36.3631 39.6179 36.1401 39.3949 36.1401 39.1199C36.1401 38.8448 36.3631 38.6218 36.6382 38.6218H38.277C38.552 38.6218 38.775 38.8448 38.775 39.1199C38.775 39.3949 38.552 39.6179 38.277 39.6179Z" fill="white"/>
<path d="M38.277 38.03H36.6382C36.3631 38.03 36.1401 37.807 36.1401 37.532C36.1401 37.2569 36.3631 37.0339 36.6382 37.0339H38.277C38.552 37.0339 38.775 37.2569 38.775 37.532C38.775 37.807 38.552 38.03 38.277 38.03Z" fill="white"/>
<path d="M34.9714 32.7195H39.9431V28.157C39.9431 27.5806 39.4758 27.1133 38.8994 27.1133H34.9714V32.7195Z" fill="#F89D4B"/>
<path opacity="0.1" d="M34.9714 32.7195H39.9431V28.157C39.9431 27.5806 39.4758 27.1133 38.8994 27.1133H34.9714V32.7195Z" fill="black"/>
<path d="M39.1717 22.6611H20.8289C20.4025 22.6611 20.0569 22.3155 20.0569 21.8891V16.9407C20.0569 16.5143 20.4025 16.1687 20.8289 16.1687H39.1717C39.598 16.1687 39.9437 16.5143 39.9437 16.9407V21.8891C39.9437 22.3155 39.598 22.6611 39.1717 22.6611Z" fill="white"/>
<path d="M24.8303 19.4882C24.5553 19.4882 24.3323 19.2652 24.3323 18.9901V18.4202C24.3323 18.1451 24.5553 17.9221 24.8303 17.9221C25.1054 17.9221 25.3284 18.1451 25.3284 18.4202V18.9901C25.3284 19.2652 25.1054 19.4882 24.8303 19.4882Z" fill="#394049"/>
<path d="M35.1687 19.4882C34.8936 19.4882 34.6707 19.2652 34.6707 18.9901V18.4202C34.6707 18.1451 34.8936 17.9221 35.1687 17.9221C35.4438 17.9221 35.6667 18.1451 35.6667 18.4202V18.9901C35.6667 19.2652 35.4438 19.4882 35.1687 19.4882Z" fill="#394049"/>
<path d="M29.9993 20.7475C29.3446 20.7475 28.7511 20.3602 28.4874 19.7608C28.3766 19.509 28.4909 19.2151 28.7426 19.1044C28.9944 18.9935 29.2883 19.1079 29.3991 19.3596C29.5038 19.5976 29.7393 19.7514 29.9992 19.7514C30.2591 19.7514 30.4947 19.5976 30.5994 19.3597C30.7103 19.1079 31.0042 18.9937 31.2559 19.1044C31.5077 19.2153 31.622 19.5092 31.5112 19.7609C31.2474 20.3602 30.6539 20.7475 29.9993 20.7475Z" fill="#394049"/>
<path opacity="0.1" d="M41.0251 13H39.0552C40.2709 13 41.2564 13.9855 41.2564 15.2012V44.7988C41.2564 46.0145 40.2709 47 39.0552 47H41.0251C42.2408 47 43.2264 46.0145 43.2264 44.7988V15.2012C43.2263 13.9855 42.2408 13 41.0251 13Z" fill="black"/>
<path opacity="0.1" d="M38.9001 27.1133H37.5554C38.1318 27.1133 38.5991 27.5806 38.5991 28.157V42.8884C38.5991 43.4648 38.1318 43.9321 37.5554 43.9321H38.9001C39.4766 43.9321 39.9439 43.4648 39.9439 42.8884V28.1571C39.9439 27.5806 39.4766 27.1133 38.9001 27.1133Z" fill="black"/>
</svg>
