<svg width="90" height="90" viewBox="0 0 90 90" fill="none" xmlns="http://www.w3.org/2000/svg">
<g filter="url(#filter0_d)">
<rect x="15" y="9" width="60" height="60" rx="20" fill="white"/>
</g>
<path d="M55.5627 34.8344C55.4419 34.8346 55.3247 34.7933 55.2306 34.7176C53.3768 33.2734 51.0613 32.5524 48.7154 32.6887C48.6452 32.6982 48.5739 32.6936 48.5055 32.6752C48.4372 32.6567 48.3732 32.6248 48.3174 32.5812C48.2616 32.5377 48.215 32.4835 48.1804 32.4217C48.1459 32.3599 48.124 32.2919 48.1161 32.2215C48.1082 32.1512 48.1145 32.08 48.1345 32.0121C48.1545 31.9442 48.1879 31.8809 48.2327 31.8261C48.2775 31.7713 48.3328 31.726 48.3953 31.6929C48.4579 31.6597 48.5264 31.6394 48.5969 31.6331C51.2244 31.4565 53.8242 32.2602 55.8936 33.8888C55.9793 33.9576 56.0416 34.0512 56.0719 34.1569C56.1022 34.2625 56.0989 34.375 56.0626 34.4787C56.0263 34.5824 55.9587 34.6723 55.8692 34.736C55.7796 34.7997 55.6726 34.8341 55.5627 34.8344V34.8344Z" fill="#F27E7C"/>
<path opacity="0.15" d="M55.5627 34.8344C55.4419 34.8346 55.3247 34.7933 55.2306 34.7176C53.3768 33.2734 51.0613 32.5524 48.7154 32.6887C48.6452 32.6982 48.5739 32.6936 48.5055 32.6752C48.4372 32.6567 48.3732 32.6248 48.3174 32.5812C48.2616 32.5377 48.215 32.4835 48.1804 32.4217C48.1459 32.3599 48.124 32.2919 48.1161 32.2215C48.1082 32.1512 48.1145 32.08 48.1345 32.0121C48.1545 31.9442 48.1879 31.8809 48.2327 31.8261C48.2775 31.7713 48.3328 31.726 48.3953 31.6929C48.4579 31.6597 48.5264 31.6394 48.5969 31.6331C51.2244 31.4565 53.8242 32.2602 55.8936 33.8888C55.9793 33.9576 56.0416 34.0512 56.0719 34.1569C56.1022 34.2625 56.0989 34.375 56.0626 34.4787C56.0263 34.5824 55.9587 34.6723 55.8692 34.736C55.7796 34.7997 55.6726 34.8341 55.5627 34.8344V34.8344Z" fill="#000064"/>
<path d="M49.1875 31.5795C49.1875 31.5795 58.75 39 58.75 49.625C58.75 51.034 58.1903 52.3852 57.194 53.3815C56.1977 54.3778 54.8465 54.9375 53.4375 54.9375H38.5625C37.1535 54.9375 35.8023 54.3778 34.806 53.3815C33.8097 52.3852 33.25 51.034 33.25 49.625C33.25 39 42.8125 31.5795 42.8125 31.5795C42.8125 31.5795 36.4375 26.0279 36.4375 24.125C36.4375 22.2221 40.6875 25.1875 42.8125 25.1875C45.8236 25.1875 46.1774 23.0625 48.125 23.0625C50.0726 23.0625 50.2936 25.2194 53.4375 25.2194C54.6317 25.2194 52.375 28.4095 49.1875 31.5795Z" fill="#F89D4B"/>
<path d="M49.2884 32.1378C48.9468 32.1378 48.7152 32.1192 48.6292 32.1107H41.75C41.6091 32.1107 41.474 32.0547 41.3743 31.9551C41.2747 31.8555 41.2188 31.7203 41.2188 31.5795C41.2188 31.4386 41.2747 31.3034 41.3743 31.2038C41.474 31.1042 41.6091 31.0482 41.75 31.0482H48.6563C48.6754 31.0482 48.6956 31.0482 48.7147 31.0514C51.0595 31.1822 53.3728 30.4619 55.2289 29.0231C55.2833 28.9794 55.3458 28.9469 55.4128 28.9274C55.4798 28.9078 55.5499 28.9017 55.6193 28.9093C55.6886 28.9169 55.7558 28.9381 55.817 28.9716C55.8782 29.0052 55.9321 29.0505 55.9758 29.1049C56.0195 29.1593 56.052 29.2218 56.0715 29.2888C56.0911 29.3558 56.0972 29.4259 56.0896 29.4953C56.082 29.5647 56.0608 29.6318 56.0273 29.693C55.9937 29.7542 55.9484 29.8082 55.894 29.8518C54.0104 31.3323 51.6842 32.1373 49.2884 32.1378Z" fill="#F27E7C"/>
<g clip-path="url(#clip0)">
<path d="M51.9015 44.9843H50.161V43.3116H51.9015C52.163 43.3116 52.375 43.0998 52.375 42.8382C52.375 42.5766 52.163 42.3647 51.9015 42.3647H50.161V40.0437C50.161 39.7049 50.0941 39.4563 49.9621 39.3048C49.8367 39.1607 49.6718 39.0936 49.4434 39.0936C49.2255 39.0936 49.0668 39.1602 48.9437 39.3034C48.8133 39.4551 48.7471 39.7042 48.7471 40.0439V42.365H45.4732L44.0812 40.2586C43.9621 40.0706 43.85 39.8945 43.7413 39.7254C43.6433 39.5732 43.5478 39.4493 43.4576 39.3567C43.3777 39.2748 43.2867 39.2114 43.1802 39.1627C43.0797 39.1168 42.952 39.0938 42.8009 39.0938C42.6082 39.0938 42.4333 39.1466 42.2658 39.2551C42.1 39.3623 41.9854 39.495 41.9154 39.6606C41.854 39.818 41.8215 40.0592 41.8215 40.3705V42.3648H40.0983C39.8369 42.3649 39.625 42.5768 39.625 42.8384C39.625 43.0999 39.8369 43.3117 40.0984 43.3117H41.8215V44.9846H40.0984C39.8369 44.9846 39.625 45.1964 39.625 45.4581C39.625 45.7196 39.8369 45.9313 40.0984 45.9313H41.8215V48.5812C41.8215 48.91 41.8906 49.1562 42.0274 49.3126C42.1576 49.4617 42.3226 49.531 42.5466 49.531C42.7628 49.531 42.9265 49.4614 43.0623 49.312C43.2013 49.1589 43.2716 48.9129 43.2716 48.5813V45.9313H46.2341L47.8373 48.3896C47.9487 48.5521 48.0638 48.7161 48.1786 48.8769C48.2822 49.0214 48.3952 49.1486 48.5144 49.2549C48.6218 49.351 48.7369 49.4215 48.8565 49.4645C48.9797 49.5088 49.1236 49.5313 49.2834 49.5313C49.7169 49.5313 50.161 49.3986 50.161 48.4142V45.9313H51.9014C52.163 45.9313 52.3749 45.7193 52.3749 45.4578C52.375 45.1963 52.163 44.9843 51.9015 44.9843ZM48.7471 43.3115V44.9843H47.2045L46.0992 43.3115H48.7471ZM43.2716 41.3895L43.9078 42.3647H43.2716V41.3895ZM43.2716 44.9843V43.3116H44.5255L45.6165 44.9843H43.2716ZM48.7471 47.319L47.8303 45.9313H48.7471V47.319Z" fill="white"/>
</g>
<defs>
<filter id="filter0_d" x="0" y="0" width="90" height="90" filterUnits="userSpaceOnUse" color-interpolation-filters="sRGB">
<feFlood flood-opacity="0" result="BackgroundImageFix"/>
<feColorMatrix in="SourceAlpha" type="matrix" values="0 0 0 0 0 0 0 0 0 0 0 0 0 0 0 0 0 0 127 0"/>
<feOffset dy="6"/>
<feGaussianBlur stdDeviation="7.5"/>
<feColorMatrix type="matrix" values="0 0 0 0 0.698039 0 0 0 0 0.666667 0 0 0 0 0.760784 0 0 0 0.1 0"/>
<feBlend mode="normal" in2="BackgroundImageFix" result="effect1_dropShadow"/>
<feBlend mode="normal" in="SourceGraphic" in2="effect1_dropShadow" result="shape"/>
</filter>
<clipPath id="clip0">
<rect width="12.75" height="12.75" fill="white" transform="translate(39.625 37.9375)"/>
</clipPath>
</defs>
</svg>
