<svg width="90" height="90" viewBox="0 0 90 90" fill="none" xmlns="http://www.w3.org/2000/svg">
<g filter="url(#filter0_d)">
<rect x="15" y="9" width="60" height="60" rx="20" fill="white"/>
</g>
<path d="M46 51.75C53.0416 51.75 58.75 46.0416 58.75 39C58.75 31.9584 53.0416 26.25 46 26.25C38.9584 26.25 33.25 31.9584 33.25 39C33.25 46.0416 38.9584 51.75 46 51.75Z" fill="#F89D4B"/>
<path d="M46 44.8438C49.2274 44.8438 51.8438 42.2274 51.8438 39C51.8438 35.7726 49.2274 33.1562 46 33.1562C42.7726 33.1562 40.1562 35.7726 40.1562 39C40.1562 42.2274 42.7726 44.8438 46 44.8438Z" fill="white"/>
<path d="M61.9375 39H30.0625M46 23.0625V54.9375V23.0625Z" stroke="#2E4369" stroke-width="2" stroke-linecap="round" stroke-linejoin="round"/>
<path d="M46 51.75C53.0416 51.75 58.75 46.0416 58.75 39C58.75 31.9584 53.0416 26.25 46 26.25C38.9584 26.25 33.25 31.9584 33.25 39C33.25 46.0416 38.9584 51.75 46 51.75Z" stroke="#2E4369" stroke-width="2" stroke-linecap="round" stroke-linejoin="round"/>
<path d="M46 44.8438C49.2274 44.8438 51.8438 42.2274 51.8438 39C51.8438 35.7726 49.2274 33.1562 46 33.1562C42.7726 33.1562 40.1562 35.7726 40.1562 39C40.1562 42.2274 42.7726 44.8438 46 44.8438Z" stroke="#2E4369" stroke-width="2" stroke-linecap="round" stroke-linejoin="round"/>
<defs>
<filter id="filter0_d" x="0" y="0" width="90" height="90" filterUnits="userSpaceOnUse" color-interpolation-filters="sRGB">
<feFlood flood-opacity="0" result="BackgroundImageFix"/>
<feColorMatrix in="SourceAlpha" type="matrix" values="0 0 0 0 0 0 0 0 0 0 0 0 0 0 0 0 0 0 127 0"/>
<feOffset dy="6"/>
<feGaussianBlur stdDeviation="7.5"/>
<feColorMatrix type="matrix" values="0 0 0 0 0.698039 0 0 0 0 0.666667 0 0 0 0 0.760784 0 0 0 0.1 0"/>
<feBlend mode="normal" in2="BackgroundImageFix" result="effect1_dropShadow"/>
<feBlend mode="normal" in="SourceGraphic" in2="effect1_dropShadow" result="shape"/>
</filter>
</defs>
</svg>
