<svg width="90" height="90" viewBox="0 0 90 90" fill="none" xmlns="http://www.w3.org/2000/svg">
<g filter="url(#filter0_d)">
<rect x="15" y="9" width="60" height="60" rx="20" fill="white"/>
</g>
<path d="M38.6308 23.0625C43.9146 23.0625 48.1971 24.1377 48.1971 25.6258C48.1971 25.7012 48.1785 25.7188 48.1572 25.7188H48.1875V41.2068C44.4783 41.5787 41.8125 42.5705 41.8125 43.7425V49.4715C40.8164 49.5708 39.7459 49.6239 38.6282 49.6245C33.3438 49.6245 29.0657 48.4175 29.0657 46.9294V25.7554C29.0625 24.2679 33.3465 23.0625 38.6308 23.0625Z" fill="#F89D4B"/>
<path opacity="0.1" d="M38.6308 23.0625C43.9146 23.0625 48.1971 24.1377 48.1971 25.6258C48.1971 25.7012 48.1785 25.7188 48.1572 25.7188H48.1875V41.2068C44.4783 41.5787 41.8125 42.5705 41.8125 43.7425V49.4715C40.8164 49.5708 39.7459 49.6239 38.6282 49.6245C33.3438 49.6245 29.0657 48.4175 29.0657 46.9294V25.7554C29.0625 24.2679 33.3465 23.0625 38.6308 23.0625Z" fill="#000064"/>
<path opacity="0.1" d="M38.6206 32.0896C43.9023 32.0896 48.1831 30.8821 48.1831 29.394V30.4565C48.1831 31.944 43.9023 33.1516 38.6206 33.1516C33.3389 33.1516 29.0581 31.944 29.0581 30.4565V29.394C29.0565 30.8826 33.3395 32.0891 38.6206 32.0896V32.0896ZM38.6206 36.3396C43.9023 36.3396 48.1831 35.1321 48.1831 33.644V34.7065C48.1831 36.194 43.9012 37.401 38.6206 37.401C33.34 37.401 29.0581 36.1946 29.0581 34.7065V33.644C29.056 35.1321 33.3395 36.3396 38.6206 36.3396V36.3396ZM38.6211 40.5896C43.9023 40.5896 48.1836 39.3821 48.1836 37.894V38.9565C48.1836 40.444 43.9023 41.6516 38.6211 41.6516C33.34 41.6516 29.0586 40.444 29.0586 38.9565V37.894C29.056 39.3821 33.3394 40.5891 38.6211 40.5896ZM38.6211 44.8396C43.9023 44.8396 48.1836 43.6326 48.1836 42.1446V43.2071C48.1836 44.6946 43.9018 45.9021 38.6211 45.9021C33.3405 45.9021 29.0586 44.6946 29.0586 43.2071V42.1446C29.056 43.6326 33.3394 44.8391 38.6211 44.8396Z" fill="#000064"/>
<path d="M51.3824 41.0486C56.6636 41.0486 60.9449 42.1642 60.9449 43.6491C60.9449 43.725 60.9285 43.7803 60.9072 43.7803H60.9375V52.2452C60.9375 53.7322 56.6588 54.9376 51.375 54.9376C46.0912 54.9376 41.8125 53.7306 41.8125 52.2436V43.742C41.8125 42.2545 46.1008 41.0486 51.3824 41.0486V41.0486Z" fill="#F89D4B"/>
<path opacity="0.1" d="M51.375 50.1563C56.6562 50.1563 60.9375 48.9487 60.9375 47.4607V48.5232C60.9375 50.0096 56.6572 51.2188 51.375 51.2188C46.0928 51.2188 41.8125 50.0112 41.8125 48.5237V47.4612C41.8125 48.9471 46.0949 50.1563 51.375 50.1563Z" fill="#000064"/>
<path opacity="0.3" d="M38.62 28.4498C43.9035 28.4498 48.1867 27.2434 48.1867 25.7553C48.1867 24.2672 43.9035 23.0608 38.62 23.0608C33.3364 23.0608 29.0532 24.2672 29.0532 25.7553C29.0532 27.2434 33.3364 28.4498 38.62 28.4498Z" fill="white"/>
<path opacity="0.3" d="M51.3756 46.4369C56.6574 46.4369 60.9391 45.2305 60.9391 43.7424C60.9391 42.2542 56.6574 41.0479 51.3756 41.0479C46.0938 41.0479 41.812 42.2542 41.812 43.7424C41.812 45.2305 46.0938 46.4369 51.3756 46.4369Z" fill="white"/>
<path opacity="0.1" d="M41.8125 43.7505V52.2452C41.8125 53.7321 46.0949 54.9376 51.375 54.9376V46.4376C46.1045 46.4376 41.8306 45.2343 41.8125 43.7505Z" fill="#000064"/>
<path opacity="0.1" d="M38.6286 49.625C39.7442 49.625 40.8168 49.5719 41.8129 49.472V43.7419C41.8159 43.6082 41.8507 43.4771 41.9144 43.3594L41.9106 43.3557L35.7651 49.5012C36.6688 49.5814 37.6309 49.625 38.6286 49.625V49.625Z" fill="#000064"/>
<defs>
<filter id="filter0_d" x="0" y="0" width="90" height="90" filterUnits="userSpaceOnUse" color-interpolation-filters="sRGB">
<feFlood flood-opacity="0" result="BackgroundImageFix"/>
<feColorMatrix in="SourceAlpha" type="matrix" values="0 0 0 0 0 0 0 0 0 0 0 0 0 0 0 0 0 0 127 0"/>
<feOffset dy="6"/>
<feGaussianBlur stdDeviation="7.5"/>
<feColorMatrix type="matrix" values="0 0 0 0 0.698039 0 0 0 0 0.666667 0 0 0 0 0.760784 0 0 0 0.1 0"/>
<feBlend mode="normal" in2="BackgroundImageFix" result="effect1_dropShadow"/>
<feBlend mode="normal" in="SourceGraphic" in2="effect1_dropShadow" result="shape"/>
</filter>
</defs>
</svg>
